<?xml version="1.0" standalone="no"?>
<!DOCTYPE svg PUBLIC "-//W3C//DTD SVG 1.1//EN" "http://www.w3.org/Graphics/SVG/1.1/DTD/svg11.dtd" >
<svg xmlns="http://www.w3.org/2000/svg">
<metadata>
This is a custom SVG webfont generated by Font Squirrel.
Copyright   : 2003 Alex Scholing published by FontShop International for the FontFont library
</metadata>
<defs>
<font id="RoiceBlackSCRegular" horiz-adv-x="1064" >
<font-face units-per-em="2048" ascent="1638" descent="-410" />
<missing-glyph horiz-adv-x="389" />
<glyph unicode=" "  horiz-adv-x="389" />
<glyph unicode="&#x09;" horiz-adv-x="389" />
<glyph unicode="&#xa0;" horiz-adv-x="389" />
<glyph unicode="!" horiz-adv-x="657" d="M137 899q0 59 42 100t100 41h57q59 0 101 -42t42 -99v-467q0 -59 -41 -100t-100 -41t-100 41t-41 100v352q-60 45 -60 115zM166 -14q0 51 33 90l57 67q45 51 109 52q59 0 101 -42t42 -100q0 -53 -33 -92l-57 -67q-45 -51 -109 -52q-59 0 -101 42.5t-42 101.5z" />
<glyph unicode="&#x22;" horiz-adv-x="1093" d="M143 786l37 474q4 55 45 93t97 38q63 0 104 -46.5t37 -107.5l-37 -473q-4 -55 -45 -93t-96 -38q-61 0 -103.5 46t-38.5 107zM631 786l37 474q4 55 45 93t96 38q61 0 103 -46.5t38 -107.5l-37 -473q-4 -55 -46 -93t-95 -38q-63 0 -104 46t-37 107z" />
<glyph unicode="#" horiz-adv-x="1361" d="M72 317.5q0 59.5 42 100.5t99 41h113l30 299h-82q-59 0 -100 42t-41 101q0 57 42 99t99 42h113l12 119q6 55 47 91t95 36q63 0 106 -46t35 -109l-10 -91h129l14 119q6 55 46 91t93 36q63 0 106.5 -46t35.5 -109l-11 -91h84q59 0 100.5 -42t41.5 -99q0 -59 -41 -101 t-101 -42h-112l-31 -299h82q59 0 100 -41t41 -100.5t-41 -100.5t-100 -41h-113l-12 -121q-6 -53 -47 -90t-94 -37q-63 0 -106.5 47.5t-35.5 110.5l11 90h-129l-15 -121q-6 -53 -46 -90t-93 -37q-63 0 -106 47.5t-35 110.5l10 90h-84q-57 0 -99 41t-42 100.5zM565 418h213 l39 381h-213z" />
<glyph unicode="$" horiz-adv-x="1347" d="M256 639q0 135 81 230.5t214 125.5v187q0 59 42 100t99 41q59 0 101.5 -42t42.5 -99v-185q72 -10 133 -28q45 -14 72.5 -55.5t23.5 -90.5l-4 -57q-4 -55 -45 -92t-96 -37q-92 0 -129 80q-82 8 -123 8q-129 0 -129 -86q0 -29 8 -37t59 -29l236 -90q35 -12 56.5 -22t62 -39 t65.5 -60.5t45.5 -87t20.5 -122.5q0 -117 -61.5 -206t-170.5 -130v-158q0 -59 -41 -100t-100 -41q-57 0 -99 42t-42 101v129q-104 10 -172 33q-45 14 -72 55t-23 90l4 58q4 55 45 93t97 38q92 0 129 -84q49 -6 94 -6q129 0 129 86q0 31 -9 40t-59 27l-235 88 q-33 12 -56.5 22.5t-63.5 39t-65.5 60.5t-45 87t-19.5 123z" />
<glyph unicode="%" horiz-adv-x="1882" d="M123 772q0 139 99.5 238.5t238.5 99.5t238.5 -99.5t99.5 -238.5t-99.5 -238.5t-238.5 -99.5t-238.5 99.5t-99.5 238.5zM365 772q0 -39 28.5 -67.5t67.5 -28.5t67.5 28.5t28.5 67.5t-28.5 67.5t-67.5 28.5t-67.5 -28.5t-28.5 -67.5zM410 -133q0 41 20 74l770 1255 q41 66 121 66q59 0 100 -41t41 -101q0 -41 -20 -73l-770 -1254q-41 -68 -121 -67q-59 0 -100 41t-41 100zM1063 196.5q0 139.5 99.5 239t238.5 99.5t238.5 -99.5t99.5 -239t-99.5 -238.5t-238.5 -99t-238.5 99t-99.5 238.5zM1305 197q0 -41 27.5 -69t68.5 -28q39 0 66.5 29 t27.5 68t-27.5 67.5t-66.5 28.5q-41 0 -68.5 -27.5t-27.5 -68.5z" />
<glyph unicode="&#x26;" horiz-adv-x="1583" d="M76 197q0 133 84 225q-66 98 -66 213q0 147 104.5 250.5t252.5 103.5h923q59 0 101.5 -42t42.5 -99t-42 -99t-100 -42h-96v-478q0 -57 -42 -99t-101.5 -42t-100.5 42t-41 99v478h-542q-29 0 -52.5 -21.5t-23.5 -50.5q0 -35 22.5 -64.5t44.5 -29.5h195q59 0 101 -42 t42 -100q0 -59 -41 -100t-100 -41h-197q-86 0 -86 -61q0 -33 24 -56.5t58 -23.5h172q59 0 101.5 -42t42.5 -101.5t-42 -100.5t-100 -41h-172q-152 0 -259 106.5t-107 258.5z" />
<glyph unicode="'" horiz-adv-x="667" d="M195 786l36 474q4 55 45 93t97 38q63 0 104 -46.5t37 -107.5l-37 -473q-4 -55 -45 -93t-96 -38q-61 0 -103 46t-38 107z" />
<glyph unicode="(" horiz-adv-x="743" d="M123 457q0 330 203 608q-4 25 -4 35q0 74 59 114.5t127 18.5l57 -19q43 -14 70 -51t27 -84q0 -55 -37 -94q-219 -238 -219 -528q0 -289 215 -523q37 -41 36 -96q0 -45 -26.5 -81t-69.5 -52l-59 -20q-70 -23 -128.5 20t-58.5 115q0 16 7 35q-199 276 -199 602z" />
<glyph unicode=")" horiz-adv-x="743" d="M82 1079q0 47 26.5 84t69.5 51l58 19q70 23 128 -19.5t58 -113.5q0 -23 -4 -35q203 -279 203 -608q0 -324 -197 -602q4 -25 4 -35q0 -74 -59.5 -116t-126.5 -19l-58 20q-45 14 -71.5 51t-26.5 82q0 53 37 96q215 233 215 523q0 291 -219 528q-37 39 -37 94z" />
<glyph unicode="*" horiz-adv-x="1695" d="M215 860q0 72 58.5 114t125.5 19l306 -98v317q0 57 40.5 99.5t100 42.5t101.5 -41t42 -101v-319l305 100q68 23 127.5 -19t59.5 -116q0 -45 -28 -83t-71 -52l-307 -98l189 -260q29 -39 28 -84q0 -57 -42 -99.5t-101 -42.5q-72 0 -115 60l-186 256l-186 -256 q-43 -59 -115 -60q-59 0 -100 41t-41 101q0 49 26 84l189 260l-308 100q-43 14 -70.5 52t-27.5 83z" />
<glyph unicode="+" horiz-adv-x="1255" d="M154 393.5q0 57.5 42 99.5t99 42h190v251q0 57 42 99.5t100 42.5q59 0 101 -41t42 -101v-251h191q59 0 100 -42t41 -99.5t-41 -99.5t-100 -42h-191v-252q0 -59 -42 -100t-101 -41q-57 0 -99.5 42t-42.5 99v252h-190q-57 0 -99 42t-42 99.5z" />
<glyph unicode="," horiz-adv-x="694" d="M113 -254q0 41 22 76l115 182l-27 19q-57 39 -57 114q0 59 42 100.5t99 41.5q49 0 84 -27l133 -98q57 -45 58 -115q0 -43 -21 -76l-188 -293q-41 -66 -119 -65q-59 0 -100 41t-41 100z" />
<glyph unicode="-" horiz-adv-x="933" d="M127 494q10 41 43 69.5t76 34.5l311 39q86 10 135 -64l49 -71q37 -51 19 -115q-16 -57 -66.5 -86t-107.5 -14q-51 14 -82 59l-223 -29q-25 -2 -54 5q-57 14 -86.5 65.5t-13.5 106.5z" />
<glyph unicode="." horiz-adv-x="579" d="M113 -12q0 55 37 98l47 57q43 55 116 56q63 0 108.5 -45t45.5 -109q0 -57 -35 -98l-49 -58q-49 -55 -117 -55q-63 0 -108 45.5t-45 108.5z" />
<glyph unicode="/" horiz-adv-x="952" d="M92 -168q0 29 12 57l578 1297q16 39 52 61.5t77 22.5q59 0 100 -42t41 -102q0 -27 -12 -57l-578 -1294q-39 -84 -129 -84q-57 0 -99 42t-42 99z" />
<glyph unicode="0" d="M104 276v338q0 180 125 314.5t305.5 134.5t304.5 -125t124 -307v-336q0 -182 -124 -316.5t-304.5 -134.5t-305.5 126t-125 306zM387 276q0 -63 42 -106t106 -43q61 0 103 52t42 116v336q0 63 -41 106t-104 43q-61 0 -104.5 -51t-43.5 -115v-338z" />
<glyph unicode="1" d="M113 856q0 51 33.5 91t84.5 48l320 54q66 10 116 -32t50 -108v-768h96q59 0 100 -42t41 -99t-41 -99t-100 -42h-491q-59 0 -100.5 42t-41.5 99t41 99t101 42h110v600l-156 -24q-63 -10 -113 31.5t-50 107.5z" />
<glyph unicode="2" d="M119 868q-4 49 23.5 90t74.5 58q147 47 291 47q182 0 310 -89t128 -263q0 -125 -48 -214t-189 -143l-250 -94q-43 -16 -49 -119h383q59 0 101 -42t42 -99t-42 -99t-101 -42h-529q-59 0 -100 42t-41 99v27q0 92 6 153.5t27.5 135t72 126t129.5 82.5l250 97l49 26q6 6 7 64 q0 70 -156 69q-35 0 -113 -12q-37 -86 -131 -86q-55 0 -94 37t-45 92z" />
<glyph unicode="3" d="M47 877q0 49 32 89t81 50q246 47 311 47q225 0 333.5 -112.5t108.5 -272.5q0 -152 -100 -264q113 -102 113 -267q0 -199 -127 -304t-330 -105q-109 0 -293 37q-51 8 -83 48t-32 91q0 68 51.5 110t116.5 29q164 -31 240 -30q61 0 100 11t53.5 33.5t17.5 38t3 41.5 q0 109 -211 109q-59 0 -100 42t-41 99.5t41 99.5t100 42q74 0 136.5 34.5t62.5 104.5q0 23 -3 36t-16.5 30.5t-49.5 26.5t-91 9q-61 0 -254 -41q-66 -14 -118 29t-52 109z" />
<glyph unicode="4" d="M37 233l211 842q12 47 51 77t86 30q70 0 112 -55.5t25 -120.5l-166 -666h240v299q0 57 42 99t99.5 42t99.5 -42t42 -99v-299q55 -4 93 -45t38 -96.5t-38 -96.5t-93 -45v-174q0 -59 -42 -100t-99.5 -41t-99.5 41t-42 100v174h-422q-70 0 -111.5 55t-25.5 121z" />
<glyph unicode="5" d="M117 -90q0 70 54 111.5t120 25.5q113 -27 176 -27q72 0 116 12.5t60 39t20.5 44t4.5 50.5q0 47 -9.5 67.5t-55.5 41t-152 40.5l-203 39q-55 10 -89 56.5t-26 101.5l57 416q8 53 47 88t93 35h444q57 0 99 -42t42 -101.5t-42 -100.5t-99 -41h-319l-23 -158l74 -14 q72 -14 112.5 -24.5t112.5 -42t113 -72.5t73.5 -117t32.5 -172q0 -211 -133 -319.5t-350 -108.5q-127 0 -242 33q-49 12 -78.5 51t-29.5 88z" />
<glyph unicode="6" d="M113 324q0 274 88 449t309 351l10 9q45 39 105 34l57 -4q55 -4 92 -45t37 -96q0 -61 -45 -103t-107 -38q-104 -92 -155 -164q16 2 49 2q197 0 322.5 -118t125.5 -312q-2 -205 -123.5 -325t-326.5 -120q-197 0 -317.5 132.5t-120.5 347.5zM397 324q0 -68 17.5 -113 t47.5 -60.5t47 -19.5t42 -4q168 0 168 162q0 147 -166 147q-53 0 -154 -39q-2 -24 -2 -73z" />
<glyph unicode="7" d="M63 850v57q0 59 42 100.5t100 41.5h586q59 0 101 -42t42 -100v-55q0 -23 -10 -49l-131 -359l30 -2q55 -2 92 -44t37 -97q0 -63 -46 -104t-107 -37l-109 8l-123 -334q-14 -43 -52 -68.5t-81 -25.5q-74 0 -116 61.5t-17 128.5l96 265l-57 4q-55 4 -92 46t-37 95 q0 63 46 105t108 36l135 -12l108 297h-289q-43 -57 -114 -57q-57 0 -99.5 41t-42.5 100z" />
<glyph unicode="8" d="M100 236q0 113 50.5 179t132.5 120q-156 111 -156 278q0 164 92 256q98 98 318 98q406 0 405 -354q0 -168 -156 -278q51 -33 85 -65t65 -94.5t31 -139.5q0 -182 -101 -283q-109 -109 -334 -109q-127 0 -217 35t-134 95.5t-62.5 124t-18.5 137.5zM362 236q0 -84 35 -107 t135 -23q115 0 148 33q25 25 25 97v8q0 14 -7 22q-6 10 -37.5 35t-74.5 52.5t-51 33.5q-47 -37 -89 -61q-6 -4 -23 -13.5t-23.5 -15.5t-17.5 -15.5t-15.5 -20.5t-4.5 -25zM389 805q0 -12 7 -23.5t20.5 -22.5t23 -17.5t26.5 -16.5t19 -10q8 -6 24.5 -16.5t25.5 -16.5 q12 8 41.5 25.5t50 33t37.5 31.5q14 16 14 41v23q0 16 -4 29.5t-14.5 20.5t-18.5 11t-24.5 6t-24.5 2h-29h-26q-61 0 -99 -8q-33 -6 -41 -25.5t-8 -58.5v-8z" />
<glyph unicode="9" d="M88 621q2 205 124 324.5t327 119.5q197 0 317.5 -132t120.5 -347q0 -274 -88 -449.5t-309 -351.5l-11 -8q-45 -39 -104 -35l-57 4q-55 4 -92 45t-37 96q0 61 45 103.5t106 38.5q104 92 156 164q-16 -2 -49 -3q-197 0 -323 118t-126 313zM371 621q0 -147 166 -148 q53 0 153 39q2 25 2 74q0 68 -17.5 112.5t-47 60t-47 19.5t-41.5 4q-168 1 -168 -161z" />
<glyph unicode=":" horiz-adv-x="579" d="M113 -12q0 55 37 98l47 57q43 55 116 56q63 0 108.5 -45t45.5 -109q0 -57 -35 -98l-49 -58q-49 -55 -117 -55q-63 0 -108 45.5t-45 108.5zM113 743q0 57 37 101l47 55q49 55 116 55q63 0 108.5 -45t45.5 -108q0 -57 -35 -99l-49 -57q-45 -55 -117 -55q-63 0 -108 45 t-45 108z" />
<glyph unicode=";" horiz-adv-x="694" d="M113 -254q0 41 22 76l115 182l-27 19q-57 39 -57 114q0 59 42 100.5t99 41.5q49 0 84 -27l133 -98q57 -45 58 -115q0 -43 -21 -76l-188 -293q-41 -66 -119 -65q-59 0 -100 41t-41 100zM158 743.5q0 63.5 35 100.5l49 55q49 55 116 55q63 0 108.5 -45t45.5 -108 q0 -55 -37 -99l-47 -57q-43 -55 -117 -55q-63 0 -108 45t-45 108.5z" />
<glyph unicode="&#x3c;" horiz-adv-x="1230" d="M143 393q0 82 70 121l659 395q33 18 72 19q59 0 101 -41t42 -101q0 -80 -69 -120l-457 -273l457 -272q70 -41 69 -121q0 -59 -41.5 -100t-101.5 -41q-39 0 -72 20l-659 393q-70 39 -70 121z" />
<glyph unicode="=" horiz-adv-x="1159" d="M133 147.5q0 57.5 42 99.5t99 42h611q57 0 99 -42t42 -99.5t-42 -99.5t-99 -42h-611q-57 0 -99 42t-42 99.5zM133 606.5q0 57.5 42 99.5t99 42h611q57 0 99 -42t42 -99.5t-42 -99.5t-99 -42h-611q-57 0 -99 42t-42 99.5z" />
<glyph unicode="&#x3e;" horiz-adv-x="1210" d="M143 0q0 80 70 121l455 272l-455 273q-70 41 -70 120q0 57 41 99.5t101 42.5q43 0 73 -19l660 -395q70 -39 69.5 -121t-69.5 -121l-660 -393q-35 -20 -73 -20q-59 0 -100.5 42t-41.5 99z" />
<glyph unicode="?" horiz-adv-x="718" d="M14 897q0 90 82 129q90 39 228 39q145 0 257.5 -94t112.5 -254q0 -207 -215 -305q-8 -53 -48 -88t-93 -35q-47 0 -84 27.5t-51 70.5q-66 41 -66 119q0 59 42 100t100 41h30q72 27 86.5 38t14.5 32q0 66 -84 65q-33 0 -60.5 -4t-40.5 -8l-10 -2q-70 -31 -135.5 11 t-65.5 118zM168 -14q0 47 33 90l57 69q43 49 109 50q59 0 100 -42t41 -100h2q0 -47 -33 -90l-57 -69q-43 -49 -109 -50q-59 0 -101 42.5t-42 99.5z" />
<glyph unicode="@" horiz-adv-x="1853" d="M31 770q0 41 22 72q143 201 368.5 308t506.5 107q377 0 615.5 -264t238.5 -647q0 -221 -64.5 -389t-172 -262t-230.5 -139t-254 -45q-254 0 -417 159.5t-163 411.5q0 221 109 416q37 68 98 147q18 23 51 60.5t45 52.5q8 10 23.5 27.5t17.5 19.5q39 45 95 45q84 0 114 -78 l264 -661q25 -61 -12 -115.5t-102 -54.5q-84 0 -115 77l-18 48h-322q14 -150 104.5 -229t227.5 -79q223 0 348 157t125 431q0 279 -165 471.5t-441 192.5q-381 0 -611 -238q6 -20 7 -41q0 -51 -36 -87t-87 -36q-41 0 -80 29l-45 37q-45 39 -45 96zM774 313h176l-69 176 q-66 -90 -107 -176z" />
<glyph unicode="A" horiz-adv-x="1226" d="M51 -8q0 16 6 35l389 1005q37 90 134 90h57q43 0 80 -24.5t51 -63.5l401 -1007h-2q8 -16 9 -39q0 -51 -44.5 -89t-99.5 -38q-94 0 -131 88l-51 125h-473l-47 -125q-14 -41 -52 -64.5t-81 -23.5q-57 0 -101.5 40t-44.5 91zM442 328h338l-170 426z" />
<glyph unicode="B" horiz-adv-x="1214" d="M123 0q0 72 61 115v751q-61 43 -61 115q0 59 41 100t100 41h416q156 0 268.5 -107.5t112.5 -258.5q0 -121 -78 -228q119 -113 119 -268q0 -168 -120 -284.5t-294 -116.5h-420q-59 0 -102 42t-43 99zM453 131h231q57 0 101 36t44 93q0 53 -45 82t-100 29h-231v-240z M453 633h227q41 0 72.5 41t31.5 82h2q0 39 -30.5 66.5t-71.5 27.5h-231v-217z" />
<glyph unicode="C" horiz-adv-x="1138" d="M82 493.5q0 284.5 168 464t432 179.5q80 0 168 -13.5t115 -21.5q49 -16 77 -58q25 -36 26 -77q0 -6 -1 -13l-6 -57q-6 -55 -46 -92t-93 -37q-90 0 -127 78q-70 8 -109 8q-156 0 -238.5 -103.5t-82.5 -256.5q0 -166 82.5 -263.5t244.5 -97.5q98 0 180 25q24 7 46 6 q45 0 86 -28q59 -42 59 -113q0 -45 -27.5 -83t-70.5 -53q-156 -39 -269 -39q-283 0 -448.5 180.5t-165.5 465z" />
<glyph unicode="D" horiz-adv-x="1296" d="M123 0q0 72 61 115v751q-61 45 -61 113q-2 57 40 100t101 43h297q293 0 468 -165.5t175 -456.5q0 -285 -174 -463t-459 -178h-303q-59 0 -102 42t-43 99zM463 141h104q168 0 259.5 95.5t91.5 263.5h2q0 340 -355 340h-102v-699z" />
<glyph unicode="E" horiz-adv-x="1085" d="M207 489q-84 104 -84 252v7q0 176 116 281q118 108 306 108q123 0 319 -19q57 -4 95 -49q34 -41 35 -93q0 -6 -1 -11l-4 -58q-4 -55 -46 -92t-95 -37q-80 0 -121 68q-123 8 -180 8q-141 0 -141 -111q0 -37 8 -59t41.5 -39.5t99.5 -17.5h236q59 0 101 -42t42 -100 q0 -59 -41 -100t-100 -41h-236q-164 0 -164 -106.5t133 -106.5q113 0 285 14q6 0 11 1q55 0 97 -37q46 -41 46 -105q0 -53 -38 -94t-93 -45q-213 -16 -306 -17q-180 0 -299 108q-117 106 -116 278q0 155 94 255z" />
<glyph unicode="F" horiz-adv-x="1001" d="M113 981q0 59 42 100t99 41h584q59 0 101 -41t42 -100v-57q0 -59 -41 -101.5t-100 -42.5q-68 0 -113 60h-274v-297h301q59 0 101 -42t42 -100q0 -59 -42 -101t-99 -42h-301v-258q0 -57 -41 -99t-100.5 -42t-100.5 42t-41 99v866q-59 41 -59 115z" />
<glyph unicode="G" horiz-adv-x="1273" d="M92 502q0 279 172 457t449 178q53 0 117.5 -6.5t101.5 -12.5t41 -8q53 -10 86 -53q29 -38 29 -86q0 -6 -1 -13l-4 -57q-4 -55 -46 -92t-95 -37q-86 0 -125 76q-49 6 -102 6q-160 0 -250 -95t-90 -257q0 -172 84 -272.5t229 -100.5q86 0 180 8v131q-53 8 -89 47t-36 93 q0 57 42 99t102 42h121q59 0 101 -41t42 -100v-392q0 -49 -29.5 -87t-77.5 -50q-115 -33 -354 -33q-264 0 -431 182.5t-167 473.5z" />
<glyph unicode="H" horiz-adv-x="1361" d="M113 981q0 59 42 100t99 41h57q57 0 99.5 -41t42.5 -100v-330h460v330q0 59 41 100t100.5 41t101.5 -42t42 -99v-981q0 -57 -42 -99t-99.5 -42t-99.5 42t-42 99v369h-460v-369q0 -57 -41 -99t-100.5 -42t-100.5 42t-41 99v866q-59 45 -59 115z" />
<glyph unicode="I" horiz-adv-x="618" d="M113 981q0 59 42 100t99 41h57q59 0 101.5 -41t42.5 -100v-981q0 -57 -41 -99t-100.5 -42t-100.5 41t-41 100v866q-59 41 -59 115z" />
<glyph unicode="J" horiz-adv-x="632" d="M-48 -275q40 38 99 38q3 0 6 -1q10 0 38 -1t34 -1q109 0 109 93q0 53 -27 124q-12 23 -12 56v827q-68 39 -68 121q0 59 41 100t100 41h66q59 0 100 -41t41 -100v-922q41 -109 41 -206q0 -166 -111.5 -271.5t-277.5 -105.5q-14 0 -50 2t-38 2q-57 4 -97 45q-38 39 -38 91 q0 67 44 109z" />
<glyph unicode="K" horiz-adv-x="1230" d="M164 0v981q0 59 41 100t100.5 41t100 -41t40.5 -100v-344h95l315 428q43 57 113 57q59 0 102 -42t43 -99q0 -49 -27 -84l-299 -401l261 -349q59 -2 100 -44t41 -99q0 -55 -38 -95t-93 -44l-64 -6q-7 -1 -13 -1q-68 0 -112 58l-325 438h-94v-354q0 -57 -41 -99t-100.5 -42 t-102.5 42t-43 99z" />
<glyph unicode="L" horiz-adv-x="993" d="M123 0q0 72 57 115v866q0 59 41 100t100.5 41t100.5 -41t41 -100v-840h211q41 57 112 58q59 0 102.5 -41t43.5 -101v-57q0 -57 -42 -99t-102 -42h-522q-59 0 -101 42t-42 99z" />
<glyph unicode="M" horiz-adv-x="1499" d="M164 -4v987q0 57 40 98t97 41q72 0 111 -55l336 -449l335 449q43 55 111 55q57 0 99 -41t42 -98v-987q0 -57 -40 -97t-97 -40t-97 40t-40 97v577l-201 -266q-43 -55 -108 -55q-72 0 -111 55l-199 266v-577q0 -57 -40 -97t-97 -40t-99 40t-42 97z" />
<glyph unicode="N" horiz-adv-x="1384" d="M164 -8v995q0 55 39 95t94 40h76q72 0 112 -61l467 -729v547q-63 43 -63 108q0 55 40 95t95 40h57q57 0 98.5 -40t41.5 -95v-995q0 -55 -40 -94t-96 -39h-75q-74 0 -113 61l-461 729v-657q0 -55 -40 -94t-95 -39q-57 0 -97 39t-40 94z" />
<glyph unicode="O" horiz-adv-x="1392" d="M82 496q0 268 173 454.5t439 186.5q262 0 439.5 -183.5t177.5 -457.5q0 -268 -173 -458t-440 -190q-262 0 -439 187t-177 461zM365 496q0 -150 90 -256.5t239.5 -106.5t239.5 105.5t90 257.5h2q0 158 -92 258t-236 100q-152 0 -242.5 -103t-90.5 -255z" />
<glyph unicode="P" horiz-adv-x="1097" d="M123 981q0 59 41 100t100 41h379q147 0 285.5 -119.5t138.5 -312.5q0 -176 -126 -307t-302 -131h-174v-252q0 -57 -42 -99t-99.5 -42t-99.5 42t-42 99v866q-59 41 -59 115zM463 535h174q59 0 102 48t43 107h2q0 68 -51 109t-88 41h-182v-305z" />
<glyph unicode="Q" horiz-adv-x="1425" d="M82 494q0 270 176 456.5t442 186.5q262 0 441.5 -185.5t179.5 -457.5q0 -281 -193 -469l111 -117q61 0 104 -41t43 -100q0 -55 -37.5 -95.5t-93.5 -46.5l-57 -6q-7 -1 -14 -1q-58 0 -101 46l-198 213q-100 -29 -180 -29q-264 0 -443.5 186t-179.5 460zM365 494 q0 -156 96 -258.5t239 -102.5q150 0 242 104.5t92 256.5h2q0 158 -94 259t-237 101q-150 0 -245 -104t-95 -256z" />
<glyph unicode="R" horiz-adv-x="1212" d="M123 981q0 59 41 100t100 41h379q147 0 285.5 -119.5t138.5 -312.5q0 -102 -47 -195.5t-131 -156.5l131 -193q55 -4 93 -45t38 -96q0 -53 -38 -93t-93 -46l-57 -6q-10 -1 -19 -2q-65 0 -108 63l-232 332h-139v-252q0 -57 -42 -99t-99.5 -42t-99.5 42t-42 99v866 q-59 41 -59 115zM463 535h176q59 0 100 47t41 108h2q0 68 -50 109t-87 41h-182v-305z" />
<glyph unicode="S" horiz-adv-x="1038" d="M92 754q0 178 119 280.5t299 102.5q199 0 315 -41q47 -14 76 -57q25 -37 25 -79v-12l-4 -57q-4 -55 -45 -92t-97 -37q-41 0 -76.5 22.5t-52.5 59.5q-119 10 -137 10q-139 0 -139 -100q0 -37 12 -50.5t68 -35.5l227 -90q41 -16 62.5 -26.5t65.5 -40.5t69.5 -62.5t46 -90 t20.5 -127.5q0 -178 -119.5 -280.5t-300.5 -102.5q-209 0 -315 37q-47 14 -76 56q-25 36 -25 78q0 6 1 12l4 57q4 55 46 93t95 38q41 0 77 -22.5t52 -59.5q47 -6 137 -6q139 0 140 100q0 12 -1.5 21.5t-6.5 16.5t-7 11.5t-13 10.5t-13.5 7t-18.5 7t-20 8l-228 90 q-262 103 -262 351z" />
<glyph unicode="T" horiz-adv-x="1130" d="M31 924v57q0 59 42 100t99 41h784q59 0 101.5 -41t42.5 -100v-57q0 -59 -42 -101.5t-100 -42.5q-70 0 -114 60h-137v-840q0 -59 -41 -100t-101 -41q-57 0 -99 42t-42 99v840h-135q-45 -59 -115 -60q-59 0 -101 42.5t-42 101.5z" />
<glyph unicode="U" horiz-adv-x="1361" d="M143 426v555q0 59 41 100t100.5 41t100.5 -41t41 -100v-555q0 -293 254 -293q256 0 256 293v440q-59 45 -59 115q0 59 40.5 100t100.5 41h57q59 0 101.5 -42t42.5 -99v-555q0 -260 -140.5 -419t-396.5 -159q-250 0 -394.5 155t-144.5 423z" />
<glyph unicode="V" horiz-adv-x="1175" d="M49 932q-9 25 -9 50q0 41 26 79q41 61 114 61q43 0 81 -24.5t52 -67.5l269 -727l276 727q14 41 51 66.5t80 25.5q70 0 116 -53q31 -36 31 -74q0 -19 -8 -39l-374 -1005q-16 -41 -52 -66.5t-81 -25.5h-76q-45 0 -82 25.5t-51 66.5z" />
<glyph unicode="W" horiz-adv-x="1753" d="M76 958q-5 19 -5 37q0 41 26 75q38 50 102 50q43 0 78.5 -27.5t46.5 -70.5l176 -696l223 657q31 88 121 88h57q43 0 78 -25.5t47 -64.5l203 -655l196 700q12 43 47 68.5t78 25.5q66 0 105 -51q27 -36 27 -77q0 -17 -5 -36l-282 -1003q-12 -41 -46 -67.5t-77 -26.5h-72 q-41 0 -75.5 25.5t-47.5 66.5l-207 657l-223 -661q-14 -39 -48 -63.5t-75 -24.5h-71q-45 0 -80 27.5t-45 70.5z" />
<glyph unicode="X" horiz-adv-x="1179" d="M61 0q0 49 29 86l320 424l-293 385q-31 39 -31 86q0 59 41 100t100 41q72 0 113 -55l246 -324l241 322q45 57 115 57q59 0 101 -41t42 -100q0 -49 -28 -86l-293 -385l323 -424q31 -41 31 -86q0 -57 -42 -99t-101 -42q-70 0 -111 55l-274 362l-271 -362q-43 -55 -114 -55 q-59 0 -101.5 42t-42.5 99z" />
<glyph unicode="Y" horiz-adv-x="1071" d="M0 981q0 59 41 100t100 41q76 0 117 -59l270 -385l285 387q45 57 113 57q59 0 102 -41t43 -100q0 -47 -27 -86l-374 -504v-391q0 -57 -42 -99t-99.5 -42t-99.5 42t-42 99v393l-356 506q-31 41 -31 82z" />
<glyph unicode="Z" horiz-adv-x="1193" d="M113 -6v61q0 47 26 82l551 713h-328q-41 -57 -112 -57q-55 0 -96 39.5t-41 95.5v57q0 57 38.5 97t96.5 40h661q55 0 97.5 -41t42.5 -96v-70q0 -45 -29 -84l-541 -700h350q41 57 113 57q55 0 97 -39.5t42 -95.5v-59q0 -55 -40 -95t-97 -40h-694q-55 0 -96 40t-41 95z" />
<glyph unicode="[" horiz-adv-x="632" d="M154 -143v1204q0 53 35.5 94t86.5 47l144 19q66 8 114 -35t48 -107q0 -53 -36 -94t-87 -45l-23 -2v-956l23 -2q51 -4 87 -46.5t36 -95.5q0 -63 -48.5 -105t-113.5 -34l-144 18q-51 6 -86.5 46.5t-35.5 93.5z" />
<glyph unicode="\" horiz-adv-x="890" d="M-18 1069q-33 72 10 136.5t119 64.5q92 0 129 -84l577 -1297q33 -70 -10 -134t-119 -64q-90 0 -129 84z" />
<glyph unicode="]" horiz-adv-x="632" d="M51 -162q0 53 35 94t88 48l21 2v956l-21 2q-53 6 -88 46t-35 93q0 63 48 106.5t112 35.5l145 -19q51 -6 87 -47t36 -94v-1202q0 -53 -35.5 -94t-87.5 -48l-145 -18q-63 -8 -111.5 34t-48.5 105z" />
<glyph unicode="^" horiz-adv-x="1163" d="M166 985q0 43 22 78l267 405q43 66 118 66q72 0 115 -61l283 -408q27 -35 26 -80q0 -59 -42 -100t-99 -41q-76 0 -117 59l-164 236l-149 -232q-41 -63 -119 -63q-57 0 -99 41t-42 100z" />
<glyph unicode="_" horiz-adv-x="1722" d="M0 -413.5q0 57.5 41 99.5t100 42h1440q57 0 99 -42t42 -99.5t-42 -99.5t-99 -42h-1440q-59 0 -100 42t-41 99.5z" />
<glyph unicode="`" horiz-adv-x="448" d="M-175.5 1247.5q-21.5 55.5 3.5 108.5t80 73.5t108 -4.5l351 -157q53 -23 73.5 -79t-4.5 -110q-25 -51 -80 -71.5t-106 2.5l-350 157q-54 25 -75.5 80.5z" />
<glyph unicode="a" horiz-adv-x="1126" d="M57 2q0 31 11 53l335 811q37 88 132 88h49q43 0 78.5 -23.5t52.5 -62.5l344 -811q12 -29 12 -55q0 -59 -42 -100t-99 -41q-94 0 -131 86l-39 90h-393l-37 -90q-35 -86 -131 -86q-59 0 -100.5 41t-41.5 100zM422 281h280l-141 331z" />
<glyph unicode="b" horiz-adv-x="1134" d="M129 0q0 72 57 115v583q-57 43 -57 115q0 59 42 100t99 41h367q141 0 242.5 -97t101.5 -232q0 -96 -55 -185q92 -96 92 -225q0 -150 -109.5 -253t-267.5 -103h-371q-57 0 -99 42t-42 99zM449 121h192q43 0 78 24.5t35 69.5q0 43 -45 64q-31 14 -72 14h-188v-172zM449 537 h188q31 0 56.5 29.5t25.5 58t-25.5 48t-56.5 19.5h-188v-155z" />
<glyph unicode="c" horiz-adv-x="1038" d="M78 410q0 242 154.5 399.5t392.5 157.5q72 0 148.5 -10.5t98.5 -18.5q47 -16 76 -57q25 -36 25 -78v-12l-6 -58q-6 -55 -45 -93t-95 -38q-86 0 -127 78q-49 4 -75 4q-119 0 -192 -74.5t-73 -199.5q0 -131 69 -205t200 -74q78 0 159 21q21 6 42 5q45 0 83 -29 q55 -42 56 -112q0 -47 -29 -86t-76 -51q-92 -31 -235 -31q-248 0 -399.5 157t-151.5 405z" />
<glyph unicode="d" horiz-adv-x="1191" d="M127 0q0 70 59 113v585q-59 45 -59 113q0 59 42 101t99 42h264q258 0 421 -143t163 -397q0 -250 -161.5 -402.5t-413.5 -152.5h-271q-59 0 -101 42t-42 99zM467 141h72q135 0 213.5 71t78.5 202h3q0 258 -299 258h-68v-531z" />
<glyph unicode="e" horiz-adv-x="1062" d="M117 195q0 121 73 213q-63 94 -63 206q0 158 102.5 255.5t270.5 97.5q137 0 311 -11q59 -4 99 -49q36 -41 37 -93q0 -5 -1 -11l-4 -58q-4 -55 -45 -93t-96 -38q-76 0 -119 64q-178 6 -180 6q-47 0 -69.5 -13.5t-22.5 -54.5q0 -18 2 -27t10 -22.5t30.5 -18.5t59.5 -5h242 q59 0 101 -42t42 -99.5t-41 -99.5t-100 -42h-242q-115 0 -115 -65q0 -63 88 -64q98 0 283 12q5 0 11 1q55 0 96 -40q45 -43 45 -104q0 -55 -39 -95t-95 -44q-160 -12 -299 -13q-158 0 -265 95.5t-107 251.5z" />
<glyph unicode="f" horiz-adv-x="964" d="M119 813q0 59 41 100t100 41h512q59 0 100 -41t41 -100v-57q0 -59 -42 -101.5t-99 -42.5q-68 0 -113 60h-200v-199h239q59 0 100.5 -42t41.5 -99.5t-41 -99.5t-101 -42h-239v-190q0 -57 -41 -99t-100.5 -42t-100.5 42t-41 99v698q-57 43 -57 115z" />
<glyph unicode="g" horiz-adv-x="1153" d="M76 420q0 244 157.5 395.5t401.5 151.5q29 0 61.5 -2t59 -6.5t49 -7.5l37.5 -5l14 -2q53 -10 85 -53t30 -96l-4 -60q-2 -55 -44 -92t-98 -37q-86 0 -125 76q-20 2 -63 2q-129 0 -204 -69.5t-75 -194.5q0 -131 70 -210t186 -79q92 0 129 2v78q-74 43 -73 123q0 59 42 101 t99 42h72q59 0 101 -42t42 -101v-324q0 -49 -27.5 -86t-76.5 -51q-123 -25 -306 -25q-233 0 -386.5 161t-153.5 411z" />
<glyph unicode="h" horiz-adv-x="1277" d="M117 813q0 59 42 100t99 41h57q57 0 99.5 -41t42.5 -100v-250h368v250q0 59 42 100t100 41q59 0 101 -42t42 -99v-813q0 -57 -41 -99t-100.5 -42t-100.5 42t-41 99v281h-368v-281q0 -57 -41 -99t-100.5 -42t-100.5 42t-41 99v698q-59 45 -59 115z" />
<glyph unicode="i" horiz-adv-x="626" d="M117 813q0 59 42 100t99 41h57q59 0 101.5 -42t42.5 -99v-813q0 -57 -41 -99t-100.5 -42t-100.5 42t-41 99v698q-59 45 -59 115z" />
<glyph unicode="j" horiz-adv-x="630" d="M-54 -204q40 38 99 38h6q10 0 38 -1t34 -1q109 0 108 92q0 66 -26 125q-12 29 -12 55v582q-78 39 -78 127q0 59 41 100t100 41h76q57 0 99 -41t42 -100v-682q41 -123 41 -207q0 -166 -111.5 -271.5t-277.5 -105.5q-16 0 -51 2t-37 2q-57 2 -97 45q-38 40 -38 91 q0 67 44 109z" />
<glyph unicode="k" horiz-adv-x="1140" d="M168 0v813q0 59 41 100t100.5 41t100.5 -41t41 -100v-260h71l248 342q43 59 115 59q59 0 101 -42t42 -99q0 -43 -27 -84l-231 -317l193 -267q55 -4 94 -45t39 -96t-38 -96t-93 -45l-58 -4q-7 -1 -13 -1q-68 0 -112 58l-258 354h-71v-270q0 -57 -42 -99t-100 -42 q-59 0 -101 42t-42 99z" />
<glyph unicode="l" horiz-adv-x="913" d="M109 0q0 72 57 115v698q0 59 42 100t99.5 41t99.5 -41t42 -100v-672h147q43 57 113 58q59 0 101 -42t42 -100v-57q0 -57 -42 -99t-101 -42h-459q-57 0 -99 42t-42 99z" />
<glyph unicode="m" horiz-adv-x="1386" d="M168 -8v827q0 55 39 95t94 40q66 0 105 -49l286 -346l287 346q43 49 102 49q55 0 96.5 -40t41.5 -95v-827q0 -55 -40 -94t-95.5 -39t-94.5 39t-39 94v457l-153 -185q-41 -47 -103 -47q-68 0 -104 47l-152 185v-457q0 -55 -40 -94t-95 -39t-95 39t-40 94z" />
<glyph unicode="n" horiz-adv-x="1294" d="M168 -8v827q0 55 40 95t95 40h64q74 0 112 -59l379 -561v375q-61 45 -61 110q0 55 40 95t95 40h59q55 0 95 -40t40 -95v-827q0 -55 -38.5 -94t-94.5 -39h-65q-74 0 -113 59l-377 559v-485q0 -55 -39 -94t-94 -39t-96 39t-41 94z" />
<glyph unicode="o" horiz-adv-x="1259" d="M76 407.5q0 235.5 158.5 397.5t394.5 162q233 0 394 -162t161 -397.5t-159 -397.5t-394 -162q-233 0 -394 162t-161 397.5zM358 408q0 -121 77 -199t194 -78q119 0 193.5 79t74.5 198h2q0 121 -75.5 199.5t-192.5 78.5q-119 0 -196 -79.5t-77 -198.5z" />
<glyph unicode="p" horiz-adv-x="1083" d="M117 811q0 57 42 99t99 42h363q143 0 275 -111.5t132 -293.5q0 -168 -122 -291t-290 -123h-157v-133q0 -57 -41 -99t-100.5 -42t-100.5 41t-41 100v698q-59 45 -59 113zM457 418h157q51 0 90 39t39 90h2q0 57 -45 90t-77 33h-166v-252z" />
<glyph unicode="q" horiz-adv-x="1269" d="M78 405.5q0 235.5 158.5 398.5t394.5 163q231 0 391 -163t160 -398q0 -225 -152 -388l70 -71h4q59 0 100 -41t41 -101q0 -55 -38 -95t-93 -46l-57 -6q-7 -1 -15 -1q-56 0 -98 44l-164 168q-78 -20 -149 -21q-233 0 -393 161t-160 396.5zM360 406q0 -121 77 -198t194 -77 q119 0 193.5 78t74.5 197q0 121 -75.5 199.5t-192.5 78.5q-119 0 -195 -79.5t-76 -198.5z" />
<glyph unicode="r" horiz-adv-x="1124" d="M117 813q0 59 42 100t99 41h334q133 0 260 -106.5t127 -276.5q0 -178 -145 -297l92 -129q55 -4 94 -45t39 -96t-38 -96t-93 -45l-58 -4q-7 -1 -13 -1q-70 0 -114 60l-192 266h-92v-184q0 -57 -41 -99t-100.5 -42t-100.5 42t-41 99v698q-59 45 -59 115zM457 467h135 q43 0 71.5 29.5t28.5 74.5h2q0 47 -39 74t-61 27h-137v-205z" />
<glyph unicode="s" horiz-adv-x="970" d="M98 625q0 168 104.5 255t278.5 87q178 0 279 -35q43 -16 68 -53q22 -32 22 -69v-11l-6 -60q-4 -51 -41 -84.5t-88 -33.5q-84 0 -123 77q-63 8 -111 9q-43 0 -61.5 -2.5t-39 -21.5t-20.5 -58q0 -2 5 -35l309 -115q109 -39 154.5 -100.5t45.5 -175.5q0 -166 -105 -258.5 t-277 -92.5q-193 0 -281 31q-88 33 -88 121v12l4 62q2 49 41 82.5t90 33.5q82 0 121 -79q47 -4 113 -5q61 0 90.5 16.5t29.5 76.5v24l-305 111q-113 41 -161 105.5t-48 185.5z" />
<glyph unicode="t" horiz-adv-x="1003" d="M35 756v57q0 59 42 100t99 41h647q59 0 102.5 -42t43.5 -99v-57q0 -59 -42 -101.5t-102 -42.5q-68 0 -112 60h-70v-672q0 -57 -41 -99t-100.5 -42t-100.5 42t-41 99v672h-67q-45 -59 -115 -60q-59 0 -101 42.5t-42 101.5z" />
<glyph unicode="u" horiz-adv-x="1210" d="M137 348v465q0 59 42 100t99.5 41t99.5 -41t42 -100v-465q0 -217 184 -217q186 0 187 217v350q-59 45 -60 115q0 59 42 100t99 41h58q59 0 101 -42t42 -99v-465q0 -219 -125 -359.5t-342 -140.5q-209 0 -339 137.5t-130 362.5z" />
<glyph unicode="v" horiz-adv-x="1050" d="M45 813q0 59 41 100t100 41q43 0 81 -24.5t52 -67.5l203 -547l209 547q37 92 131 92q59 0 101.5 -42t42.5 -99h-2q0 -35 -7 -51l-309 -813q-14 -41 -51 -65.5t-82 -24.5h-66q-45 0 -80.5 25.5t-52.5 66.5l-301 813q-10 26 -10 49z" />
<glyph unicode="w" horiz-adv-x="1503" d="M82 797q-5 18 -5 35q0 39 26 73q38 49 100 49q43 0 77.5 -25.5t45.5 -68.5l131 -520l151 485q12 39 45 63.5t74 24.5h49q41 0 76 -25.5t45 -64.5l137 -483l148 522q12 41 46 66.5t75 25.5q63 0 100 -50q26 -35 25 -74q0 -17 -5 -35l-237 -846q-10 -39 -45 -64.5 t-76 -25.5h-59q-41 0 -76 25.5t-45 64.5l-137 481l-152 -483q-12 -39 -45 -63.5t-74 -24.5h-61q-43 0 -77 26.5t-44 67.5z" />
<glyph unicode="x" horiz-adv-x="1019" d="M35 0q0 49 31 88l262 334l-240 303q-33 39 -33 88q0 59 42 100t100 41q72 0 112 -53l197 -250l194 248q45 55 113 55q59 0 101 -42t42 -99q0 -47 -30 -88l-240 -303l266 -334q33 -39 33 -88q0 -57 -42 -99t-101 -42q-70 0 -111 53l-221 281l-219 -281q-43 -53 -113 -53 q-59 0 -101 42t-42 99z" />
<glyph unicode="y" horiz-adv-x="968" d="M6 813q0 59 42 100t99 41q74 0 115 -57l219 -299l232 301q43 55 110 55q57 0 99.5 -41t42.5 -100q0 -51 -29 -88l-318 -410v-315q0 -57 -40.5 -99t-100 -42t-100.5 42t-41 99v317l-303 412q-27 35 -27 84z" />
<glyph unicode="z" horiz-adv-x="1107" d="M119 -12v43q0 47 26 80l453 583h-238q-43 -59 -110 -59q-53 0 -92 38t-39 91v59q0 53 39 92t92 39h581q53 0 92.5 -38.5t39.5 -92.5v-41q0 -47 -27 -80l-453 -583h267q43 59 110 59q53 0 92 -39t39 -92v-59q0 -53 -39 -91t-92 -38h-610q-53 0 -92 38t-39 91z" />
<glyph unicode="{" horiz-adv-x="897" d="M154 407.5q0 67.5 53 110.5l188 148l-90 227q-61 156 54.5 302t281.5 146q59 0 100 -42t41 -99t-41 -99t-100 -42q-18 0 -44 -22.5t-30 -39.5l129 -325q16 -43 5 -89t-48 -75l-129 -100l129 -101q37 -27 49.5 -73t-4.5 -89l-127 -344q4 -18 30 -42.5t42 -24.5 q57 0 99 -41t42 -100.5t-42 -100.5t-99 -41q-160 0 -277.5 146.5t-62.5 296.5l94 253l-190 150q-53 43 -53 110.5z" />
<glyph unicode="|" horiz-adv-x="610" d="M164 -168v1296q0 59 41 100.5t100.5 41.5t100 -41t40.5 -101v-1296q0 -57 -40.5 -99t-100 -42t-100.5 42t-41 99z" />
<glyph unicode="}" horiz-adv-x="897" d="M113 -407.5q0 59.5 42 100.5t99 41q16 0 43 24.5t31 42.5l-129 344q-16 43 -4 89.5t49 72.5l129 101l-129 100q-37 29 -48.5 75t5.5 89l129 325q-4 16 -30 39t-44 23q-59 0 -100 42t-41 99t41 99t100 42q135 0 245.5 -105.5t110.5 -240.5q0 -51 -18 -100l-92 -229 l188 -148q53 -43 53 -110.5t-53 -110.5l-190 -150l94 -251q16 -41 16 -93q0 -133 -111.5 -242.5t-244.5 -109.5q-57 0 -99 41t-42 100.5z" />
<glyph unicode="~" horiz-adv-x="1253" d="M168 340q0 37 18 72l111 190q43 72 123 72q14 0 47 -8l371 -136l10 19q39 70 123 69q57 0 99 -40.5t42 -100.5q0 -39 -20 -71l-70 -119q-41 -70 -123 -70q-25 0 -47 8l-369 133l-51 -88q-43 -72 -123 -71q-59 0 -100 42t-41 99z" />
<glyph horiz-adv-x="1349" d="M143 231.5q0 59.5 41 100.5t101 41h577q59 0 100.5 -41t41.5 -100.5t-41 -100.5t-101 -41h-246v-88q0 -53 47.5 -79.5t104.5 -26.5q78 0 231 36q68 14 121.5 -27.5t53.5 -109.5q0 -49 -30 -87t-79 -50q-203 -45 -297 -45q-178 0 -306 107.5t-128 281.5v88h-49 q-59 0 -100.5 41t-41.5 100.5zM143 606.5q0 57.5 41 99.5t101 42h49v106q0 176 114.5 278.5t313.5 102.5q68 0 147.5 -6t125.5 -11.5t50 -7.5q55 -8 91 -53t30 -100l-6 -58q-6 -55 -46 -92t-95 -37q-84 0 -123 72q-129 10 -174 10q-72 0 -109 -18.5t-37 -79.5v-106h291 q59 0 100.5 -42t41.5 -99.5t-41 -99.5t-101 -42h-622q-59 0 -100.5 42t-41.5 99.5z" />
<glyph horiz-adv-x="694" d="M113 -254q0 41 22 76l115 182l-27 19q-57 39 -57 114q0 59 42 100.5t99 41.5q49 0 84 -27l133 -98q57 -45 58 -115q0 -43 -21 -76l-188 -293q-41 -66 -119 -65q-59 0 -100 41t-41 100z" />
<glyph horiz-adv-x="1116" d="M92 458.5q0 57.5 42 99.5t99 42h82v111q0 119 18.5 211t62.5 173t128 125t207 44q100 0 209 -43q84 -39 84 -129q0 -78 -64.5 -119t-134.5 -12q-41 20 -94 20q-25 0 -44 -5t-32.5 -17.5t-23.5 -22.5t-16.5 -31.5t-10.5 -35t-5 -41t-1 -40.5v-43v-38v-107h139 q57 0 99.5 -42t42.5 -99.5t-42 -99.5t-100 -42h-139v-444q0 -164 -89 -247t-194 -85q-59 0 -101 41t-42 98.5t38 99.5t95 44q10 4 10 49v444h-82q-57 0 -99 42t-42 99.5z" />
<glyph horiz-adv-x="1212" d="M113 -254q0 41 22 76l115 182l-27 19q-57 39 -57 114q0 59 42 100.5t99 41.5q49 0 84 -27l133 -98q57 -45 58 -115q0 -43 -21 -76l-188 -293q-41 -66 -119 -65q-59 0 -100 41t-41 100zM631 -254q0 43 20 76l117 182l-27 19q-57 39 -57 114q0 59 41 100.5t100 41.5 q45 0 84 -27l133 -98q57 -41 58 -115q0 -43 -23 -76l-186 -293q-41 -66 -119 -65q-59 0 -100 42t-41 99z" />
<glyph unicode="&#x85;" horiz-adv-x="1480" d="M113 -12q0 55 37 98l47 57q43 55 116 56q63 0 108.5 -45t45.5 -109q0 -57 -35 -98l-49 -58q-49 -55 -117 -55q-63 0 -108 45.5t-45 108.5zM563 -12q0 55 37 98l47 57q43 55 117 56q63 0 108.5 -45t45.5 -109q0 -57 -35 -98l-49 -58q-49 -55 -117 -55q-63 0 -108.5 45.5 t-45.5 108.5zM1014 -12q0 55 37 98l47 57q43 55 116 56q63 0 108.5 -45t45.5 -109q0 -57 -35 -98l-49 -58q-49 -55 -117 -55q-63 0 -108 45.5t-45 108.5z" />
<glyph horiz-adv-x="1159" d="M123 807q0 66 50 108.5t114 32.5l151 -24v200q0 59 41 100.5t100.5 41.5t100.5 -41t41 -101v-200l151 24q63 10 113.5 -33t50.5 -108q0 -51 -34.5 -91t-86.5 -48l-194 -31v-664q0 -59 -41 -101t-100.5 -42t-100.5 42t-41 101v664l-194 31q-53 8 -87 48t-34 91z" />
<glyph horiz-adv-x="1159" d="M123 287q0 51 33.5 91t87.5 48l194 31v180l-194 31q-53 8 -87 48t-34 91q0 59 42 101t99 42q14 0 23 -2l151 -24v200q0 59 41 100.5t100.5 41.5t100.5 -41t41 -101v-200l151 24q8 2 23 2q57 0 99 -42t42 -101q0 -51 -34.5 -91t-86.5 -48l-194 -31v-180l194 -31 q51 -8 86 -48t35 -91q0 -59 -42 -101.5t-99 -42.5q-14 0 -23 2l-151 25v-201q0 -59 -41 -100t-100.5 -41t-100.5 41t-41 100v201l-151 -25q-8 -2 -23 -2q-57 0 -99 42.5t-42 101.5z" />
<glyph horiz-adv-x="831" d="M4 1175.5q14 57.5 66 86.5l270 157q70 39 141 0l279 -157q51 -29 66.5 -85.5t-13.5 -107.5t-85 -67.5t-110 14.5l-204 119l-201 -119q-51 -29 -107.5 -14.5t-85.5 65.5q-30 51 -16 108.5z" />
<glyph horiz-adv-x="2537" d="M72 772q0 139 99 238.5t238.5 99.5t239 -99.5t99.5 -238.5t-99.5 -238.5t-239 -99.5t-238.5 99.5t-99 238.5zM313 772q0 -39 28 -67.5t69 -28.5t68.5 28.5t27.5 67.5t-27.5 67.5t-68.5 28.5t-69 -28.5t-28 -67.5zM358 -133q0 41 21 74l770 1253q39 68 121 68q57 0 99 -41 t42 -101q0 -41 -20 -73l-770 -1254q-39 -68 -121 -67q-57 0 -99.5 41t-42.5 100zM1012 196.5q0 139.5 99 239t238.5 99.5t239 -99.5t99.5 -239t-99.5 -238.5t-239 -99t-238.5 99t-99 238.5zM1253 197q0 -41 29 -69t68 -28t66.5 29t27.5 68t-27.5 67.5t-66.5 28.5t-68 -27.5 t-29 -68.5zM1749 196.5q0 139.5 99.5 239t238.5 99.5t238.5 -99.5t99.5 -239t-99.5 -238.5t-238.5 -99t-238.5 99t-99.5 238.5zM1991 197q0 -41 28.5 -69t67.5 -28t67.5 28t28.5 69t-28.5 68.5t-67.5 27.5t-67.5 -27.5t-28.5 -68.5z" />
<glyph horiz-adv-x="1038" d="M92 754q0 166 105.5 267t269.5 114q-8 6 -21 18l-231 254q-41 45 -38 103.5t48 97.5q43 39 100.5 35.5t98.5 -46.5l125 -135l117 133q39 45 96 49.5t102 -34.5t49.5 -96.5t-34.5 -102.5l-220 -256q-12 -16 -26 -25q123 -12 192 -34q47 -14 76 -56.5t25 -91.5l-4 -57 q-4 -55 -45 -92t-97 -37q-41 0 -76.5 22.5t-52.5 59.5q-119 10 -137 10q-139 0 -139 -100q0 -37 12 -50.5t68 -35.5l227 -90q41 -16 62.5 -26.5t65.5 -40.5t69.5 -62.5t46 -90t20.5 -127.5q0 -178 -119.5 -280.5t-300.5 -102.5q-209 0 -315 37q-47 14 -76 55.5t-24 90.5 l4 57q4 55 46 93t95 38q41 0 77 -22.5t52 -59.5q47 -6 137 -6q139 0 140 100q0 12 -1.5 21.5t-6.5 16.5t-7 11.5t-13 10.5t-13.5 7t-18.5 7t-20 8l-228 90q-262 103 -262 351z" />
<glyph horiz-adv-x="825" d="M92 393q0 66 47 107l338 299q39 37 94 37q59 0 100.5 -42t41.5 -102q0 -63 -47 -104l-220 -195l220 -194q47 -41 47 -105q0 -57 -41 -99t-101 -42q-57 0 -94 35l-338 299q-47 43 -47 106z" />
<glyph horiz-adv-x="1675" d="M61 494q0 268 173.5 455.5t439.5 187.5q119 0 239 -47q39 33 88 32h463q59 0 101.5 -41t42.5 -100v-57q0 -59 -42 -100.5t-100 -41.5q-70 0 -112 58h-211v-209h301q59 0 101 -42t42 -100q0 -59 -42 -100t-99 -41h-303v-207h327q59 0 102.5 -42t43.5 -99t-42 -99t-101 -42 h-469q-49 0 -89 32q-117 -47 -243 -47q-258 0 -434.5 188t-176.5 462zM344 494q0 -156 93 -260.5t233 -104.5q106 0 190 55l2 615q-90 55 -186 55q-150 0 -241 -104t-91 -256z" />
<glyph horiz-adv-x="1193" d="M113 -6v61q0 47 26 82l551 713h-328q-41 -57 -112 -57q-55 0 -96 39.5t-41 95.5v57q0 57 38.5 97t96.5 40h274q-18 10 -39 31l-231 254q-41 45 -38 103.5t48 97.5q43 39 100.5 35.5t98.5 -46.5l125 -135l116 133q39 45 96.5 49.5t102.5 -34.5t49 -96.5t-35 -102.5 l-219 -256q-16 -18 -41 -33h254q55 0 97.5 -41t42.5 -96v-70q0 -45 -29 -84l-541 -700h350q41 57 113 57q55 0 97 -39.5t42 -95.5v-59q0 -55 -40 -95t-97 -40h-694q-55 0 -96 40t-41 95z" />
<glyph horiz-adv-x="653" d="M72 1022q0 41 22 76l187 293q41 66 118 65q59 0 100.5 -41t41.5 -100q0 -41 -21 -76l-117 -182l27 -19q59 -41 59 -114q0 -59 -41.5 -100.5t-101.5 -41.5q-47 0 -82 27l-135 98q-57 41 -57 115z" />
<glyph horiz-adv-x="653" d="M113 770q0 37 22 76l115 182l-27 19q-57 39 -57 114q0 59 42 100.5t99 41.5q49 0 84 -27l133 -98q57 -41 58 -115q0 -45 -21 -76l-188 -293q-41 -66 -119 -65q-57 0 -99 42t-42 99z" />
<glyph horiz-adv-x="1171" d="M72 1022q0 41 22 76l187 293q41 66 118 65q59 0 100.5 -41t41.5 -100q0 -41 -21 -76l-117 -182l27 -19q59 -41 59 -114q0 -59 -41.5 -100.5t-101.5 -41.5q-47 0 -82 27l-135 98q-57 41 -57 115zM590 996.5q-10 54.5 20 101.5l189 293q41 66 119 65q59 0 100 -41t41 -100 q0 -41 -23 -76l-114 -182l26 -19q57 -39 58 -114q0 -59 -42 -100.5t-100 -41.5q-45 0 -84 27l-133 98q-47 35 -57 89.5z" />
<glyph horiz-adv-x="1171" d="M113 770q0 37 22 76l115 182l-27 19q-57 39 -57 114q0 59 42 100.5t99 41.5q49 0 84 -27l133 -98q45 -35 56.5 -89.5t-19.5 -101.5l-188 -293q-41 -66 -119 -65q-57 0 -99 42t-42 99zM631 770q0 43 20 76l117 182l-27 19q-57 39 -57 114q0 59 41 100.5t100 41.5 q45 0 84 -27l133 -98q57 -41 58 -115q0 -43 -23 -76l-186 -293q-41 -66 -119 -65q-59 0 -100 42t-41 99z" />
<glyph horiz-adv-x="792" d="M113 424q0 117 83 200t201 83q117 0 200 -83t83 -200q0 -119 -83 -202t-200 -83q-119 0 -201.5 83t-82.5 202z" />
<glyph horiz-adv-x="1302" d="M184 420q0 57 41 98t101 41h651q59 0 100 -41t41 -98q0 -59 -41 -100t-100 -41h-651q-59 0 -100.5 41t-41.5 100z" />
<glyph horiz-adv-x="1953" d="M184 420q0 57 41 98t101 41h1302q59 0 100 -40t41 -99.5t-40.5 -100t-100.5 -40.5h-1302q-59 0 -100.5 41t-41.5 100z" />
<glyph horiz-adv-x="868" d="M24.5 1118.5q-12.5 57.5 18.5 106.5l107 168q29 45 82 59t100 -10l237 -121l37 59q31 51 88.5 64.5t108.5 -19.5q49 -31 61.5 -89t-18.5 -107l-107 -168q-29 -47 -82 -61.5t-102 12.5l-236 121l-36 -60q-31 -51 -89.5 -63.5t-107.5 20.5q-49 31 -61.5 88.5z" />
<glyph horiz-adv-x="2088" d="M92 870.5q0 53.5 36 90t87 36.5h516q51 0 88 -36.5t37 -90t-37 -91.5t-88 -38h-133v-419q0 -53 -37 -90t-88 -37t-87 36.5t-36 90.5v419h-135q-51 0 -87 38t-36 91.5zM911 350l123 549q8 43 43 70.5t78 27.5q74 0 111 -69l135 -273l135 273q37 70 111 69q43 0 77.5 -27.5 t42.5 -70.5l123 -549q14 -59 -23.5 -107t-97.5 -48q-41 0 -76.5 27.5t-43.5 70.5l-47 209l-91 -185q-33 -70 -110.5 -69.5t-110.5 69.5l-92 185l-45 -209q-8 -43 -44 -70.5t-77 -27.5q-59 0 -97 48t-24 107z" />
<glyph horiz-adv-x="970" d="M98 625q0 152 86 237.5t236 102.5q-16 12 -25 20l-231 254q-41 45 -38 103.5t48 97.5q43 39 100.5 36t98.5 -46l125 -136l116 133q39 45 96.5 49.5t102.5 -34.5t49 -96.5t-35 -102.5l-219 -256q-12 -16 -26 -24q109 -8 178 -31q43 -16 68.5 -53t21.5 -80l-6 -60 q-4 -51 -41 -84.5t-88 -33.5q-84 0 -123 77q-63 8 -111 9q-43 0 -61.5 -2.5t-39 -21.5t-20.5 -58q0 -2 5 -35l309 -115q109 -39 154.5 -100.5t45.5 -175.5q0 -166 -105 -258.5t-277 -92.5q-193 0 -281 31q-94 35 -88 133l4 62q2 49 41 82.5t90 33.5q82 0 121 -79 q47 -4 113 -5q61 0 90.5 16.5t29.5 76.5v24l-305 111q-113 41 -161 105.5t-48 185.5z" />
<glyph horiz-adv-x="825" d="M113 94q0 63 47 105l219 194l-219 195q-47 41 -47 104q0 59 41 101.5t100 42.5q53 0 94 -37l338 -299q47 -43 47 -107q0 -66 -47 -106l-338 -299q-37 -35 -94 -35t-99 42t-42 99z" />
<glyph horiz-adv-x="1513" d="M66 403q0 238 152.5 402t387.5 164q82 0 201 -37q35 23 76 22h391q59 0 101 -42t42 -99v-57q0 -59 -41 -100.5t-100 -41.5q-70 0 -113 58h-139v-125h229q59 0 101.5 -42t42.5 -99.5t-41 -99.5t-101 -42h-231v-123h248q59 0 102 -42t43 -99t-42 -99t-101 -42h-389 q-39 0 -74 20q-113 -35 -209 -35q-225 0 -380.5 161.5t-155.5 397.5zM348 403.5q0 -118.5 72 -196.5t180 -78q70 0 141 27l2 499q-82 29 -135 29q-117 0 -188.5 -81t-71.5 -199.5z" />
<glyph horiz-adv-x="1107" d="M119 -12v43q0 47 26 80l453 583h-238q-43 -59 -110 -59q-53 0 -92 38t-39 91v59q0 53 39 92t92 39h252q-18 10 -39 31l-232 254q-41 45 -37.5 103.5t48.5 97.5q43 39 100 36t98 -46l125 -136l117 133q39 45 96.5 49.5t102.5 -34.5t49 -96.5t-35 -102.5l-219 -256 q-14 -18 -41 -33h196q53 0 92.5 -38.5t39.5 -92.5v-41q0 -47 -27 -80l-453 -583h267q43 59 110 59q53 0 92 -39t39 -92v-59q0 -53 -39 -91t-92 -38h-610q-53 0 -92 38t-39 91z" />
<glyph horiz-adv-x="1071" d="M0 981q0 59 41 100t100 41q76 0 117 -59l270 -385l285 387q45 57 113 57q59 0 102 -41t43 -100q0 -47 -27 -86l-374 -504v-391q0 -57 -42 -99t-99.5 -42t-99.5 42t-42 99v393l-356 506q-31 41 -31 82zM138 1320.5q-5 63.5 36 113.5l47 55q41 47 104.5 53t110.5 -33 q49 -41 55.5 -105.5t-34.5 -111.5l-49 -55q-41 -47 -103.5 -53t-111.5 33q-50 40 -55 103.5zM629 1321.5q-6 64.5 35 112.5l47 55q41 49 104.5 55t112.5 -35t54 -104.5t-36 -112.5l-47 -55q-41 -47 -104.5 -53t-110.5 33q-49 40 -55 104.5z" />
<glyph unicode="&#xa1;" horiz-adv-x="657" d="M137 758q0 53 33 92l57 68q45 51 109 51q57 0 100 -42t43 -102q0 -51 -33 -90l-57 -67q-45 -51 -108 -52q-59 0 -101.5 42.5t-42.5 99.5zM166 -88v467q0 59 42 100t99.5 41t99.5 -41t42 -100v-352q59 -45 59 -115q0 -59 -41 -100t-100 -41h-58q-59 0 -101 42t-42 99z" />
<glyph unicode="&#xa2;" horiz-adv-x="1019" d="M92 399q0 162 84 285t227 178v219q0 57 42 99.5t99.5 42.5t99.5 -42t42 -100v-188q27 -2 56.5 -6t46 -6t20.5 -2q51 -8 84 -48t33 -92q0 -66 -50.5 -108.5t-113.5 -32.5q-106 16 -160 16q-100 0 -163.5 -57t-63.5 -158q0 -104 55 -163.5t160 -59.5q68 0 149 25 q70 25 129.5 -18.5t59.5 -114.5q0 -45 -27 -83t-70 -53q-2 0 -23.5 -6t-55 -13t-66.5 -13v-156q0 -59 -42 -100t-99.5 -41t-99.5 41t-42 100v180q-150 55 -230.5 182t-80.5 293z" />
<glyph unicode="&#xa3;" horiz-adv-x="1378" d="M164 496q0 59 41 101t100 42h43q-37 88 -37 176q0 172 116 285.5t290 113.5q39 0 96 -1t96 -1h41q61 -2 103.5 -47t36.5 -106l-7 -58q-6 -55 -46 -92t-93 -37q-76 0 -117 60h-110q-55 0 -89 -31t-34 -86q0 -61 41 -102q33 -33 39 -74h207q59 0 100 -42t41 -101 q0 -57 -42 -99.5t-99 -42.5h-203v-213h280q43 57 113 58q59 0 101 -41t42 -101v-57q0 -59 -42 -100t-101 -41h-727q-57 0 -99 42t-42 99t42 99t99 42h49v213h-88q-59 0 -100 42.5t-41 99.5z" />
<glyph unicode="&#xa4;" horiz-adv-x="1185" d="M10 88q0 55 41 96l99 97q-51 98 -52 206q4 125 60 226l-92 94q-39 43 -39 96q0 55 39.5 95t97 40t96.5 -41l92 -92q106 53 217 53q117 0 215 -55l99 96q39 39 96 39q55 0 95 -40t40 -95q0 -59 -41 -98l-96 -96q49 -96 49 -217q-4 -119 -59 -216l92 -92q39 -39 39 -96 t-40 -97t-97 -40q-55 0 -97 41l-92 94q-100 -53 -217 -53q-115 0 -215 53l-98 -96q-43 -39 -95 -39q-57 0 -97 40t-40 97zM373 489q0 -76 53 -130t129 -54q82 0 139.5 57.5t57.5 139.5q0 78 -53.5 131t-129.5 53q-82 0 -139 -58.5t-57 -138.5z" />
<glyph unicode="&#xa5;" horiz-adv-x="1394" d="M174 930q0 57 42 99t99 42q78 0 117 -61l252 -369l283 375q43 55 114 55q59 0 100.5 -41t41.5 -100q0 -45 -29 -84l-373 -494v-100h162q59 0 100 -42t41 -101.5t-42 -100.5t-99 -41h-162v-92q0 -59 -41 -101t-100 -42t-100 42t-41 101v92h-164q-59 0 -101.5 41 t-42.5 100.5t42 101.5t102 42h164v100l-340 498q-25 37 -25 80z" />
<glyph unicode="&#xa6;" horiz-adv-x="610" d="M164 -207v434q0 59 41 100.5t100.5 41.5t100 -41t40.5 -101v-434q0 -59 -40.5 -100t-100 -41t-100.5 41t-41 100zM164 735v434q0 59 41 100.5t100.5 41.5t100 -41t40.5 -101v-434q0 -59 -40.5 -100t-100 -41t-100.5 41t-41 100z" />
<glyph unicode="&#xa7;" horiz-adv-x="1294" d="M143 733q0 240 155 394.5t392 154.5q154 0 281 -29q51 -12 81.5 -55t26.5 -96l-4 -58q-4 -55 -45 -92t-96 -37q-88 0 -127 78q-55 6 -115 6q-43 0 -65 -4l340 -420q184 -229 184 -446q0 -240 -154.5 -394.5t-392.5 -154.5q-145 0 -280 31q-51 12 -82 54t-27 95l4 58 q4 55 45 93t96 38q86 0 127 -78q74 -8 115 -8q20 0 66 4l-340 420q-185 227 -185 446zM406 735q0 -133 124 -282l344 -424q14 76 15 100q0 125 -125 281l-344 424q-14 -76 -14 -99z" />
<glyph unicode="&#xa8;" horiz-adv-x="856" d="M11 1153.5q-5 63.5 36 112.5l47 55q41 47 104.5 53t110.5 -33q49 -41 55.5 -105.5t-34.5 -111.5l-49 -55q-41 -47 -103.5 -53t-111.5 33q-50 41 -55 104.5zM502 1154.5q-6 64.5 35 111.5l47 55q41 49 104.5 55t112.5 -35t54 -104t-36 -113l-47 -55q-41 -47 -104.5 -53 t-110.5 33q-49 41 -55 105.5z" />
<glyph unicode="&#xa9;" horiz-adv-x="1865" d="M92 405.5q0 348.5 247 594t593 245.5q348 0 595 -245.5t247 -594t-247 -595t-595 -246.5t-594 246.5t-246 595zM375 406q0 -231 162.5 -395.5t394 -164.5t395.5 164t164 395.5t-164 394.5t-395.5 163t-394 -164t-162.5 -393zM561 403q2 166 116 282t279 116q82 0 142 -23 q90 -37 90 -133q0 -74 -60.5 -116t-128.5 -17q-16 6 -41 6q-51 0 -82.5 -32.5t-31.5 -82.5q0 -45 26.5 -73.5t71.5 -28.5q23 0 47 12q35 18 70 19q59 0 100 -41t41 -101q0 -86 -72 -124q-84 -47 -186 -48q-162 -2 -271.5 110.5t-109.5 274.5z" />
<glyph unicode="&#xaa;" horiz-adv-x="1091" d="M123 -51q0 55 37 98l47 55q47 55 117 56q63 0 108 -45t45 -109q0 -61 -35 -98l-49 -56q-49 -55 -117 -55q-63 0 -108 45.5t-45 108.5zM137 406l273 587q16 37 52 59.5t77 22.5h39q90 0 127 -80l278 -587q33 -72 -8 -137.5t-119 -65.5q-70 0 -113 55h-364 q-43 -55 -113 -55q-78 0 -120 65.5t-9 135.5zM451 504h221l-113 231zM606 -51q0 55 37 98l47 55q47 55 117 56q66 0 110 -44t44 -110q0 -57 -35 -98l-47 -56q-47 -55 -119 -55q-63 0 -108.5 45.5t-45.5 108.5z" />
<glyph unicode="&#xab;" horiz-adv-x="1460" d="M92 393q0 66 47 107l338 299q39 37 94 37q59 0 100.5 -42t41.5 -102q0 -63 -47 -104l-220 -195l220 -194q47 -41 47 -105q0 -57 -41 -99t-101 -42q-57 0 -94 35l-338 299q-47 43 -47 106zM729 393.5q0 63.5 47 106.5l336 299q43 37 94 37q59 0 100.5 -42t41.5 -102 q0 -61 -48 -104l-217 -195l217 -194q47 -43 48 -105q0 -59 -41 -100t-101 -41q-53 0 -94 35l-336 299q-47 43 -47 106.5z" />
<glyph unicode="&#xac;" horiz-adv-x="1257" d="M195 393.5q0 57.5 42 99.5t99 42h592q49 0 87 -40t38 -102v-278q0 -59 -37 -100.5t-94.5 -41.5t-94 41t-36.5 101v137h-455q-57 0 -99 42t-42 99.5z" />
<glyph unicode="&#xad;" horiz-adv-x="933" d="M127 494q10 41 43 69.5t76 34.5l311 39q86 10 135 -64l49 -71q37 -51 19 -115q-16 -57 -66.5 -86t-107.5 -14q-51 14 -82 59l-223 -29q-25 -2 -54 5q-57 14 -86.5 65.5t-13.5 106.5z" />
<glyph unicode="&#xae;" horiz-adv-x="1865" d="M92 405.5q0 348.5 247 594t593 245.5q348 0 595 -245.5t247 -594t-247 -595t-595 -246.5t-594 246.5t-246 595zM375 406q0 -231 162.5 -395.5t394 -164.5t395.5 164t164 395.5t-164 394.5t-395.5 163t-394 -164t-162.5 -393zM606 141v531q0 53 39 92t92 39h226 q127 0 227 -90t100 -232q0 -129 -100 -235l20 -29q27 -41 27 -76q0 -53 -38 -90t-91 -37q-68 0 -104 52l-66 88h-74q-2 -63 -40 -101.5t-89 -38.5q-53 0 -91 37t-38 90zM864 410h97q29 0 50 20.5t21 50.5q0 27 -18.5 43.5t-31.5 19.5t-19 3h-99v-137z" />
<glyph unicode="&#xaf;" horiz-adv-x="772" d="M0 1221q0 57 41 99t100 42h490q57 0 99 -42t42 -99q0 -59 -41 -101.5t-100 -42.5h-490q-59 0 -100 42.5t-41 101.5z" />
<glyph unicode="&#xb0;" horiz-adv-x="860" d="M92 1057q0 139 99.5 238.5t238.5 99.5t238.5 -99.5t99.5 -238.5t-99.5 -238.5t-238.5 -99.5t-238.5 99.5t-99.5 238.5zM334 1057q0 -41 27.5 -68.5t68.5 -27.5t68.5 27.5t27.5 68.5t-27.5 68.5t-68.5 27.5t-68.5 -27.5t-27.5 -68.5z" />
<glyph unicode="&#xb1;" horiz-adv-x="1353" d="M205 614.5q0 57.5 41 99.5t100 42h189v213q0 59 41.5 100t99 41t99.5 -41t42 -100v-213h189q59 0 101 -41t42 -100.5t-42 -100.5t-101 -41h-189v-184q0 -59 -41 -101.5t-100.5 -42.5t-100 42t-40.5 102v184h-189q-59 0 -100 42t-41 99.5zM242 -118.5q0 59.5 42 101.5 t101 42h584q59 0 100 -42t41 -102q0 -57 -41 -99t-100 -42h-584q-59 0 -101 41t-42 100.5z" />
<glyph unicode="&#xb2;" horiz-adv-x="921" d="M96 459q-4 113 17.5 206t85 174t168.5 111l139 41q45 12 37 51q-16 16 -72 17q-86 0 -160 -29q-70 -35 -137.5 7t-67.5 120q0 84 74 125q45 25 138.5 42t152.5 17q147 0 251.5 -80.5t104.5 -222.5q0 -119 -63.5 -202.5t-177.5 -116.5l-142 -41q-39 -12 -53 -72h293 q57 0 99 -41t42 -100t-41 -101t-100 -42h-446q-57 0 -98.5 40t-43.5 97z" />
<glyph unicode="&#xb3;" horiz-adv-x="921" d="M88 393q0 70 55.5 112t120.5 25q90 -25 135 -24q16 0 36 2t48.5 20.5t28.5 49.5q0 39 -35 55t-71 16q-59 0 -100.5 41t-41.5 101q0 57 42 99t100 42q88 0 88 67q0 16 -2.5 25.5t-21.5 22t-56 12.5q-39 0 -150 -21q-66 -14 -117 29t-51 109q0 51 32 91t83 48 q141 27 203 26q162 0 263 -95t101 -247q0 -113 -63 -200q80 -92 80 -221q0 -160 -116 -257.5t-280 -97.5q-41 0 -204 33q-47 12 -77 51t-30 86z" />
<glyph unicode="&#xb4;" horiz-adv-x="808" d="M192.5 1163.5q20.5 55.5 73.5 79.5l342 158q53 25 108.5 4t80.5 -74q25 -51 4 -106.5t-74 -79.5l-342 -160q-51 -25 -107.5 -4.5t-81 74t-4 109z" />
<glyph unicode="&#xb5;" horiz-adv-x="1280" d="M143 -504v1290q0 59 41 101.5t100.5 42.5t100.5 -42t41 -102v-573q0 -47 33 -66.5t137 -19.5q74 0 134.5 33t84.5 57v569q0 59 42 100.5t101 41.5q57 0 99.5 -42t42.5 -100v-671q57 -43 57 -115q0 -57 -42 -99t-99 -42h-58q-63 0 -106 47q-127 -61 -256 -62 q-96 0 -170 19v-252q57 -43 57 -115q0 -59 -41 -100t-100 -41h-57q-59 0 -100.5 42t-41.5 99z" />
<glyph unicode="&#xb6;" horiz-adv-x="1153" d="M51 717q0 213 144.5 341t361.5 128h363q59 0 100 -42t41 -100q0 -72 -57 -114v-891q0 -164 -122 -281.5t-288 -117.5q-100 0 -215 51q-82 39 -82 129q0 78 65.5 119t135.5 10q63 -27 96 -27q49 0 88 36t39 81v217l-168 -16q-199 -20 -350.5 128t-151.5 349z" />
<glyph unicode="&#xb7;" horiz-adv-x="681" d="M164 362q0 55 37 99l47 57q43 55 117 55q63 0 108 -45t45 -108q0 -57 -35 -98l-49 -58q-49 -55 -117 -55q-63 0 -108 45t-45 108z" />
<glyph unicode="&#xb8;" horiz-adv-x="550" d="M49.5 -526.5q-20.5 55.5 5 107.5t80.5 73l109 39l-62 260q-14 57 17.5 107.5t89.5 62.5q57 14 106 -16.5t64 -88.5l90 -385q12 -53 -13.5 -100t-76.5 -65l-230 -80q-55 -20 -107 5t-72.5 80.5z" />
<glyph unicode="&#xb9;" horiz-adv-x="921" d="M78 1151q0 53 34.5 92t86.5 47l266 39q63 10 112.5 -33t49.5 -106v-584h75q59 0 100.5 -42t41.5 -101q0 -57 -41 -99t-101 -42h-434q-59 0 -101 40.5t-42 100t42 101.5t101 42h74v420l-102 -14q-63 -8 -112.5 32.5t-49.5 106.5z" />
<glyph unicode="&#xba;" horiz-adv-x="1220" d="M152 643q0 188 129 321.5t315 133.5t314 -131t128 -320q0 -186 -128 -319t-314 -133t-315 130t-129 318zM174 -51q0 55 37 98l47 55q45 55 117 56q63 0 108 -45t45 -109q0 -61 -34 -98l-50 -56q-49 -55 -116 -55q-63 0 -108.5 45.5t-45.5 108.5zM434 643q0 -72 46 -119 t116 -47t115 50.5t45 120t-46 117.5t-114 48q-70 0 -116 -50t-46 -120zM657 -51q0 55 37 98l47 55q45 55 117 56q63 0 108.5 -44t45.5 -110q0 -57 -35 -98l-47 -56q-45 -55 -119 -55q-63 0 -108.5 45.5t-45.5 108.5z" />
<glyph unicode="&#xbb;" horiz-adv-x="1464" d="M113 94q0 63 47 105l219 194l-219 195q-47 41 -47 104q0 59 41 101.5t100 42.5q53 0 94 -37l338 -299q47 -41 47 -106.5t-47 -106.5l-338 -299q-37 -35 -94 -35t-99 42t-42 99zM754 94q0 61 47 105l217 194l-217 195q-47 43 -47 104q0 59 41 101.5t100 42.5q51 0 94 -37 l336 -299q47 -41 47 -107q0 -63 -47 -106l-336 -299q-41 -35 -94 -35q-59 0 -100 41t-41 100z" />
<glyph unicode="&#xbc;" horiz-adv-x="2473" d="M82 1151q0 53 35 92t86 47l266 39q63 10 112.5 -33t49.5 -106v-584h76q59 0 100 -42t41 -101q0 -57 -41 -99t-100 -42h-435q-59 0 -101 40.5t-42 100t42 101.5t101 42h74v420l-102 -14q-63 -8 -112.5 32.5t-49.5 106.5zM768 -133q0 41 20 74l771 1255q41 66 120 66 q59 0 100.5 -41t41.5 -101q0 -41 -21 -73l-770 -1254q-41 -68 -121 -67q-57 0 -99 41t-42 100zM1513 -199l195 613q14 45 52 71.5t83 26.5q72 0 115 -58.5t20 -125.5l-137 -426h129v166q0 59 41 100t100.5 41t101.5 -41t42 -100v-168q49 -10 83 -49t34 -93q0 -51 -34 -90 t-83 -49v-80q0 -59 -42 -100t-99 -41q-59 0 -101.5 41t-42.5 100v78h-321q-74 0 -116.5 58t-19.5 126z" />
<glyph unicode="&#xbd;" horiz-adv-x="2451" d="M82 1151q0 53 35 92t86 47l266 39q63 10 112.5 -33t49.5 -106v-584h76q59 0 100 -42t41 -101q0 -57 -41 -99t-100 -42h-435q-59 0 -101 40.5t-42 100t42 101.5t101 42h74v420l-102 -14q-63 -8 -112.5 32.5t-49.5 106.5zM758 -133q0 41 20 74l770 1255q41 66 121 66 q59 0 100 -41t41 -101q0 -41 -20 -73l-770 -1254q-41 -68 -121 -67q-59 0 -100 41t-41 100zM1618 -463q-4 113 17.5 206t85 174t167.5 112l140 41q45 14 36 51q-16 16 -71 16q-86 0 -160 -28q-70 -35 -137.5 7t-67.5 120q0 84 74 124q45 25 138 42.5t153 17.5 q147 0 251.5 -81t104.5 -222q0 -117 -64.5 -202t-177.5 -118l-141 -41q-39 -12 -53 -71h293q59 0 100 -41t41 -100.5t-41 -101.5t-100 -42h-447q-57 0 -98 40t-43 97z" />
<glyph unicode="&#xbe;" horiz-adv-x="2414" d="M92 393q0 70 55.5 112t122.5 25q90 -25 133 -24q16 0 36 2t48.5 20.5t28.5 49.5q0 39 -35 55t-71 16q-57 0 -99.5 42t-42.5 99.5t42 99.5t100 42q90 0 90 67q0 16 -2 25.5t-21.5 22t-56.5 12.5q-41 0 -152 -21q-66 -14 -117 29t-51 109q0 51 32 91t83 48q141 27 205 26 q160 0 261 -95t101 -247q0 -113 -63 -200q82 -94 82 -221q0 -160 -117 -257.5t-281 -97.5q-84 0 -204 33q-47 10 -77 49t-30 88zM717 -133q0 41 20 74l770 1255q41 66 121 66q59 0 100 -41t41 -101q0 -41 -20 -73l-770 -1254q-41 -68 -121 -67q-59 0 -100 41t-41 100z M1454 -199l195 613q14 45 52 71.5t83 26.5q72 0 115 -58.5t20 -125.5l-137 -426h129v166q0 59 42 100t99 41q59 0 101 -41t42 -100v-168q49 -10 83 -49t34 -93q0 -51 -33.5 -90t-83.5 -49v-80q0 -59 -40.5 -100t-100 -41t-101.5 41t-42 100v78h-322q-74 0 -116 58t-19 126z " />
<glyph unicode="&#xbf;" horiz-adv-x="718" d="M14 96q0 207 215 305q8 53 48 88t94 35q47 0 84 -27.5t51 -70.5q66 -41 65 -119q0 -57 -42 -99t-99 -42h-31q-72 -27 -86 -38t-14 -32q0 -66 84 -65q33 0 60.5 3t39.5 7l11 4q70 31 135 -11t65 -118q0 -90 -82 -129q-90 -39 -227 -39q-145 0 -258 94t-113 254zM199 760 q0 47 32 90l58 70q43 49 108 49q59 0 101.5 -42t42.5 -100q0 -47 -33 -90l-57 -69q-43 -49 -109 -50q-59 0 -101 42.5t-42 99.5z" />
<glyph unicode="&#xc0;" horiz-adv-x="1226" d="M51 -8q0 16 6 35l389 1005q37 90 134 90h57q43 0 80 -24.5t51 -63.5l401 -1007h-2q8 -16 9 -39q0 -51 -44.5 -89t-99.5 -38q-94 0 -131 88l-51 125h-473l-47 -125q-14 -41 -52 -64.5t-81 -23.5q-57 0 -101.5 40t-44.5 91zM111.5 1415q-21.5 55 3 108.5t80 74t108.5 -4.5 l350 -157q53 -23 74 -79.5t-4 -109.5q-25 -51 -80 -71.5t-106 2.5l-351 157q-53 25 -74.5 80zM442 328h338l-170 426z" />
<glyph unicode="&#xc1;" horiz-adv-x="1226" d="M51 -8q0 16 6 35l389 1005q37 90 134 90h57q43 0 80 -24.5t51 -63.5l401 -1007h-2q8 -16 9 -39q0 -51 -44.5 -89t-99.5 -38q-94 0 -131 88l-51 125h-473l-47 -125q-14 -41 -52 -64.5t-81 -23.5q-57 0 -101.5 40t-44.5 91zM442 328h338l-170 426zM505.5 1331 q20.5 55 74.5 80l342 158q53 25 108 4t80 -74q25 -51 4.5 -106.5t-74.5 -79.5l-342 -160q-51 -25 -107 -4.5t-81 74t-4.5 108.5z" />
<glyph unicode="&#xc2;" horiz-adv-x="1226" d="M51 -8q0 16 6 35l389 1005q37 90 134 90h57q43 0 80 -24.5t51 -63.5l401 -1007h-2q8 -16 9 -39q0 -51 -44.5 -89t-99.5 -38q-94 0 -131 88l-51 125h-473l-47 -125q-14 -41 -52 -64.5t-81 -23.5q-57 0 -101.5 40t-44.5 91zM204.5 1343.5q14.5 57.5 65.5 86.5l271 157 q70 39 141 0l279 -157q51 -29 66 -85.5t-13.5 -107.5t-85 -67.5t-109.5 14.5l-205 119l-200 -119q-51 -29 -107.5 -14.5t-85.5 65.5q-31 51 -16.5 108.5zM442 328h338l-170 426z" />
<glyph unicode="&#xc3;" horiz-adv-x="1226" d="M51 -8q0 16 6 35l389 1005q37 90 134 90h57q43 0 80 -24.5t51 -63.5l401 -1007h-2q8 -16 9 -39q0 -51 -44.5 -89t-99.5 -38q-94 0 -131 88l-51 125h-473l-47 -125q-14 -41 -52 -64.5t-81 -23.5q-57 0 -101.5 40t-44.5 91zM233.5 1286q-12.5 57 18.5 107l106 168 q29 45 81.5 59t101.5 -10l237 -121l37 59q31 51 88.5 64.5t108.5 -19.5q49 -31 61 -89t-18 -107l-107 -168q-29 -47 -82 -61.5t-102 12.5l-236 120l-36 -59q-31 -51 -89.5 -63.5t-107.5 20.5q-49 31 -61.5 88zM442 328h338l-170 426z" />
<glyph unicode="&#xc4;" horiz-adv-x="1226" d="M51 -8q0 16 6 35l389 1005q37 90 134 90h57q43 0 80 -24.5t51 -63.5l401 -1007h-2q8 -16 9 -39q0 -51 -44.5 -89t-99.5 -38q-94 0 -131 88l-51 125h-473l-47 -125q-14 -41 -52 -64.5t-81 -23.5q-57 0 -101.5 40t-44.5 91zM215 1333q0 57 37 101l47 55q45 55 119 55 q55 0 96 -35q55 -47 55 -120q0 -55 -34 -97l-50 -55q-47 -55 -118 -55q-51 0 -97 35q-55 44 -55 116zM442 328h338l-170 426zM707 1337q0 55 34 97l47 55q47 55 119 55q53 0 99 -35q55 -47 55 -116q0 -57 -37 -101l-47 -55q-47 -55 -119 -55q-55 0 -96 35q-55 44 -55 120z " />
<glyph unicode="&#xc5;" horiz-adv-x="1226" d="M51 -8q0 16 6 35l389 1005q12 35 41 58q-90 39 -144 119.5t-54 181.5q0 133 96 233q96 96 231 96q137 0 233.5 -96t96.5 -233q0 -135 -96 -232q-55 -53 -117 -76q20 -18 35 -49l401 -1007h-2q8 -16 9 -39q0 -51 -44.5 -89t-99.5 -38q-94 0 -131 88l-51 125h-473l-47 -125 q-14 -41 -52 -64.5t-81 -23.5q-57 0 -101.5 40t-44.5 91zM442 328h338l-170 426zM553 1390.5q0 -26.5 18.5 -45t44.5 -18.5q23 0 48 19q18 18 18 44.5t-19.5 46t-46.5 19.5q-31 0 -45 -20q-18 -19 -18 -45.5z" />
<glyph unicode="&#xc6;" horiz-adv-x="1603" d="M31 0q0 33 16 66l498 978q39 78 125 78h708q59 0 101.5 -41t42.5 -100v-57q0 -59 -42 -100.5t-100 -41.5q-72 0 -114 58h-203v-207h297q59 0 101 -42t42 -99.5t-41 -99.5t-100 -42h-299v-209h326q59 0 101 -41t42 -100q0 -57 -41 -99t-100 -42h-467q-59 0 -100.5 41 t-41.5 100v125h-385l-96 -188q-43 -78 -127 -78q-59 0 -101 42t-42 99zM471 369h350l2 512h-88z" />
<glyph unicode="&#xc7;" horiz-adv-x="1138" d="M82 494q0 285 168 464t432 179q80 0 168 -13.5t115 -21.5q49 -16 77.5 -57t24.5 -91l-6 -57q-6 -55 -46 -92t-93 -37q-90 0 -127 78q-70 8 -109 8q-156 0 -238.5 -103.5t-82.5 -256.5q0 -166 82.5 -263.5t244.5 -97.5q98 0 180 25q72 20 131.5 -22t59.5 -113 q0 -45 -27.5 -83t-70.5 -53q-49 -16 -144 -28l53 -226q12 -53 -13 -100t-77 -65l-229 -80q-55 -20 -107.5 5t-73 80.5t5.5 107.5t81 73l108 39l-41 176q-209 49 -327.5 218t-118.5 407z" />
<glyph unicode="&#xc8;" horiz-adv-x="1085" d="M62.5 1415q-21.5 55 3 108.5t80 74t108.5 -4.5l350 -157q53 -23 73.5 -79.5t-3.5 -109.5q-25 -51 -80 -71.5t-107 2.5l-350 157q-53 25 -74.5 80zM113 240q0 150 94 249q-84 104 -84 252q-2 180 115.5 288t306.5 108q123 0 319 -19q57 -4 95 -49t34 -104l-4 -58 q-4 -55 -46 -92t-95 -37q-80 0 -121 68q-123 8 -180 8q-141 0 -141 -111q0 -37 8 -59t41.5 -39.5t99.5 -17.5h236q59 0 101 -42t42 -100q0 -59 -41 -100t-100 -41h-236q-164 0 -164 -106.5t133 -106.5q113 0 285 14q61 4 107.5 -36.5t46.5 -104.5q0 -53 -38 -94t-93 -45 q-213 -16 -306 -17q-180 0 -298.5 108t-116.5 284z" />
<glyph unicode="&#xc9;" horiz-adv-x="1085" d="M113 240q0 150 94 249q-84 104 -84 252q-2 180 115.5 288t306.5 108q123 0 319 -19q57 -4 95 -49t34 -104l-4 -58q-4 -55 -46 -92t-95 -37q-80 0 -121 68q-123 8 -180 8q-141 0 -141 -111q0 -37 8 -59t41.5 -39.5t99.5 -17.5h236q59 0 101 -42t42 -100q0 -59 -41 -100 t-100 -41h-236q-164 0 -164 -106.5t133 -106.5q113 0 285 14q61 4 107.5 -36.5t46.5 -104.5q0 -53 -38 -94t-93 -45q-213 -16 -306 -17q-180 0 -298.5 108t-116.5 284zM477.5 1331q20.5 55 73.5 80l342 158q53 25 108.5 4t79.5 -74q25 -51 4.5 -106.5t-73.5 -79.5l-342 -160 q-51 -25 -107.5 -4.5t-81 74t-4 108.5z" />
<glyph unicode="&#xca;" horiz-adv-x="1085" d="M113 240q0 150 94 249q-84 104 -84 252q-2 180 115.5 288t306.5 108q123 0 319 -19q57 -4 95 -49t34 -104l-4 -58q-4 -55 -46 -92t-95 -37q-80 0 -121 68q-123 8 -180 8q-141 0 -141 -111q0 -37 8 -59t41.5 -39.5t99.5 -17.5h236q59 0 101 -42t42 -100q0 -59 -41 -100 t-100 -41h-236q-164 0 -164 -106.5t133 -106.5q113 0 285 14q61 4 107.5 -36.5t46.5 -104.5q0 -53 -38 -94t-93 -45q-213 -16 -306 -17q-180 0 -298.5 108t-116.5 284zM176 1343.5q14 57.5 66 86.5l270 157q70 39 141 0l279 -157q51 -29 66.5 -85.5t-13.5 -107.5t-85 -67.5 t-109 14.5l-205 119l-201 -119q-51 -29 -107.5 -14.5t-84.5 65.5q-31 51 -17 108.5z" />
<glyph unicode="&#xcb;" horiz-adv-x="1085" d="M113 240q0 150 94 249q-84 104 -84 252q-2 180 115.5 288t306.5 108q123 0 319 -19q57 -4 95 -49t34 -104l-4 -58q-4 -55 -46 -92t-95 -37q-80 0 -121 68q-123 8 -180 8q-141 0 -141 -111q0 -37 8 -59t41.5 -39.5t99.5 -17.5h236q59 0 101 -42t42 -100q0 -59 -41 -100 t-100 -41h-236q-164 0 -164 -106.5t133 -106.5q113 0 285 14q61 4 107.5 -36.5t46.5 -104.5q0 -53 -38 -94t-93 -45q-213 -16 -306 -17q-180 0 -298.5 108t-116.5 284zM167 1320.5q-5 63.5 36 113.5l47 55q41 47 104.5 53t110.5 -33q49 -41 55 -105.5t-35 -111.5l-49 -55 q-41 -47 -103.5 -53t-111.5 33q-49 40 -54 103.5zM657.5 1321.5q-6.5 64.5 34.5 112.5l47 55q41 49 104.5 55t113 -35t54.5 -104.5t-36 -112.5l-47 -55q-41 -47 -104.5 -53t-110.5 33q-49 40 -55.5 104.5z" />
<glyph unicode="&#xcc;" horiz-adv-x="618" d="M-171.5 1415q-21.5 55 3.5 108.5t80 74t108 -4.5l351 -157q53 -23 73.5 -79.5t-4.5 -109.5q-25 -51 -80 -71.5t-106 2.5l-350 157q-54 25 -75.5 80zM113 981q0 59 42 100t99 41h57q59 0 101.5 -41t42.5 -100v-981q0 -57 -41 -99t-100.5 -42t-100.5 41t-41 100v866 q-59 41 -59 115z" />
<glyph unicode="&#xcd;" horiz-adv-x="618" d="M113 981q0 59 42 100t99 41h57q59 0 101.5 -41t42.5 -100v-981q0 -57 -41 -99t-100.5 -42t-100.5 41t-41 100v866q-59 41 -59 115zM202.5 1331q20.5 55 73.5 80l342 158q53 25 108.5 4t80.5 -74q25 -51 4.5 -106.5t-74.5 -79.5l-342 -160q-51 -25 -107.5 -4.5t-81 74 t-4 108.5z" />
<glyph unicode="&#xce;" horiz-adv-x="618" d="M-118.5 1343.5q14.5 57.5 65.5 86.5l270 157q70 39 141 0l279 -157q51 -29 66.5 -85.5t-13 -107.5t-85 -67.5t-109.5 14.5l-205 119l-201 -119q-51 -29 -107.5 -14.5t-84.5 65.5q-31 51 -16.5 108.5zM113 981q0 59 42 100t99 41h57q59 0 101.5 -41t42.5 -100v-981 q0 -57 -41 -99t-100.5 -42t-100.5 41t-41 100v866q-59 41 -59 115z" />
<glyph unicode="&#xcf;" horiz-adv-x="618" d="M-107.5 1320.5q-5.5 63.5 35.5 113.5l47 55q41 47 104.5 53t110.5 -33q49 -41 55.5 -105.5t-34.5 -111.5l-49 -55q-41 -47 -103.5 -53t-111.5 33q-49 40 -54.5 103.5zM113 981q0 59 42 100t99 41h57q59 0 101.5 -41t42.5 -100v-981q0 -57 -41 -99t-100.5 -42t-100.5 41 t-41 100v866q-59 41 -59 115zM383 1321.5q-6 64.5 35 112.5l47 55q41 49 104.5 55t112.5 -35t54 -104.5t-36 -112.5l-47 -55q-41 -47 -104.5 -53t-110.5 33q-49 40 -55 104.5z" />
<glyph unicode="&#xd0;" horiz-adv-x="1271" d="M-78 495.5q0 57.5 41 99.5t100 42h119v229q-61 45 -61 113q-2 57 40 100t101 43h297q293 0 468 -165.5t175 -456.5q0 -285 -174 -463t-459 -178h-303q-59 0 -102 42t-43 99q0 72 61 115v239h-116q-59 0 -101.5 42t-42.5 99.5zM461 141h104q168 0 259 95.5t91 263.5h3 q0 340 -355 340h-102v-203h188q59 0 101.5 -42t42.5 -99.5t-42 -99.5t-100 -42h-190v-213z" />
<glyph unicode="&#xd1;" horiz-adv-x="1384" d="M164 -8v995q0 55 39 95t94 40h76q72 0 112 -61l467 -729v547q-63 43 -63 108q0 55 40 95t95 40h57q57 0 98.5 -40t41.5 -95v-995q0 -55 -40 -94t-96 -39h-75q-74 0 -113 61l-461 729v-657q0 -55 -40 -94t-95 -39q-57 0 -97 39t-40 94zM313.5 1286q-12.5 57 18.5 107 l106 168q29 45 81 59t102 -10l237 -121l37 59q31 51 88 64.5t109 -19.5q49 -31 61 -89t-18 -107l-107 -168q-29 -47 -82 -61.5t-102 12.5l-236 120l-37 -59q-31 -51 -89 -63.5t-107 20.5q-49 31 -61.5 88z" />
<glyph unicode="&#xd2;" horiz-adv-x="1392" d="M82 496q0 268 173 454.5t439 186.5q262 0 439.5 -183.5t177.5 -457.5q0 -268 -173 -458t-440 -190q-262 0 -439 187t-177 461zM216.5 1415q-21.5 55 3 108.5t79.5 74t109 -4.5l350 -157q53 -23 73.5 -79.5t-4.5 -109.5q-25 -51 -80 -71.5t-106 2.5l-350 157 q-53 25 -74.5 80zM365 496q0 -150 90 -256.5t239.5 -106.5t239.5 105.5t90 257.5h2q0 158 -92 258t-236 100q-152 0 -242.5 -103t-90.5 -255z" />
<glyph unicode="&#xd3;" horiz-adv-x="1392" d="M82 496q0 268 173 454.5t439 186.5q262 0 439.5 -183.5t177.5 -457.5q0 -268 -173 -458t-440 -190q-262 0 -439 187t-177 461zM365 496q0 -150 90 -256.5t239.5 -106.5t239.5 105.5t90 257.5h2q0 158 -92 258t-236 100q-152 0 -242.5 -103t-90.5 -255zM589.5 1331 q20.5 55 74.5 80l342 158q53 25 108 4t80 -74q25 -51 4.5 -106.5t-74.5 -79.5l-342 -160q-51 -25 -107.5 -4.5t-81 74t-4 108.5z" />
<glyph unicode="&#xd4;" horiz-adv-x="1392" d="M82 496q0 268 173 454.5t439 186.5q262 0 439.5 -183.5t177.5 -457.5q0 -268 -173 -458t-440 -190q-262 0 -439 187t-177 461zM268.5 1343.5q14.5 57.5 65.5 86.5l270 157q70 39 141 0l279 -157q51 -29 66.5 -85.5t-13 -107.5t-85 -67.5t-109.5 14.5l-205 119l-201 -119 q-51 -29 -107.5 -14.5t-84.5 65.5q-31 51 -16.5 108.5zM365 496q0 -150 90 -256.5t239.5 -106.5t239.5 105.5t90 257.5h2q0 158 -92 258t-236 100q-152 0 -242.5 -103t-90.5 -255z" />
<glyph unicode="&#xd5;" horiz-adv-x="1392" d="M82 496q0 268 173 454.5t439 186.5q262 0 439.5 -183.5t177.5 -457.5q0 -268 -173 -458t-440 -190q-262 0 -439 187t-177 461zM317.5 1286q-12.5 57 18.5 107l106 168q29 45 81 59t102 -10l237 -121l37 59q31 51 88 64.5t109 -19.5q49 -31 61 -89t-18 -107l-107 -168 q-29 -47 -82 -61.5t-102 12.5l-236 120l-37 -59q-31 -51 -89 -63.5t-107 20.5q-49 31 -61.5 88zM365 496q0 -150 90 -256.5t239.5 -106.5t239.5 105.5t90 257.5h2q0 158 -92 258t-236 100q-152 0 -242.5 -103t-90.5 -255z" />
<glyph unicode="&#xd6;" horiz-adv-x="1392" d="M82 496q0 268 173 454.5t439 186.5q262 0 439.5 -183.5t177.5 -457.5q0 -268 -173 -458t-440 -190q-262 0 -439 187t-177 461zM300 1320.5q-5 63.5 36 113.5l47 55q41 47 104.5 53t110.5 -33q49 -41 55 -105.5t-35 -111.5l-49 -55q-41 -47 -103.5 -53t-111.5 33 q-49 40 -54 103.5zM365 496q0 -150 90 -256.5t239.5 -106.5t239.5 105.5t90 257.5h2q0 158 -92 258t-236 100q-152 0 -242.5 -103t-90.5 -255zM790.5 1321.5q-6.5 64.5 34.5 112.5l47 55q41 49 104.5 55t113 -35t54.5 -104.5t-36 -112.5l-47 -55q-41 -47 -104.5 -53 t-110.5 33q-49 40 -55.5 104.5z" />
<glyph unicode="&#xd7;" horiz-adv-x="1376" d="M256 90q0 57 39 96l199 207l-199 207q-39 39 -39 98.5t42 100.5t99 41q59 0 103 -45l190 -197l189 197q43 45 102 45t100 -41t41 -100.5t-39 -98.5l-198 -207l198 -207q39 -39 39 -96q0 -59 -41 -101t-100 -42q-57 0 -102 45l-189 196l-190 -196q-45 -45 -103 -45 q-59 0 -100 42t-41 101z" />
<glyph unicode="&#xd8;" horiz-adv-x="1411" d="M86 494q0 270 176 456.5t443 186.5q127 0 237 -47l59 90q41 63 119 63q59 0 101.5 -42t42.5 -99q0 -45 -25 -78l-70 -102q156 -182 156 -428q0 -268 -176 -459t-442 -191q-123 0 -228 43l-59 -90q-41 -63 -119 -63q-59 0 -101 42t-42 99q0 43 22 78l68 98 q-162 185 -162 443zM369 494q0 -158 95 -262.5t241 -104.5q150 0 242.5 107.5t92.5 259.5h2q0 156 -95 257t-240 101q-150 0 -244 -103t-94 -255z" />
<glyph unicode="&#xd9;" horiz-adv-x="1361" d="M143 426v555q0 59 41 100t100.5 41t100.5 -41t41 -100v-555q0 -293 254 -293q256 0 256 293v440q-59 45 -59 115q0 59 40.5 100t100.5 41h57q59 0 101.5 -42t42.5 -99v-555q0 -260 -140.5 -419t-396.5 -159q-250 0 -394.5 155t-144.5 423zM179.5 1415q-21.5 55 3 108.5 t79.5 74t109 -4.5l350 -157q53 -23 73.5 -79.5t-3.5 -109.5q-25 -51 -80.5 -71.5t-106.5 2.5l-350 157q-53 25 -74.5 80z" />
<glyph unicode="&#xda;" horiz-adv-x="1361" d="M143 426v555q0 59 41 100t100.5 41t100.5 -41t41 -100v-555q0 -293 254 -293q256 0 256 293v440q-59 45 -59 115q0 59 40.5 100t100.5 41h57q59 0 101.5 -42t42.5 -99v-555q0 -260 -140.5 -419t-396.5 -159q-250 0 -394.5 155t-144.5 423zM573.5 1331q20.5 55 73.5 80 l342 158q53 25 108.5 4t80.5 -74q25 -51 4 -106.5t-74 -79.5l-342 -160q-51 -25 -107.5 -4.5t-81 74t-4 108.5z" />
<glyph unicode="&#xdb;" horiz-adv-x="1361" d="M143 426v555q0 59 41 100t100.5 41t100.5 -41t41 -100v-555q0 -293 254 -293q256 0 256 293v440q-59 45 -59 115q0 59 40.5 100t100.5 41h57q59 0 101.5 -42t42.5 -99v-555q0 -260 -140.5 -419t-396.5 -159q-250 0 -394.5 155t-144.5 423zM252 1343.5q14 57.5 65 86.5 l271 157q70 39 141 0l279 -157q51 -29 66.5 -85.5t-13.5 -107.5t-85 -67.5t-110 14.5l-204 119l-201 -119q-51 -29 -107.5 -14.5t-85.5 65.5q-30 51 -16 108.5z" />
<glyph unicode="&#xdc;" horiz-adv-x="1361" d="M143 426v555q0 59 41 100t100.5 41t100.5 -41t41 -100v-555q0 -293 254 -293q256 0 256 293v440q-59 45 -59 115q0 59 40.5 100t100.5 41h57q59 0 101.5 -42t42.5 -99v-555q0 -260 -140.5 -419t-396.5 -159q-250 0 -394.5 155t-144.5 423zM263 1320.5q-5 63.5 36 113.5 l47 55q41 47 104.5 53t110.5 -33q49 -41 55.5 -105.5t-34.5 -111.5l-50 -55q-41 -47 -103 -53t-112 33q-49 40 -54 103.5zM754 1321.5q-6 64.5 34 112.5l48 55q41 49 104.5 55t112.5 -35t54 -104.5t-36 -112.5l-47 -55q-41 -47 -104.5 -53t-110.5 33q-49 40 -55 104.5z" />
<glyph unicode="&#xdd;" horiz-adv-x="1071" d="M0 981q0 59 41 100t100 41q76 0 117 -59l270 -385l285 387q45 57 113 57q59 0 102 -41t43 -100q0 -47 -27 -86l-374 -504v-391q0 -57 -42 -99t-99.5 -42t-99.5 42t-42 99v393l-356 506q-31 41 -31 82zM469 1331q20 55 74 80l342 158q53 25 108.5 4t79.5 -74 q25 -51 4.5 -106.5t-73.5 -79.5l-342 -160q-51 -25 -107.5 -4.5t-81 74t-4.5 108.5z" />
<glyph unicode="&#xde;" horiz-adv-x="1087" d="M117 745q0 66 57 113v123q0 59 42 100t99 41q59 0 100.5 -41t41.5 -100v-94h166q158 0 282.5 -112.5t126.5 -289.5q0 -170 -120.5 -288.5t-290.5 -118.5h-162v-78q0 -57 -41 -99t-100.5 -42t-100.5 41t-41 100v633q-59 44 -59 112zM457 360h161q53 0 91.5 37t38.5 88 q0 49 -31 79t-62 34l-30 6h-168v-244z" />
<glyph unicode="&#xdf;" horiz-adv-x="1310" d="M-72 -454.5q0 57.5 42 99.5t100 42q66 0 65 96v1073q0 188 138.5 329.5t326.5 141.5q225 0 367.5 -133t142.5 -356q0 -66 -39 -110t-104 -44q-111 0 -111 -80q0 -45 8 -53q10 -10 70 -21q41 -8 66.5 -15t73.5 -31.5t78 -57.5t53.5 -92.5t23.5 -136.5 q0 -168 -110.5 -260.5t-282.5 -92.5q-63 0 -138 13q-47 12 -76.5 51t-29.5 86q0 70 54 113t120 26q25 -6 70 -6q39 0 63.5 6t33.5 18.5t11 21.5t2 24q0 31 -4 39q-20 10 -65 18q-47 10 -72 17.5t-76 33t-78.5 59t-52.5 96t-25 144.5q0 119 61.5 206t170.5 128 q-45 106 -205 106q-72 0 -127 -58t-55 -130v-1073q0 -158 -97.5 -268.5t-250.5 -110.5q-57 0 -99.5 42t-42.5 99.5z" />
<glyph unicode="&#xe0;" horiz-adv-x="1126" d="M57 2q0 31 11 53l335 811q37 88 132 88h49q43 0 78.5 -23.5t52.5 -62.5l344 -811q12 -29 12 -55q0 -59 -42 -100t-99 -41q-94 0 -131 86l-39 90h-393l-37 -90q-35 -86 -131 -86q-59 0 -100.5 41t-41.5 100zM72.5 1247.5q-21.5 55.5 3 108.5t80 73.5t108.5 -4.5l350 -157 q53 -23 74 -79t-4 -110q-25 -51 -80 -71.5t-106 2.5l-351 157q-53 25 -74.5 80.5zM422 281h280l-141 331z" />
<glyph unicode="&#xe1;" horiz-adv-x="1126" d="M57 2q0 31 11 53l335 811q37 88 132 88h49q43 0 78.5 -23.5t52.5 -62.5l344 -811q12 -29 12 -55q0 -59 -42 -100t-99 -41q-94 0 -131 86l-39 90h-393l-37 -90q-35 -86 -131 -86q-59 0 -100.5 41t-41.5 100zM422 281h280l-141 331zM444.5 1188q20.5 55 73.5 80l342 157 q53 25 108.5 4.5t80.5 -73.5q25 -51 4 -106.5t-74 -80.5l-342 -159q-51 -25 -107.5 -4.5t-81 74t-4 108.5z" />
<glyph unicode="&#xe2;" horiz-adv-x="1126" d="M57 2q0 31 11 53l335 811q37 88 132 88h49q43 0 78.5 -23.5t52.5 -62.5l344 -811q12 -29 12 -55q0 -59 -42 -100t-99 -41q-94 0 -131 86l-39 90h-393l-37 -90q-35 -86 -131 -86q-59 0 -100.5 41t-41.5 100zM151.5 1175.5q14.5 57.5 65.5 86.5l270 157q70 39 142 0 l278 -157q51 -29 66.5 -85.5t-13 -107.5t-85 -67.5t-109.5 14.5l-205 119l-201 -119q-51 -29 -107 -14.5t-85 65.5q-31 51 -16.5 108.5zM422 281h280l-141 331z" />
<glyph unicode="&#xe3;" horiz-adv-x="1126" d="M57 2q0 31 11 53l335 811q37 88 132 88h49q43 0 78.5 -23.5t52.5 -62.5l344 -811q12 -29 12 -55q0 -59 -42 -100t-99 -41q-94 0 -131 86l-39 90h-393l-37 -90q-35 -86 -131 -86q-59 0 -100.5 41t-41.5 100zM164 1118.5q-12 57.5 18 106.5l107 168q29 45 82 59t100 -10 l238 -121l36 59q31 51 88.5 64.5t108.5 -19.5q49 -31 61.5 -89t-18.5 -107l-106 -168q-29 -47 -82.5 -61.5t-102.5 12.5l-235 121l-37 -60q-31 -51 -89.5 -63.5t-107.5 20.5q-49 31 -61 88.5zM422 281h280l-141 331z" />
<glyph unicode="&#xe4;" horiz-adv-x="1126" d="M57 2q0 31 11 53l335 811q37 88 132 88h49q43 0 78.5 -23.5t52.5 -62.5l344 -811q12 -29 12 -55q0 -59 -42 -100t-99 -41q-94 0 -131 86l-39 90h-393l-37 -90q-35 -86 -131 -86q-59 0 -100.5 41t-41.5 100zM152.5 1177.5q-5.5 63.5 35.5 112.5l48 56q41 47 104 53 t111 -33q49 -41 55 -105.5t-35 -111.5l-49 -55q-41 -47 -103.5 -53.5t-111.5 32.5q-49 41 -54.5 104.5zM422 281h280l-141 331zM643 1178.5q-6 64.5 35 111.5l47 56q41 49 104.5 55t112.5 -35t54 -104.5t-35 -112.5l-48 -55q-41 -47 -104.5 -53.5t-110.5 32.5 q-49 41 -55 105.5z" />
<glyph unicode="&#xe5;" horiz-adv-x="1126" d="M57 2q0 31 11 53l335 811q12 33 37 54q-90 37 -147 118.5t-57 184.5q0 133 96 233q96 96 231 96q137 0 233.5 -96t96.5 -233q0 -135 -96 -232q-51 -51 -117 -76q23 -18 35 -47l344 -811q12 -29 12 -55q0 -59 -42 -100t-99 -41q-94 0 -131 86l-39 90h-393l-37 -90 q-35 -86 -131 -86q-59 0 -100.5 41t-41.5 100zM422 281h280l-141 331zM500 1222.5q0 -26.5 18.5 -45t44.5 -18.5q23 0 47 19q18 18 18.5 44.5t-19 46t-46.5 19.5q-31 0 -45 -20q-18 -19 -18 -45.5z" />
<glyph unicode="&#xe6;" horiz-adv-x="1538" d="M37 0q0 33 16 66l428 813q39 76 125 75h684q59 0 101.5 -42t42.5 -99v-57q0 -59 -41 -100.5t-101 -41.5q-70 0 -112 58h-174v-123h270q59 0 101 -42t42 -99q0 -59 -42 -100.5t-99 -41.5h-272v-125h292q59 0 101.5 -42t42.5 -99t-41 -99t-101 -42h-434q-59 0 -100 42 t-41 99v57h-354l-66 -123q-41 -76 -125 -75q-59 0 -101 42t-42 99zM449 299h315l2 414h-96z" />
<glyph unicode="&#xe7;" horiz-adv-x="1038" d="M78 410q0 242 154.5 399.5t392.5 157.5q72 0 148.5 -10.5t98.5 -18.5q47 -16 76 -57t25 -90l-6 -58q-6 -55 -45 -93t-95 -38q-86 0 -127 78q-49 4 -75 4q-119 0 -192 -74.5t-73 -199.5q0 -131 69 -205t200 -74q78 0 159 21q70 18 125.5 -24t55.5 -112q0 -47 -29 -86 t-76 -51q-49 -12 -104 -20l53 -226q12 -53 -13.5 -100t-76.5 -65l-229 -80q-55 -20 -107.5 5t-73 80.5t5 107.5t80.5 73l109 39l-41 176q-180 47 -284.5 192.5t-104.5 348.5z" />
<glyph unicode="&#xe8;" horiz-adv-x="1062" d="M39.5 1247.5q-21.5 55.5 3.5 108.5t80 73.5t108 -4.5l351 -157q53 -23 73.5 -79t-4.5 -110q-25 -51 -80 -71.5t-106 2.5l-350 157q-54 25 -75.5 80.5zM117 195q0 121 73 213q-63 94 -63 206q0 158 102.5 255.5t270.5 97.5q137 0 311 -11q59 -4 99 -49t36 -104l-4 -58 q-4 -55 -45 -93t-96 -38q-76 0 -119 64q-178 6 -180 6q-47 0 -69.5 -13.5t-22.5 -54.5q0 -18 2 -27t10 -22.5t30.5 -18.5t59.5 -5h242q59 0 101 -42t42 -99.5t-41 -99.5t-100 -42h-242q-115 0 -115 -65q0 -63 88 -64q98 0 283 12q61 4 106.5 -39t45.5 -104q0 -55 -39 -95 t-95 -44q-160 -12 -299 -13q-158 0 -265 95.5t-107 251.5z" />
<glyph unicode="&#xe9;" horiz-adv-x="1062" d="M117 195q0 121 73 213q-63 94 -63 206q0 158 102.5 255.5t270.5 97.5q137 0 311 -11q59 -4 99 -49t36 -104l-4 -58q-4 -55 -45 -93t-96 -38q-76 0 -119 64q-178 6 -180 6q-47 0 -69.5 -13.5t-22.5 -54.5q0 -18 2 -27t10 -22.5t30.5 -18.5t59.5 -5h242q59 0 101 -42 t42 -99.5t-41 -99.5t-100 -42h-242q-115 0 -115 -65q0 -63 88 -64q98 0 283 12q61 4 106.5 -39t45.5 -104q0 -55 -39 -95t-95 -44q-160 -12 -299 -13q-158 0 -265 95.5t-107 251.5zM452.5 1188q20.5 55 73.5 80l342 157q53 25 108.5 4.5t80.5 -73.5q25 -51 4 -106.5 t-74 -80.5l-342 -159q-51 -25 -107.5 -4.5t-81 74t-4 108.5z" />
<glyph unicode="&#xea;" horiz-adv-x="1062" d="M117 195q0 121 73 213q-63 94 -63 206q0 158 102.5 255.5t270.5 97.5q137 0 311 -11q59 -4 99 -49t36 -104l-4 -58q-4 -55 -45 -93t-96 -38q-76 0 -119 64q-178 6 -180 6q-47 0 -69.5 -13.5t-22.5 -54.5q0 -18 2 -27t10 -22.5t30.5 -18.5t59.5 -5h242q59 0 101 -42 t42 -99.5t-41 -99.5t-100 -42h-242q-115 0 -115 -65q0 -63 88 -64q98 0 283 12q61 4 106.5 -39t45.5 -104q0 -55 -39 -95t-95 -44q-160 -12 -299 -13q-158 0 -265 95.5t-107 251.5zM159.5 1175.5q14.5 57.5 65.5 86.5l271 157q70 39 141 0l278 -157q51 -29 66.5 -85.5 t-13 -107.5t-85 -67.5t-109.5 14.5l-205 119l-200 -119q-51 -29 -107.5 -14.5t-85.5 65.5q-31 51 -16.5 108.5z" />
<glyph unicode="&#xeb;" horiz-adv-x="1062" d="M117 195q0 121 73 213q-63 94 -63 206q0 158 102.5 255.5t270.5 97.5q137 0 311 -11q59 -4 99 -49t36 -104l-4 -58q-4 -55 -45 -93t-96 -38q-76 0 -119 64q-178 6 -180 6q-47 0 -69.5 -13.5t-22.5 -54.5q0 -18 2 -27t10 -22.5t30.5 -18.5t59.5 -5h242q59 0 101 -42 t42 -99.5t-41 -99.5t-100 -42h-242q-115 0 -115 -65q0 -63 88 -64q98 0 283 12q61 4 106.5 -39t45.5 -104q0 -55 -39 -95t-95 -44q-160 -12 -299 -13q-158 0 -265 95.5t-107 251.5zM120 1177.5q-5 63.5 36 112.5l47 56q41 47 104.5 53t110.5 -33q49 -41 55 -105.5 t-35 -111.5l-49 -55q-41 -47 -103.5 -53.5t-111.5 32.5q-49 41 -54 104.5zM610 1178.5q-6 64.5 35 111.5l47 56q41 49 104.5 55t112.5 -35t54.5 -104.5t-35.5 -112.5l-47 -55q-41 -47 -104.5 -53.5t-110.5 32.5q-50 41 -56 105.5z" />
<glyph unicode="&#xec;" horiz-adv-x="626" d="M-177.5 1247.5q-21.5 55.5 3 108.5t80 73.5t108.5 -4.5l351 -157q53 -23 73.5 -79t-4.5 -110q-25 -51 -80 -71.5t-106 2.5l-350 157q-54 25 -75.5 80.5zM117 813q0 59 42 100t99 41h57q59 0 101.5 -42t42.5 -99v-813q0 -57 -41 -99t-100.5 -42t-100.5 42t-41 99v698 q-59 45 -59 115z" />
<glyph unicode="&#xed;" horiz-adv-x="626" d="M117 813q0 59 42 100t99 41h57q59 0 101.5 -42t42.5 -99v-813q0 -57 -41 -99t-100.5 -42t-100.5 42t-41 99v698q-59 45 -59 115zM194.5 1188q20.5 55 73.5 80l342 157q53 25 108.5 4.5t80.5 -73.5q25 -51 4 -106.5t-74 -80.5l-342 -159q-51 -25 -107.5 -4.5t-81 74 t-4 108.5z" />
<glyph unicode="&#xee;" horiz-adv-x="626" d="M-98.5 1175.5q14.5 57.5 65.5 86.5l271 157q70 39 141 0l278 -157q51 -29 66.5 -85.5t-13 -107.5t-85 -67.5t-109.5 14.5l-205 119l-200 -119q-51 -29 -107.5 -14.5t-85.5 65.5q-31 51 -16.5 108.5zM117 813q0 59 42 100t99 41h57q59 0 101.5 -42t42.5 -99v-813 q0 -57 -41 -99t-100.5 -42t-100.5 42t-41 99v698q-59 45 -59 115z" />
<glyph unicode="&#xef;" horiz-adv-x="626" d="M-97 1177.5q-5 63.5 36 112.5l47 56q41 47 104.5 53t110.5 -33q49 -41 55 -105.5t-35 -111.5l-49 -55q-41 -47 -103.5 -53.5t-111.5 32.5q-49 41 -54 104.5zM117 813q0 59 42 100t99 41h57q59 0 101.5 -42t42.5 -99v-813q0 -57 -41 -99t-100.5 -42t-100.5 42t-41 99v698 q-59 45 -59 115zM393 1178.5q-6 64.5 35 111.5l47 56q41 49 104.5 55t112.5 -35t54.5 -104.5t-35.5 -112.5l-47 -55q-41 -47 -104.5 -53.5t-110.5 32.5q-50 41 -56 105.5z" />
<glyph unicode="&#xf0;" horiz-adv-x="1191" d="M-139 393.5q0 57.5 41 99.5t100 42h184v163q-59 45 -59 113q0 59 42 101t99 42h264q258 0 421 -143t163 -397q0 -250 -161.5 -402.5t-413.5 -152.5h-271q-59 0 -101 42t-42 99q0 70 59 113v139h-182q-59 0 -101 42t-42 99.5zM467 141h72q135 0 213.5 71t78.5 202h3 q0 258 -299 258h-68v-137h121q59 0 101 -42t42 -99.5t-42 -99.5t-99 -42h-123v-111z" />
<glyph unicode="&#xf1;" horiz-adv-x="1294" d="M168 -8v827q0 55 40 95t95 40h64q74 0 112 -59l379 -561v375q-61 45 -61 110q0 55 40 95t95 40h59q55 0 95 -40t40 -95v-827q0 -55 -38.5 -94t-94.5 -39h-65q-74 0 -113 59l-377 559v-485q0 -55 -39 -94t-94 -39t-96 39t-41 94zM248 1118.5q-12 57.5 18 106.5l107 168 q29 45 82 59t100 -10l238 -121l36 59q31 51 88.5 64.5t108.5 -19.5q49 -31 61.5 -89t-18.5 -107l-106 -168q-29 -47 -82.5 -61.5t-102.5 12.5l-235 121l-37 -60q-31 -51 -89.5 -63.5t-107.5 20.5q-49 31 -61 88.5z" />
<glyph unicode="&#xf2;" horiz-adv-x="1259" d="M76 407.5q0 235.5 158.5 397.5t394.5 162q233 0 394 -162t161 -397.5t-159 -397.5t-394 -162q-233 0 -394 162t-161 397.5zM138.5 1247.5q-21.5 55.5 3 108.5t79.5 73.5t109 -4.5l350 -157q53 -23 73.5 -79t-3.5 -110q-25 -51 -80.5 -71.5t-106.5 2.5l-350 157 q-53 25 -74.5 80.5zM358 408q0 -121 77 -199t194 -78q119 0 193.5 79t74.5 198h2q0 121 -75.5 199.5t-192.5 78.5q-119 0 -196 -79.5t-77 -198.5z" />
<glyph unicode="&#xf3;" horiz-adv-x="1259" d="M76 407.5q0 235.5 158.5 397.5t394.5 162q233 0 394 -162t161 -397.5t-159 -397.5t-394 -162q-233 0 -394 162t-161 397.5zM358 408q0 -121 77 -199t194 -78q119 0 193.5 79t74.5 198h2q0 121 -75.5 199.5t-192.5 78.5q-119 0 -196 -79.5t-77 -198.5zM509.5 1188 q20.5 55 74.5 80l342 157q53 25 108.5 4.5t79.5 -73.5q25 -51 4.5 -106.5t-74.5 -80.5l-342 -159q-51 -25 -107 -4.5t-81 74t-4.5 108.5z" />
<glyph unicode="&#xf4;" horiz-adv-x="1259" d="M76 407.5q0 235.5 158.5 397.5t394.5 162q233 0 394 -162t161 -397.5t-159 -397.5t-394 -162q-233 0 -394 162t-161 397.5zM217 1175.5q14 57.5 66 86.5l270 157q70 39 141 0l279 -157q51 -29 66.5 -85.5t-13.5 -107.5t-85 -67.5t-110 14.5l-204 119l-201 -119 q-51 -29 -107.5 -14.5t-85.5 65.5q-30 51 -16 108.5zM358 408q0 -121 77 -199t194 -78q119 0 193.5 79t74.5 198h2q0 121 -75.5 199.5t-192.5 78.5q-119 0 -196 -79.5t-77 -198.5z" />
<glyph unicode="&#xf5;" horiz-adv-x="1259" d="M76 407.5q0 235.5 158.5 397.5t394.5 162q233 0 394 -162t161 -397.5t-159 -397.5t-394 -162q-233 0 -394 162t-161 397.5zM229.5 1118.5q-12.5 57.5 18.5 106.5l106 168q29 45 82 59t101 -10l237 -121l37 59q31 51 88 64.5t109 -19.5q49 -31 61 -89t-18 -107l-107 -168 q-29 -47 -82 -61.5t-102 12.5l-236 121l-37 -60q-31 -51 -89 -63.5t-107 20.5q-49 31 -61.5 88.5zM358 408q0 -121 77 -199t194 -78q119 0 193.5 79t74.5 198h2q0 121 -75.5 199.5t-192.5 78.5q-119 0 -196 -79.5t-77 -198.5z" />
<glyph unicode="&#xf6;" horiz-adv-x="1259" d="M76 407.5q0 235.5 158.5 397.5t394.5 162q233 0 394 -162t161 -397.5t-159 -397.5t-394 -162q-233 0 -394 162t-161 397.5zM218 1177.5q-5 63.5 36 112.5l47 56q41 47 104.5 53t110.5 -33q49 -41 55.5 -105.5t-34.5 -111.5l-50 -55q-41 -47 -103 -53.5t-112 32.5 q-49 41 -54 104.5zM358 408q0 -121 77 -199t194 -78q119 0 193.5 79t74.5 198h2q0 121 -75.5 199.5t-192.5 78.5q-119 0 -196 -79.5t-77 -198.5zM708.5 1178.5q-6.5 64.5 34.5 111.5l48 56q41 49 104 55t112.5 -35t54.5 -104.5t-36 -112.5l-47 -55q-41 -47 -104.5 -53.5 t-110.5 32.5q-49 41 -55.5 105.5z" />
<glyph unicode="&#xf7;" horiz-adv-x="1343" d="M92 397q0 59 41 101.5t100 42.5h877q59 0 100 -42t41 -101.5t-41 -100.5t-100 -41h-877q-57 0 -99 42t-42 99zM496 -55q0 57 34 98l48 55q45 55 118 56q63 0 108.5 -45.5t45.5 -108.5q0 -55 -37 -98l-47 -58q-41 -53 -117 -53q-63 0 -108 45.5t-45 108.5zM496 786 q0 57 34 99l48 57q45 55 118 55q63 0 108.5 -45t45.5 -108q0 -55 -37 -99l-47 -57q-45 -55 -117 -55q-63 0 -108 45t-45 108z" />
<glyph unicode="&#xf8;" horiz-adv-x="1280" d="M86 406q0 236 158.5 396.5t394.5 160.5q109 0 201 -37l59 88q45 63 119 63q59 0 101 -42t42 -99q0 -41 -24 -78l-68 -100q125 -158 125 -352q0 -236 -158.5 -397t-394.5 -161q-96 0 -176 27l-62 -92q-45 -63 -118 -64q-59 0 -101.5 42t-42.5 100q0 41 25 78l63 92 q-143 160 -143 375zM369 406q0 -121 76.5 -198t193.5 -77q119 0 193.5 78t74.5 197h2q0 121 -75.5 197.5t-192.5 76.5q-119 0 -195.5 -77.5t-76.5 -196.5z" />
<glyph unicode="&#xf9;" horiz-adv-x="1210" d="M93.5 1247.5q-21.5 55.5 3 108.5t79.5 73.5t109 -4.5l350 -157q53 -23 73.5 -79t-3.5 -110q-25 -51 -80.5 -71.5t-106.5 2.5l-350 157q-53 25 -74.5 80.5zM137 348v465q0 59 42 100t99.5 41t99.5 -41t42 -100v-465q0 -217 184 -217q186 0 187 217v350q-59 45 -60 115 q0 59 42 100t99 41h58q59 0 101 -42t42 -99v-465q0 -219 -125 -359.5t-342 -140.5q-209 0 -339 137.5t-130 362.5z" />
<glyph unicode="&#xfa;" horiz-adv-x="1210" d="M137 348v465q0 59 42 100t99.5 41t99.5 -41t42 -100v-465q0 -217 184 -217q186 0 187 217v350q-59 45 -60 115q0 59 42 100t99 41h58q59 0 101 -42t42 -99v-465q0 -219 -125 -359.5t-342 -140.5q-209 0 -339 137.5t-130 362.5zM485.5 1188q20.5 55 73.5 80l342 157 q53 25 108.5 4.5t80.5 -73.5q25 -51 4 -106.5t-74 -80.5l-342 -159q-51 -25 -107.5 -4.5t-81 74t-4 108.5z" />
<glyph unicode="&#xfb;" horiz-adv-x="1210" d="M137 348v465q0 59 42 100t99.5 41t99.5 -41t42 -100v-465q0 -217 184 -217q186 0 187 217v350q-59 45 -60 115q0 59 42 100t99 41h58q59 0 101 -42t42 -99v-465q0 -219 -125 -359.5t-342 -140.5q-209 0 -339 137.5t-130 362.5zM192.5 1175.5q14.5 57.5 65.5 86.5l270 157 q70 39 142 0l278 -157q51 -29 66.5 -85.5t-13 -107.5t-85 -67.5t-109.5 14.5l-205 119l-201 -119q-51 -29 -107 -14.5t-85 65.5q-31 51 -16.5 108.5z" />
<glyph unicode="&#xfc;" horiz-adv-x="1210" d="M137 348v465q0 59 42 100t99.5 41t99.5 -41t42 -100v-465q0 -217 184 -217q186 0 187 217v350q-59 45 -60 115q0 59 42 100t99 41h58q59 0 101 -42t42 -99v-465q0 -219 -125 -359.5t-342 -140.5q-209 0 -339 137.5t-130 362.5zM193.5 1177.5q-5.5 63.5 35.5 112.5l47 56 q41 47 104.5 53t111.5 -33q49 -41 55 -105.5t-35 -111.5l-49 -55q-41 -47 -103.5 -53.5t-111.5 32.5q-49 41 -54.5 104.5zM684 1178.5q-6 64.5 35 111.5l47 56q41 49 104.5 55t112.5 -35t54 -104.5t-36 -112.5l-47 -55q-41 -47 -104.5 -53.5t-110.5 32.5q-49 41 -55 105.5z " />
<glyph unicode="&#xfd;" horiz-adv-x="968" d="M6 813q0 59 42 100t99 41q74 0 115 -57l219 -299l232 301q43 55 110 55q57 0 99.5 -41t42.5 -100q0 -51 -29 -88l-318 -410v-315q0 -57 -40.5 -99t-100 -42t-100.5 42t-41 99v317l-303 412q-27 35 -27 84zM405.5 1188q20.5 55 73.5 80l342 157q53 25 108.5 4.5 t80.5 -73.5q25 -51 4 -106.5t-74 -80.5l-342 -159q-51 -25 -107.5 -4.5t-81 74t-4 108.5z" />
<glyph unicode="&#xfe;" horiz-adv-x="966" d="M117 589.5q0 69.5 55 112.5v109q0 57 41 99t100.5 42t101.5 -42t42 -99v-80h100q137 0 245.5 -97t108.5 -251q0 -147 -104.5 -249.5t-251.5 -102.5h-96v-31q0 -57 -42 -99t-102 -42q-57 0 -99 42t-42 99v477q-57 43 -57 112.5zM457 313h96q29 0 51.5 20.5t22.5 49.5h2 q-4 57 -70 66h-102v-136z" />
<glyph unicode="&#xff;" horiz-adv-x="968" d="M6 813q0 59 42 100t99 41q74 0 115 -57l219 -299l232 301q43 55 110 55q57 0 99.5 -41t42.5 -100q0 -51 -29 -88l-318 -410v-315q0 -57 -40.5 -99t-100 -42t-100.5 42t-41 99v317l-303 412q-27 35 -27 84zM73 1177.5q-5 63.5 36 112.5l47 56q41 47 104.5 53t110.5 -33 q49 -41 55 -105.5t-35 -111.5l-49 -55q-41 -47 -103.5 -53.5t-111.5 32.5q-49 41 -54 104.5zM563 1178.5q-6 64.5 35 111.5l47 56q41 49 104.5 55t112.5 -35t54.5 -104.5t-35.5 -112.5l-47 -55q-41 -47 -104.5 -53.5t-111.5 32.5q-49 41 -55 105.5z" />
<glyph unicode="&#x152;" horiz-adv-x="2478" d="M1600 489q-84 104 -84 252v7q0 176 116 281q118 108 306 108q123 0 319 -19q57 -4 95 -49q34 -41 35 -93q0 -6 -1 -11l-4 -58q-4 -55 -46 -92t-95 -37q-80 0 -121 68q-123 8 -180 8q-141 0 -141 -111q0 -37 8 -59t41.5 -39.5t99.5 -17.5h236q59 0 101 -42t42 -100 q0 -59 -41 -100t-100 -41h-236q-164 0 -164 -106.5t133 -106.5q113 0 285 14q6 0 11 1q55 0 97 -37q46 -41 46 -105q0 -53 -38 -94t-93 -45q-213 -16 -306 -17q-180 0 -299 108q-117 106 -116 278q0 155 94 255zM82 496q0 268 173 454.5t439 186.5q262 0 439.5 -183.5 t177.5 -457.5q0 -268 -173 -458t-440 -190q-262 0 -439 187t-177 461zM365 496q0 -150 90 -256.5t239.5 -106.5t239.5 105.5t90 257.5h2q0 158 -92 258t-236 100q-152 0 -242.5 -103t-90.5 -255z" />
<glyph unicode="&#x153;" horiz-adv-x="2322" d="M1377 195q0 121 73 213q-63 94 -63 206q0 158 102.5 255.5t270.5 97.5q137 0 311 -11q59 -4 99 -49q36 -41 37 -93q0 -5 -1 -11l-4 -58q-4 -55 -45 -93t-96 -38q-76 0 -119 64q-178 6 -180 6q-47 0 -69.5 -13.5t-22.5 -54.5q0 -18 2 -27t10 -22.5t30.5 -18.5t59.5 -5h242 q59 0 101 -42t42 -99.5t-41 -99.5t-100 -42h-242q-115 0 -115 -65q0 -63 88 -64q98 0 283 12q5 0 11 1q55 0 96 -40q45 -43 45 -104q0 -55 -39 -95t-95 -44q-160 -12 -299 -13q-158 0 -265 95.5t-107 251.5zM76 407.5q0 235.5 158.5 397.5t394.5 162q233 0 394 -162 t161 -397.5t-159 -397.5t-394 -162q-233 0 -394 162t-161 397.5zM358 408q0 -121 77 -199t194 -78q119 0 193.5 79t74.5 198h2q0 121 -75.5 199.5t-192.5 78.5q-119 0 -196 -79.5t-77 -198.5z" />
<glyph unicode="&#x178;" horiz-adv-x="1071" d="M111 1397.5q-5 63.5 36 112.5l47 55q41 47 104.5 53t110.5 -33q49 -41 55.5 -105.5t-34.5 -111.5l-49 -55q-41 -47 -103.5 -53t-111.5 33q-50 41 -55 104.5zM602 1398.5q-6 64.5 35 111.5l47 55q41 49 104.5 55t112.5 -35t54 -104t-36 -113l-47 -55q-41 -47 -104.5 -53 t-110.5 33q-49 41 -55 105.5zM0 981q0 59 41 100t100 41q76 0 117 -59l270 -385l285 387q45 57 113 57q59 0 102 -41t43 -100q0 -47 -27 -86l-374 -504v-391q0 -57 -42 -99t-99.5 -42t-99.5 42t-42 99v393l-356 506q-31 41 -31 82z" />
<glyph unicode="&#x2c6;" horiz-adv-x="1163" d="M166 985q0 43 22 78l267 405q43 66 118 66q72 0 115 -61l283 -408q27 -35 26 -80q0 -59 -42 -100t-99 -41q-76 0 -117 59l-164 236l-149 -232q-41 -63 -119 -63q-57 0 -99 41t-42 100z" />
<glyph unicode="&#x2dc;" horiz-adv-x="389" d="M-471 264q0 37 18 72l111 190q43 72 123 72q14 0 47 -8l371 -136l10 19q39 70 123 69q57 0 99 -40.5t42 -100.5q0 -39 -20 -71l-70 -119q-41 -70 -123 -70q-25 0 -47 8l-369 133l-51 -88q-43 -72 -123 -71q-59 0 -100 42t-41 99z" />
<glyph unicode="&#x2000;" horiz-adv-x="860" />
<glyph unicode="&#x2001;" horiz-adv-x="1720" />
<glyph unicode="&#x2002;" horiz-adv-x="860" />
<glyph unicode="&#x2003;" horiz-adv-x="1720" />
<glyph unicode="&#x2004;" horiz-adv-x="573" />
<glyph unicode="&#x2005;" horiz-adv-x="430" />
<glyph unicode="&#x2006;" horiz-adv-x="286" />
<glyph unicode="&#x2007;" horiz-adv-x="286" />
<glyph unicode="&#x2008;" horiz-adv-x="215" />
<glyph unicode="&#x2009;" horiz-adv-x="344" />
<glyph unicode="&#x200a;" horiz-adv-x="94" />
<glyph unicode="&#x2010;" horiz-adv-x="933" d="M127 494q10 41 43 69.5t76 34.5l311 39q86 10 135 -64l49 -71q37 -51 19 -115q-16 -57 -66.5 -86t-107.5 -14q-51 14 -82 59l-223 -29q-25 -2 -54 5q-57 14 -86.5 65.5t-13.5 106.5z" />
<glyph unicode="&#x2011;" horiz-adv-x="933" d="M127 494q10 41 43 69.5t76 34.5l311 39q86 10 135 -64l49 -71q37 -51 19 -115q-16 -57 -66.5 -86t-107.5 -14q-51 14 -82 59l-223 -29q-25 -2 -54 5q-57 14 -86.5 65.5t-13.5 106.5z" />
<glyph unicode="&#x2012;" horiz-adv-x="933" d="M127 494q10 41 43 69.5t76 34.5l311 39q86 10 135 -64l49 -71q37 -51 19 -115q-16 -57 -66.5 -86t-107.5 -14q-51 14 -82 59l-223 -29q-25 -2 -54 5q-57 14 -86.5 65.5t-13.5 106.5z" />
<glyph unicode="&#x2013;" horiz-adv-x="1024" d="M121 283v356h735v-356h-735z" />
<glyph unicode="&#x2014;" horiz-adv-x="2048" d="M121 283v356h1759v-356h-1759z" />
<glyph unicode="&#x2018;" horiz-adv-x="448" d="M-175.5 1247.5q-21.5 55.5 3.5 108.5t80 73.5t108 -4.5l351 -157q53 -23 73.5 -79t-4.5 -110q-25 -51 -80 -71.5t-106 2.5l-350 157q-54 25 -75.5 80.5z" />
<glyph unicode="&#x2019;" horiz-adv-x="667" d="M195 786l36 474q4 55 45 93t97 38q63 0 104 -46.5t37 -107.5l-37 -473q-4 -55 -45 -93t-96 -38q-61 0 -103 46t-38 107z" />
<glyph unicode="&#x201c;" horiz-adv-x="1093" d="M143 786l37 474q4 55 45 93t97 38q63 0 104 -46.5t37 -107.5l-37 -473q-4 -55 -45 -93t-96 -38q-61 0 -103.5 46t-38.5 107zM631 786l37 474q4 55 45 93t96 38q61 0 103 -46.5t38 -107.5l-37 -473q-4 -55 -46 -93t-95 -38q-63 0 -104 46t-37 107z" />
<glyph unicode="&#x201d;" horiz-adv-x="1093" d="M143 786l37 474q4 55 45 93t97 38q63 0 104 -46.5t37 -107.5l-37 -473q-4 -55 -45 -93t-96 -38q-61 0 -103.5 46t-38.5 107zM631 786l37 474q4 55 45 93t96 38q61 0 103 -46.5t38 -107.5l-37 -473q-4 -55 -46 -93t-95 -38q-63 0 -104 46t-37 107z" />
<glyph unicode="&#x2026;" horiz-adv-x="1738" d="M1272 -12q0 55 37 98l47 57q43 55 116 56q63 0 108.5 -45t45.5 -109q0 -57 -35 -98l-49 -58q-49 -55 -117 -55q-63 0 -108 45.5t-45 108.5zM693 -12q0 55 37 98l47 57q43 55 116 56q63 0 108.5 -45t45.5 -109q0 -57 -35 -98l-49 -58q-49 -55 -117 -55q-63 0 -108 45.5 t-45 108.5zM113 -12q0 55 37 98l47 57q43 55 116 56q63 0 108.5 -45t45.5 -109q0 -57 -35 -98l-49 -58q-49 -55 -117 -55q-63 0 -108 45.5t-45 108.5z" />
<glyph unicode="&#x202f;" horiz-adv-x="344" />
<glyph unicode="&#x2039;" horiz-adv-x="1230" d="M143 393q0 82 70 121l659 395q33 18 72 19q59 0 101 -41t42 -101q0 -80 -69 -120l-457 -273l457 -272q70 -41 69 -121q0 -59 -41.5 -100t-101.5 -41q-39 0 -72 20l-659 393q-70 39 -70 121z" />
<glyph unicode="&#x203a;" horiz-adv-x="1210" d="M143 0q0 80 70 121l455 272l-455 273q-70 41 -70 120q0 57 41 99.5t101 42.5q43 0 73 -19l660 -395q70 -39 69.5 -121t-69.5 -121l-660 -393q-35 -20 -73 -20q-59 0 -100.5 42t-41.5 99z" />
<glyph unicode="&#x205f;" horiz-adv-x="430" />
<glyph unicode="&#x2122;" horiz-adv-x="2629" d="M1294 -4v987q0 57 40 98t97 41q72 0 111 -55l336 -449l335 449q43 55 111 55q57 0 99 -41t42 -98v-987q0 -57 -40 -97t-97 -40t-97 40t-40 97v577l-201 -266q-43 -55 -108 -55q-72 0 -111 55l-199 266v-577q0 -57 -40 -97t-97 -40t-99 40t-42 97zM31 924v57q0 59 42 100 t99 41h784q59 0 101.5 -41t42.5 -100v-57q0 -59 -42 -101.5t-100 -42.5q-70 0 -114 60h-137v-840q0 -59 -41 -100t-101 -41q-57 0 -99 42t-42 99v840h-135q-45 -59 -115 -60q-59 0 -101 42.5t-42 101.5z" />
<glyph unicode="&#xe000;" horiz-adv-x="955" d="M0 955h955v-955h-955v955z" />
<glyph unicode="&#xfb01;" horiz-adv-x="1591" d="M1082 813q0 59 42 100t99 41h57q59 0 101.5 -42t42.5 -99v-813q0 -57 -41 -99t-100.5 -42t-100.5 42t-41 99v698q-59 45 -59 115zM119 813q0 59 41 100t100 41h512q59 0 100 -41t41 -100v-57q0 -59 -42 -101.5t-99 -42.5q-68 0 -113 60h-200v-199h239q59 0 100.5 -42 t41.5 -99.5t-41 -99.5t-101 -42h-239v-190q0 -57 -41 -99t-100.5 -42t-100.5 42t-41 99v698q-57 43 -57 115z" />
<glyph unicode="&#xfb02;" horiz-adv-x="1878" d="M1074 0q0 72 57 115v698q0 59 42 100t99.5 41t99.5 -41t42 -100v-672h147q43 57 113 58q59 0 101 -42t42 -100v-57q0 -57 -42 -99t-101 -42h-459q-57 0 -99 42t-42 99zM119 813q0 59 41 100t100 41h512q59 0 100 -41t41 -100v-57q0 -59 -42 -101.5t-99 -42.5 q-68 0 -113 60h-200v-199h239q59 0 100.5 -42t41.5 -99.5t-41 -99.5t-101 -42h-239v-190q0 -57 -41 -99t-100.5 -42t-100.5 42t-41 99v698q-57 43 -57 115z" />
<glyph unicode="&#xfb03;" horiz-adv-x="2555" d="M2046 813q0 59 42 100t99 41h57q59 0 101.5 -42t42.5 -99v-813q0 -57 -41 -99t-100.5 -42t-100.5 42t-41 99v698q-59 45 -59 115zM1084 813q0 59 41 100t100 41h512q59 0 100 -41t41 -100v-57q0 -59 -42 -101.5t-99 -42.5q-68 0 -113 60h-200v-199h239q59 0 100.5 -42 t41.5 -99.5t-41 -99.5t-101 -42h-239v-190q0 -57 -41 -99t-100.5 -42t-100.5 42t-41 99v698q-57 43 -57 115zM119 813q0 59 41 100t100 41h512q59 0 100 -41t41 -100v-57q0 -59 -42 -101.5t-99 -42.5q-68 0 -113 60h-200v-199h239q59 0 100.5 -42t41.5 -99.5t-41 -99.5 t-101 -42h-239v-190q0 -57 -41 -99t-100.5 -42t-100.5 42t-41 99v698q-57 43 -57 115z" />
<glyph unicode="&#xfb04;" horiz-adv-x="2842" d="M2038 0q0 72 57 115v698q0 59 42 100t99.5 41t99.5 -41t42 -100v-672h147q43 57 113 58q59 0 101 -42t42 -100v-57q0 -57 -42 -99t-101 -42h-459q-57 0 -99 42t-42 99zM1084 813q0 59 41 100t100 41h512q59 0 100 -41t41 -100v-57q0 -59 -42 -101.5t-99 -42.5 q-68 0 -113 60h-200v-199h239q59 0 100.5 -42t41.5 -99.5t-41 -99.5t-101 -42h-239v-190q0 -57 -41 -99t-100.5 -42t-100.5 42t-41 99v698q-57 43 -57 115zM119 813q0 59 41 100t100 41h512q59 0 100 -41t41 -100v-57q0 -59 -42 -101.5t-99 -42.5q-68 0 -113 60h-200v-199 h239q59 0 100.5 -42t41.5 -99.5t-41 -99.5t-101 -42h-239v-190q0 -57 -41 -99t-100.5 -42t-100.5 42t-41 99v698q-57 43 -57 115z" />
</font>
</defs>
</svg>
