<?xml version="1.0" standalone="no"?>
<!DOCTYPE svg PUBLIC "-//W3C//DTD SVG 1.1//EN" "http://www.w3.org/Graphics/SVG/1.1/DTD/svg11.dtd" >
<svg xmlns="http://www.w3.org/2000/svg">
<metadata>
This is a custom SVG webfont generated by Font Squirrel.
Copyright   : 2003 Alex Scholing published by FontShop International for the FontFont library
</metadata>
<defs>
<font id="RoiceBoldSCRegular" horiz-adv-x="1021" >
<font-face units-per-em="2048" ascent="1638" descent="-410" />
<missing-glyph horiz-adv-x="423" />
<glyph unicode=" "  horiz-adv-x="423" />
<glyph unicode="&#x09;" horiz-adv-x="423" />
<glyph unicode="&#xa0;" horiz-adv-x="423" />
<glyph unicode="!" horiz-adv-x="626" d="M150 893q0 45 31.5 78t76.5 33h66q47 0 79.5 -33t32.5 -78v-498q0 -47 -31.5 -78.5t-78.5 -31.5q-45 0 -77 32.5t-32 77.5v398q-67 32 -67 100zM190 -10q0 33 27 69l47 60q33 39 84 39q47 0 80 -33t33 -78q0 -37 -27 -70l-49 -57q-37 -41 -84 -41q-45 0 -78 33t-33 78z " />
<glyph unicode="&#x22;" horiz-adv-x="1013" d="M162 801l35 456q2 43 33.5 72t74.5 29q47 0 80 -35t29 -82l-33 -457q-2 -43 -35 -72.5t-76 -29.5q-47 0 -79.5 36t-28.5 83zM600 801l35 456q2 43 33.5 72t74.5 29q47 0 80 -35t29 -82l-35 -457q-4 -43 -34.5 -72.5t-73.5 -29.5q-47 0 -80 36t-29 83z" />
<glyph unicode="#" horiz-adv-x="1288" d="M82 334q0 45 31.5 77.5t76.5 32.5h148l35 330h-123q-45 0 -78 32t-33 77t33 76.5t78 31.5h145l17 168q4 41 35.5 68.5t72.5 27.5q49 0 81 -35.5t28 -84.5l-15 -144h160l19 168q4 41 35.5 68.5t72.5 27.5q49 0 81 -35.5t28 -84.5l-15 -144h123q45 0 77 -31.5t32 -76.5 t-32 -77t-77 -32h-145l-35 -330h123q45 0 76.5 -32.5t31.5 -77.5t-31.5 -77t-76.5 -32h-148l-16 -166q-4 -43 -36 -70.5t-73 -27.5q-49 0 -80.5 37t-27.5 84l14 143h-159l-19 -166q-4 -43 -35.5 -70.5t-72.5 -27.5q-49 0 -81 37t-28 84l14 143h-123q-45 0 -76.5 32t-31.5 77 zM526 416h215l41 385h-215z" />
<glyph unicode="$" horiz-adv-x="1314" d="M274 641q0 129 79 215t208 111v215q0 45 32 76.5t77 31.5t77.5 -31.5t32.5 -76.5v-213q109 -12 162 -31q35 -12 56.5 -43t19.5 -68l-6 -65q-4 -43 -36 -73t-73 -30q-39 0 -68.5 25t-37.5 64q-76 10 -140 10q-68 0 -115.5 -28t-47.5 -89q0 -45 13 -61.5t68 -36.5l242 -90 q102 -37 162.5 -103.5t60.5 -197.5q0 -115 -63.5 -196t-173.5 -118v-174q0 -45 -33 -77.5t-78 -32.5t-76.5 32.5t-31.5 77.5v154q-100 6 -185 35q-80 29 -73 110l4 66q2 43 34.5 72.5t75.5 29.5q39 0 69 -24.5t38 -63.5q51 -8 110 -8q68 0 116 27.5t48 89.5q0 45 -13 60 t-67 36l-243 90q-102 37 -163 104.5t-61 198.5z" />
<glyph unicode="%" horiz-adv-x="1884" d="M141 760q0 125 88 213t213 88t214 -88t89 -213t-88 -214t-215 -89q-125 0 -213 89t-88 214zM332 760q0 -45 32.5 -78t77.5 -33q47 0 80 33t33 78t-33 77.5t-80 32.5q-45 0 -77.5 -31.5t-32.5 -78.5zM442 -147q0 33 17 57l770 1253q31 53 94 54q45 0 77 -33t32 -78 q0 -29 -17 -55l-770 -1256q-33 -51 -94 -51q-45 0 -77 32t-32 77zM1120 192.5q0 124.5 88 214t213 89.5t213 -89.5t88 -214t-88 -213t-213 -88.5t-213 88.5t-88 213zM1311 193q0 -45 32.5 -78t77.5 -33t78 32.5t33 78.5q0 47 -33 79.5t-78 32.5t-77.5 -32.5t-32.5 -79.5z " />
<glyph unicode="&#x26;" horiz-adv-x="1517" d="M92 199q0 135 96 223q-78 98 -77 215q0 133 95 228.5t230 95.5h914q45 0 77.5 -32t32.5 -77t-31.5 -77t-76.5 -32h-138v-507q0 -45 -31.5 -77t-76.5 -32t-77 31.5t-32 77.5v507h-559q-45 0 -76.5 -30.5t-31.5 -73.5q0 -47 30.5 -87t69.5 -40h197q45 0 77.5 -33t32.5 -78 t-31.5 -76.5t-76.5 -31.5h-199q-49 0 -84 -23.5t-35 -70.5t34 -81t81 -34q20 0 94 3t92 3q49 2 82 -28.5t35 -79.5q0 -43 -29.5 -75t-72.5 -34q-25 -8 -199 -8q-139 0 -237.5 98.5t-98.5 235.5z" />
<glyph unicode="'" horiz-adv-x="614" d="M195 801l34 456q2 43 34 72t75 29q47 0 80 -35t28 -82l-32 -457q-2 -43 -35 -72.5t-76 -29.5q-47 0 -79.5 36t-28.5 83z" />
<glyph unicode="(" horiz-adv-x="727" d="M141 457q0 319 201 596q-10 25 -10 47q0 55 44 87t95 17l66 -18q35 -10 57 -40t22 -67q0 -41 -28 -73q-227 -244 -228 -549q0 -301 222 -545q29 -33 28 -74q0 -80 -78 -104l-65 -21q-53 -16 -96 17.5t-43 89.5q0 29 10 47q-197 273 -197 590z" />
<glyph unicode=")" horiz-adv-x="727" d="M111 1079q0 37 22.5 68t54.5 39l66 18q53 14 97 -18.5t44 -85.5q0 -23 -10 -47q201 -276 201 -596q0 -317 -197 -590q10 -25 10 -47q0 -55 -44 -89t-95 -18l-65 21q-35 10 -57.5 39.5t-22.5 64.5q0 41 28 74q223 246 224 545q0 305 -228 549q-28 32 -28 73z" />
<glyph unicode="*" horiz-adv-x="1665" d="M233 860q0 55 45.5 87t98.5 16l346 -113v362q0 45 32.5 77t78 32t77 -32t31.5 -77v-364l348 115q53 16 98.5 -16t45.5 -89q0 -35 -20.5 -64.5t-55.5 -39.5l-348 -113l215 -295q20 -29 20 -65q0 -45 -31.5 -77t-76.5 -32q-57 0 -90 45l-213 293l-213 -293q-33 -45 -89 -45 q-45 0 -76.5 32t-31.5 77q0 37 20 65l215 295l-350 115q-35 10 -55.5 38.5t-20.5 65.5z" />
<glyph unicode="+" horiz-adv-x="1224" d="M172 393q0 45 32 77t77 32h223v284q0 45 31.5 77t78.5 32q45 0 77 -32t32 -77v-284h223q45 0 77 -32t32 -77t-32 -76.5t-77 -31.5h-223v-285q0 -45 -32 -77t-77 -32q-47 0 -78.5 32t-31.5 77v285h-223q-45 0 -77 31.5t-32 76.5z" />
<glyph unicode="," horiz-adv-x="661" d="M131 -254q0 35 16 59l125 193l-41 29q-45 31 -45 90q0 45 32 76.5t77 31.5q37 0 63 -20l125 -90q47 -35 47 -88q0 -31 -18 -60l-180 -280q-33 -51 -92 -52q-45 0 -77 33t-32 78z" />
<glyph unicode="-" horiz-adv-x="894" d="M143 477q16 76 90 86l310 41q20 4 39 -2q39 -8 63 -45l41 -57q27 -39 16 -88q-10 -43 -48 -66.5t-83 -13.5q-41 10 -63 45l-246 -33q-55 -8 -93 35t-26 98z" />
<glyph unicode="." horiz-adv-x="544" d="M131 -6q0 47 29 78l41 47q37 43 92 43q51 0 86 -35t35 -86q0 -39 -29 -78l-39 -49q-35 -43 -94 -43q-49 0 -85 36t-36 87z" />
<glyph unicode="/" horiz-adv-x="923" d="M111 -168q0 27 10 45l577 1294q29 66 99 66q47 0 78.5 -33t31.5 -78q0 -18 -10 -43l-578 -1296q-29 -63 -100 -63q-45 0 -76.5 31.5t-31.5 76.5z" />
<glyph unicode="0" d="M113 276v338q0 168 115.5 292t281.5 124t282.5 -115.5t116.5 -283.5v-336q0 -168 -115.5 -293t-281.5 -125q-168 0 -283.5 115.5t-115.5 283.5zM332 276q0 -78 51 -130t127 -52q74 0 126 62.5t52 138.5l2 336q0 78 -51 130t-127 52t-128 -61.5t-52 -137.5v-338z" />
<glyph unicode="1" d="M100 856q0 39 27 69.5t66 37.5l319 53q49 8 88 -25t39 -82v-800h129q45 0 78 -32t33 -77t-32 -78t-79 -33h-492q-45 0 -76.5 33t-31.5 78t31.5 77t76.5 32h144v671l-193 -32q-51 -8 -89 24.5t-38 83.5z" />
<glyph unicode="2" d="M129 872q-2 39 19.5 71t56.5 42q141 45 280 45q168 2 288 -79t120 -240q0 -53 -6 -91t-26.5 -85.5t-66.5 -84t-118 -65.5l-250 -96q-39 -14 -54.5 -53t-19.5 -127h420q45 0 77 -32t32 -77t-32 -78t-77 -33h-528q-47 0 -79 33t-32 78v27q0 88 5 143t24.5 127t65.5 120 t120 77l250 94q55 20 65.5 39.5t10.5 83.5q0 102 -189 102q-45 0 -135 -16q-6 -39 -35.5 -64.5t-70.5 -25.5q-43 0 -76 28.5t-35 71.5z" />
<glyph unicode="3" d="M53 877q0 39 24.5 69.5t61.5 38.5q213 45 307 45q193 0 300.5 -93t107.5 -259q0 -158 -115 -266q127 -98 127 -265q0 -184 -117.5 -280t-306.5 -96q-41 0 -106.5 8t-121.5 17t-58 9q-39 8 -63.5 39t-24.5 70q0 51 38.5 83t90.5 23q176 -31 245 -30q59 0 101.5 12t62 27.5 t30.5 41t12 40t1 36.5q0 45 -26.5 76t-69.5 43.5t-78 17.5t-69 5q-45 0 -77 31.5t-32 76.5t31.5 77t77.5 32q88 0 159.5 45t71.5 127q0 27 -4 43t-19.5 40.5t-57.5 38t-110 13.5q-66 0 -262 -43q-51 -10 -91 23t-40 84z" />
<glyph unicode="4" d="M72 225l211 842q8 37 38.5 59.5t67.5 22.5q53 0 86 -42t21 -93l-179 -707h316l-2 332q0 45 32.5 77t77.5 32t77 -32t32 -77v-332h22q45 0 77 -31.5t32 -76.5t-31.5 -77t-77.5 -32h-22v-209q0 -45 -32 -76.5t-77 -31.5t-76.5 31.5t-31.5 76.5v209h-455q-53 0 -85.5 42 t-20.5 93z" />
<glyph unicode="5" d="M117 -92q0 53 42 86t93 20q133 -27 182 -26q139 0 186.5 47t47.5 131t-42 116.5t-200 63.5l-205 39q-43 8 -68.5 44t-19.5 79l55 414q6 41 37 68.5t72 27.5h444q45 0 77 -33t32 -78t-32 -76.5t-77 -31.5h-348l-28 -219l102 -19q68 -12 109.5 -22.5t107.5 -40t103.5 -67.5 t67.5 -106.5t30 -158.5q0 -197 -124 -297t-327 -100q-111 0 -233 34q-37 8 -60.5 38t-23.5 67z" />
<glyph unicode="6" d="M119 328v2q0 252 94 427t301 351q37 31 80 27l65 -5q43 -2 72 -34.5t29 -75.5q0 -47 -35 -80t-82 -29l-20 2q-137 -123 -203 -235q61 14 106 14q182 0 299 -111.5t117 -291.5q-2 -188 -115.5 -300t-302.5 -112q-182 0 -293.5 124t-111.5 327zM338 328q0 -39 7 -74 t24.5 -74t57.5 -62.5t97 -23.5q197 0 199 195q0 90 -52.5 137t-144.5 47q-59 0 -184 -47q-4 -74 -4 -96v-2z" />
<glyph unicode="7" d="M55 842v65q0 45 32 78t77 33h588q45 0 76.5 -33t31.5 -78v-55q0 -20 -6 -39l-145 -393l73 -6q43 -2 72 -34t29 -75q0 -47 -36 -79.5t-83 -28.5l-133 12l-135 -365q-27 -72 -103 -71q-57 0 -90 47t-12 100l112 307l-108 11q-43 4 -71.5 34.5t-28.5 73.5q0 47 35.5 80 t82.5 29l170 -15l131 359h-350q-27 -66 -100 -66q-45 0 -77 32t-32 77z" />
<glyph unicode="8" d="M111 233q0 78 32.5 138.5t66.5 89t91 63.5l16 11q-82 53 -131 116.5t-49 163.5q0 322 375 322q373 0 373 -322q0 -100 -49.5 -164.5t-133.5 -115.5l17 -11q59 -37 92 -64.5t66.5 -88t33.5 -138.5q0 -182 -106.5 -269t-294.5 -87q-117 0 -200 32t-124 87t-58 112t-17 125z M315 233q0 -86 39 -119.5t154 -33.5q102 0 150.5 28.5t48.5 124.5q0 35 -18.5 56.5t-82.5 62.5q-16 12 -49 35t-47 33q-41 -31 -94 -66q-66 -43 -83.5 -63.5t-17.5 -57.5zM342 815q0 -37 21.5 -59.5t91.5 -67.5l55 -37l55 37q70 43 91.5 66.5t21.5 60.5h2q0 43 -10.5 68.5 t-38 35t-48 11.5t-69.5 2h-54q-11 0 -43 -5t-42 -17.5t-21.5 -36t-11.5 -58.5z" />
<glyph unicode="9" d="M80 618q0 190 113.5 302t304.5 112q182 0 293.5 -125t111.5 -327q0 -252 -94 -428.5t-301 -352.5q-37 -31 -80 -26l-66 6q-43 4 -71.5 34.5t-28.5 73.5q0 47 35 80t82 29h20q135 117 203 233q-53 -12 -104 -12q-184 0 -301 110.5t-117 290.5zM299 618q0 -90 53.5 -137 t145.5 -47q57 0 182 47q4 66 4 99q0 39 -7 74.5t-24.5 73.5t-57.5 61.5t-97 23.5q-199 0 -199 -195z" />
<glyph unicode=":" horiz-adv-x="544" d="M131 -6q0 47 29 78l41 47q37 43 92 43q51 0 86 -35t35 -86q0 -39 -29 -78l-39 -49q-35 -43 -94 -43q-49 0 -85 36t-36 87zM131 748q0 47 29 77l41 47q37 43 92 43q51 0 86 -34.5t35 -85.5q0 -39 -29 -78l-39 -49q-35 -43 -94 -43q-49 0 -85 36t-36 87z" />
<glyph unicode=";" horiz-adv-x="661" d="M131 -254q0 35 16 59l125 193l-41 29q-45 31 -45 90q0 45 32 76.5t77 31.5q37 0 63 -20l125 -90q47 -35 47 -88q0 -31 -18 -60l-180 -280q-33 -51 -92 -52q-45 0 -77 33t-32 78zM180 748q0 47 29 77l41 47q37 43 92 43q51 0 86 -34.5t35 -85.5q0 -45 -27 -78l-41 -49 q-37 -43 -94 -43q-49 0 -85 36t-36 87z" />
<glyph unicode="&#x3c;" horiz-adv-x="1200" d="M162 393.5q0 61.5 53 93.5l659 394q55 33 110.5 1t55.5 -95.5t-53 -94.5l-502 -299l502 -299q53 -31 53 -94t-56 -95t-110 1l-659 393q-53 33 -53 94.5z" />
<glyph unicode="=" horiz-adv-x="1130" d="M152 166q0 45 31.5 76.5t76.5 31.5h610q45 0 77 -31.5t32 -76.5t-32 -78t-77 -33h-610q-45 0 -76.5 33t-31.5 78zM152 588q0 45 31.5 77.5t76.5 32.5h610q45 0 77 -32.5t32 -77.5t-32 -77t-77 -32h-610q-45 0 -76.5 32t-31.5 77z" />
<glyph unicode="&#x3e;" horiz-adv-x="1179" d="M162 0q0 63 53 94l502 299l-502 299q-53 31 -53 94.5t56 95t110 -0.5l659 -394q53 -33 53 -94t-53 -94l-659 -393q-55 -33 -110.5 -1t-55.5 95z" />
<glyph unicode="?" horiz-adv-x="731" d="M49 891q0 72 64 100q86 37 213 37q135 0 238.5 -87t103.5 -234q0 -117 -58.5 -181.5t-156.5 -107.5v-25q0 -45 -33 -76.5t-78 -31.5t-77 31.5t-32 76.5q-61 31 -61 99q0 45 30.5 76.5t76.5 31.5h40q86 35 108 52.5t22 52.5q0 55 -39 79.5t-82 24.5q-35 0 -66 -4t-45 -8 l-12 -4q-55 -25 -105.5 8t-50.5 90zM207 -10q0 37 26 69l50 60q33 39 84 39q45 0 76.5 -32t31.5 -77h2q0 -41 -24 -72l-50 -57q-37 -39 -84 -39t-79.5 32t-32.5 77z" />
<glyph unicode="@" horiz-adv-x="1779" d="M41 762q0 33 18 57q295 393 830 393q358 0 583.5 -249.5t225.5 -612.5q0 -211 -61.5 -369.5t-163 -247.5t-217 -132t-240.5 -43q-236 0 -389.5 151.5t-153.5 386.5q0 217 98 396q39 74 93 139q16 23 92 108q37 41 51 60q29 35 76 35q66 0 88 -60l272 -688 q20 -49 -9.5 -91t-80.5 -42q-66 0 -90 61l-41 107h-356q-2 -170 93 -270.5t257 -100.5q229 0 359 160t130 440.5t-169 475t-447 194.5q-383 0 -621 -252q14 -31 15 -51q0 -41 -29 -68.5t-68 -27.5t-65 26l-49 45q-31 29 -31 70zM702 313h244l-96 242q-103 -127 -148 -242z " />
<glyph unicode="A" horiz-adv-x="1179" d="M74 41l379 979q27 70 100 70h59q72 0 101 -70l393 -979h-2q9 -23 9 -44q0 -31 -19 -58q-33 -47 -90 -48q-74 0 -101 70l-74 182h-479l-69 -182q-27 -70 -103 -70q-59 0 -92 49q-20 30 -20 61q0 20 8 40zM403 340h367l-184 473z" />
<glyph unicode="B" horiz-adv-x="1181" d="M139 0q0 74 66 100v781q-66 27 -66 100q0 45 32 77t77 32h422q141 0 241.5 -98.5t100.5 -235.5q0 -127 -86 -232q127 -104 127 -266q0 -154 -109.5 -260.5t-269.5 -106.5h-424q-47 0 -79 32t-32 77zM416 102h258q70 0 119 44t49 112q0 66 -53.5 104.5t-120.5 38.5h-252 v-299zM416 606h252q51 0 92 49.5t41 100.5t-39 87t-92 36h-254v-273z" />
<glyph unicode="C" horiz-adv-x="1105" d="M94 492q0 268 162 440t412 172q76 0 161.5 -11.5t112.5 -21.5q37 -12 58.5 -43t19.5 -70l-4 -65q-2 -43 -35 -72.5t-76 -29.5q-37 0 -66.5 24.5t-39.5 61.5q-66 10 -129 10q-160 0 -258.5 -108.5t-98.5 -286.5q0 -180 93.5 -288t269.5 -108q104 0 194 33q19 7 37 7 q33 0 63 -22q46 -34 46 -89q0 -33 -21.5 -64t-54.5 -41q-139 -43 -262 -43q-268 0 -426 172.5t-158 442.5z" />
<glyph unicode="D" horiz-adv-x="1263" d="M139 0q0 74 68 100v781q-68 29 -68 98q0 45 32 78t77 33h299q279 0 446.5 -157t167.5 -433q0 -270 -165 -439.5t-435 -169.5h-311q-45 0 -78 32t-33 77zM424 109h135q178 0 279.5 105t101.5 286h2q0 184 -102.5 275t-290.5 95l-125 2v-763z" />
<glyph unicode="E" horiz-adv-x="1060" d="M129 236q0 154 102 253q-90 96 -90 254q0 170 108.5 265.5t282.5 95.5q51 0 126 -5t130 -9l56 -5q45 -4 74 -37q25 -30 25 -68q0 -5 -1 -11l-4 -66q-2 -43 -35 -71.5t-74 -28.5q-78 0 -104 74q-164 10 -195 10q-170 0 -170 -144q0 -68 35 -107.5t146 -39.5h239 q47 0 79 -32t32 -77t-33 -76.5t-78 -31.5h-239q-193 0 -193 -143q0 -72 45 -106t119 -34q23 0 80 4t122.5 9.5t86.5 7.5h10q41 0 72 -29q35 -33 35 -82q0 -41 -29 -73.5t-72 -34.5q-164 -20 -305 -21q-164 0 -273.5 97.5t-109.5 261.5z" />
<glyph unicode="F" horiz-adv-x="948" d="M129 981q0 45 32 77t77 32h587q45 0 77 -32t32 -77v-66q0 -45 -32 -77.5t-77 -32.5q-74 0 -100 65h-311v-335h329q45 0 78 -33t33 -78t-33 -77t-78 -32h-329v-315q0 -45 -33 -77t-78 -32t-76.5 32t-31.5 77v881q-66 26 -66 100z" />
<glyph unicode="G" horiz-adv-x="1230" d="M100 496q0 266 163 437t427 171q51 0 113.5 -6t99.5 -12.5t41 -8.5q41 -8 68 -42q23 -29 23 -64q0 -5 -1 -10l-4 -66q-2 -43 -34.5 -71.5t-75.5 -28.5q-37 0 -66 22.5t-39 59.5q-78 8 -123 8q-174 0 -273.5 -107.5t-99.5 -281.5q0 -184 93.5 -292t253.5 -108 q123 0 204 10v189h-10q-45 0 -77.5 31.5t-32.5 77t31.5 77t76.5 31.5h121q45 0 78 -31.5t33 -77.5v-387q0 -39 -23 -68.5t-59 -37.5q-98 -33 -340 -33q-254 0 -411 170t-157 449z" />
<glyph unicode="H" horiz-adv-x="1318" d="M129 981q0 45 32 77t77 32h65q45 0 78 -32t33 -77v-363h504v363q0 45 32.5 77t77.5 32t78 -32t33 -77v-981q0 -45 -32 -77t-77 -32t-77.5 32t-32.5 77v401h-504v-401q0 -45 -33 -77t-78 -32t-76.5 32t-31.5 77v881q-68 28 -68 100z" />
<glyph unicode="I" horiz-adv-x="595" d="M129 981q0 45 32 77t77 32h65q47 0 80 -32t33 -77v-981q0 -45 -33 -77t-78 -32t-76.5 32t-31.5 77v881q-68 28 -68 100z" />
<glyph unicode="J" horiz-adv-x="600" d="M-80 -379q0 47 34 80q32 31 75 31h6q10 0 38.5 -2t37.5 -2q63 0 101 31.5t38 93t-31 137.5q-8 29 -8 43v844q-35 10 -56.5 38.5t-21.5 65.5q0 45 32 77t77 32h77q45 0 77 -32t32 -77v-928q41 -104 41 -200q0 -152 -102.5 -248.5t-253.5 -96.5q-12 0 -33 1.5t-36 2.5 t-17 1q-45 2 -76 32.5t-31 75.5z" />
<glyph unicode="K" horiz-adv-x="1181" d="M180 0v981q0 45 32 77t77 32t77.5 -32t32.5 -77v-375h113l334 441q35 43 86 43q45 0 78.5 -32t33.5 -77q0 -33 -22 -66l-320 -417l293 -385l11 2q9 2 17 1q36 0 66 -28q36 -35 35 -84q0 -41 -29.5 -73.5t-72.5 -34.5l-70 -5h-9q-54 0 -85 43l-344 453h-113v-387 q0 -45 -32.5 -77t-77.5 -32t-78 32t-33 77z" />
<glyph unicode="L" horiz-adv-x="958" d="M135 0q0 74 66 100v881q0 45 31.5 77t76.5 32t78 -32t33 -77v-870h258q29 66 100 65q45 0 77 -32.5t32 -77.5v-66q0 -45 -32 -77t-77 -32h-534q-45 0 -77 32t-32 77z" />
<glyph unicode="M" horiz-adv-x="1439" d="M180 -2v987q0 45 31 76t76 31q55 0 86 -43l346 -465l346 465q33 43 84 43q43 0 77 -32t34 -75l-5 -987q0 -43 -29.5 -73.5t-74.5 -30.5q-43 0 -73.5 30.5t-30.5 73.5v670l-242 -326q-31 -41 -84 -41q-55 0 -84 41l-242 326v-670q0 -43 -30.5 -73.5t-75.5 -30.5 q-43 0 -76 30.5t-33 73.5z" />
<glyph unicode="N" horiz-adv-x="1333" d="M180 -6v993q0 43 31 73t74 30h67q59 0 88 -48l504 -800v647q-68 31 -67 98q0 43 29.5 73t72.5 30h68q43 0 73.5 -30t30.5 -73v-993q0 -43 -29.5 -73t-72.5 -30h-70q-59 0 -88 48l-502 800v-745q0 -43 -29.5 -73t-72.5 -30t-75 30t-32 73z" />
<glyph unicode="O" horiz-adv-x="1353" d="M94 496q0 256 164 432t418 176q250 0 417 -173t167 -435q0 -256 -164 -437.5t-418 -181.5q-250 0 -417 177.5t-167 441.5zM313 496q0 -174 102.5 -287t260.5 -113q162 0 262 117t100 283h2q0 172 -102 281.5t-260 109.5q-164 0 -264.5 -112.5t-100.5 -278.5z" />
<glyph unicode="P" horiz-adv-x="1060" d="M135 981q0 45 32 77t77 32h383q156 0 269.5 -118t113.5 -276q0 -162 -114 -281.5t-275 -119.5h-201v-295q0 -45 -33 -77t-78 -32t-76.5 32t-31.5 77v881q-66 26 -66 100zM420 512h201q70 0 121 56.5t51 127.5q0 68 -50.5 121t-115.5 53h-207v-358z" />
<glyph unicode="Q" horiz-adv-x="1368" d="M94 494q0 256 165 433t419 177q250 0 417 -175t167 -435q0 -293 -203 -471l129 -142l10 2q6 0 11 1q42 0 75 -28q37 -32 37 -81q0 -41 -28.5 -73t-69.5 -36l-66 -6q-8 -1 -15 -1q-45 0 -75 34l-199 217q-94 -33 -188 -33q-250 0 -418 177.5t-168 439.5zM313 494 q0 -170 104.5 -284t260.5 -114q162 0 263 117t101 281h2q0 170 -103 281.5t-261 111.5q-164 0 -265.5 -113.5t-101.5 -279.5z" />
<glyph unicode="R" horiz-adv-x="1189" d="M135 981q0 45 32 77t77 32h383q137 0 262 -108t125 -286q0 -104 -53.5 -197t-143.5 -149l168 -237l6 2h10q41 0 73 -30q36 -34 36 -81q0 -41 -28.5 -73.5t-71.5 -34.5l-68 -5h-10q-56 0 -86 46l-256 358h-168v-295q0 -45 -33 -77t-78 -32t-76.5 32t-31.5 77v881 q-68 28 -68 100zM420 512l209 2q68 0 116 57.5t48 124.5h2q0 84 -58.5 129t-107.5 45h-209v-358z" />
<glyph unicode="S" horiz-adv-x="995" d="M109 754q0 164 110.5 257t278.5 93q180 0 295 -39q37 -12 57 -44t18 -69l-4 -65q-2 -43 -33.5 -72t-74.5 -29q-39 0 -70 25t-39 63q-74 12 -147 13q-172 0 -172 -133q0 -51 16 -71.5t78 -45.5l229 -92q47 -18 74 -32.5t72 -50.5t67.5 -94.5t22.5 -136.5 q0 -162 -111.5 -258t-277.5 -96q-182 0 -293 39q-37 12 -59 43q-18 26 -18 56q0 6 1 12l6 65q4 43 35 73t74 30q39 0 68.5 -25t37.5 -64q59 -10 146 -10q172 0 172 135q0 49 -16.5 67.5t-78.5 43.5l-229 92q-66 27 -108.5 53.5t-84.5 96.5t-42 170z" />
<glyph unicode="T" horiz-adv-x="1079" d="M47 915v66q0 45 32 77t77 32h766q45 0 77.5 -32t32.5 -77v-66q0 -45 -31.5 -77.5t-76.5 -32.5q-70 0 -101 65h-174v-870q0 -45 -31.5 -78t-76.5 -33t-78 33t-33 78v870h-172q-27 -66 -100 -65q-45 0 -78 32.5t-33 77.5z" />
<glyph unicode="U" horiz-adv-x="1310" d="M156 420v561q0 45 31.5 77t76.5 32t78 -32t33 -77v-561q0 -57 11 -106.5t39 -102.5t87 -84t143 -31t143.5 31t87 84t39 102t11.5 107v461q-68 29 -68 100q0 45 32 77t77 32h65q45 0 79 -32t34 -77v-561q0 -248 -135 -395.5t-362.5 -147.5t-364.5 147.5t-137 395.5z" />
<glyph unicode="V" horiz-adv-x="1134" d="M59 979q0 43 31 75.5t76 32.5q76 0 102 -71l291 -789l303 793q27 70 103 70q47 0 78.5 -33t31.5 -78q0 -18 -6 -37l-377 -981q-27 -70 -102 -70h-64q-76 0 -102 72l-358 977q-7 19 -7 39z" />
<glyph unicode="W" horiz-adv-x="1687" d="M88 989q0 41 28.5 71t71.5 30q35 0 63 -21.5t36 -56.5l190 -760l248 721q10 29 35.5 48t58.5 19h45q70 0 94 -71l228 -717l217 764q8 33 35.5 53.5t60.5 20.5q43 0 71.5 -30t28.5 -71q0 -8 -4 -28l-282 -996q-20 -72 -96 -71h-58q-74 0 -96 69l-225 717l-248 -719 q-25 -68 -96 -67h-56q-76 0 -96 75l-250 994q-4 16 -4 26z" />
<glyph unicode="X" horiz-adv-x="1142" d="M78 0q0 37 20 66l334 444l-305 405q-25 31 -25 66q0 45 32 77t77 32q55 0 88 -43l268 -355l264 355q33 43 89 43q45 0 77.5 -32t32.5 -77q0 -37 -20 -66l-305 -405l333 -442q25 -31 25 -68q0 -45 -32 -77t-77 -32q-53 0 -86 43l-299 394l-293 -394q-35 -43 -88 -43 q-45 0 -77.5 32t-32.5 77z" />
<glyph unicode="Y" d="M16 981q0 45 32 77t77 32q59 0 90 -48l289 -415l301 417q33 45 88 46q45 0 78 -32t33 -77q0 -33 -21 -63l-371 -517v-401q0 -45 -31.5 -77t-76.5 -32t-78 32t-33 77v403l-356 515q-21 30 -21 63z" />
<glyph unicode="Z" horiz-adv-x="1159" d="M129 -4v65q0 35 23 64l587 754h-403q-27 -66 -98 -66q-43 0 -75 30.5t-32 76.5v65q0 43 31 74t74 31h661q43 0 76 -31t33 -74v-72q0 -37 -23 -65l-582 -748h424q27 68 99 68q43 0 74.5 -31t31.5 -74v-67q0 -43 -29.5 -74t-74.5 -31h-688q-43 0 -76 31t-33 74z" />
<glyph unicode="[" horiz-adv-x="602" d="M172 -143v1204q0 41 26.5 72.5t67.5 35.5l146 19q49 6 86 -27t37 -82q0 -41 -27 -72.5t-68 -35.5l-49 -6v-1012l49 -6q41 -4 68 -36t27 -73q0 -49 -38 -81.5t-85 -26.5l-146 20q-41 6 -67.5 37t-26.5 70z" />
<glyph unicode="\" horiz-adv-x="860" d="M-14 1126q0 45 31.5 78t76.5 33q72 0 101 -66l577 -1294q10 -25 10 -45q0 -45 -31.5 -76.5t-78.5 -31.5q-70 0 -99 63l-577 1296q-10 18 -10 43z" />
<glyph unicode="]" horiz-adv-x="602" d="M70 -162q0 41 26.5 73t67.5 36l49 6v1012l-49 6q-41 4 -67.5 35.5t-26.5 72.5q0 49 36.5 82t86.5 27l145 -19q41 -4 67.5 -35.5t26.5 -72.5v-1204q0 -39 -26.5 -70t-67.5 -37l-145 -20q-49 -6 -86 26.5t-37 81.5z" />
<glyph unicode="^" horiz-adv-x="1132" d="M184 1053q0 33 19 59l266 412q31 49 92 49q70 -18 90 -49l281 -410q18 -29 18 -61q0 -45 -31.5 -77t-76.5 -32q-59 0 -90 47l-189 275l-178 -273q-33 -49 -92 -49q-45 0 -77 32t-32 77z" />
<glyph unicode="_" horiz-adv-x="1695" d="M18 -367q0 45 32 77t77 32h1440q45 0 77.5 -32t32.5 -77t-31.5 -76.5t-78.5 -31.5h-1440q-45 0 -77 31.5t-32 76.5z" />
<glyph unicode="`" horiz-adv-x="403" d="M-156.5 1254q-15.5 42 3 83t61.5 56.5t84 -2.5l348 -164q41 -20 57.5 -62.5t-4.5 -83.5q-18 -41 -61 -57t-84 4l-348 164q-41 20 -56.5 62z" />
<glyph unicode="a" horiz-adv-x="1067" d="M66 2q0 23 8 41l327 811q27 68 103 68h49q74 0 100 -68l340 -811q10 -20 11 -41q0 -45 -32 -78t-77 -33q-74 0 -100 68l-60 141h-399l-57 -139q-31 -70 -103 -70q-47 0 -78.5 33t-31.5 78zM381 291h301l-152 366z" />
<glyph unicode="b" horiz-adv-x="1069" d="M137 0q0 74 68 100v613q-68 29 -68 100q0 45 32 77t77 32h372q127 0 218.5 -87t91.5 -210q0 -102 -66 -187q102 -96 103 -225q0 -135 -98.5 -228.5t-241.5 -93.5h-375q-47 0 -80 32t-33 77zM408 94h215q57 0 97 34t40 85t-43 80t-96 29h-213v-228zM408 512h210 q39 0 72 37t33 76h2q0 39 -30.5 65.5t-73.5 26.5h-213v-205z" />
<glyph unicode="c" horiz-adv-x="1046" d="M121 410q0 229 145.5 377.5t370.5 148.5q145 0 240 -29q80 -27 80 -101q0 -5 -1 -11l-6 -66q-4 -43 -34.5 -72.5t-73.5 -29.5q-37 0 -68 23.5t-39 60.5q-47 6 -96 6q-133 0 -216 -85t-83 -222q0 -145 78 -229.5t221 -84.5q88 0 168 27q16 4 31 4q35 0 66 -23 q44 -33 44 -86q0 -37 -21.5 -66.5t-56.5 -39.5l-26 -6q-25 -6 -53.5 -12.5t-70.5 -11.5t-79 -5q-233 0 -376.5 148.5t-143.5 384.5z" />
<glyph unicode="d" horiz-adv-x="1187" d="M139 0q0 74 68 100v613q-68 29 -68 98q0 45 32 78t77 33h268q244 0 397.5 -134.5t153.5 -373.5q0 -233 -151.5 -379t-387.5 -146h-278q-45 0 -78 33t-33 78zM424 109h102q145 0 233.5 80.5t88.5 224.5h2q0 150 -89 219t-243 69h-94v-593z" />
<glyph unicode="e" horiz-adv-x="993" d="M121 195q0 125 82 213q-72 86 -72 206q0 131 87 225.5t255 96.5q76 0 305 -14q47 -2 78 -36q27 -30 27 -70v-11l-4 -66q-2 -43 -35 -71.5t-76 -28.5q-76 0 -102 72l-191 6q-125 0 -125 -101q0 -25 4 -40t16.5 -31.5t40 -24.5t72.5 -8h244q45 0 78 -31.5t33 -77t-32 -78 t-77 -32.5h-244q-145 0 -145 -100q0 -96 119 -97q115 0 284 17h10q41 0 73 -30q36 -34 36 -81q0 -43 -30.5 -73.5t-71.5 -34.5q-213 -16 -299 -17q-143 0 -241.5 87.5t-98.5 230.5z" />
<glyph unicode="f" horiz-adv-x="921" d="M131 813q0 45 32 77t77 32h516q45 0 77.5 -32t32.5 -77v-68q0 -45 -31.5 -76.5t-76.5 -31.5q-74 0 -101 65h-241v-247h268q47 0 80 -33t33 -78t-33 -76.5t-78 -31.5h-268v-236q0 -45 -33 -77t-78 -32t-76.5 32t-31.5 77v713q-68 28 -68 100z" />
<glyph unicode="g" horiz-adv-x="1112" d="M121 414q0 231 146.5 376.5t377.5 145.5q27 0 58.5 -2t57 -5t47 -7t35 -6.5t15.5 -2.5q41 -10 65.5 -42.5t22.5 -71.5l-4 -68q-2 -43 -33.5 -71.5t-74.5 -28.5q-37 0 -67 22.5t-40 59.5q-49 4 -80 4q-141 0 -224 -81t-83 -222q0 -147 76 -232.5t207 -85.5q76 0 153 8v123 q-37 8 -61.5 38t-24.5 67q0 45 32 77.5t79 32.5h82q47 0 79.5 -32.5t32.5 -77.5v-320q0 -84 -80 -106q-143 -29 -290 -29q-221 0 -362.5 150.5t-141.5 386.5z" />
<glyph unicode="h" horiz-adv-x="1198" d="M131 813q0 45 32 77t77 32h65q45 0 78 -32t33 -77v-283h403v283q0 45 32 77t77 32q47 0 79.5 -32t32.5 -77v-813q0 -45 -32.5 -77t-77.5 -32t-77 32t-32 77v313h-403v-313q0 -45 -33 -77t-78 -32t-76.5 32t-31.5 77v713q-68 28 -68 100z" />
<glyph unicode="i" horiz-adv-x="583" d="M131 813q0 45 32 77t77 32h65q47 0 80 -32t33 -77v-813q0 -45 -33 -77t-78 -32t-76.5 32t-31.5 77v713q-68 28 -68 100z" />
<glyph unicode="j" horiz-adv-x="600" d="M-78 -305q0 47 34 79q32 30 75 30q3 0 6 -1q10 0 38.5 -1t37.5 -1q63 0 101 32t38 93.5t-31 136.5q-8 29 -8 43v603q-35 10 -56.5 38.5t-21.5 65.5q0 45 32 77t77 32h78q45 0 76.5 -32t31.5 -77v-686q41 -111 41 -201q0 -152 -102.5 -248t-253.5 -96h-33q-20 0 -35.5 1 t-17.5 1q-45 2 -76 34t-31 77z" />
<glyph unicode="k" horiz-adv-x="1077" d="M158 0v813q0 45 31.5 77t76.5 32t78 -32t33 -77v-293h94l262 357q35 45 88 45q45 0 78 -32t33 -77q0 -37 -21 -65l-249 -336l221 -299l6 2h10q41 0 73 -30q36 -34 36 -81q0 -41 -30 -73.5t-73 -34.5l-65 -5h-10q-54 0 -85 43l-272 367h-94v-301q0 -45 -33 -77t-78 -32 t-77.5 32t-32.5 77z" />
<glyph unicode="l" horiz-adv-x="870" d="M113 0q0 74 65 100v713q0 45 32 77t77 32t77.5 -32t32.5 -77v-702h193q29 66 100 65q45 0 77 -32.5t32 -77.5v-66q0 -45 -32 -77t-77 -32h-469q-45 0 -76.5 32t-31.5 77z" />
<glyph unicode="m" horiz-adv-x="1277" d="M158 -6v823q0 45 30.5 75t73.5 30q47 0 78 -37l297 -344l297 344q33 37 78 37q43 0 74.5 -31t31.5 -74v-823q0 -41 -30.5 -72t-73.5 -31t-73 31t-30 72v545l-194 -226q-31 -35 -78 -34q-49 0 -78 34l-194 226v-545q0 -41 -30 -72t-73 -31t-74.5 31t-31.5 72z" />
<glyph unicode="n" horiz-adv-x="1196" d="M158 -6v823q0 43 30.5 74t73.5 31h60q55 0 86 -48l421 -626v473q-70 31 -69 96q0 43 30.5 74t73.5 31h66q43 0 74.5 -31t31.5 -74v-823q0 -43 -30.5 -73t-73.5 -30h-60q-57 0 -86 46l-419 628v-571q0 -43 -30 -73t-73 -30t-74.5 30t-31.5 73z" />
<glyph unicode="o" horiz-adv-x="1261" d="M111 408q0 223 148.5 375.5t369.5 152.5q223 0 372.5 -151.5t149.5 -376.5q0 -223 -148.5 -377t-371.5 -154q-221 0 -370.5 152t-149.5 379zM330 408q0 -135 84 -223.5t215 -88.5t216 89t85 223h2q0 135 -85 222t-216 87t-216 -88t-85 -221z" />
<glyph unicode="p" horiz-adv-x="1038" d="M133 811q0 45 32 77t77 32l364 2h6q146 0 254 -109q111 -111 111 -260q0 -154 -110.5 -265.5t-264.5 -111.5h-184l-2 -176q0 -45 -32 -78t-77 -33t-76.5 33t-31.5 78v711q-66 26 -66 100zM418 395h184q63 0 110.5 47t47.5 111q0 57 -47 103t-107 46h-188v-307z" />
<glyph unicode="q" horiz-adv-x="1257" d="M113 406q0 223 147.5 376.5t370.5 153.5q221 0 370.5 -151.5t149.5 -378.5q0 -238 -168 -392l92 -96l12 2q9 2 19 2q37 0 68 -27q39 -34 38 -83q0 -41 -28.5 -73t-69.5 -36l-65 -6q-8 -1 -15 -1q-45 0 -76 34l-165 172q-74 -25 -158 -25q-221 0 -371.5 152t-150.5 377z M332 405.5q0 -133.5 84 -221.5t215 -88t215 89t84 221h2q0 135 -84 223t-213 88q-133 0 -218 -89t-85 -222.5z" />
<glyph unicode="r" horiz-adv-x="1087" d="M131 813q0 45 32 77t77 32h338q125 0 237.5 -95.5t112.5 -251.5q0 -88 -44 -166.5t-120 -127.5l125 -168l6 2h10q41 0 73 -30q36 -34 36 -81q0 -41 -29 -73.5t-72 -34.5l-67 -5h-10q-53 0 -84 43l-217 291h-117v-225q0 -45 -33 -77t-78 -32t-76.5 32t-31.5 77v713 q-68 28 -68 100zM416 442l170 2q47 0 84 42t37 89h2q0 63 -47.5 95t-81.5 32h-164v-260z" />
<glyph unicode="s" horiz-adv-x="944" d="M117 625q0 150 99 229.5t257 79.5q164 0 262 -33q72 -23 68 -102l-4 -68q-4 -39 -34 -65.5t-69 -26.5q-78 0 -100 86q-49 8 -123 8q-72 0 -113 -21.5t-41 -86.5q0 -33 11 -56q10 -8 55 -24q168 -61 254 -92q100 -37 143 -93.5t43 -164.5q0 -150 -98 -234t-254 -84 q-162 0 -260 33q-33 10 -51.5 40t-16.5 62l7 68q4 39 32.5 65.5t67.5 26.5q78 0 100 -86q47 -8 121 -8q150 0 150 117q0 23 -5 51l-49 16q-25 8 -116 42t-140 52q-104 39 -150 97.5t-46 171.5z" />
<glyph unicode="t" horiz-adv-x="946" d="M41 745v68q0 45 31.5 77t77.5 32h645q45 0 77.5 -32t32.5 -77v-68q0 -45 -31.5 -76.5t-76.5 -31.5q-74 0 -101 65h-112v-702q0 -45 -32 -78t-77 -33t-77.5 33t-32.5 78v702h-113q-27 -66 -100 -65q-45 0 -78 31.5t-33 76.5z" />
<glyph unicode="u" horiz-adv-x="1134" d="M137 336v477q0 45 32 77t77 32t77.5 -32t32.5 -77v-477q0 -35 7.5 -69t27 -77t64.5 -68.5t112 -25.5q53 0 94 18.5t64 45t36 61.5t16 61.5t3 53.5v377q-68 29 -67 100q0 45 31.5 77t76.5 32h66q45 0 77.5 -32t32.5 -77v-477q0 -205 -117.5 -332t-310.5 -127 q-195 0 -313.5 127t-118.5 332z" />
<glyph unicode="v" horiz-adv-x="989" d="M51 813q0 45 32 77t77 32q76 0 102 -72l227 -612l238 614q27 70 102 70q45 0 77 -32t32 -77q0 -18 -6 -41l-316 -811q-27 -70 -100 -70h-55q-76 0 -103 72l-301 811q-6 19 -6 39z" />
<glyph unicode="w" horiz-adv-x="1460" d="M104 797q-4 14 -3 26q0 31 21 59q30 38 77 38q33 0 59.5 -21.5t34.5 -54.5l147 -580l176 547q10 29 35 48.5t58 19.5h36q33 0 59.5 -19.5t35.5 -52.5l157 -545l168 586q8 33 35 52.5t60 19.5q49 0 79 -40q21 -27 21 -58q0 -14 -4 -29l-238 -828q-8 -33 -34.5 -52 t-59.5 -19h-47q-74 0 -94 71l-158 539l-174 -543q-20 -68 -94 -67h-47q-33 0 -59.5 20t-35.5 53z" />
<glyph unicode="x" horiz-adv-x="1060" d="M90 0q0 39 23 68l278 354l-254 323q-27 35 -26 68q0 45 32.5 77t77.5 32q55 0 86 -41l219 -281l219 279q33 43 86 43q45 0 78 -32t33 -77q0 -39 -22 -68l-254 -323l278 -354q27 -33 27 -68q0 -45 -32 -77t-77 -32q-55 0 -86 41l-246 312l-241 -312q-31 -41 -88 -41 q-45 0 -78 32t-33 77z" />
<glyph unicode="y" horiz-adv-x="962" d="M41 813q0 45 31.5 77t77.5 32q57 0 90 -45l237 -330l248 332q33 43 86 43q45 0 78 -32t33 -77q0 -37 -23 -65l-315 -422v-326q0 -45 -32 -77t-77 -32t-77.5 32t-32.5 77v328l-304 420q-20 28 -20 65z" />
<glyph unicode="z" horiz-adv-x="1036" d="M115 -8v49q0 35 22 63l490 615h-312q-31 -68 -96 -68q-41 0 -71.5 31t-30.5 72v67q0 41 29.5 71t70.5 30h580q41 0 71.5 -30t30.5 -71v-51q0 -35 -20 -61l-492 -617h336q29 68 96 68q41 0 72 -30t31 -71v-67q0 -41 -30 -71t-71 -30h-602q-43 0 -73.5 30t-30.5 71z" />
<glyph unicode="{" horiz-adv-x="870" d="M172 408q0 55 43 88l201 149l-97 262q-51 139 54.5 270.5t253.5 131.5q45 0 76.5 -32t31.5 -77q0 -47 -31.5 -78.5t-76.5 -31.5q-31 0 -72 -38t-31 -67l125 -340q12 -33 2 -69.5t-39 -57.5l-149 -110l149 -113q66 -49 39 -123l-127 -362q-8 -27 35 -68t70 -41 q45 0 77.5 -31.5t32.5 -77.5q0 -47 -31.5 -78.5t-78.5 -31.5q-141 0 -250 132t-62 267l101 287l-203 151q-43 32 -43 89z" />
<glyph unicode="|" horiz-adv-x="583" d="M182 -168v1294q0 45 32 78t77 33t77.5 -33t32.5 -78v-1294q0 -45 -31.5 -76.5t-78.5 -31.5q-45 0 -77 31.5t-32 76.5z" />
<glyph unicode="}" horiz-adv-x="870" d="M131 -407.5q0 45.5 32 77t77 31.5q29 0 70.5 41t33.5 68l-125 362q-27 74 37 123l150 113l-150 110q-29 20 -39 57t2 70l127 340q10 29 -31 67t-71 38q-47 0 -79 32.5t-32 77.5t33 77t78 32q147 0 252.5 -130t54.5 -270l-98 -264l200 -149q45 -35 45 -88.5t-45 -88.5 l-200 -151l98 -287q47 -135 -60.5 -267t-250.5 -132q-45 0 -77 32.5t-32 78z" />
<glyph unicode="~" horiz-adv-x="1191" d="M184 324q0 31 15 53l98 180q18 35 56 50.5t77 0.5l379 -133l18 31q35 57 97 57q45 0 76.5 -32.5t31.5 -77.5q0 -23 -14 -52l-62 -112q-20 -35 -57 -49.5t-74 -1.5l-381 133l-55 -99q-33 -57 -96 -57q-45 0 -77 32t-32 77z" />
<glyph horiz-adv-x="1316" d="M162 231q0 45 31.5 77t76.5 32h584q45 0 77 -32t32 -77t-32 -76.5t-77 -31.5h-293v-129q0 -68 54.5 -97.5t127.5 -29.5q96 0 240 43q53 14 97 -18.5t44 -86.5q0 -80 -77 -104q-160 -53 -304 -53q-166 0 -283.5 92t-117.5 254v129h-72q-45 0 -76.5 31.5t-31.5 76.5z M176 588q0 45 33 76.5t78 31.5h55v135q0 164 104.5 257.5t290.5 93.5q68 0 148 -7.5t126 -14.5t52 -9q43 -8 69.5 -41t22.5 -74l-6 -65q-4 -43 -35 -73t-74 -30q-37 0 -66.5 22.5t-37.5 57.5q-133 14 -199 15q-88 0 -132 -26t-44 -106v-135h330q45 0 76.5 -32.5t31.5 -77.5 t-31.5 -77t-76.5 -32h-604q-45 0 -78 33t-33 78z" />
<glyph horiz-adv-x="661" d="M131 -254q0 35 16 59l125 193l-41 29q-45 31 -45 90q0 45 32 76.5t77 31.5q37 0 63 -20l125 -90q47 -35 47 -88q0 -31 -18 -60l-180 -280q-33 -51 -92 -52q-45 0 -77 33t-32 78z" />
<glyph horiz-adv-x="1075" d="M111 461q0 45 31.5 77.5t76.5 32.5h100v138q0 113 16.5 198.5t56.5 162.5t119 119t194 42q123 0 200 -47q59 -29 60 -97q0 -61 -51.5 -92.5t-106.5 -5.5q-45 23 -102 23q-47 0 -81 -18.5t-50.5 -41t-24.5 -67.5t-9 -73t-1 -83v-20v-138h161q45 0 77 -32.5t32 -77.5 t-32 -77t-77 -32h-161v-479q0 -150 -79 -224.5t-173 -76.5q-45 0 -78 31.5t-33 77t31 76t76 34.5q37 2 36 82v479h-100q-45 0 -76.5 32t-31.5 77z" />
<glyph horiz-adv-x="1122" d="M131 -254q0 35 16 59l125 193l-41 29q-45 31 -45 90q0 45 32 76.5t77 31.5q37 0 63 -20l125 -90q47 -35 47 -88q0 -31 -18 -60l-180 -280q-33 -51 -92 -52q-45 0 -77 33t-32 78zM598 -254q0 33 16 57l125 195l-41 29q-45 31 -45 88q0 47 32 78.5t77 31.5q37 0 63 -20 l125 -90q47 -35 47 -88q0 -31 -18 -60l-180 -280q-33 -51 -92 -52q-45 0 -77 33t-32 78z" />
<glyph unicode="&#x85;" horiz-adv-x="1363" d="M131 -6q0 47 29 78l41 47q37 43 92 43q51 0 86 -35t35 -86q0 -39 -29 -78l-39 -49q-35 -43 -94 -43q-49 0 -85 36t-36 87zM541 -6q0 47 28 78l41 47q37 43 92 43q51 0 86 -35t35 -86q0 -39 -28 -78l-39 -49q-35 -43 -94 -43q-49 0 -85 36t-36 87zM950 -6q0 47 29 78 l41 47q37 43 92 43q51 0 86 -35t35 -86q0 -39 -29 -78l-39 -49q-35 -43 -94 -43q-49 0 -85 36t-36 87z" />
<glyph horiz-adv-x="1128" d="M141 807q0 51 38 84t87 24l191 -28v237q0 45 31.5 77t76.5 32t77 -32t32 -77v-237l190 28q49 8 87 -24.5t38 -83.5q0 -41 -26.5 -71.5t-65.5 -37.5l-223 -32v-693q0 -45 -32 -77.5t-77 -32.5t-76.5 32.5t-31.5 77.5v693l-224 32q-39 6 -65.5 37t-26.5 72z" />
<glyph horiz-adv-x="1128" d="M141 246q0 41 27 71.5t65 36.5l224 33v279l-224 32q-39 6 -65.5 37t-26.5 72q0 51 38 84t87 24l191 -28v237q0 45 31.5 77t76.5 32t77 -32t32 -77v-237l190 28q49 8 87 -24.5t38 -83.5q0 -41 -26.5 -71.5t-65.5 -37.5l-223 -32v-279l223 -33q39 -6 65.5 -36.5t26.5 -71.5 q0 -51 -38 -84t-87 -25l-190 29v-193q0 -45 -32 -77.5t-77 -32.5t-76.5 32.5t-31.5 77.5v193l-191 -29q-49 -8 -87 25t-38 84z" />
<glyph horiz-adv-x="765" d="M3 1154q11 44 50 67l271 163q57 33 112 0l277 -161q39 -23 50 -67t-11.5 -83t-66.5 -50t-83 11l-221 129l-215 -129q-39 -23 -83 -12.5t-67 49.5q-24 39 -13 83z" />
<glyph horiz-adv-x="2588" d="M90 760q0 125 88 213t213 88t214 -88t89 -213t-89 -213t-214 -88t-213 88t-88 213zM281 760q0 -45 32.5 -78t77.5 -33q47 0 80 33t33 78t-33 77.5t-80 32.5t-78.5 -31.5t-31.5 -78.5zM391 -147q0 35 17 57l770 1253q31 53 94 54q45 0 76.5 -33t31.5 -78q0 -29 -16 -55 l-770 -1256q-33 -51 -94 -51q-45 0 -77 32t-32 77zM1090 192.5q0 124.5 88 214t213 89.5t213 -89.5t88 -214t-88 -213t-213 -88.5t-213 88.5t-88 213zM1280 193q0 -45 33 -78t78 -33q47 0 78.5 32.5t31.5 78.5q0 47 -32.5 79.5t-77.5 32.5t-78 -32.5t-33 -79.5zM1853 192.5 q0 124.5 88.5 214t212.5 89.5q127 0 215.5 -88.5t88.5 -214.5q0 -125 -89.5 -213.5t-214 -88.5t-213 88.5t-88.5 213zM2044 193q0 -45 32.5 -78t77.5 -33q47 0 80 32.5t33 78t-33.5 79t-79 33.5t-78 -32.5t-32.5 -79.5z" />
<glyph horiz-adv-x="995" d="M109 754q0 164 110.5 257t278.5 93q180 0 295 -39q37 -12 57 -44t18 -69l-4 -65q-2 -43 -33.5 -72t-74.5 -29q-39 0 -70 25t-39 63q-74 12 -147 13q-172 0 -172 -133q0 -51 16 -71.5t78 -45.5l229 -92q47 -18 74 -32.5t72 -50.5t67.5 -94.5t22.5 -136.5 q0 -162 -111.5 -258t-277.5 -96q-182 0 -293 39q-37 12 -58.5 43t-17.5 68l6 65q4 43 35 73t74 30q39 0 68.5 -25t37.5 -64q59 -10 146 -10q172 0 172 135q0 49 -16.5 67.5t-78.5 43.5l-229 92q-66 27 -108.5 53.5t-84.5 96.5t-42 170zM173 1493q3 45 36 76q33 29 78 25.5 t75 -35.5l148 -164l141 164q29 35 74 39t80 -27q35 -29 39 -75t-27 -81l-223 -258q-33 -39 -82 -39t-82 37l-231 260q-29 33 -26 78z" />
<glyph horiz-adv-x="798" d="M111 393q0 49 36 82l342 299q33 29 72 29q45 0 77 -33t32 -78q0 -49 -37 -82l-248 -217l248 -217q37 -33 37 -82q0 -45 -32 -77.5t-77 -32.5q-39 0 -72 28l-342 299q-36 33 -36 82z" />
<glyph horiz-adv-x="1658" d="M74 494q0 258 162.5 434t418.5 176q127 0 242 -49q29 35 78 35h469q47 0 79.5 -32t32.5 -77v-66q0 -47 -32.5 -78.5t-77.5 -31.5q-70 0 -100 65h-261v-268h338q45 0 78 -31.5t33 -76.5t-32 -77t-77 -32h-340v-276h365q45 0 78 -32t33 -77t-32 -77t-77 -32h-475 q-47 0 -80 37q-117 -51 -242 -51q-246 0 -413.5 178.5t-167.5 438.5zM293 494q0 -170 102.5 -284t257.5 -114q121 0 213 66l2 661q-102 63 -211 64q-164 0 -264 -112.5t-100 -280.5z" />
<glyph horiz-adv-x="1159" d="M129 -4v65q0 35 23 64l587 754h-403q-27 -66 -98 -66q-43 0 -75 30.5t-32 76.5v65q0 43 31 74t74 31h661q43 0 76 -31t33 -74v-72q0 -37 -23 -65l-582 -748h424q27 68 99 68q43 0 74.5 -31t31.5 -74v-67q0 -43 -29.5 -74t-74.5 -31h-688q-43 0 -76 31t-33 74zM234.5 1493 q3.5 45 35.5 76q33 29 78 25.5t76 -35.5l147 -164l142 164q29 35 73.5 39t79.5 -27q35 -29 39 -75t-26 -81l-224 -258q-33 -39 -82 -39t-81 37l-232 260q-29 33 -25.5 78z" />
<glyph horiz-adv-x="616" d="M86 1030q0 35 16 60l183 280q33 51 90 51q47 0 78.5 -32.5t31.5 -77.5q0 -33 -18 -60l-123 -192l41 -29q45 -33 45 -88q0 -45 -31.5 -78t-76.5 -33q-33 0 -64 21l-127 90q-45 33 -45 88z" />
<glyph horiz-adv-x="620" d="M131 784q0 33 16 58l125 194l-41 29q-45 31 -45 88q0 47 32 79t77 32q33 0 63 -21l125 -90q47 -35 47 -88q0 -33 -18 -59l-180 -281q-33 -51 -92 -51q-45 0 -77 32.5t-32 77.5z" />
<glyph horiz-adv-x="1083" d="M86 1030q0 35 16 60l183 280q33 51 90 51q47 0 78.5 -32.5t31.5 -77.5q0 -33 -18 -60l-123 -192l41 -29q45 -33 45 -88q0 -45 -31.5 -78t-76.5 -33q-33 0 -64 21l-127 90q-45 33 -45 88zM555 1010q-8 43 14 80l181 280q33 51 92 51q47 0 78.5 -32.5t31.5 -77.5 q0 -33 -18 -60l-123 -192l41 -29q45 -33 45 -88q0 -45 -31.5 -78t-77.5 -33q-33 0 -63 21l-127 90q-35 25 -43 68z" />
<glyph horiz-adv-x="1081" d="M131 784q0 33 16 58l125 194l-41 29q-45 31 -45 88q0 47 32 79t77 32q33 0 63 -21l125 -90q37 -27 44.5 -69t-15.5 -78l-180 -281q-33 -51 -92 -51q-45 0 -77 32.5t-32 77.5zM598 784q0 33 16 58l125 194l-41 29q-45 31 -45 88q0 47 32 79t77 32q37 0 63 -21l125 -90 q47 -35 47 -88q0 -33 -18 -59l-180 -281q-33 -51 -92 -51q-45 0 -77 32.5t-32 77.5z" />
<glyph horiz-adv-x="763" d="M131 423.5q0 104.5 74 178.5t178 74t178 -75t74 -177q0 -104 -74 -178t-178 -74t-178 73.5t-74 178z" />
<glyph horiz-adv-x="1277" d="M203 422q0 45 31.5 77.5t76.5 32.5h656q45 0 76.5 -32.5t31.5 -77.5t-31.5 -77t-76.5 -32h-656q-45 0 -76.5 32t-31.5 77z" />
<glyph horiz-adv-x="1929" d="M203 422q0 45 31.5 77.5t76.5 32.5h1309q45 0 77 -31.5t32 -78.5q0 -45 -32 -77t-77 -32h-1309q-45 0 -76.5 32t-31.5 77z" />
<glyph horiz-adv-x="753" d="M57.5 1099q-12.5 44 10.5 83l94 168q20 39 63 51t82 -8l252 -131l43 77q20 39 65.5 51.5t84.5 -10.5q41 -23 52 -65.5t-11 -83.5l-95 -168q-20 -39 -63 -51.5t-82 8.5l-252 131l-43 -76q-23 -41 -65.5 -52t-83.5 11q-39 21 -51.5 65z" />
<glyph horiz-adv-x="1945" d="M111 866q0 41 27.5 70t68.5 29h475q41 0 68.5 -29t27.5 -70t-27.5 -69.5t-68.5 -28.5h-141v-424q0 -41 -29 -70.5t-67.5 -29.5t-67.5 29.5t-29 70.5v424h-141q-41 0 -68.5 28.5t-27.5 69.5zM866 362l105 525q6 33 32.5 55.5t61.5 22.5q61 0 88 -54l145 -297l148 297 q27 53 86 54q35 0 61.5 -22.5t32.5 -55.5l107 -525q8 -45 -21 -81.5t-74 -36.5q-35 0 -61.5 22.5t-34.5 57.5l-49 245l-109 -219q-29 -55 -86 -55t-86 55l-108 219l-49 -245q-8 -35 -34 -57.5t-60 -22.5q-45 0 -75 36.5t-20 81.5z" />
<glyph horiz-adv-x="944" d="M117 625q0 150 99 229.5t257 79.5q164 0 262 -33q72 -23 68 -102l-4 -68q-4 -39 -34 -65.5t-69 -26.5q-78 0 -100 86q-49 8 -123 8q-72 0 -113 -21.5t-41 -86.5q0 -33 11 -56q10 -8 55 -24q168 -61 254 -92q100 -37 143 -93.5t43 -164.5q0 -150 -98 -234t-254 -84 q-162 0 -260 33q-33 10 -51.5 40t-16.5 62l7 68q4 39 32.5 65.5t67.5 26.5q78 0 100 -86q47 -8 121 -8q150 0 150 117q0 23 -5 51l-49 16q-25 8 -116 42t-140 52q-104 39 -150 97.5t-46 171.5zM146.5 1325q3.5 45 35.5 76q33 29 78 25.5t76 -35.5l147 -164l142 164 q29 35 73.5 39t79.5 -27q35 -29 39 -75t-26 -81l-224 -258q-33 -39 -82 -39t-82 37l-231 260q-29 33 -25.5 78z" />
<glyph horiz-adv-x="798" d="M131 94q0 49 37 82l248 217l-248 217q-37 33 -37 82q0 45 32 78t77 33q39 0 73 -29l340 -299q37 -33 37 -82t-37 -82l-340 -299q-35 -29 -73 -28q-45 0 -77 32.5t-32 77.5z" />
<glyph horiz-adv-x="1470" d="M82 403q0 225 145.5 379t368.5 154q92 0 201 -39q27 25 67 25h404q47 0 79.5 -32t32.5 -77v-65q0 -47 -32.5 -79t-77.5 -32q-74 0 -101 65h-194v-184h272q45 0 78 -32.5t33 -78t-32 -77t-77 -31.5h-274v-190h291q47 0 79.5 -32t32.5 -77t-32.5 -77t-77.5 -32h-402 q-39 0 -67 23q-100 -37 -207 -37q-213 0 -361.5 152.5t-148.5 373.5zM301 403q0 -131 82 -219t207 -88q84 0 166 37l2 547q-90 37 -160 37q-133 0 -215 -89.5t-82 -224.5z" />
<glyph horiz-adv-x="1036" d="M115 -8v49q0 35 22 63l490 615h-312q-31 -68 -96 -68q-41 0 -71.5 31t-30.5 72v67q0 41 29.5 71t70.5 30h580q41 0 71.5 -30t30.5 -71v-51q0 -35 -20 -61l-492 -617h336q29 68 96 68q41 0 72 -30t31 -71v-67q0 -41 -30 -71t-71 -30h-602q-43 0 -73.5 30t-30.5 71z M193.5 1325q3.5 45 35.5 76q33 29 78 25.5t76 -35.5l147 -164l142 164q29 35 74 39t79 -27q35 -29 39 -75t-26 -81l-224 -258q-33 -39 -82 -39t-81 37l-232 260q-29 33 -25.5 78z" />
<glyph d="M16 981q0 45 32 77t77 32q59 0 90 -48l289 -415l301 417q33 45 88 46q45 0 78 -32t33 -77q0 -33 -21 -63l-371 -517v-401q0 -45 -31.5 -77t-76.5 -32t-78 32t-33 77v403l-356 515q-21 30 -21 63zM154 1315q-4 49 28 88l41 49q33 39 82 43t88 -28.5t42 -82t-27 -88.5 l-39 -49q-31 -39 -82 -43t-90 29t-43 82zM614 1315q-4 49 29 88l41 49q33 39 82 43t88 -28.5t42 -82t-28 -88.5l-39 -49q-31 -39 -82 -43t-90 29t-43 82z" />
<glyph unicode="&#xa1;" horiz-adv-x="626" d="M150 768q0 37 26 70l49 57q37 41 84 41q45 0 78 -33t33 -78q0 -33 -27 -69l-47 -60q-33 -39 -84 -39q-47 0 -79.5 33t-32.5 78zM174 -78v498q0 47 32 78.5t79 31.5q45 0 76.5 -32.5t31.5 -77.5v-397q68 -33 68 -101q0 -45 -32 -77.5t-77 -32.5h-65q-47 0 -80 32.5 t-33 77.5z" />
<glyph unicode="&#xa2;" horiz-adv-x="983" d="M111 399q0 158 84 276t225 165v231q0 45 32.5 77t77.5 32t77 -32t32 -77v-209q31 -2 64.5 -6t54.5 -8l22 -2q39 -6 64.5 -37t25.5 -72q0 -51 -38.5 -83.5t-88.5 -22.5q-92 14 -159 14q-113 0 -183.5 -66.5t-70.5 -179.5q0 -117 62.5 -186.5t176.5 -69.5q20 0 45 3.5 t44.5 6.5t35 7t25.5 8l10 2q53 18 98 -14.5t45 -87.5q0 -78 -73 -105q-119 -29 -160 -35v-172q0 -47 -33 -78.5t-78 -31.5t-76.5 32.5t-31.5 77.5v191q-150 47 -229.5 168.5t-79.5 283.5z" />
<glyph unicode="&#xa3;" horiz-adv-x="1331" d="M182 479q0 45 32 78t77 33h88q-61 92 -62 213q0 160 107.5 268.5t267.5 108.5q39 0 94.5 -2t96.5 -2l41 -2q47 -4 76.5 -39t27.5 -80l-4 -66q-2 -43 -35 -71.5t-76 -28.5q-74 0 -100 69q-41 2 -121 3q-70 0 -112.5 -43.5t-42.5 -114.5q0 -78 49 -127q37 -31 37 -80v-6 h223q45 0 76.5 -33t31.5 -78t-31.5 -76.5t-76.5 -31.5h-223v-262h319q27 66 100 65q45 0 77 -31.5t32 -76.5v-66q0 -45 -32 -77t-77 -32h-708q-47 0 -79 32t-32 77t33 77t78 32h69v262h-112q-45 0 -77 31.5t-32 76.5z" />
<glyph unicode="&#xa4;" horiz-adv-x="1085" d="M31 94q0 43 30 74l109 106q-59 100 -59 215q0 123 65 230l-104 102q-29 33 -29 74q0 45 30.5 75.5t73.5 30.5q45 0 76 -30l103 -105q104 61 221 61.5t221 -61.5l109 105q31 31 73.5 30.5t73.5 -31t31 -75.5q0 -43 -31 -74l-106 -106q57 -98 57 -215q0 -121 -66 -228 l105 -104q31 -31 30 -74q0 -45 -31.5 -75.5t-74.5 -30.5t-74 32l-104 105q-104 -61 -221 -62q-123 0 -222 62l-106 -107q-31 -31 -76 -30q-43 0 -73.5 30.5t-30.5 75.5zM322 489q0 -90 63.5 -152.5t153.5 -62.5q92 0 158.5 64.5t66.5 157.5q2 92 -61.5 156.5t-155.5 64.5 q-94 0 -159.5 -67t-65.5 -161z" />
<glyph unicode="&#xa5;" horiz-adv-x="1363" d="M193 934q0 45 31.5 77.5t76.5 32.5q59 0 92 -49l275 -409l309 413q33 45 86 45q47 0 79 -32.5t32 -77.5q0 -33 -23 -66l-379 -508v-124h195q45 0 76.5 -33t31.5 -78t-31.5 -77t-76.5 -32h-195v-137q0 -47 -31.5 -78.5t-77 -31.5t-77 32.5t-31.5 77.5v137h-199 q-45 0 -76.5 32t-31.5 77t31.5 78t76.5 33h199v124l-344 514q-18 27 -18 60z" />
<glyph unicode="&#xa6;" horiz-adv-x="583" d="M182 -195v443q0 45 32 76.5t77 31.5q47 0 78.5 -31.5t31.5 -76.5v-443q0 -45 -32.5 -76.5t-77.5 -31.5t-77 31.5t-32 76.5zM182 715v440q0 45 32 78t77 33t77.5 -33t32.5 -78v-440q0 -47 -32.5 -79t-77.5 -32t-77 33t-32 78z" />
<glyph unicode="&#xa7;" horiz-adv-x="1251" d="M162 741q0 229 146.5 369.5t373.5 140.5q129 0 252 -30q39 -8 63.5 -40t20.5 -73l-4 -66q-2 -43 -34 -72.5t-75 -29.5q-39 0 -67.5 23.5t-38.5 60.5q-51 8 -117 8q-78 0 -133 -18l364 -457q176 -221 177 -434q0 -229 -146.5 -369.5t-374.5 -140.5q-137 0 -252 29 q-39 10 -63.5 41.5t-20.5 72.5l7 66q4 43 34.5 71.5t73.5 28.5q39 0 67.5 -23.5t39.5 -60.5q78 -8 114 -8q82 0 133 20l-364 457q-176 221 -176 434zM367 741q0 -147 131 -307l360 -450q29 94 29 139q0 139 -131 305l-361 451q-28 -81 -28 -138z" />
<glyph unicode="&#xa8;" horiz-adv-x="743" d="M0 1147q-4 49 29 88l41 49q33 39 82 43t88 -28.5t42 -82t-28 -88.5l-39 -49q-31 -39 -82 -43t-90 29t-43 82zM461 1147q-4 49 28 88l41 49q33 39 82.5 43t88 -28.5t41.5 -82t-27 -88.5l-39 -49q-31 -39 -82 -43t-90 29t-43 82z" />
<glyph unicode="&#xa9;" horiz-adv-x="1726" d="M111 403.5q0 311.5 221 532.5t532.5 221t532.5 -221t221 -532.5t-221 -532.5t-532.5 -221t-532.5 221t-221 532.5zM330 403.5q0 -221.5 156.5 -378t377.5 -156.5t378 156.5t157 378t-157 378t-378 156.5t-377.5 -156.5t-156.5 -378zM522 401q2 154 106.5 260.5 t258.5 106.5q80 0 129 -20q70 -27 69 -103q0 -57 -46 -90t-99 -12q-14 6 -53 6q-63 0 -104.5 -42t-43.5 -106q0 -57 36 -96t91 -39q35 0 66 19q53 33 109.5 1t56.5 -95.5t-54 -94.5q-84 -49 -178 -49q-147 0 -245.5 103.5t-98.5 250.5z" />
<glyph unicode="&#xaa;" horiz-adv-x="1058" d="M150 375l266 608q27 66 98 66h41q68 0 98 -66l277 -606q25 -55 -8 -105.5t-93 -50.5q-72 0 -100 66l-22 51h-336l-23 -51q-29 -66 -100 -66q-59 0 -90 50.5t-8 103.5zM164 -49q0 43 29 78l40 49q33 43 93 43q51 0 85.5 -35t34.5 -86q0 -39 -28 -78l-39 -49 q-35 -43 -94 -43q-49 0 -85 36t-36 85zM420 526h233l-116 265zM618 -49q0 45 27 78l41 49q37 43 94 43q49 0 85 -35t36 -86q0 -43 -29 -78l-41 -49q-37 -43 -92 -43q-51 0 -86 36t-35 85z" />
<glyph unicode="&#xab;" horiz-adv-x="1378" d="M111 393q0 49 36 82l342 299q33 29 72 29q45 0 77 -33t32 -78q0 -49 -37 -82l-248 -217l248 -217q37 -33 37 -82q0 -45 -32 -77.5t-77 -32.5q-39 0 -72 28l-342 299q-36 33 -36 82zM690 393q0 49 37 82l342 299q33 29 72 29q45 0 76.5 -33t31.5 -78q0 -49 -37 -82 l-247 -217l247 -217q37 -33 37 -82q0 -45 -31.5 -77.5t-76.5 -32.5q-39 0 -72 28l-342 299q-37 33 -37 82z" />
<glyph unicode="&#xac;" horiz-adv-x="1226" d="M152 393q0 45 31.5 77t76.5 32h637q43 0 76 -32t33 -83v-272q0 -45 -28 -77t-71 -32t-70.5 32t-27.5 77v170h-549q-45 0 -76.5 31.5t-31.5 76.5z" />
<glyph unicode="&#xad;" horiz-adv-x="894" d="M143 477q16 76 90 86l310 41q20 4 39 -2q39 -8 63 -45l41 -57q27 -39 16 -88q-10 -43 -48 -66.5t-83 -13.5q-41 10 -63 45l-246 -33q-55 -8 -93 35t-26 98z" />
<glyph unicode="&#xae;" horiz-adv-x="1726" d="M111 403.5q0 311.5 221 532.5t532.5 221t532.5 -221t221 -532.5t-221 -532.5t-532.5 -221t-532.5 221t-221 532.5zM330 403.5q0 -221.5 156.5 -378t377.5 -156.5t378 156.5t157 378t-157 378t-378 156.5t-377.5 -156.5t-156.5 -378zM580 137v535q0 41 30.5 70.5 t71.5 29.5h211q109 0 196 -78t87 -200q0 -127 -109 -222l55 -75q18 -29 19 -58q0 -41 -29 -70.5t-70 -29.5q-53 0 -81 41l-95 131h-86v-74q0 -41 -29.5 -69.5t-70.5 -28.5t-70.5 28.5t-29.5 69.5zM780 408h109q37 0 62.5 25.5t25.5 60.5q0 66 -76 79l-8 2h-113v-167z" />
<glyph unicode="&#xaf;" horiz-adv-x="708" d="M0 1206q0 45 31.5 77t77.5 32h489q45 0 78 -32t33 -77q0 -47 -33 -78.5t-78 -31.5h-489q-45 0 -77 32.5t-32 77.5z" />
<glyph unicode="&#xb0;" horiz-adv-x="825" d="M111 1053q0 125 88 214t213 89t214 -88t89 -215q0 -125 -89 -213t-214 -88t-213 88t-88 213zM301 1053q0 -45 33 -78t78 -33q47 0 79.5 33t32.5 78t-32.5 78.5t-79.5 33.5q-45 0 -78 -32.5t-33 -79.5z" />
<glyph unicode="&#xb1;" horiz-adv-x="1323" d="M223 584q0 45 32 77.5t77 32.5h221v244q0 45 32.5 78t78 33t77 -33t31.5 -78v-244h221q45 0 77 -32.5t32 -77.5t-32 -77t-77 -32h-221v-225q0 -45 -31.5 -78t-77 -33t-78 33t-32.5 78v225h-221q-45 0 -77 32t-32 77zM260 -102q0 45 33 76.5t78 31.5h583q45 0 78 -31.5 t33 -76.5t-33 -78t-78 -33h-583q-47 0 -79 33t-32 78z" />
<glyph unicode="&#xb2;" horiz-adv-x="880" d="M109 475q-6 162 50 286t195 163l144 41q57 16 57 77q0 63 -106 64q-37 0 -95.5 -10.5t-74.5 -20.5q-55 -27 -106.5 5t-51.5 94q0 63 57 96q41 23 127 39t144 16q131 0 228 -77t97 -206q0 -106 -57.5 -183t-159.5 -105l-143 -41q-68 -20 -82 -125h332q45 0 76.5 -32 t31.5 -77t-31.5 -77.5t-76.5 -32.5h-445q-45 0 -76.5 30.5t-33.5 75.5z" />
<glyph unicode="&#xb3;" horiz-adv-x="880" d="M109 408q0 53 43 86.5t94 19.5q94 -25 139 -25q14 0 30.5 2.5t47.5 10.5t50 30.5t19 57.5q0 51 -40.5 78.5t-94.5 27.5q-45 0 -76.5 32t-31.5 77t31.5 77.5t76.5 32.5q51 0 84 26t33 75q0 90 -115 90q-33 0 -153 -23q-51 -8 -90 25t-39 84q0 39 24.5 68.5t63.5 37.5 q147 27 194 27q147 0 240.5 -86t93.5 -223q0 -121 -71 -205q90 -90 90 -221q0 -145 -107.5 -232.5t-259.5 -87.5q-86 0 -195 33q-37 8 -59 38t-22 67z" />
<glyph unicode="&#xb4;" horiz-adv-x="581" d="M183.5 1139q15.5 43 56.5 63l342 162q41 20 84 5t61 -56q20 -41 5 -83t-56 -63l-344 -163q-39 -18 -82 -3t-64 56q-18 39 -2.5 82z" />
<glyph unicode="&#xb5;" horiz-adv-x="1249" d="M168 -504v1290q0 45 31.5 78t76.5 33q47 0 79 -33t32 -78v-573q0 -59 43 -88t168 -29q57 0 113.5 23.5t82 44t33.5 31.5v591q0 45 33 78t78 33t77 -33t32 -78v-686q66 -27 65 -100q0 -45 -31.5 -77t-76.5 -32h-66q-59 0 -92 50q-119 -63 -248 -64q-119 0 -211 31v-311 q66 -27 66 -101q0 -45 -32 -76.5t-77 -31.5h-65q-45 0 -78 31.5t-33 76.5z" />
<glyph unicode="&#xb6;" horiz-adv-x="1124" d="M70 715q0 201 134 319.5t339 118.5h364q45 0 77 -31.5t32 -77.5q0 -74 -66 -100v-919q0 -145 -110.5 -249t-257.5 -104q-74 0 -195 45q-68 29 -68 101q0 59 50.5 91t103.5 9q74 -29 109 -29q59 0 105 41t46 95v260l-198 -19q-186 -18 -325.5 120.5t-139.5 328.5z" />
<glyph unicode="&#xb7;" horiz-adv-x="647" d="M182 369q0 45 29 77l41 48q37 43 92 43q51 0 86 -35t35 -86q0 -39 -29 -78l-39 -49q-37 -43 -94 -43q-49 0 -85 36t-36 87z" />
<glyph unicode="&#xb8;" horiz-adv-x="432" d="M70 -492q-16 41 1 84t60 58l123 47l-64 264q-10 43 13.5 82t66.5 49q45 10 84 -13.5t49 -66.5l86 -358q8 -39 -11 -75t-56 -52l-213 -82q-43 -16 -84 2t-55 61z" />
<glyph unicode="&#xb9;" horiz-adv-x="880" d="M78 1165q0 41 26.5 72t67.5 37l260 39q49 8 88 -25t39 -84v-616h94q45 0 77 -32t32 -77t-32 -77.5t-77 -32.5h-409q-45 0 -78 32.5t-33 77.5t33 77t78 32h96v489l-137 -18q-49 -6 -87 25.5t-38 80.5z" />
<glyph unicode="&#xba;" horiz-adv-x="1181" d="M186 637q0 176 122 303t298 127t298 -124t122 -302t-122 -304t-298 -126t-298 123t-122 303zM225 -49q0 43 29 78l41 49q33 43 92 43q51 0 86 -35t35 -86q0 -39 -29 -78l-39 -49q-35 -43 -94 -43q-49 0 -85 36t-36 85zM406 637q0 -90 57 -149.5t143 -59.5t143.5 62.5 t57.5 150.5t-57.5 147.5t-143.5 59.5t-143 -62.5t-57 -148.5zM680 -49q0 45 27 78l41 49q37 43 94 43q49 0 85 -35t36 -86q0 -43 -29 -78l-41 -49q-37 -43 -92 -43q-51 0 -86 36t-35 85z" />
<glyph unicode="&#xbb;" horiz-adv-x="1384" d="M131 94q0 49 37 82l248 217l-248 217q-37 33 -37 82q0 45 32 78t77 33q39 0 73 -29l340 -299q37 -33 37 -82t-37 -82l-340 -299q-35 -29 -73 -28q-45 0 -77 32.5t-32 77.5zM715 94q0 49 37 82l247 217l-247 217q-37 33 -37 82q0 45 31.5 78t76.5 33q39 0 72 -29l342 -299 q37 -33 37 -82t-37 -82l-342 -299q-33 -29 -72 -28q-45 0 -76.5 32.5t-31.5 77.5z" />
<glyph unicode="&#xbc;" horiz-adv-x="2281" d="M78 1165q0 41 26.5 72t67.5 37l260 39q49 8 88 -25t39 -84v-616h94q45 0 77 -32t32 -77t-32 -77.5t-77 -32.5h-409q-45 0 -78 32.5t-33 77.5t33 77t78 32h96v489l-137 -18q-49 -6 -87 25.5t-38 80.5zM721 -147q0 33 16 57l770 1253q31 53 95 54q45 0 76.5 -33t31.5 -78 q0 -29 -16 -55l-770 -1256q-33 -51 -95 -51q-45 0 -76.5 32t-31.5 77zM1434 -238l206 615q10 33 40 53.5t65 20.5q55 0 87 -46.5t15 -99.5l-157 -469h196l-2 203q0 45 33 76.5t78 31.5t76.5 -31.5t31.5 -76.5v-203h8q45 0 77 -31.5t32 -76.5t-31.5 -77t-77.5 -32h-8v-111 q0 -45 -31.5 -77.5t-76.5 -32.5t-77 32.5t-32 77.5v111h-348q-57 0 -88.5 45t-15.5 98z" />
<glyph unicode="&#xbd;" horiz-adv-x="2301" d="M78 1165q0 41 26.5 72t67.5 37l260 39q49 8 88 -25t39 -84v-616h94q45 0 77 -32t32 -77t-32 -77.5t-77 -32.5h-409q-45 0 -78 32.5t-33 77.5t33 77t78 32h96v489l-137 -18q-49 -6 -87 25.5t-38 80.5zM709 -147q0 33 16 57l770 1253q31 53 94 54q45 0 77 -33t32 -78 q0 -29 -17 -55l-770 -1256q-33 -51 -94 -51q-45 0 -76.5 32t-31.5 77zM1534 -471q-6 162 50 286t196 162l143 41q57 16 57 78q0 63 -106 64q-35 0 -92.5 -11.5t-77.5 -19.5q-55 -29 -106.5 4t-51.5 94q0 63 58 97q41 23 127 39t143 16q131 0 228.5 -77t97.5 -206 q0 -106 -57.5 -183t-160.5 -106l-143 -40q-68 -20 -82 -125h332q45 0 77 -32t32 -77t-32 -78t-77 -33h-444q-45 0 -77 31t-34 76z" />
<glyph unicode="&#xbe;" horiz-adv-x="2250" d="M109 408q0 53 43 86.5t94 19.5q94 -25 139 -25q14 0 30.5 2.5t47.5 10.5t50 30.5t19 57.5q0 51 -40.5 78.5t-94.5 27.5q-45 0 -76.5 32t-31.5 77t31.5 77.5t76.5 32.5q51 0 84 26t33 75q0 90 -115 90q-33 0 -153 -23q-51 -8 -90 25t-39 84q0 39 24.5 68.5t63.5 37.5 q147 27 194 27q147 0 240.5 -86t93.5 -223q0 -121 -71 -205q90 -90 90 -221q0 -145 -107.5 -232.5t-259.5 -87.5q-86 0 -195 33q-37 8 -59 38t-22 67zM688 -147q0 33 17 57l770 1253q31 53 94 54q45 0 76.5 -33t31.5 -78q0 -29 -16 -55l-770 -1256q-33 -51 -94 -51 q-45 0 -77 32t-32 77zM1403 -238l207 615q10 33 39.5 53.5t64.5 20.5q55 0 87 -46.5t16 -99.5l-158 -469h196l-2 203q0 45 33 76.5t78 31.5t77 -31.5t32 -76.5v-203h8q45 0 76.5 -31.5t31.5 -76.5t-31.5 -77t-76.5 -32h-8v-111q0 -45 -32 -77.5t-77 -32.5t-77 32.5t-32 77.5 v111h-348q-57 0 -88.5 45t-15.5 98z" />
<glyph unicode="&#xbf;" horiz-adv-x="731" d="M49 111q0 117 58.5 181t156.5 107v25q0 45 33 76.5t78 31.5t76.5 -31.5t31.5 -76.5q61 -31 62 -98q0 -45 -31 -77t-76 -32h-41q-86 -35 -107.5 -52.5t-21.5 -51.5q0 -55 39 -80t82 -25q35 0 65.5 4t45.5 8l12 5q55 25 105.5 -8t50.5 -91q0 -72 -64 -100q-86 -37 -213 -37 q-135 0 -238.5 87.5t-103.5 234.5zM240 768q0 41 24 72l49 57q37 39 84 39t80 -32t33 -77q0 -37 -27 -69l-49 -60q-33 -39 -84 -39q-45 0 -77.5 32t-32.5 77z" />
<glyph unicode="&#xc0;" horiz-adv-x="1179" d="M68 2q0 20 6 39l379 979q27 70 100 70h59q72 0 101 -70l393 -979h-2q8 -18 8 -43q0 -43 -31.5 -75t-76.5 -32q-74 0 -101 70l-74 182h-479l-69 -182q-27 -70 -103 -70q-47 0 -78.5 33t-31.5 78zM130 1422q-15 42 3.5 83t61.5 56.5t84 -2.5l348 -164q41 -20 57 -62.5 t-4 -83.5q-18 -41 -61.5 -57t-83.5 4l-349 164q-41 20 -56 62zM403 340h367l-184 473z" />
<glyph unicode="&#xc1;" horiz-adv-x="1179" d="M68 2q0 20 6 39l379 979q27 70 100 70h59q72 0 101 -70l393 -979h-2q8 -18 8 -43q0 -43 -31.5 -75t-76.5 -32q-74 0 -101 70l-74 182h-479l-69 -182q-27 -70 -103 -70q-47 0 -78.5 33t-31.5 78zM403 340h367l-184 473zM511 1307q15 43 56 63l342 162q41 20 84 5t62 -56 q20 -41 4.5 -83t-55.5 -63l-345 -164q-39 -18 -81.5 -2.5t-63.5 56.5q-18 39 -3 82z" />
<glyph unicode="&#xc2;" horiz-adv-x="1179" d="M68 2q0 20 6 39l379 979q27 70 100 70h59q72 0 101 -70l393 -979h-2q8 -18 8 -43q0 -43 -31.5 -75t-76.5 -32q-74 0 -101 70l-74 182h-479l-69 -182q-27 -70 -103 -70q-47 0 -78.5 33t-31.5 78zM195.5 1322q11.5 44 50.5 67l270 163q57 33 113 0l276 -161 q39 -23 50.5 -67t-11 -83t-66.5 -50t-83 11l-222 129l-215 -129q-39 -23 -83 -12.5t-66 49.5q-25 39 -13.5 83zM403 340h367l-184 473z" />
<glyph unicode="&#xc3;" horiz-adv-x="1179" d="M68 2q0 20 6 39l379 979q27 70 100 70h59q72 0 101 -70l393 -979h-2q8 -18 8 -43q0 -43 -31.5 -75t-76.5 -32q-74 0 -101 70l-74 182h-479l-69 -182q-27 -70 -103 -70q-47 0 -78.5 33t-31.5 78zM237.5 1267q-12.5 44 10.5 83l94 168q20 39 63.5 51t81.5 -8l252 -131 l43 77q20 39 65.5 51.5t84.5 -10.5q41 -23 52 -65.5t-11 -83.5l-94 -168q-20 -39 -63.5 -51.5t-82.5 8.5l-252 131l-43 -76q-23 -41 -65.5 -52t-83.5 11q-39 21 -51.5 65zM403 340h367l-184 473z" />
<glyph unicode="&#xc4;" horiz-adv-x="1179" d="M74 41l379 979q27 70 100 70h59q72 0 101 -70l393 -979h-2q23 -55 -10 -102.5t-90 -47.5q-74 0 -101 70l-74 182h-479l-69 -182q-27 -70 -103 -70q-59 0 -91.5 48.5t-12.5 101.5zM233.5 1315q-4.5 49 28.5 88l41 49q33 39 82 43t88 -28.5t42 -82t-28 -88.5l-38 -49 q-31 -39 -82.5 -43t-90 29t-43 82zM403 340h367l-184 473zM694 1315q-4 49 29 88l41 49q33 39 82 43t88 -28.5t42 -82t-28 -88.5l-39 -49q-31 -39 -82 -43t-90 29t-43 82z" />
<glyph unicode="&#xc5;" horiz-adv-x="1179" d="M74 41l379 979q23 61 84 67q-98 23 -164 104t-66 185q0 121 86 207q84 88 209 88q121 0 207 -87t86 -208q0 -127 -86 -209q-70 -70 -164 -82q47 -16 68 -65l393 -979h-2q23 -55 -10 -102.5t-90 -47.5q-74 0 -101 70l-74 182h-479l-69 -182q-27 -70 -103 -70 q-59 0 -91.5 48.5t-12.5 101.5zM403 340h367l-184 473zM510 1376q0 -39 26.5 -65.5t65.5 -26.5q37 0 63.5 26.5t26.5 65.5q0 37 -26.5 63.5t-63.5 26.5q-39 0 -65.5 -26.5t-26.5 -63.5z" />
<glyph unicode="&#xc6;" horiz-adv-x="1558" d="M45 2q0 25 12 49l498 979q35 61 96 62h688q45 0 77 -32t32 -77v-65q0 -47 -32 -79t-77 -32q-70 0 -100 65h-248v-268h330q45 0 77 -31.5t32 -76.5t-32 -77t-77 -32h-330v-276h359q45 0 77.5 -32t32.5 -77t-32.5 -76.5t-77.5 -31.5h-467q-45 0 -78 31.5t-33 76.5v176h-405 l-115 -227q-29 -57 -98 -57q-45 0 -77 31.5t-32 76.5zM432 369h369v532h-99z" />
<glyph unicode="&#xc7;" horiz-adv-x="1105" d="M94 492q0 268 162 440t412 172q76 0 161.5 -11.5t112.5 -21.5q37 -12 58.5 -43t19.5 -70l-4 -65q-2 -43 -35 -72.5t-76 -29.5q-37 0 -66.5 24.5t-39.5 61.5q-66 10 -129 10q-160 0 -258.5 -108.5t-98.5 -286.5q0 -180 93.5 -288t269.5 -108q104 0 194 33 q53 18 99.5 -15.5t46.5 -88.5q0 -33 -21.5 -64t-54.5 -41q-96 -29 -182 -39l55 -227q8 -39 -11.5 -76t-56.5 -51l-213 -82q-43 -16 -82.5 2t-56 61t1 84t60.5 58l123 47l-48 197q-203 45 -319.5 207t-116.5 391z" />
<glyph unicode="&#xc8;" horiz-adv-x="1060" d="M111.5 1422q-15.5 42 3 83t61.5 56.5t84 -2.5l348 -164q41 -20 57.5 -62.5t-3.5 -83.5q-18 -41 -61.5 -57t-84.5 4l-348 164q-41 20 -56.5 62zM129 236q0 154 102 253q-90 96 -90 254q0 170 108.5 265.5t282.5 95.5q51 0 126 -5t130 -9l56 -5q45 -4 73.5 -37.5 t24.5 -78.5l-4 -66q-2 -43 -35 -71.5t-74 -28.5q-78 0 -104 74q-164 10 -195 10q-170 0 -170 -144q0 -68 35 -107.5t146 -39.5h239q47 0 79 -32t32 -77t-33 -76.5t-78 -31.5h-239q-193 0 -193 -143q0 -72 45 -106t119 -34q23 0 80 4t122.5 9.5t86.5 7.5q47 4 82 -29t35 -82 q0 -41 -29 -73.5t-72 -34.5q-164 -20 -305 -21q-164 0 -273.5 97.5t-109.5 261.5z" />
<glyph unicode="&#xc9;" horiz-adv-x="1060" d="M129 236q0 154 102 253q-90 96 -90 254q0 170 108.5 265.5t282.5 95.5q51 0 126 -5t130 -9l56 -5q45 -4 73.5 -37.5t24.5 -78.5l-4 -66q-2 -43 -35 -71.5t-74 -28.5q-78 0 -104 74q-164 10 -195 10q-170 0 -170 -144q0 -68 35 -107.5t146 -39.5h239q47 0 79 -32t32 -77 t-33 -76.5t-78 -31.5h-239q-193 0 -193 -143q0 -72 45 -106t119 -34q23 0 80 4t122.5 9.5t86.5 7.5q47 4 82 -29t35 -82q0 -41 -29 -73.5t-72 -34.5q-164 -20 -305 -21q-164 0 -273.5 97.5t-109.5 261.5zM492.5 1307q15.5 43 56.5 63l342 162q41 20 84 5t61 -56 q20 -41 5 -83t-56 -63l-344 -164q-39 -18 -82 -2.5t-63 56.5q-19 39 -3.5 82z" />
<glyph unicode="&#xca;" horiz-adv-x="1060" d="M129 236q0 154 102 253q-90 96 -90 254q0 170 108.5 265.5t282.5 95.5q51 0 126 -5t130 -9l56 -5q45 -4 73.5 -37.5t24.5 -78.5l-4 -66q-2 -43 -35 -71.5t-74 -28.5q-78 0 -104 74q-164 10 -195 10q-170 0 -170 -144q0 -68 35 -107.5t146 -39.5h239q47 0 79 -32t32 -77 t-33 -76.5t-78 -31.5h-239q-193 0 -193 -143q0 -72 45 -106t119 -34q23 0 80 4t122.5 9.5t86.5 7.5q47 4 82 -29t35 -82q0 -41 -29 -73.5t-72 -34.5q-164 -20 -305 -21q-164 0 -273.5 97.5t-109.5 261.5zM197.5 1322q11.5 44 50.5 67l270 163q55 33 113 0l276 -161 q39 -23 50.5 -67t-11 -83t-66.5 -50t-83 11l-222 129l-215 -129q-39 -23 -83 -12.5t-66 49.5q-25 39 -13.5 83z" />
<glyph unicode="&#xcb;" horiz-adv-x="1060" d="M129 236q0 154 102 253q-90 96 -90 254q0 170 108.5 265.5t282.5 95.5q51 0 126 -5t130 -9l56 -5q45 -4 73.5 -37.5t24.5 -78.5l-4 -66q-2 -43 -35 -71.5t-74 -28.5q-78 0 -104 74q-164 10 -195 10q-170 0 -170 -144q0 -68 35 -107.5t146 -39.5h239q47 0 79 -32t32 -77 t-33 -76.5t-78 -31.5h-239q-193 0 -193 -143q0 -72 45 -106t119 -34q23 0 80 4t122.5 9.5t86.5 7.5q47 4 82 -29t35 -82q0 -41 -29 -73.5t-72 -34.5q-164 -20 -305 -21q-164 0 -273.5 97.5t-109.5 261.5zM215 1315q-4 49 29 88l41 49q33 39 82 43t88 -28.5t42 -82t-28 -88.5 l-39 -49q-31 -39 -82 -43t-90 29t-43 82zM676 1315q-4 49 29 88l40 49q33 39 82.5 43t88 -28.5t42 -82t-27.5 -88.5l-39 -49q-31 -39 -82 -43t-90 29t-43 82z" />
<glyph unicode="&#xcc;" horiz-adv-x="595" d="M-142.5 1422q-15.5 42 3 83t61.5 56.5t84 -2.5l348 -164q41 -20 57.5 -62.5t-3.5 -83.5q-18 -41 -61.5 -57t-84.5 4l-348 164q-41 20 -56.5 62zM129 981q0 45 32 77t77 32h65q47 0 80 -32t33 -77v-981q0 -45 -33 -77t-78 -32t-76.5 32t-31.5 77v881q-68 28 -68 100z" />
<glyph unicode="&#xcd;" horiz-adv-x="595" d="M129 981q0 45 32 77t77 32h65q47 0 80 -32t33 -77v-981q0 -45 -33 -77t-78 -32t-76.5 32t-31.5 77v881q-68 28 -68 100zM218 1307q15 43 56 63l342 162q41 20 84 5t62 -56q20 -41 5 -83t-56 -63l-344 -164q-39 -18 -82 -2.5t-64 56.5q-18 39 -3 82z" />
<glyph unicode="&#xce;" horiz-adv-x="595" d="M-97.5 1322q11.5 44 50.5 67l270 163q55 33 113 0l276 -161q39 -23 50.5 -67t-11 -83t-66.5 -50t-83 11l-221 129l-215 -129q-39 -23 -83 -12.5t-67 49.5q-25 39 -13.5 83zM129 981q0 45 32 77t77 32h65q47 0 80 -32t33 -77v-981q0 -45 -33 -77t-78 -32t-76.5 32 t-31.5 77v881q-68 28 -68 100z" />
<glyph unicode="&#xcf;" horiz-adv-x="595" d="M-100 1315q-4 49 28 88l41 49q33 39 82 43t88 -28.5t42 -82t-27 -88.5l-39 -49q-31 -39 -82 -43t-90 29t-43 82zM129 981q0 45 32 77t77 32h65q47 0 80 -32t33 -77v-981q0 -45 -33 -77t-78 -32t-76.5 32t-31.5 77v881q-68 28 -68 100zM360.5 1315q-4.5 49 28.5 88l41 49 q33 39 82 43t88 -28.5t42 -82t-28 -88.5l-39 -49q-31 -39 -82 -43t-89.5 29t-43 82z" />
<glyph unicode="&#xd0;" horiz-adv-x="1255" d="M-29 496q0 45 32 76.5t77 31.5h119v277q-68 29 -68 98q0 45 32 78t77 33h299q279 0 446.5 -157t167.5 -433q0 -270 -165 -439.5t-435 -169.5h-311q-45 0 -78 32t-33 77q0 74 68 100v287h-117q-45 0 -78 32t-33 77zM416 109h135q178 0 279.5 105t101.5 286h2 q0 184 -102.5 275t-290.5 95l-125 2v-268h250q45 0 77.5 -31.5t32.5 -76.5t-31.5 -77t-76.5 -32h-252v-278z" />
<glyph unicode="&#xd1;" horiz-adv-x="1333" d="M180 -6v993q0 43 31 73t74 30h67q59 0 88 -48l504 -800v647q-68 31 -67 98q0 43 29.5 73t72.5 30h68q43 0 73.5 -30t30.5 -73v-993q0 -43 -29.5 -73t-72.5 -30h-70q-59 0 -88 48l-502 800v-745q0 -43 -29.5 -73t-72.5 -30t-75 30t-32 73zM334 1267q-12 44 10 83l94 168 q20 39 63.5 51t82.5 -8l252 -131l43 77q20 39 65 51.5t84 -10.5q41 -23 52.5 -65.5t-11.5 -83.5l-94 -168q-20 -39 -63.5 -51.5t-82.5 8.5l-251 131l-43 -76q-23 -41 -66 -52t-84 11q-39 21 -51 65z" />
<glyph unicode="&#xd2;" horiz-adv-x="1353" d="M94 496q0 256 164 432t418 176q250 0 417 -173t167 -435q0 -256 -164 -437.5t-418 -181.5q-250 0 -417 177.5t-167 441.5zM236.5 1422q-15.5 42 3 83t61.5 56.5t84 -2.5l348 -164q41 -20 57.5 -62.5t-4.5 -83.5q-18 -41 -61 -57t-84 4l-348 164q-41 20 -56.5 62zM313 496 q0 -174 102.5 -287t260.5 -113q162 0 262 117t100 283h2q0 172 -102 281.5t-260 109.5q-164 0 -264.5 -112.5t-100.5 -278.5z" />
<glyph unicode="&#xd3;" horiz-adv-x="1353" d="M94 496q0 256 164 432t418 176q250 0 417 -173t167 -435q0 -256 -164 -437.5t-418 -181.5q-250 0 -417 177.5t-167 441.5zM313 496q0 -174 102.5 -287t260.5 -113q162 0 262 117t100 283h2q0 172 -102 281.5t-260 109.5q-164 0 -264.5 -112.5t-100.5 -278.5zM597 1307 q15 43 56 63l342 162q41 20 84 5t62 -56q20 -41 4.5 -83t-55.5 -63l-345 -164q-39 -18 -81.5 -2.5t-63.5 56.5q-18 39 -3 82z" />
<glyph unicode="&#xd4;" horiz-adv-x="1353" d="M94 496q0 256 164 432t418 176q250 0 417 -173t167 -435q0 -256 -164 -437.5t-418 -181.5q-250 0 -417 177.5t-167 441.5zM281.5 1322q11.5 44 50.5 67l270 163q57 33 113 0l276 -161q39 -23 50.5 -67t-11 -83t-66.5 -50t-83 11l-222 129l-215 -129q-39 -23 -83 -12.5 t-66 49.5q-25 39 -13.5 83zM313 496q0 -174 102.5 -287t260.5 -113q162 0 262 117t100 283h2q0 172 -102 281.5t-260 109.5q-164 0 -264.5 -112.5t-100.5 -278.5z" />
<glyph unicode="&#xd5;" horiz-adv-x="1353" d="M94 496q0 256 164 432t418 176q250 0 417 -173t167 -435q0 -256 -164 -437.5t-418 -181.5q-250 0 -417 177.5t-167 441.5zM313 496q0 -174 102.5 -287t260.5 -113q162 0 262 117t100 283h2q0 172 -102 281.5t-260 109.5q-164 0 -264.5 -112.5t-100.5 -278.5zM323.5 1267 q-12.5 44 10.5 83l94 168q20 39 63.5 51t81.5 -8l252 -131l43 77q20 39 65.5 51.5t84.5 -10.5q41 -23 52 -65.5t-11 -83.5l-94 -168q-20 -39 -63.5 -51.5t-82.5 8.5l-252 131l-43 -76q-23 -41 -65.5 -52t-83.5 11q-39 21 -51.5 65z" />
<glyph unicode="&#xd6;" horiz-adv-x="1353" d="M94 496q0 256 164 432t418 176q250 0 417 -173t167 -435q0 -256 -164 -437.5t-418 -181.5q-250 0 -417 177.5t-167 441.5zM313 496q0 -174 102.5 -287t260.5 -113q162 0 262 117t100 283h2q0 172 -102 281.5t-260 109.5q-164 0 -264.5 -112.5t-100.5 -278.5zM319.5 1315 q-4.5 49 28.5 88l41 49q33 39 82 43t88 -28.5t42 -82t-28 -88.5l-38 -49q-31 -39 -82.5 -43t-90 29t-43 82zM780 1315q-4 49 29 88l41 49q33 39 82 43t88 -28.5t42 -82t-28 -88.5l-39 -49q-31 -39 -82 -43t-90 29t-43 82z" />
<glyph unicode="&#xd7;" horiz-adv-x="1327" d="M274 94q0 45 31 76l209 223l-209 223q-31 31 -31 76t32 77t77 32q49 0 80 -35l203 -213l200 213q31 35 80 35q45 0 77 -32t32 -77q0 -43 -29 -76l-211 -223l211 -223q29 -33 29 -76q0 -45 -32 -76.5t-77 -31.5q-49 0 -80 34l-200 213l-203 -213q-31 -35 -80 -34 q-45 0 -77 31.5t-32 76.5z" />
<glyph unicode="&#xd8;" horiz-adv-x="1376" d="M102 496q0 256 165 432t419 176q129 0 244 -51l82 123q33 49 90 49q47 0 79.5 -33t32.5 -78q0 -33 -18 -59l-88 -129q166 -176 166 -430q0 -258 -166 -438.5t-420 -180.5q-131 0 -248 55l-80 -120q-33 -49 -90 -50q-47 0 -79.5 33t-32.5 78q0 33 18 59l88 129 q-162 179 -162 435zM322 496q0 -170 104 -285t260 -115q164 0 265.5 117t101.5 283h2q0 170 -103.5 279.5t-263.5 109.5q-162 0 -264 -112.5t-102 -276.5z" />
<glyph unicode="&#xd9;" horiz-adv-x="1310" d="M156 420v561q0 45 31.5 77t76.5 32t78 -32t33 -77v-561q0 -57 11 -106.5t39 -102.5t87 -84t143 -31t143.5 31t87 84t39 102t11.5 107v461q-68 29 -68 100q0 45 32 77t77 32h65q45 0 79 -32t34 -77v-561q0 -248 -135 -395.5t-362.5 -147.5t-364.5 147.5t-137 395.5z M175 1422q-15 42 3.5 83t61.5 56.5t84 -2.5l348 -164q41 -20 57 -62.5t-4 -83.5q-18 -41 -61 -57t-84 4l-349 164q-41 20 -56 62z" />
<glyph unicode="&#xda;" horiz-adv-x="1310" d="M156 420v561q0 45 31.5 77t76.5 32t78 -32t33 -77v-561q0 -57 11 -106.5t39 -102.5t87 -84t143 -31t143.5 31t87 84t39 102t11.5 107v461q-68 29 -68 100q0 45 32 77t77 32h65q45 0 79 -32t34 -77v-561q0 -248 -135 -395.5t-362.5 -147.5t-364.5 147.5t-137 395.5z M576.5 1307q15.5 43 56.5 63l342 162q41 20 84 5t61 -56q20 -41 5 -83t-56 -63l-344 -164q-39 -18 -82 -2.5t-63 56.5q-19 39 -3.5 82z" />
<glyph unicode="&#xdb;" horiz-adv-x="1310" d="M156 420v561q0 45 31.5 77t76.5 32t78 -32t33 -77v-561q0 -57 11 -106.5t39 -102.5t87 -84t143 -31t143.5 31t87 84t39 102t11.5 107v461q-68 29 -68 100q0 45 32 77t77 32h65q45 0 79 -32t34 -77v-561q0 -248 -135 -395.5t-362.5 -147.5t-364.5 147.5t-137 395.5z M261 1322q11 44 50 67l271 163q57 33 112 0l277 -161q39 -23 50 -67t-11.5 -83t-66.5 -50t-83 11l-221 129l-215 -129q-39 -23 -83 -12.5t-67 49.5q-24 39 -13 83z" />
<glyph unicode="&#xdc;" horiz-adv-x="1310" d="M156 420v561q0 45 31.5 77t76.5 32t78 -32t33 -77v-561q0 -57 11 -106.5t39 -102.5t87 -84t143 -31t143.5 31t87 84t39 102t11.5 107v461q-68 29 -68 100q0 45 32 77t77 32h65q45 0 79 -32t34 -77v-561q0 -248 -135 -395.5t-362.5 -147.5t-364.5 147.5t-137 395.5z M299 1315q-4 49 29 88l41 49q33 39 82 43t88 -28.5t42 -82t-28 -88.5l-39 -49q-31 -39 -82 -43t-90 29t-43 82zM760 1315q-4 49 28 88l41 49q33 39 82.5 43t88 -28.5t41.5 -82t-27 -88.5l-39 -49q-31 -39 -82 -43t-90 29t-43 82z" />
<glyph unicode="&#xdd;" d="M16 981q0 45 32 77t77 32q59 0 90 -48l289 -415l301 417q33 45 88 46q45 0 78 -32t33 -77q0 -33 -21 -63l-371 -517v-401q0 -45 -31.5 -77t-76.5 -32t-78 32t-33 77v403l-356 515q-21 30 -21 63zM472 1307q15 43 56 63l342 162q41 20 84 5t62 -56q20 -41 5 -83t-56 -63 l-344 -164q-39 -18 -82 -2.5t-64 56.5q-18 39 -3 82z" />
<glyph unicode="&#xde;" horiz-adv-x="1036" d="M133 745q0 70 64 101v135q0 45 32.5 77t77.5 32t77 -32t32 -77v-127h196q133 0 254 -98.5t121 -270.5q0 -156 -111.5 -266t-267.5 -110h-192v-109q0 -45 -32 -77t-77 -32t-77.5 32t-32.5 77v645q-29 12 -47.5 39.5t-16.5 60.5zM416 328h192q66 0 113 46t47 111 q0 80 -56.5 115t-99.5 35h-196v-307z" />
<glyph unicode="&#xdf;" horiz-adv-x="1255" d="M-49 -453q0 45 31.5 77t76.5 32q55 0 77 42t22 87v1077q0 174 120.5 307.5t292.5 133.5q209 0 339 -129.5t130 -337.5q0 -51 -29.5 -86t-80.5 -35q-59 0 -110.5 -25.5t-51.5 -79.5q0 -59 18.5 -75.5t92.5 -32.5q41 -8 67.5 -16.5t71.5 -31t71.5 -52t47 -84t20.5 -125.5 q0 -147 -104.5 -231.5t-255.5 -84.5q-55 0 -154 25q-35 10 -55.5 38.5t-20.5 63.5q0 57 45 89t99 16q25 -12 86 -13q141 0 141 97q0 51 -16.5 65t-90.5 31q-55 12 -88.5 24.5t-86 46t-80 97t-27.5 153.5q0 115 71.5 196t188.5 114q-43 164 -238 163q-82 0 -139 -68.5 t-57 -152.5v-1077q0 -145 -87 -246.5t-229 -101.5q-45 0 -76.5 32.5t-31.5 77.5z" />
<glyph unicode="&#xe0;" horiz-adv-x="1067" d="M66 2q0 23 8 41l327 811q27 68 103 68h49q74 0 100 -68l340 -811q10 -20 11 -41q0 -45 -32 -78t-77 -33q-74 0 -100 68l-60 141h-399l-57 -139q-31 -70 -103 -70q-47 0 -78.5 33t-31.5 78zM93.5 1254q-15.5 42 3 83t61.5 56.5t84 -2.5l348 -164q41 -20 57.5 -62.5 t-4.5 -83.5q-18 -41 -61 -57t-84 4l-348 164q-41 20 -56.5 62zM381 291h301l-152 366z" />
<glyph unicode="&#xe1;" horiz-adv-x="1067" d="M66 2q0 23 8 41l327 811q27 68 103 68h49q74 0 100 -68l340 -811q10 -20 11 -41q0 -45 -32 -78t-77 -33q-74 0 -100 68l-60 141h-399l-57 -139q-31 -70 -103 -70q-47 0 -78.5 33t-31.5 78zM381 291h301l-152 366zM435.5 1163q15.5 43 56.5 64l342 162q41 20 84 4.5 t61 -56.5q20 -41 5 -83t-56 -62l-344 -164q-39 -18 -82 -3t-64 56q-18 39 -2.5 82z" />
<glyph unicode="&#xe2;" horiz-adv-x="1067" d="M66 2q0 23 8 41l327 811q27 68 103 68h49q74 0 100 -68l340 -811q10 -20 11 -41q0 -45 -32 -78t-77 -33q-74 0 -100 68l-60 141h-399l-57 -139q-31 -70 -103 -70q-47 0 -78.5 33t-31.5 78zM152.5 1154q11.5 44 50.5 67l270 163q55 33 113 0l276 -161q39 -23 50.5 -67 t-11 -83t-66.5 -50t-83 11l-222 129l-215 -129q-39 -23 -83 -12.5t-66 49.5q-25 39 -13.5 83zM381 291h301l-152 366z" />
<glyph unicode="&#xe3;" horiz-adv-x="1067" d="M66 2q0 23 8 41l327 811q27 68 103 68h49q74 0 100 -68l340 -811q10 -20 11 -41q0 -45 -32 -78t-77 -33q-74 0 -100 68l-60 141h-399l-57 -139q-31 -70 -103 -70q-47 0 -78.5 33t-31.5 78zM192.5 1099q-12.5 44 10.5 83l94 168q20 39 63 51t82 -8l252 -131l43 77 q20 39 65.5 51.5t84.5 -10.5q41 -23 52 -65.5t-11 -83.5l-94 -168q-20 -39 -63.5 -51.5t-82.5 8.5l-252 131l-43 -76q-23 -41 -65.5 -52t-83.5 11q-39 21 -51.5 65zM381 291h301l-152 366z" />
<glyph unicode="&#xe4;" horiz-adv-x="1067" d="M66 2q0 23 8 41l327 811q27 68 103 68h49q74 0 100 -68l340 -811q10 -20 11 -41q0 -45 -32 -78t-77 -33q-74 0 -100 68l-60 141h-399l-57 -139q-31 -70 -103 -70q-47 0 -78.5 33t-31.5 78zM162 1171.5q-4 49.5 28 88.5l41 49q33 39 82 43t88 -29t42 -82t-27 -88l-39 -49 q-31 -39 -82 -43t-90 28.5t-43 82zM381 291h301l-152 366zM622.5 1171.5q-4.5 49.5 28.5 88.5l41 49q33 39 82 43t88 -29t42 -82t-27 -88l-39 -49q-31 -39 -82 -43t-90 28.5t-43.5 82z" />
<glyph unicode="&#xe5;" horiz-adv-x="1067" d="M66 2q0 23 8 41l327 811q23 53 78 66q-102 18 -170.5 100t-68.5 188q0 121 86 207q84 88 209 88q121 0 206.5 -87t85.5 -208q0 -127 -86 -209q-70 -68 -157 -81q49 -12 69 -64l340 -811q10 -20 11 -41q0 -45 -32 -78t-77 -33q-74 0 -100 68l-60 141h-399l-57 -139 q-31 -70 -103 -70q-47 0 -78.5 33t-31.5 78zM381 291h301l-152 366zM442 1208q0 -39 27 -65.5t66 -26.5q37 0 63.5 26.5t26.5 65.5q0 37 -27 63.5t-63 26.5q-39 0 -66 -26.5t-27 -63.5z" />
<glyph unicode="&#xe6;" horiz-adv-x="1445" d="M45 0q0 27 12 51l424 811q33 59 97 60h657q47 0 80 -32t33 -77v-65q0 -47 -33 -79t-78 -32q-70 0 -100 65h-211v-182h295q45 0 77.5 -32.5t32.5 -77.5t-31.5 -77t-76.5 -32h-297v-192h319q45 0 78 -32t33 -77t-32 -77t-77 -32h-428q-45 0 -77.5 32t-32.5 77v104h-375 l-80 -155q-29 -57 -98 -58q-45 0 -78 32t-33 77zM399 295h336l2 436h-108z" />
<glyph unicode="&#xe7;" horiz-adv-x="1046" d="M121 410q0 229 145.5 377.5t370.5 148.5q145 0 240 -29q80 -27 79 -104v-8l-6 -66q-4 -43 -34.5 -72.5t-73.5 -29.5q-37 0 -68 23.5t-39 60.5q-47 6 -96 6q-133 0 -216 -85t-83 -222q0 -145 78 -229.5t221 -84.5q88 0 168 27q20 4 31 4q45 0 77.5 -32t32.5 -77 q0 -37 -21.5 -66.5t-56.5 -39.5q-70 -16 -131 -27l58 -231q2 -8 2 -25q0 -72 -70 -102l-213 -82q-18 -6 -39 -6q-76 0 -100 69q-8 16 -8 41q0 74 69 101l123 47l-47 192q-180 39 -286.5 179.5t-106.5 341.5z" />
<glyph unicode="&#xe8;" horiz-adv-x="993" d="M56.5 1254q-15.5 42 3 83t61.5 56.5t84 -2.5l348 -164q41 -20 57.5 -62.5t-4.5 -83.5q-18 -41 -61 -57t-84 4l-348 164q-41 20 -56.5 62zM121 195q0 125 82 213q-72 86 -72 206q0 131 87 225.5t255 96.5q76 0 305 -14q47 -2 78 -36t27 -81l-4 -66q-2 -43 -35 -71.5 t-76 -28.5q-76 0 -102 72l-191 6q-125 0 -125 -101q0 -25 4 -40t16.5 -31.5t40 -24.5t72.5 -8h244q45 0 78 -31.5t33 -77t-32 -78t-77 -32.5h-244q-145 0 -145 -100q0 -96 119 -97q115 0 284 17q47 4 83 -30t36 -81q0 -43 -30.5 -73.5t-71.5 -34.5q-213 -16 -299 -17 q-143 0 -241.5 87.5t-98.5 230.5z" />
<glyph unicode="&#xe9;" horiz-adv-x="993" d="M121 195q0 125 82 213q-72 86 -72 206q0 131 87 225.5t255 96.5q76 0 305 -14q47 -2 78 -36t27 -81l-4 -66q-2 -43 -35 -71.5t-76 -28.5q-76 0 -102 72l-191 6q-125 0 -125 -101q0 -25 4 -40t16.5 -31.5t40 -24.5t72.5 -8h244q45 0 78 -31.5t33 -77t-32 -78t-77 -32.5 h-244q-145 0 -145 -100q0 -96 119 -97q115 0 284 17q47 4 83 -30t36 -81q0 -43 -30.5 -73.5t-71.5 -34.5q-213 -16 -299 -17q-143 0 -241.5 87.5t-98.5 230.5zM459.5 1163q15.5 43 56.5 64l342 162q41 20 84 4.5t62 -56.5q20 -41 4.5 -83t-56.5 -62l-344 -164 q-39 -18 -82 -3t-63 56q-19 39 -3.5 82z" />
<glyph unicode="&#xea;" horiz-adv-x="993" d="M121 195q0 125 82 213q-72 86 -72 206q0 131 87 225.5t255 96.5q76 0 305 -14q47 -2 78 -36t27 -81l-4 -66q-2 -43 -35 -71.5t-76 -28.5q-76 0 -102 72l-191 6q-125 0 -125 -101q0 -25 4 -40t16.5 -31.5t40 -24.5t72.5 -8h244q45 0 78 -31.5t33 -77t-32 -78t-77 -32.5 h-244q-145 0 -145 -100q0 -96 119 -97q115 0 284 17q47 4 83 -30t36 -81q0 -43 -30.5 -73.5t-71.5 -34.5q-213 -16 -299 -17q-143 0 -241.5 87.5t-98.5 230.5zM156.5 1154q11.5 44 50.5 67l270 163q55 33 113 0l276 -161q39 -23 50.5 -67t-11 -83t-66.5 -50t-83 11l-221 129 l-216 -129q-39 -23 -82.5 -12.5t-66.5 49.5q-25 39 -13.5 83z" />
<glyph unicode="&#xeb;" horiz-adv-x="993" d="M121 195q0 125 82 213q-72 86 -72 206q0 131 87 225.5t255 96.5q76 0 305 -14q47 -2 78 -36t27 -81l-4 -66q-2 -43 -35 -71.5t-76 -28.5q-76 0 -102 72l-191 6q-125 0 -125 -101q0 -25 4 -40t16.5 -31.5t40 -24.5t72.5 -8h244q45 0 78 -31.5t33 -77t-32 -78t-77 -32.5 h-244q-145 0 -145 -100q0 -96 119 -97q115 0 284 17q47 4 83 -30t36 -81q0 -43 -30.5 -73.5t-71.5 -34.5q-213 -16 -299 -17q-143 0 -241.5 87.5t-98.5 230.5zM125 1171.5q-4 49.5 29 88.5l41 49q33 39 82 43t87.5 -29t42 -82t-27.5 -88l-39 -49q-31 -39 -82 -43t-90 28.5 t-43 82zM586 1171.5q-4 49.5 28 88.5l41 49q33 39 82 43t88 -29t42 -82t-27 -88l-39 -49q-31 -39 -82 -43t-90 28.5t-43 82z" />
<glyph unicode="&#xec;" horiz-adv-x="583" d="M-148.5 1254q-15.5 42 3 83t61.5 56.5t84 -2.5l348 -164q41 -20 57.5 -62.5t-4.5 -83.5q-18 -41 -61 -57t-84 4l-348 164q-41 20 -56.5 62zM131 813q0 45 32 77t77 32h65q47 0 80 -32t33 -77v-813q0 -45 -33 -77t-78 -32t-76.5 32t-31.5 77v713q-68 28 -68 100z" />
<glyph unicode="&#xed;" horiz-adv-x="583" d="M131 813q0 45 32 77t77 32h65q47 0 80 -32t33 -77v-813q0 -45 -33 -77t-78 -32t-76.5 32t-31.5 77v713q-68 28 -68 100zM193.5 1163q15.5 43 56.5 64l342 162q41 20 84 4.5t61 -56.5q20 -41 5 -83t-56 -62l-344 -164q-39 -18 -82 -3t-63 56q-19 39 -3.5 82z" />
<glyph unicode="&#xee;" horiz-adv-x="583" d="M-89 1154q11 44 50 67l270 163q55 33 113 0l277 -161q39 -23 50 -67t-11.5 -83t-66.5 -50t-83 11l-221 129l-215 -129q-39 -23 -83 -12.5t-67 49.5q-24 39 -13 83zM131 813q0 45 32 77t77 32h65q47 0 80 -32t33 -77v-813q0 -45 -33 -77t-78 -32t-76.5 32t-31.5 77v713 q-68 28 -68 100z" />
<glyph unicode="&#xef;" horiz-adv-x="583" d="M-80 1171.5q-4 49.5 29 88.5l41 49q33 39 82 43t88 -29t42 -82t-28 -88l-39 -49q-31 -39 -82 -43t-90 28.5t-43 82zM131 813q0 45 32 77t77 32h65q47 0 80 -32t33 -77v-813q0 -45 -33 -77t-78 -32t-76.5 32t-31.5 77v713q-68 28 -68 100zM381 1171.5q-4 49.5 29 88.5 l41 49q33 39 82 43t87.5 -29t42 -82t-27.5 -88l-39 -49q-31 -39 -82 -43t-90 28.5t-43 82z" />
<glyph unicode="&#xf0;" horiz-adv-x="1187" d="M-49 393q0 45 31.5 77t76.5 32h148v211q-68 29 -68 98q0 45 32 78t77 33h268q244 0 397.5 -134.5t153.5 -373.5q0 -233 -151.5 -379t-387.5 -146h-278q-45 0 -78 33t-33 78q0 74 68 100v185h-146q-45 0 -77.5 31.5t-32.5 76.5zM424 109h102q145 0 233.5 80.5t88.5 224.5 h2q0 150 -89 219t-243 69h-94v-200h221q45 0 78 -32t33 -77t-32 -76.5t-77 -31.5h-223v-176z" />
<glyph unicode="&#xf1;" horiz-adv-x="1196" d="M158 -6v823q0 43 30.5 74t73.5 31h60q55 0 86 -48l421 -626v473q-70 31 -69 96q0 43 30.5 74t73.5 31h66q43 0 74.5 -31t31.5 -74v-823q0 -43 -30.5 -73t-73.5 -30h-60q-57 0 -86 46l-419 628v-571q0 -43 -30 -73t-73 -30t-74.5 30t-31.5 73zM258 1099q-12 44 10 83 l94 168q20 39 63.5 51t82.5 -8l252 -131l43 77q20 39 65 51.5t84 -10.5q41 -23 52.5 -65.5t-11.5 -83.5l-94 -168q-20 -39 -63 -51.5t-82 8.5l-252 131l-43 -76q-23 -41 -66 -52t-84 11q-39 21 -51 65z" />
<glyph unicode="&#xf2;" horiz-adv-x="1261" d="M111 408q0 223 148.5 375.5t369.5 152.5q223 0 372.5 -151.5t149.5 -376.5q0 -223 -148.5 -377t-371.5 -154q-221 0 -370.5 152t-149.5 379zM191.5 1254q-15.5 42 3 83t61.5 56.5t84 -2.5l348 -164q41 -20 57.5 -62.5t-4.5 -83.5q-18 -41 -61 -57t-84 4l-348 164 q-41 20 -56.5 62zM330 408q0 -135 84 -223.5t215 -88.5t216 89t85 223h2q0 135 -85 222t-216 87t-216 -88t-85 -221z" />
<glyph unicode="&#xf3;" horiz-adv-x="1261" d="M111 408q0 223 148.5 375.5t369.5 152.5q223 0 372.5 -151.5t149.5 -376.5q0 -223 -148.5 -377t-371.5 -154q-221 0 -370.5 152t-149.5 379zM330 408q0 -135 84 -223.5t215 -88.5t216 89t85 223h2q0 135 -85 222t-216 87t-216 -88t-85 -221zM533.5 1163q15.5 43 56.5 64 l342 162q41 20 84 4.5t61 -56.5q20 -41 5 -83t-56 -62l-344 -164q-39 -18 -82 -3t-63 56q-19 39 -3.5 82z" />
<glyph unicode="&#xf4;" horiz-adv-x="1261" d="M111 408q0 223 148.5 375.5t369.5 152.5q223 0 372.5 -151.5t149.5 -376.5q0 -223 -148.5 -377t-371.5 -154q-221 0 -370.5 152t-149.5 379zM251 1154q11 44 50 67l270 163q55 33 113 0l277 -161q39 -23 50 -67t-11.5 -83t-66.5 -50t-83 11l-221 129l-215 -129 q-39 -23 -83 -12.5t-67 49.5q-24 39 -13 83zM330 408q0 -135 84 -223.5t215 -88.5t216 89t85 223h2q0 135 -85 222t-216 87t-216 -88t-85 -221z" />
<glyph unicode="&#xf5;" horiz-adv-x="1261" d="M111 408q0 223 148.5 375.5t369.5 152.5q223 0 372.5 -151.5t149.5 -376.5q0 -223 -148.5 -377t-371.5 -154q-221 0 -370.5 152t-149.5 379zM276.5 1099q-12.5 44 10.5 83l94 168q20 39 63 51t82 -8l252 -131l43 77q20 39 65.5 51.5t84.5 -10.5q41 -23 52 -65.5 t-11 -83.5l-94 -168q-20 -39 -63.5 -51.5t-82.5 8.5l-252 131l-43 -76q-23 -41 -65.5 -52t-83.5 11q-39 21 -51.5 65zM330 408q0 -135 84 -223.5t215 -88.5t216 89t85 223h2q0 135 -85 222t-216 87t-216 -88t-85 -221z" />
<glyph unicode="&#xf6;" horiz-adv-x="1261" d="M111 408q0 223 148.5 375.5t369.5 152.5q223 0 372.5 -151.5t149.5 -376.5q0 -223 -148.5 -377t-371.5 -154q-221 0 -370.5 152t-149.5 379zM260 1171.5q-4 49.5 29 88.5l41 49q33 39 82 43t88 -29t42 -82t-28 -88l-39 -49q-31 -39 -82 -43t-90 28.5t-43 82zM330 408 q0 -135 84 -223.5t215 -88.5t216 89t85 223h2q0 135 -85 222t-216 87t-216 -88t-85 -221zM721 1171.5q-4 49.5 29 88.5l41 49q33 39 82 43t87.5 -29t42 -82t-27.5 -88l-39 -49q-31 -39 -82 -43t-90 28.5t-43 82z" />
<glyph unicode="&#xf7;" horiz-adv-x="1282" d="M111 397q0 45 31.5 78t76.5 33h844q45 0 76.5 -33t31.5 -78t-31.5 -76.5t-76.5 -31.5h-844q-45 0 -76.5 31.5t-31.5 76.5zM500 -33q0 43 28 78l41 49q33 43 93 43q51 0 85.5 -35.5t34.5 -85.5q0 -45 -28 -79l-39 -48q-37 -43 -94 -43q-49 0 -85 35t-36 86zM500 772 q0 47 28 78l41 47q37 43 93 43q51 0 85.5 -35t34.5 -86q0 -43 -28 -78l-39 -47q-39 -45 -94 -45q-49 0 -85 36t-36 87z" />
<glyph unicode="&#xf8;" horiz-adv-x="1273" d="M117 407.5q0 223.5 147.5 375t370.5 151.5q117 0 215 -43l68 102q33 49 90 49q45 0 78.5 -31.5t33.5 -76.5q0 -33 -18 -62l-76 -110q131 -152 131 -354q0 -223 -148.5 -377t-371.5 -154q-98 0 -191 35l-69 -109q-31 -49 -92 -49q-45 0 -78 33t-33 78q0 33 19 59l71 107 q-147 153 -147 376.5zM336 408q0 -135 84 -224.5t215 -89.5t216 90t85 224h2q0 133 -85 221t-216 88q-133 0 -217 -88t-84 -221z" />
<glyph unicode="&#xf9;" horiz-adv-x="1134" d="M87 1254q-15 42 3.5 83t61.5 56.5t84 -2.5l348 -164q41 -20 57 -62.5t-4 -83.5q-18 -41 -61.5 -57t-83.5 4l-349 164q-41 20 -56 62zM137 336v477q0 45 32 77t77 32t77.5 -32t32.5 -77v-477q0 -35 7.5 -69t27 -77t64.5 -68.5t112 -25.5q53 0 94 18.5t64 45t36 61.5 t16 61.5t3 53.5v377q-68 29 -67 100q0 45 31.5 77t76.5 32h66q45 0 77.5 -32t32.5 -77v-477q0 -205 -117.5 -332t-310.5 -127q-195 0 -313.5 127t-118.5 332z" />
<glyph unicode="&#xfa;" horiz-adv-x="1134" d="M137 336v477q0 45 32 77t77 32t77.5 -32t32.5 -77v-477q0 -35 7.5 -69t27 -77t64.5 -68.5t112 -25.5q53 0 94 18.5t64 45t36 61.5t16 61.5t3 53.5v377q-68 29 -67 100q0 45 31.5 77t76.5 32h66q45 0 77.5 -32t32.5 -77v-477q0 -205 -117.5 -332t-310.5 -127 q-195 0 -313.5 127t-118.5 332zM470 1163q15 43 56 64l342 162q41 20 84 4.5t62 -56.5q20 -41 5 -83t-56 -62l-345 -164q-39 -18 -81.5 -3t-63.5 56q-18 39 -3 82z" />
<glyph unicode="&#xfb;" horiz-adv-x="1134" d="M137 336v477q0 45 32 77t77 32t77.5 -32t32.5 -77v-477q0 -35 7.5 -69t27 -77t64.5 -68.5t112 -25.5q53 0 94 18.5t64 45t36 61.5t16 61.5t3 53.5v377q-68 29 -67 100q0 45 31.5 77t76.5 32h66q45 0 77.5 -32t32.5 -77v-477q0 -205 -117.5 -332t-310.5 -127 q-195 0 -313.5 127t-118.5 332zM187.5 1154q11.5 44 50.5 67l270 163q57 33 113 0l276 -161q39 -23 50 -67t-11.5 -83t-66.5 -50t-83 11l-221 129l-215 -129q-39 -23 -83 -12.5t-66 49.5q-25 39 -13.5 83z" />
<glyph unicode="&#xfc;" horiz-adv-x="1134" d="M137 336v477q0 45 32 77t77 32t77.5 -32t32.5 -77v-477q0 -35 7.5 -69t27 -77t64.5 -68.5t112 -25.5q53 0 94 18.5t64 45t36 61.5t16 61.5t3 53.5v377q-68 29 -67 100q0 45 31.5 77t76.5 32h66q45 0 77.5 -32t32.5 -77v-477q0 -205 -117.5 -332t-310.5 -127 q-195 0 -313.5 127t-118.5 332zM197 1171.5q-4 49.5 28 88.5l41 49q33 39 82 43t88 -29t42 -82t-27 -88l-39 -49q-31 -39 -82 -43t-90 28.5t-43 82zM657.5 1171.5q-4.5 49.5 28.5 88.5l41 49q33 39 82 43t88 -29t42 -82t-28 -88l-39 -49q-31 -39 -82 -43t-89.5 28.5t-43 82z " />
<glyph unicode="&#xfd;" horiz-adv-x="962" d="M41 813q0 45 31.5 77t77.5 32q57 0 90 -45l237 -330l248 332q33 43 86 43q45 0 78 -32t33 -77q0 -37 -23 -65l-315 -422v-326q0 -45 -32 -77t-77 -32t-77.5 32t-32.5 77v328l-304 420q-20 28 -20 65zM425 1163q15 43 56 64l342 162q41 20 84 4.5t62 -56.5q20 -41 4.5 -83 t-55.5 -62l-345 -164q-39 -18 -81.5 -3t-63.5 56q-18 39 -3 82z" />
<glyph unicode="&#xfe;" horiz-adv-x="917" d="M131 589.5q0 69.5 64 100.5v121q0 45 31.5 78t78.5 33q45 0 77 -33t32 -78v-111h133q123 0 222 -89t99 -228q0 -131 -95 -225.5t-228 -94.5h-129v-63q0 -45 -32 -77t-77 -32t-77.5 32t-32.5 77v492q-66 28 -66 97.5zM414 281h129q41 0 72.5 30.5t31.5 71.5h2q0 78 -88 96 l-12 2h-135v-200z" />
<glyph unicode="&#xff;" horiz-adv-x="962" d="M41 813q0 45 31.5 77t77.5 32q57 0 90 -45l237 -330l248 332q33 43 86 43q45 0 78 -32t33 -77q0 -37 -23 -65l-315 -422v-326q0 -45 -32 -77t-77 -32t-77.5 32t-32.5 77v328l-304 420q-20 28 -20 65zM110.5 1171.5q-4.5 49.5 28.5 88.5l41 49q33 39 82 43t88 -29t42 -82 t-27 -88l-39 -49q-31 -39 -82 -43t-90 28.5t-43.5 82zM571 1171.5q-4 49.5 29 88.5l41 49q33 39 82 43t88 -29t42 -82t-28 -88l-39 -49q-31 -39 -82 -43t-90 28.5t-43 82z" />
<glyph unicode="&#x152;" horiz-adv-x="2414" d="M1483 236q0 154 102 253q-90 96 -90 254q0 170 108.5 265.5t282.5 95.5q51 0 126 -5t130 -9l56 -5q45 -4 74 -37q25 -30 25 -68q0 -5 -1 -11l-4 -66q-2 -43 -35 -71.5t-74 -28.5q-78 0 -104 74q-164 10 -195 10q-170 0 -170 -144q0 -68 35 -107.5t146 -39.5h239 q47 0 79 -32t32 -77t-33 -76.5t-78 -31.5h-239q-193 0 -193 -143q0 -72 45 -106t119 -34q23 0 80 4t122.5 9.5t86.5 7.5h10q41 0 72 -29q35 -33 35 -82q0 -41 -29 -73.5t-72 -34.5q-164 -20 -305 -21q-164 0 -273.5 97.5t-109.5 261.5zM94 496q0 256 164 432t418 176 q250 0 417 -173t167 -435q0 -256 -164 -437.5t-418 -181.5q-250 0 -417 177.5t-167 441.5zM313 496q0 -174 102.5 -287t260.5 -113q162 0 262 117t100 283h2q0 172 -102 281.5t-260 109.5q-164 0 -264.5 -112.5t-100.5 -278.5z" />
<glyph unicode="&#x153;" horiz-adv-x="2254" d="M1383 195q0 125 82 213q-72 86 -72 206q0 131 87 225.5t255 96.5q76 0 305 -14q47 -2 78 -36q27 -30 27 -70v-11l-4 -66q-2 -43 -35 -71.5t-76 -28.5q-76 0 -102 72l-191 6q-125 0 -125 -101q0 -25 4 -40t16.5 -31.5t40 -24.5t72.5 -8h244q45 0 78 -31.5t33 -77t-32 -78 t-77 -32.5h-244q-145 0 -145 -100q0 -96 119 -97q115 0 284 17h10q41 0 73 -30q36 -34 36 -81q0 -43 -30.5 -73.5t-71.5 -34.5q-213 -16 -299 -17q-143 0 -241.5 87.5t-98.5 230.5zM111 408q0 223 148.5 375.5t369.5 152.5q223 0 372.5 -151.5t149.5 -376.5 q0 -223 -148.5 -377t-371.5 -154q-221 0 -370.5 152t-149.5 379zM330 408q0 -135 84 -223.5t215 -88.5t216 89t85 223h2q0 135 -85 222t-216 87t-216 -88t-85 -221z" />
<glyph unicode="&#x178;" d="M137 1337q-4 49 29 88l41 49q33 39 82 43t88 -28.5t42 -82t-28 -88.5l-39 -49q-31 -39 -82 -43t-90 29t-43 82zM598 1337q-4 49 28 88l41 49q33 39 82.5 43t88 -28.5t41.5 -82t-27 -88.5l-39 -49q-31 -39 -82 -43t-90 29t-43 82zM16 981q0 45 32 77t77 32q59 0 90 -48 l289 -415l301 417q33 45 88 46q45 0 78 -32t33 -77q0 -33 -21 -63l-371 -517v-401q0 -45 -31.5 -77t-76.5 -32t-78 32t-33 77v403l-356 515q-21 30 -21 63z" />
<glyph unicode="&#x2c6;" horiz-adv-x="1132" d="M184 1053q0 33 19 59l266 412q31 49 92 49q70 -18 90 -49l281 -410q18 -29 18 -61q0 -45 -31.5 -77t-76.5 -32q-59 0 -90 47l-189 275l-178 -273q-33 -49 -92 -49q-45 0 -77 32t-32 77z" />
<glyph unicode="&#x2dc;" horiz-adv-x="423" d="M-424 232q0 31 15 53l98 180q18 35 56 50.5t77 0.5l379 -133l18 31q35 57 97 57q45 0 76.5 -32.5t31.5 -77.5q0 -23 -14 -52l-62 -112q-20 -35 -57 -49.5t-74 -1.5l-381 133l-55 -99q-33 -57 -96 -57q-45 0 -77 32t-32 77z" />
<glyph unicode="&#x2000;" horiz-adv-x="835" />
<glyph unicode="&#x2001;" horiz-adv-x="1671" />
<glyph unicode="&#x2002;" horiz-adv-x="835" />
<glyph unicode="&#x2003;" horiz-adv-x="1671" />
<glyph unicode="&#x2004;" horiz-adv-x="557" />
<glyph unicode="&#x2005;" horiz-adv-x="417" />
<glyph unicode="&#x2006;" horiz-adv-x="278" />
<glyph unicode="&#x2007;" horiz-adv-x="278" />
<glyph unicode="&#x2008;" horiz-adv-x="208" />
<glyph unicode="&#x2009;" horiz-adv-x="333" />
<glyph unicode="&#x200a;" horiz-adv-x="92" />
<glyph unicode="&#x2010;" horiz-adv-x="894" d="M143 477q16 76 90 86l310 41q20 4 39 -2q39 -8 63 -45l41 -57q27 -39 16 -88q-10 -43 -48 -66.5t-83 -13.5q-41 10 -63 45l-246 -33q-55 -8 -93 35t-26 98z" />
<glyph unicode="&#x2011;" horiz-adv-x="894" d="M143 477q16 76 90 86l310 41q20 4 39 -2q39 -8 63 -45l41 -57q27 -39 16 -88q-10 -43 -48 -66.5t-83 -13.5q-41 10 -63 45l-246 -33q-55 -8 -93 35t-26 98z" />
<glyph unicode="&#x2012;" horiz-adv-x="894" d="M143 477q16 76 90 86l310 41q20 4 39 -2q39 -8 63 -45l41 -57q27 -39 16 -88q-10 -43 -48 -66.5t-83 -13.5q-41 10 -63 45l-246 -33q-55 -8 -93 35t-26 98z" />
<glyph unicode="&#x2013;" horiz-adv-x="1024" d="M141 328v278h693v-278h-693z" />
<glyph unicode="&#x2014;" horiz-adv-x="2048" d="M141 328v278h1717v-278h-1717z" />
<glyph unicode="&#x2018;" horiz-adv-x="403" d="M-156.5 1254q-15.5 42 3 83t61.5 56.5t84 -2.5l348 -164q41 -20 57.5 -62.5t-4.5 -83.5q-18 -41 -61 -57t-84 4l-348 164q-41 20 -56.5 62z" />
<glyph unicode="&#x2019;" horiz-adv-x="614" d="M195 801l34 456q2 43 34 72t75 29q47 0 80 -35t28 -82l-32 -457q-2 -43 -35 -72.5t-76 -29.5q-47 0 -79.5 36t-28.5 83z" />
<glyph unicode="&#x201c;" horiz-adv-x="1013" d="M162 801l35 456q2 43 33.5 72t74.5 29q47 0 80 -35t29 -82l-33 -457q-2 -43 -35 -72.5t-76 -29.5q-47 0 -79.5 36t-28.5 83zM600 801l35 456q2 43 33.5 72t74.5 29q47 0 80 -35t29 -82l-35 -457q-4 -43 -34.5 -72.5t-73.5 -29.5q-47 0 -80 36t-29 83z" />
<glyph unicode="&#x201d;" horiz-adv-x="1013" d="M162 801l35 456q2 43 33.5 72t74.5 29q47 0 80 -35t29 -82l-33 -457q-2 -43 -35 -72.5t-76 -29.5q-47 0 -79.5 36t-28.5 83zM600 801l35 456q2 43 33.5 72t74.5 29q47 0 80 -35t29 -82l-35 -457q-4 -43 -34.5 -72.5t-73.5 -29.5q-47 0 -80 36t-29 83z" />
<glyph unicode="&#x2026;" horiz-adv-x="1634" d="M1221 -6q0 47 29 78l41 47q37 43 92 43q51 0 86 -35t35 -86q0 -39 -29 -78l-39 -49q-35 -43 -94 -43q-49 0 -85 36t-36 87zM676 -6q0 47 29 78l41 47q37 43 92 43q51 0 86 -35t35 -86q0 -39 -29 -78l-39 -49q-35 -43 -94 -43q-49 0 -85 36t-36 87zM131 -6q0 47 29 78 l41 47q37 43 92 43q51 0 86 -35t35 -86q0 -39 -29 -78l-39 -49q-35 -43 -94 -43q-49 0 -85 36t-36 87z" />
<glyph unicode="&#x202f;" horiz-adv-x="333" />
<glyph unicode="&#x2039;" horiz-adv-x="1200" d="M162 393.5q0 61.5 53 93.5l659 394q55 33 110.5 1t55.5 -95.5t-53 -94.5l-502 -299l502 -299q53 -31 53 -94t-56 -95t-110 1l-659 393q-53 33 -53 94.5z" />
<glyph unicode="&#x203a;" horiz-adv-x="1179" d="M162 0q0 63 53 94l502 299l-502 299q-53 31 -53 94.5t56 95t110 -0.5l659 -394q53 -33 53 -94t-53 -94l-659 -393q-55 -33 -110.5 -1t-55.5 95z" />
<glyph unicode="&#x205f;" horiz-adv-x="417" />
<glyph unicode="&#x2122;" horiz-adv-x="2519" d="M1259 -2v987q0 45 31 76t76 31q55 0 86 -43l346 -465l346 465q33 43 84 43q43 0 77 -32t34 -75l-5 -987q0 -43 -29.5 -73.5t-74.5 -30.5q-43 0 -73.5 30.5t-30.5 73.5v670l-242 -326q-31 -41 -84 -41q-55 0 -84 41l-242 326v-670q0 -43 -30.5 -73.5t-75.5 -30.5 q-43 0 -76 30.5t-33 73.5zM47 915v66q0 45 32 77t77 32h766q45 0 77.5 -32t32.5 -77v-66q0 -45 -31.5 -77.5t-76.5 -32.5q-70 0 -101 65h-174v-870q0 -45 -31.5 -78t-76.5 -33t-78 33t-33 78v870h-172q-27 -66 -100 -65q-45 0 -78 32.5t-33 77.5z" />
<glyph unicode="&#xe000;" horiz-adv-x="920" d="M0 920h920v-920h-920v920z" />
<glyph unicode="&#xfb01;" horiz-adv-x="1505" d="M1053 813q0 45 32 77t77 32h65q47 0 80 -32t33 -77v-813q0 -45 -33 -77t-78 -32t-76.5 32t-31.5 77v713q-68 28 -68 100zM131 813q0 45 32 77t77 32h516q45 0 77.5 -32t32.5 -77v-68q0 -45 -31.5 -76.5t-76.5 -31.5q-74 0 -101 65h-241v-247h268q47 0 80 -33t33 -78 t-33 -76.5t-78 -31.5h-268v-236q0 -45 -33 -77t-78 -32t-76.5 32t-31.5 77v713q-68 28 -68 100z" />
<glyph unicode="&#xfb02;" horiz-adv-x="1792" d="M1035 0q0 74 65 100v713q0 45 32 77t77 32t77.5 -32t32.5 -77v-702h193q29 66 100 65q45 0 77 -32.5t32 -77.5v-66q0 -45 -32 -77t-77 -32h-469q-45 0 -76.5 32t-31.5 77zM131 813q0 45 32 77t77 32h516q45 0 77.5 -32t32.5 -77v-68q0 -45 -31.5 -76.5t-76.5 -31.5 q-74 0 -101 65h-241v-247h268q47 0 80 -33t33 -78t-33 -76.5t-78 -31.5h-268v-236q0 -45 -33 -77t-78 -32t-76.5 32t-31.5 77v713q-68 28 -68 100z" />
<glyph unicode="&#xfb03;" horiz-adv-x="2426" d="M1974 813q0 45 32 77t77 32h65q47 0 80 -32t33 -77v-813q0 -45 -33 -77t-78 -32t-76.5 32t-31.5 77v713q-68 28 -68 100zM1053 813q0 45 32 77t77 32h516q45 0 77.5 -32t32.5 -77v-68q0 -45 -31.5 -76.5t-76.5 -31.5q-74 0 -101 65h-241v-247h268q47 0 80 -33t33 -78 t-33 -76.5t-78 -31.5h-268v-236q0 -45 -33 -77t-78 -32t-76.5 32t-31.5 77v713q-68 28 -68 100zM131 813q0 45 32 77t77 32h516q45 0 77.5 -32t32.5 -77v-68q0 -45 -31.5 -76.5t-76.5 -31.5q-74 0 -101 65h-241v-247h268q47 0 80 -33t33 -78t-33 -76.5t-78 -31.5h-268v-236 q0 -45 -33 -77t-78 -32t-76.5 32t-31.5 77v713q-68 28 -68 100z" />
<glyph unicode="&#xfb04;" horiz-adv-x="2713" d="M1956 0q0 74 65 100v713q0 45 32 77t77 32t77.5 -32t32.5 -77v-702h193q29 66 100 65q45 0 77 -32.5t32 -77.5v-66q0 -45 -32 -77t-77 -32h-469q-45 0 -76.5 32t-31.5 77zM1053 813q0 45 32 77t77 32h516q45 0 77.5 -32t32.5 -77v-68q0 -45 -31.5 -76.5t-76.5 -31.5 q-74 0 -101 65h-241v-247h268q47 0 80 -33t33 -78t-33 -76.5t-78 -31.5h-268v-236q0 -45 -33 -77t-78 -32t-76.5 32t-31.5 77v713q-68 28 -68 100zM131 813q0 45 32 77t77 32h516q45 0 77.5 -32t32.5 -77v-68q0 -45 -31.5 -76.5t-76.5 -31.5q-74 0 -101 65h-241v-247h268 q47 0 80 -33t33 -78t-33 -76.5t-78 -31.5h-268v-236q0 -45 -33 -77t-78 -32t-76.5 32t-31.5 77v713q-68 28 -68 100z" />
</font>
</defs>
</svg>
