<?xml version="1.0" standalone="no"?>
<!DOCTYPE svg PUBLIC "-//W3C//DTD SVG 1.1//EN" "http://www.w3.org/Graphics/SVG/1.1/DTD/svg11.dtd" >
<svg xmlns="http://www.w3.org/2000/svg">
<metadata>
This is a custom SVG webfont generated by Font Squirrel.
Copyright   : 2003 Alex Scholing published by FontShop International for the FontFont library
</metadata>
<defs>
<font id="RoiceMediumSCRegular" horiz-adv-x="985" >
<font-face units-per-em="2048" ascent="1638" descent="-410" />
<missing-glyph horiz-adv-x="454" />
<glyph unicode=" "  horiz-adv-x="454" />
<glyph unicode="&#x09;" horiz-adv-x="454" />
<glyph unicode="&#xa0;" horiz-adv-x="454" />
<glyph unicode="!" horiz-adv-x="618" d="M168 891q0 35 24.5 59.5t59.5 24.5h72q35 0 60.5 -24.5t25.5 -59.5v-524q0 -35 -25 -59.5t-59.5 -24.5t-59 24.5t-24.5 59.5v440q-31 4 -52.5 27.5t-21.5 56.5zM219 -6q0 31 19 53l43 51q27 31 65 31q35 0 59.5 -25.5t24.5 -60.5q0 -29 -18 -53l-43 -51q-25 -29 -64 -29 q-35 0 -60.5 24.5t-25.5 59.5z" />
<glyph unicode="&#x22;" horiz-adv-x="952" d="M176 811l33 444q4 33 27.5 55.5t56.5 22.5q39 -2 62.5 -27.5t21.5 -62.5l-33 -444q-4 -33 -27.5 -55.5t-56.5 -22.5q-39 2 -62.5 27.5t-21.5 62.5zM575 811l33 444q4 33 26.5 55.5t55.5 22.5q39 -2 62.5 -27.5t21.5 -62.5l-31 -444q-2 -33 -26.5 -55.5t-57.5 -22.5 q-39 2 -62.5 27.5t-21.5 62.5z" />
<glyph unicode="#" horiz-adv-x="1234" d="M92 348q0 35 24.5 59.5t59.5 24.5h172l37 352h-154q-35 0 -59.5 25t-24.5 59.5t25 59t59 24.5h172l21 203q2 33 26.5 54.5t57.5 21.5q37 0 62.5 -27.5t21.5 -64.5l-21 -187h185l22 203q2 33 26.5 54.5t55.5 21.5q39 0 63.5 -27.5t20.5 -64.5l-18 -187h153 q35 0 59.5 -24.5t24.5 -59t-24.5 -59.5t-59.5 -25h-172l-37 -352h154q35 0 59.5 -24.5t24.5 -59.5t-24.5 -59.5t-59.5 -24.5h-172l-21 -203q-2 -33 -26.5 -54t-56.5 -21q-37 0 -63 27.5t-21 66.5l20 184h-184l-23 -203q-2 -33 -26.5 -54t-55.5 -21q-39 0 -63.5 27.5 t-20.5 66.5l19 184h-154q-35 0 -59.5 24.5t-24.5 59.5zM496 414h223l41 389h-223z" />
<glyph unicode="$" horiz-adv-x="1290" d="M289 639q0 123 77.5 204t202.5 101v238q0 35 24.5 59.5t59.5 24.5t59.5 -24.5t24.5 -59.5v-236q119 -8 185 -31q61 -20 57 -86l-4 -71q-2 -33 -26.5 -55.5t-57.5 -22.5q-39 0 -62.5 24.5t-21.5 63.5q-86 14 -156 14q-80 0 -137 -34.5t-57 -108.5q0 -55 17.5 -76.5 t74.5 -42.5l248 -90q94 -35 149 -96.5t55 -181.5q0 -113 -66.5 -190t-176.5 -105v-189q0 -35 -24.5 -59.5t-59.5 -24.5t-59.5 24.5t-24.5 59.5v174q-117 8 -195 35q-61 20 -57 84l4 72q2 33 26.5 56.5t57.5 23.5q39 0 62.5 -26t21.5 -64q63 -14 129 -15q80 0 137.5 35 t57.5 109q0 55 -18.5 77.5t-76.5 42.5l-247 88q-203 70 -203 279z" />
<glyph unicode="%" horiz-adv-x="1855" d="M156 750q0 113 80.5 192.5t193.5 79.5t192.5 -80t79.5 -192.5t-79.5 -193.5t-192.5 -81q-115 0 -194.5 80t-79.5 195zM305 750q0 -53 36 -89t89 -36q51 0 87 36.5t36 88t-36 87t-87 35.5t-88 -35.5t-37 -86.5zM453 -158q0 27 12 43l770 1254q25 41 72 41q35 0 59.5 -25 t24.5 -59q0 -23 -13 -45l-772 -1254q-23 -39 -69 -39q-35 0 -59.5 24.5t-24.5 59.5zM1133 190.5q0 112.5 79.5 192.5t192.5 80t193.5 -80t80.5 -192.5t-79.5 -193.5t-194.5 -81q-113 0 -192.5 81t-79.5 193.5zM1282 190.5q0 -51.5 36 -88t87 -36.5q53 0 89 36.5t36 88 t-37 87t-88 35.5t-87 -35.5t-36 -87z" />
<glyph unicode="&#x26;" horiz-adv-x="1484" d="M117 199q0 137 106 221q-88 98 -88 219q0 125 88 213t213 88h903q35 0 60.5 -24.5t25.5 -59.5t-24.5 -59.5t-59.5 -24.5h-163v-530q0 -35 -25 -59.5t-59.5 -24.5t-59 24.5t-24.5 59.5v530h-572q-53 0 -94 -39t-41 -92q-2 -57 38 -105.5t89 -48.5h199q35 0 60.5 -24.5 t25.5 -59t-25.5 -59.5t-58.5 -25h-201q-57 0 -101 -28.5t-44 -89.5v-2q0 -59 42 -100.5t99 -41.5q66 0 201 15q39 2 66.5 -22.5t27.5 -61.5q0 -33 -21.5 -57.5t-54.5 -26.5l-43 -2q-41 -4 -93 -8.5t-81 -4.5q-129 0 -220 91.5t-91 218.5z" />
<glyph unicode="'" horiz-adv-x="567" d="M195 868l30 428q2 33 25.5 53.5t56.5 20.5q37 -2 59.5 -25.5t20.5 -60.5l-31 -426q-2 -33 -25.5 -54.5t-54.5 -21.5q-37 2 -60 26.5t-21 59.5z" />
<glyph unicode="(" horiz-adv-x="712" d="M156 456.5q0 317.5 202 590.5q-18 23 -18 53q0 41 33 65.5t71 14.5l74 -19q61 -16 62 -82q0 -33 -23 -55q-233 -252 -233 -567q0 -309 229 -561q23 -27 22 -58q0 -29 -18 -51.5t-45 -30.5l-72 -18q-41 -10 -73.5 14.5t-32.5 67.5q0 27 20 53q-198 266 -198 583.5z" />
<glyph unicode=")" horiz-adv-x="714" d="M135 1079q0 66 62 82l73 19q39 10 72 -14.5t33 -65.5q0 -31 -19 -53q203 -272 203 -590t-199 -584q20 -27 21 -53q0 -43 -33 -67.5t-74 -14.5l-71 18q-27 8 -45.5 31t-18.5 51q0 31 23 58q229 252 229 561q0 315 -233 567q-23 22 -23 55z" />
<glyph unicode="*" horiz-adv-x="1644" d="M248 860q0 43 34.5 68.5t75.5 11.5l379 -125v397q0 33 24.5 58.5t59.5 25.5t59.5 -24.5t24.5 -59.5v-399l383 125q41 14 75 -11.5t34 -68.5q0 -59 -58 -80l-381 -125l234 -323q16 -23 16 -49q0 -35 -24.5 -59.5t-59.5 -24.5q-43 0 -67 34l-234 322l-233 -322 q-25 -35 -68 -34q-35 0 -59.5 24.5t-24.5 59.5q0 27 17 49l235 325l-385 125q-57 17 -57 80z" />
<glyph unicode="+" horiz-adv-x="1206" d="M186 393q0 35 25 59.5t59 24.5h248v309q0 35 24.5 59.5t59.5 24.5t59.5 -24.5t24.5 -59.5v-309h250q35 0 59.5 -24.5t24.5 -59.5t-24.5 -59.5t-59.5 -24.5h-250v-309q0 -35 -24.5 -59.5t-59.5 -24.5t-59.5 24.5t-24.5 59.5v309h-248q-35 0 -59.5 24.5t-24.5 59.5z" />
<glyph unicode="," horiz-adv-x="634" d="M145 -254q0 25 15 45l131 203l-53 35q-37 25 -37 69q0 35 24.5 59.5t59.5 24.5q27 0 47 -14l121 -82q37 -27 36 -70q0 -25 -14 -45l-176 -272q-25 -37 -70 -37q-35 0 -59.5 24.5t-24.5 59.5z" />
<glyph unicode="-" horiz-adv-x="868" d="M158 469q10 53 69 63l303 48q55 6 84 -35l31 -45q23 -31 17 -68q-6 -33 -36 -53.5t-65 -12t-51 32.5l-4 7l-254 -37q-45 -6 -73.5 25.5t-20.5 74.5z" />
<glyph unicode="." horiz-adv-x="518" d="M145 -4q0 35 23 63l35 41q29 35 73 35q39 0 68 -28.5t29 -67.5q0 -35 -23 -62l-35 -43q-25 -33 -73 -32q-39 0 -68 27.5t-29 66.5z" />
<glyph unicode="/" horiz-adv-x="899" d="M131 -133l576 1294q23 49 77 49q45 0 70 -37.5t6 -78.5l-577 -1297q-23 -49 -76 -49q-45 0 -69.5 39t-6.5 80z" />
<glyph unicode="0" d="M121 276v338q0 158 107.5 275t263 117t264 -109t108.5 -266v-336q0 -158 -108.5 -275.5t-264 -117.5t-263 108t-107.5 266zM289 276q0 -86 58.5 -146t144.5 -60t145 68.5t59 156.5v336q0 86 -59 146.5t-145 60.5t-144.5 -68t-58.5 -156v-338z" />
<glyph unicode="1" d="M117 856q0 31 19.5 54.5t49.5 27.5l322 53q39 6 67.5 -19.5t28.5 -64.5v-825h156q35 0 59.5 -24.5t24.5 -59.5t-24.5 -59.5t-59.5 -24.5h-492q-35 0 -59.5 24.5t-24.5 59.5t24.5 59.5t59.5 24.5h168v727l-221 -37q-39 -6 -68.5 19.5t-29.5 64.5z" />
<glyph unicode="2" d="M137 874q-4 66 60 87q135 45 272 45q160 0 270.5 -73t110.5 -222q0 -106 -38 -180t-163 -123l-250 -97q-53 -20 -70.5 -71.5t-19.5 -157.5h445q35 0 59.5 -24.5t24.5 -59.5t-25 -59.5t-59 -24.5h-529q-35 0 -59.5 24.5t-24.5 59.5v29q0 70 2 108.5t12.5 99t30 98.5 t58.5 75.5t96 60.5l250 96q63 25 77.5 50.5t14.5 95.5q0 127 -213 127q-61 0 -160 -21q2 -39 -21.5 -65.5t-62.5 -26.5q-33 0 -57.5 22.5t-26.5 55.5z" />
<glyph unicode="3" d="M70 877q0 29 19.5 53t47.5 31q203 45 299 45q182 0 283.5 -86t101.5 -242q0 -166 -133 -270q145 -90 146 -261q0 -174 -111 -262t-289 -88q-127 0 -282 35q-31 6 -49.5 29.5t-18.5 52.5q0 39 29.5 64.5t68.5 17.5q176 -31 252 -31q66 0 113 15.5t69.5 34t35 48t13.5 46 t1 38.5q0 53 -29 89t-77 51.5t-86 20.5t-77 5q-35 0 -59.5 24.5t-24.5 59.5t24.5 59.5t59.5 24.5q98 0 177 52.5t79 144.5q0 20 -1 34.5t-13 41t-32.5 42t-64.5 29t-106 13.5q-57 0 -266 -43q-39 -8 -69.5 16.5t-30.5 65.5z" />
<glyph unicode="4" d="M63 219l211 840q8 29 31 46t51 17q41 0 67 -32.5t15 -71.5l-186 -735h373v354q0 35 24.5 59.5t59 24.5t59.5 -24.5t25 -59.5v-354h47q35 0 59.5 -25t24.5 -59.5t-25 -59t-59 -24.5h-47v-234q0 -35 -25 -59.5t-59.5 -24.5t-59 24.5t-24.5 59.5v234h-480q-41 0 -66.5 32.5 t-15.5 71.5z" />
<glyph unicode="5" d="M125 -92q0 41 31.5 66.5t72.5 15.5q106 -27 189 -27q154 0 206 55.5t52 147.5q0 96 -49 135t-213 70l-205 39q-33 6 -52.5 33.5t-15.5 60.5l56 416q4 31 27.5 51t56.5 20h442q35 0 59.5 -24.5t24.5 -59.5t-24.5 -59.5t-59.5 -24.5h-369l-35 -264l125 -24l77 -16 q26 -5 75 -20.5t76.5 -30.5t65.5 -44t57.5 -62.5t34 -84t14.5 -111.5q0 -186 -117 -278.5t-309 -92.5q-41 0 -97.5 7.5t-91 14.5t-41.5 9q-63 16 -63 82z" />
<glyph unicode="6" d="M111 334q0 236 96 415t291 341q27 23 59 20l72 -6q33 -2 56.5 -26.5t23.5 -57.5q0 -39 -27 -63.5t-64 -20.5l-38 4q-162 -141 -236 -293q84 25 148 25q172 0 281.5 -106.5t109.5 -276.5q0 -178 -106.5 -282.5t-284.5 -104.5q-180 0 -280.5 125t-100.5 307zM279 334 q0 -115 51 -189.5t162 -74.5q223 0 223 219q0 102 -60.5 158.5t-162.5 56.5q-70 0 -205 -55q-8 -82 -8 -115z" />
<glyph unicode="7" d="M88 836v71q0 35 24.5 59.5t59.5 24.5h586q35 0 59.5 -24.5t24.5 -59.5v-55q0 -20 -4 -31l-156 -420l109 -8q33 -2 54 -26.5t21 -57.5q0 -37 -26.5 -61.5t-63.5 -22.5l-153 13l-144 -385q-20 -55 -78 -56q-45 0 -70.5 36t-8.5 77l127 344l-150 12q-33 4 -55.5 27.5 t-22.5 56.5q0 37 27.5 61.5t64.5 20.5l195 -16l151 407h-405q-4 -31 -26.5 -51t-55.5 -20q-35 0 -59.5 24.5t-24.5 59.5z" />
<glyph unicode="8" d="M121 231q0 53 14.5 96.5t46 78t55 53t66.5 47.5q8 6 22.5 14t20.5 15q-61 39 -96 66.5t-69 85.5t-34 130q0 293 349 293q344 0 344 -293q0 -72 -34 -130t-69 -86t-96 -66l43 -31q57 -39 88 -64.5t61.5 -82t30.5 -126.5q0 -330 -372 -329q-111 0 -188 29.5t-114.5 80.5 t-53 103.5t-15.5 115.5zM279 231q0 -90 45 -131t168 -41q109 0 162 35t53 137q0 45 -22.5 71t-88.5 71q-18 12 -51 34.5t-51 34.5q-18 -12 -51 -34.5t-52 -34.5q-68 -45 -90 -71t-22 -71zM305 817q0 -45 26.5 -73.5t102.5 -77.5q49 -33 60 -39l55 37l2 2q57 39 76.5 54 t36 40.5t16.5 56.5h2q0 76 -38 105.5t-148 29.5q-66 0 -100 -5t-62.5 -37t-28.5 -93z" />
<glyph unicode="9" d="M86 618q0 178 107.5 283t285.5 105q180 0 279.5 -124t99.5 -309q0 -236 -96 -414.5t-291 -340.5q-25 -23 -59 -19l-72 4q-33 2 -55.5 27t-22.5 57q0 39 24.5 62.5t63.5 21.5l39 -2q162 141 236 293q-84 -25 -148 -24q-172 0 -281.5 105t-109.5 275zM254 618 q0 -102 60.5 -157t162.5 -55q76 0 207 53q6 61 6 114q0 115 -50 190t-161 75q-225 -1 -225 -220z" />
<glyph unicode=":" horiz-adv-x="518" d="M145 -4q0 35 23 63l35 41q29 35 73 35q39 0 68 -28.5t29 -67.5q0 -35 -23 -62l-35 -43q-25 -33 -73 -32q-39 0 -68 27.5t-29 66.5zM145 748q0 35 23 63l35 41q29 35 73 35q39 0 68 -28t29 -68q0 -35 -23 -62l-35 -43q-25 -33 -73 -33q-39 0 -68 28t-29 67z" />
<glyph unicode=";" horiz-adv-x="634" d="M145 -254q0 25 15 45l131 203l-53 35q-37 25 -37 69q0 35 24.5 59.5t59.5 24.5q27 0 47 -14l121 -82q37 -27 36 -70q0 -25 -14 -45l-176 -272q-25 -37 -70 -37q-35 0 -59.5 24.5t-24.5 59.5zM199 748q0 35 22 63l35 41q29 35 74 35q39 0 67.5 -28t28.5 -68q0 -35 -23 -62 l-34 -43q-27 -33 -74 -33q-39 0 -67.5 28t-28.5 67z" />
<glyph unicode="&#x3c;" horiz-adv-x="1179" d="M176 393q0 47 41 72l660 393q43 25 85 1.5t42 -73.5q0 -47 -41 -71l-539 -322l539 -321q41 -25 41 -72q0 -49 -43 -72.5t-84 0.5l-660 394q-41 24 -41 71z" />
<glyph unicode="=" horiz-adv-x="1107" d="M166 178q0 35 24.5 59.5t59.5 24.5h608q35 0 59.5 -24.5t24.5 -59.5t-24.5 -59.5t-59.5 -24.5h-608q-35 0 -59.5 24.5t-24.5 59.5zM166 575.5q0 34.5 24.5 59t59.5 24.5h608q35 0 59.5 -24.5t24.5 -59t-24.5 -59t-59.5 -24.5h-608q-35 0 -59.5 24.5t-24.5 59z" />
<glyph unicode="&#x3e;" horiz-adv-x="1159" d="M176 0q0 47 41 72l539 321l-539 322q-41 25 -41 71q0 49 43 73t84 -1l660 -393q41 -25 41 -72t-41 -71l-660 -394q-43 -25 -85 -1t-42 73z" />
<glyph unicode="?" horiz-adv-x="763" d="M86 889q0 51 49 76q86 35 205 34q125 0 221 -84t96 -219q0 -113 -58 -172t-159 -100v-59q0 -35 -24.5 -59.5t-59 -24.5t-59.5 24.5t-25 59.5v32q-27 8 -46 30t-19 50q0 35 23.5 60.5t58.5 25.5h47q94 37 123.5 61.5t29.5 71.5q0 68 -47 101.5t-100 33.5q-39 0 -72.5 -5 t-48.5 -11l-14 -4q-41 -18 -81 7.5t-40 70.5zM248 -6q0 27 20 53l43 51q29 31 64 31t59.5 -24.5t24.5 -59.5h2q0 -35 -19 -55l-43 -49q-27 -31 -65 -31q-35 0 -60.5 24.5t-25.5 59.5z" />
<glyph unicode="@" horiz-adv-x="1726" d="M31 756q0 25 16 47q293 375 793 375q344 0 559 -239t215 -587q0 -201 -58.5 -353.5t-155.5 -238.5t-208 -127t-229 -41q-223 0 -370 145.5t-147 368.5q0 207 95 386q37 70 88 133q41 51 88 102q8 10 28.5 32.5t28.5 35.5q23 29 60 28q51 0 69 -49l279 -708 q14 -37 -8.5 -70t-61.5 -33q-51 0 -72 47l-59 152h-381q-2 -23 -2 -56q0 -160 102.5 -261t262.5 -101q233 0 366 163t133 445q0 285 -171 479.5t-451 194.5q-385 0 -631 -266q25 -27 24 -55q0 -31 -22.5 -53.5t-52.5 -22.5q-35 0 -56 22l-49 51q-22 23 -22 54zM629 313h293 l-113 291q-133 -152 -180 -291z" />
<glyph unicode="A" horiz-adv-x="1153" d="M82 -2q0 12 2 18q8 29 10 35l367 961q20 53 78 53h57q57 0 78 -53l393 -996h-2q4 -8 4 -22q0 -31 -25.5 -53.5t-58.5 -22.5q-59 0 -78 51l-90 230h-485l-86 -228q-23 -53 -80 -53q-35 0 -59.5 23.5t-24.5 56.5zM375 352h393l-199 510z" />
<glyph unicode="B" horiz-adv-x="1161" d="M154 0q0 31 20.5 54.5t50.5 27.5v817q-31 4 -51 26.5t-20 55.5q0 35 24.5 59.5t59.5 24.5h426q127 0 220 -91t93 -218q0 -133 -98 -236q139 -98 139 -266q0 -141 -101.5 -239.5t-250.5 -98.5h-428q-35 0 -59.5 24.5t-24.5 59.5zM389 80h277q80 0 134 49t54 125 q0 78 -58.5 125t-133.5 47h-273v-346zM389 586h273q59 0 106 54t47 116q0 59 -45 102t-106 43h-275v-315z" />
<glyph unicode="C" horiz-adv-x="1079" d="M104 489q0 258 155 424t396 166q72 0 156 -11t113 -21q62 -21 62 -76q0 -5 -1 -10l-6 -72q-4 -35 -26.5 -57.5t-55.5 -22.5q-37 0 -61.5 25.5t-22.5 62.5q-104 14 -156 14q-172 0 -278.5 -116.5t-106.5 -305.5q0 -190 101.5 -304.5t288.5 -114.5q115 0 206 36q15 5 30 6 q26 0 48 -17q35 -26 35 -68q0 -59 -57 -80q-150 -45 -260 -45q-258 0 -409 163.5t-151 423.5z" />
<glyph unicode="D" horiz-adv-x="1236" d="M154 0q0 31 20.5 54.5t52.5 27.5v817q-31 4 -52 27.5t-21 54.5q0 35 24.5 59.5t59.5 24.5h301q270 0 429.5 -149.5t159.5 -415.5q0 -258 -157.5 -421t-415.5 -163h-315q-35 0 -60.5 24.5t-25.5 59.5zM393 84h160q188 0 296.5 113.5t108.5 302.5h3q0 197 -111 297 t-309 100h-148v-813z" />
<glyph unicode="E" horiz-adv-x="1042" d="M143 236q0 164 117 256q-104 92 -104 251q0 158 101 247t263 89q33 0 76 -2t82 -5t72.5 -5t55 -4t23.5 -2q35 -2 56.5 -28.5t19.5 -61.5l-4 -72q-2 -33 -26.5 -55.5t-57.5 -22.5q-35 0 -58.5 22.5t-25.5 57.5q-154 10 -211 10q-199 0 -198 -168q0 -84 47 -128t159 -44 h242q35 0 59.5 -24.5t24.5 -59t-24.5 -59.5t-59.5 -25h-242q-219 0 -219 -170q0 -82 54.5 -121.5t138.5 -39.5t289 20h5q33 0 58 -22q27 -25 27 -62q0 -33 -21.5 -57.5t-54.5 -26.5q-164 -20 -303 -20q-154 0 -257.5 89t-103.5 243z" />
<glyph unicode="F" horiz-adv-x="919" d="M143 981q0 35 25 59.5t59 24.5h588q35 0 59.5 -24.5t24.5 -59.5v-72q0 -35 -24.5 -59.5t-59.5 -24.5q-33 0 -55.5 20.5t-26.5 51.5h-350v-371h354q35 0 59.5 -24.5t24.5 -59t-24.5 -59.5t-59.5 -25h-354v-358q0 -35 -24.5 -59.5t-59.5 -24.5t-59.5 24.5t-24.5 59.5v899 q-31 4 -51.5 26.5t-20.5 55.5z" />
<glyph unicode="G" horiz-adv-x="1196" d="M106 492q0 256 155 421.5t409 165.5q49 0 111.5 -6t98 -12t42.5 -8q33 -6 52 -31t17 -57l-4 -72q-2 -33 -26.5 -55.5t-57.5 -22.5q-35 0 -59.5 23.5t-24.5 58.5v2q-86 12 -147 12q-184 0 -291 -117.5t-107 -301.5q0 -195 99.5 -308.5t271.5 -113.5q92 0 229 16v233h-34 q-35 0 -60.5 25t-25.5 59.5t24.5 59t59.5 24.5h118q35 0 60.5 -25.5t25.5 -58.5v-387q0 -27 -18 -50t-45 -32q-131 -33 -332 -32q-242 0 -391.5 163t-149.5 427z" />
<glyph unicode="H" horiz-adv-x="1288" d="M143 981q0 35 25 59.5t59 24.5h72q35 0 59.5 -24.5t24.5 -59.5v-387h541v387q0 35 24.5 59.5t59 24.5t60.5 -24.5t26 -59.5v-981q0 -35 -25 -59.5t-59.5 -24.5t-59 24.5t-24.5 59.5v426h-541v-426q0 -35 -24.5 -59.5t-59.5 -24.5t-59.5 24.5t-24.5 59.5v899 q-31 4 -52.5 27.5t-21.5 54.5z" />
<glyph unicode="I" horiz-adv-x="579" d="M143 981q0 35 25 59.5t59 24.5h72q35 0 60.5 -24.5t25.5 -59.5v-981q0 -35 -24.5 -59.5t-59.5 -24.5t-59.5 24.5t-24.5 59.5v899q-31 4 -52.5 26.5t-21.5 55.5z" />
<glyph unicode="J" horiz-adv-x="571" d="M-70 -379q0 37 26 62q24 23 57 22h5q8 0 38 -1t38 -1q74 0 120 40t46 110q0 31 -8 67.5t-16 59.5l-9 20q-6 10 -6 33v864q-33 4 -55.5 27.5t-22.5 56.5q0 35 25 59.5t59 24.5h76q35 0 59.5 -24.5t24.5 -59.5v-932q41 -117 41 -196q0 -141 -94 -229.5t-238 -88.5 q-10 0 -30.5 1t-35.5 1h-18q-35 2 -58.5 26.5t-23.5 57.5z" />
<glyph unicode="K" horiz-adv-x="1144" d="M195 0v981q0 35 24.5 59.5t59 24.5t59 -24.5t24.5 -59.5v-399h127l349 450q27 33 67 33q35 0 60.5 -25.5t25.5 -58.5q0 -25 -18 -51l-336 -432l317 -412l29 2h6q35 0 59 -21q26 -24 25 -63q0 -33 -22.5 -57.5t-55.5 -26.5l-73 -4h-5q-42 0 -67 33l-358 465h-127v-414 q0 -35 -25 -59.5t-59.5 -24.5t-60 24.5t-25.5 59.5z" />
<glyph unicode="L" horiz-adv-x="937" d="M145 0q0 33 20.5 56.5t51.5 27.5v897q0 35 24.5 59.5t59.5 24.5t59.5 -24.5t24.5 -59.5v-897h303q4 31 26.5 51.5t55.5 20.5q35 0 60.5 -25t25.5 -59v-72q0 -35 -24.5 -59.5t-59.5 -24.5h-541q-35 0 -60.5 24.5t-25.5 59.5z" />
<glyph unicode="M" horiz-adv-x="1394" d="M195 -2v985q0 33 23.5 57.5t57.5 24.5q43 0 64 -31l356 -479l355 479q25 31 65 31q33 0 58.5 -24.5t25.5 -57.5v-985q0 -35 -24.5 -58.5t-57.5 -23.5t-57.5 23.5t-24.5 58.5v741l-274 -370q-25 -33 -64 -33q-43 0 -65 33l-273 370v-741q0 -35 -24.5 -58.5t-56.5 -23.5 q-35 0 -59.5 24.5t-24.5 57.5z" />
<glyph unicode="N" horiz-adv-x="1296" d="M195 -4v989q0 33 23.5 56.5t55.5 23.5h66q45 0 68 -37l534 -860v739q-33 4 -53.5 25.5t-20.5 52.5q0 33 23.5 56.5t56.5 23.5h72q33 0 57.5 -23.5t24.5 -56.5v-989q0 -33 -23.5 -56.5t-56.5 -23.5h-66q-43 0 -67 39l-533 858v-817q0 -33 -22.5 -56.5t-57 -23.5t-58 23.5 t-23.5 56.5z" />
<glyph unicode="O" horiz-adv-x="1323" d="M104 496q0 246 157 414.5t401 168.5q240 0 398.5 -165.5t158.5 -417.5q0 -248 -157 -421t-400 -173q-238 0 -398 170t-160 424zM272 496q0 -184 111 -305t279 -121q174 0 281.5 124.5t107.5 301.5q0 182 -110 298.5t-279 116.5q-174 0 -282 -119.5t-108 -295.5z" />
<glyph unicode="P" horiz-adv-x="1038" d="M145 981q0 35 25 59.5t59 24.5h383q145 0 251 -108.5t106 -256.5q0 -150 -105.5 -261t-255.5 -111h-223v-328q0 -35 -24.5 -59.5t-59.5 -24.5t-59.5 24.5t-24.5 59.5v899q-31 4 -51.5 26.5t-20.5 55.5zM385 496h223q80 0 136.5 61t56.5 143q0 76 -55.5 136.5t-133.5 60.5 h-227v-401z" />
<glyph unicode="Q" horiz-adv-x="1327" d="M104 494q0 246 156 415.5t399 169.5q238 0 398 -168t160 -417q0 -139 -54.5 -263.5t-158.5 -207.5l143 -158l29 2q6 1 10 0q32 0 57 -21q29 -25 29 -61q0 -31 -21.5 -56.5t-52.5 -27.5l-72 -8q-7 -1 -13 -1q-34 0 -58 27l-199 220q-100 -37 -194 -37q-238 0 -398 170 t-160 422zM272 494q0 -182 110 -303t277 -121q172 0 280 124.5t108 299.5h2q0 182 -110 299.5t-277 117.5q-174 0 -282 -120.5t-108 -296.5z" />
<glyph unicode="R" horiz-adv-x="1169" d="M145 981q0 35 25 59.5t59 24.5h383q127 0 242 -99.5t115 -265.5q0 -106 -57.5 -199t-153.5 -139l203 -276l26 2h6q33 0 57 -21q26 -24 27 -63q0 -33 -23.5 -57.5t-56.5 -26.5l-71 -4h-9q-39 0 -65 35l-279 377h-188v-328q0 -35 -24.5 -59.5t-59.5 -24.5t-59.5 24.5 t-24.5 59.5v899q-31 4 -51.5 26.5t-20.5 55.5zM385 496h227q78 0 133.5 62.5t55.5 141.5q0 94 -65.5 145.5t-123.5 51.5h-227v-401z" />
<glyph unicode="S" horiz-adv-x="966" d="M123 754q0 152 104.5 238.5t259.5 86.5q164 0 279 -39q63 -20 59 -84l-4 -73q-2 -33 -26 -57q-23 -22 -54 -21h-6q-37 2 -60.5 27.5t-21.5 62.5q-86 16 -164 16q-86 0 -142 -38.5t-56 -118.5q0 -61 21.5 -86t84.5 -52l234 -94q45 -18 75.5 -35.5t65.5 -50.5t53.5 -85 t18.5 -122q0 -152 -105.5 -239.5t-259.5 -87.5q-162 0 -276 39q-61 20 -58 84l5 71q2 35 27 59q24 22 53 21h6q35 -2 59 -28.5t22 -61.5q68 -16 160 -16q84 0 141.5 40t57.5 119q0 61 -21.5 86t-85.5 52l-233 94q-45 18 -75 35.5t-65.5 50.5t-54 85t-18.5 122z" />
<glyph unicode="T" horiz-adv-x="1044" d="M61 909v72q0 35 25 59.5t59 24.5h752q35 0 60.5 -24.5t25.5 -59.5v-72q0 -35 -24.5 -59.5t-59.5 -24.5q-33 0 -55.5 20.5t-26.5 51.5h-211v-897q0 -35 -24.5 -59.5t-59.5 -24.5t-59.5 24.5t-24.5 59.5v897h-209q-4 -29 -26.5 -50.5t-55.5 -21.5q-35 0 -60.5 24.5 t-25.5 59.5z" />
<glyph unicode="U" horiz-adv-x="1267" d="M166 418v563q0 35 24.5 59.5t59.5 24.5t59.5 -24.5t24.5 -59.5v-563q0 -43 7 -85t26.5 -91t51.5 -86t87 -61.5t127 -24.5q88 0 151.5 34.5t94 92t43 111.5t12.5 110v481q-29 4 -50.5 27.5t-21.5 54.5q0 35 24.5 59.5t59.5 24.5h72q35 0 59.5 -24.5t24.5 -59.5v-563 q0 -231 -129 -373.5t-340 -142.5t-339 141.5t-128 374.5z" />
<glyph unicode="V" horiz-adv-x="1103" d="M78 950q-5 15 -5 30q0 25 15 47q25 36 68 36q59 0 80 -55l307 -840l325 844q20 53 80 53q43 0 69 -36q16 -22 15 -46q0 -16 -6 -33l-379 -979q-20 -55 -80 -55h-53q-57 0 -78 55z" />
<glyph unicode="W" horiz-adv-x="1640" d="M104 967q-2 10 -2 18q0 26 18 48q24 30 60 30q27 0 48.5 -16.5t27.5 -42.5l203 -809l266 768q18 53 74 53h32q57 0 74 -55l242 -768l235 815q16 55 76 55q39 0 63 -31q16 -21 16 -47q0 -11 -3 -22l-287 -990q-18 -57 -76 -57h-43q-59 0 -75 55l-240 764l-266 -766 q-18 -53 -74 -53h-45q-61 0 -76 61z" />
<glyph unicode="X" horiz-adv-x="1116" d="M92 0q0 25 19 51l342 459l-316 420q-20 25 -20 51q0 35 24.5 59.5t59.5 24.5q43 0 67 -33l287 -383l283 383q25 33 67 33q35 0 60.5 -24.5t25.5 -59.5q0 -27 -16 -49l-316 -422l347 -459q18 -23 18 -51q0 -35 -24.5 -59.5t-59.5 -24.5q-43 0 -68 35l-315 420l-311 -420 q-25 -35 -68 -35q-35 0 -60.5 24.5t-25.5 59.5z" />
<glyph unicode="Y" d="M31 981q0 35 24.5 59.5t59.5 24.5q43 0 67 -37l305 -442l312 444q25 35 69 35q35 0 60.5 -24.5t25.5 -59.5q0 -23 -16 -49l-367 -520v-412q0 -35 -24.5 -59.5t-59 -24.5t-59.5 24.5t-25 59.5v412l-356 522q-16 22 -16 47z" />
<glyph unicode="Z" horiz-adv-x="1134" d="M143 -2v68q0 29 17 51l618 784h-467q-4 -31 -26.5 -51.5t-55.5 -20.5q-35 0 -59.5 25t-24.5 57v72q0 33 24 57.5t58 24.5h662q33 0 57.5 -24.5t24.5 -57.5v-72q0 -27 -17 -49l-614 -782h487q2 31 26 51.5t54 20.5q35 0 59.5 -25t24.5 -57v-72q0 -35 -24.5 -58.5 t-57.5 -23.5h-682q-35 0 -59.5 24.5t-24.5 57.5z" />
<glyph unicode="[" horiz-adv-x="581" d="M186 -143v1204q0 31 20.5 55.5t53.5 28.5l143 18q39 4 67 -20.5t28 -63.5q0 -31 -20.5 -54.5t-51.5 -27.5l-72 -10v-1057l72 -8q31 -2 51.5 -27.5t20.5 -56.5q0 -39 -29 -63.5t-66 -20.5l-143 21q-33 4 -53.5 27.5t-20.5 54.5z" />
<glyph unicode="\" horiz-adv-x="843" d="M12 1094q-18 41 6.5 78.5t69.5 37.5q55 0 78 -49l575 -1294q20 -43 -5 -81t-70 -38q-53 0 -76 49z" />
<glyph unicode="]" horiz-adv-x="581" d="M84 -162q0 31 21.5 56.5t52.5 27.5l69 8v1057l-69 10q-33 4 -53.5 28t-20.5 54q0 39 28.5 63.5t65.5 20.5l146 -18q31 -4 51 -28.5t20 -55.5v-1204q0 -31 -20.5 -54.5t-50.5 -27.5l-146 -21q-37 -4 -65.5 20.5t-28.5 63.5z" />
<glyph unicode="^" horiz-adv-x="1114" d="M199 1032q0 25 14 45l268 412q27 39 70 39h2q43 0 70 -37l278 -412q14 -20 14 -47q0 -35 -24.5 -59.5t-59.5 -24.5q-45 0 -69 37l-209 307l-201 -307q-25 -37 -69 -37q-35 0 -59.5 24.5t-24.5 59.5z" />
<glyph unicode="_" horiz-adv-x="1673" d="M33 -330q0 35 24.5 59.5t59.5 24.5h1439q35 0 59.5 -24.5t24.5 -59.5t-24.5 -59.5t-59.5 -24.5h-1439q-35 0 -59.5 24.5t-24.5 59.5z" />
<glyph unicode="`" horiz-adv-x="372" d="M-138.5 1258.5q-11.5 31.5 3.5 62.5q16 33 48 44t64 -3l349 -168q31 -16 42 -48t-3 -63q-16 -33 -48 -44t-65 3l-348 168q-31 17 -42.5 48.5z" />
<glyph unicode="a" horiz-adv-x="1019" d="M72 2q0 14 6 31l323 811q20 51 78 51h49q57 0 78 -51l336 -811q6 -16 6 -31q0 -35 -24.5 -59.5t-59.5 -24.5q-55 0 -78 51l-75 181h-406l-72 -179q-23 -53 -77 -53q-35 0 -59.5 24.5t-24.5 59.5zM346 299h324l-166 399z" />
<glyph unicode="b" horiz-adv-x="1062" d="M158 0q0 31 20.5 54.5t52.5 27.5v647q-31 4 -52 27.5t-21 54.5q0 35 24.5 59.5t59.5 24.5h376q115 0 198 -79t83 -191q0 -106 -76 -193q111 -88 111 -221q0 -125 -90 -210t-221 -85h-379q-35 0 -60.5 24.5t-25.5 59.5zM389 74h232q66 0 110.5 39t44.5 98q0 61 -48 97 t-110 36h-229v-270zM389 494h227q47 0 85 42t38 89h2q0 47 -35.5 79.5t-84.5 32.5h-232v-243z" />
<glyph unicode="c" horiz-adv-x="1024" d="M133 408q0 219 139.5 360t354.5 141q152 0 231 -26q62 -19 62 -76v-10l-7 -72q-2 -33 -26.5 -56.5t-55.5 -23.5q-39 2 -62.5 26.5t-20.5 61.5q-74 8 -119 8q-145 0 -236.5 -92t-91.5 -241q0 -154 86 -246t240 -92q35 0 78 7t69.5 14t26.5 9q13 4 25 4q27 0 51 -18 q35 -27 34 -68q0 -63 -59 -79q-4 -2 -36 -10.5t-87 -17.5t-100 -9q-223 0 -359.5 140.5t-136.5 365.5z" />
<glyph unicode="d" horiz-adv-x="1171" d="M158 0q0 31 20.5 54.5t52.5 27.5v647q-31 4 -52 27.5t-21 54.5q0 35 24.5 59.5t59.5 24.5h270q236 0 381 -126t145 -355q0 -223 -143 -360.5t-369 -137.5h-282q-35 0 -60.5 24.5t-25.5 59.5zM397 84h127q156 0 250 88t94 242h2q0 160 -95 236.5t-261 76.5h-117v-643z" />
<glyph unicode="e" horiz-adv-x="974" d="M143 193q0 137 90 215q-80 80 -79 208q0 133 87 213t232 80q74 0 299 -14q37 -4 59.5 -28.5t20.5 -59.5l-6 -72q-2 -35 -28 -58q-24 -22 -55 -22h-5q-70 4 -78 78q-135 8 -205 8q-154 0 -153 -125q0 -59 31.5 -94t127.5 -35h244q35 0 60.5 -24.5t25.5 -59t-24.5 -59.5 t-59.5 -25h-244q-82 0 -127 -25.5t-45 -100.5q0 -121 146 -121q31 0 284 16h7q35 0 59 -21q27 -24 27 -63q0 -33 -23 -57.5t-55 -26.5q-197 -16 -297 -16q-135 0 -225.5 78t-90.5 211z" />
<glyph unicode="f" horiz-adv-x="886" d="M143 811q0 35 25 59.5t59 24.5h516q35 0 60.5 -24.5t25.5 -59.5v-72q0 -35 -24.5 -59.5t-59.5 -24.5q-31 0 -54 20.5t-27 51.5h-281v-289h293q35 0 60.5 -24.5t25.5 -59.5t-24.5 -59.5t-59.5 -24.5h-293v-270q0 -35 -24.5 -59.5t-59.5 -24.5t-59.5 24.5t-24.5 59.5v729 q-31 4 -52.5 27.5t-21.5 54.5z" />
<glyph unicode="g" horiz-adv-x="1085" d="M133 410q0 221 137.5 360t356.5 139q27 0 58.5 -2t57 -5t46 -6t34.5 -5l13 -2q33 -8 52 -33t17 -55l-6 -74q-2 -33 -26.5 -55.5t-55.5 -22.5q-37 2 -60.5 25.5t-23.5 58.5v2q-49 6 -104 6q-150 0 -239 -90t-89 -241q0 -158 82 -249t223 -91q72 0 174 10v168h-10 q-35 0 -60.5 24.5t-25.5 59.5q0 33 24.5 58.5t59.5 25.5h94q35 0 60.5 -25.5t25.5 -58.5v-320q0 -27 -17.5 -50t-43.5 -32q-143 -29 -279 -28q-213 0 -344 140.5t-131 367.5z" />
<glyph unicode="h" horiz-adv-x="1163" d="M143 811q0 35 25 59.5t59 24.5h72q35 0 59.5 -24.5t24.5 -59.5v-305h432v307q0 35 24.5 59.5t59.5 24.5t60.5 -24.5t25.5 -59.5v-813q0 -35 -24.5 -59.5t-59.5 -24.5t-59.5 24.5t-24.5 59.5v338h-432v-338q0 -35 -24.5 -59.5t-59.5 -24.5t-59.5 24.5t-24.5 59.5v729 q-31 4 -52.5 27.5t-21.5 54.5z" />
<glyph unicode="i" horiz-adv-x="575" d="M143 811q0 35 25 59.5t59 24.5h72q35 0 60.5 -24.5t25.5 -59.5v-811q0 -35 -24.5 -59.5t-59.5 -24.5t-59.5 24.5t-24.5 59.5v729q-31 4 -52.5 27.5t-21.5 54.5z" />
<glyph unicode="j" horiz-adv-x="565" d="M-57 -305q0 37 25 61q24 23 57 23h6q8 0 37.5 -1t37.5 -1q74 0 120 40t46 109q0 31 -8 68t-16 59l-8 21q-6 10 -7 32v623q-33 4 -55 26.5t-22 55.5q0 35 24.5 59.5t59.5 24.5h75q35 0 59.5 -24.5t24.5 -59.5v-688q41 -117 41 -197q0 -141 -94 -229t-237 -88q-10 0 -31 1 t-36 1h-17q-35 2 -58.5 26.5t-23.5 57.5z" />
<glyph unicode="k" horiz-adv-x="1038" d="M178 0v813q0 35 24.5 59.5t59.5 24.5t59.5 -24.5t24.5 -59.5v-317h113l274 366q29 35 68 35q35 0 60.5 -25.5t25.5 -58.5q0 -29 -17 -51l-264 -350l244 -326l24 2h7q35 0 58 -21q26 -24 28 -63q0 -33 -22.5 -57.5t-55.5 -26.5l-72 -4h-9q-41 0 -65 33l-282 379h-113v-328 q0 -35 -24.5 -59.5t-59.5 -24.5t-60.5 24.5t-25.5 59.5z" />
<glyph unicode="l" horiz-adv-x="849" d="M125 0q0 33 20.5 56.5t51.5 27.5v729q0 35 24.5 59.5t59 24.5t59.5 -24.5t25 -59.5v-729h237q4 31 26.5 51.5t55.5 20.5q35 0 59.5 -25t24.5 -59v-72q0 -35 -24.5 -59.5t-59.5 -24.5h-475q-35 0 -59.5 24.5t-24.5 59.5z" />
<glyph unicode="m" horiz-adv-x="1245" d="M178 -4v821q0 33 23.5 56.5t56.5 23.5q37 0 59 -27l306 -344l305 344q27 27 59.5 27t57 -23.5t24.5 -56.5v-821q0 -33 -23.5 -56.5t-56.5 -23.5t-56.5 23.5t-23.5 56.5v610l-225 -254q-27 -27 -59 -26q-37 0 -60 26l-225 254v-610q0 -33 -23.5 -56.5t-56.5 -23.5 t-57.5 23.5t-24.5 56.5z" />
<glyph unicode="n" horiz-adv-x="1171" d="M178 -4v821q0 33 23.5 55.5t56.5 22.5h57q43 0 66 -35l455 -684v561q-33 4 -54.5 26.5t-21.5 53.5q0 33 23.5 55.5t56.5 22.5h73q33 0 57.5 -22.5t24.5 -55.5v-821q0 -33 -23.5 -56.5t-56.5 -23.5h-57q-43 0 -65 37l-453 684v-641q0 -33 -22.5 -56.5t-57.5 -23.5 t-58.5 23.5t-23.5 56.5z" />
<glyph unicode="o" horiz-adv-x="1230" d="M123 408q0 213 140 357t351 144t352.5 -143t141.5 -358q0 -213 -140.5 -359.5t-353.5 -146.5q-211 0 -351 145.5t-140 360.5zM291 408q0 -145 92 -241.5t231 -96.5q143 0 234.5 97t91.5 241q0 145 -92 239t-233.5 94t-232.5 -95t-91 -238z" />
<glyph unicode="p" horiz-adv-x="989" d="M145 811q0 35 25 59.5t59 24.5h367q139 0 240.5 -101.5t101.5 -238.5q0 -141 -101.5 -243.5t-244.5 -102.5h-207v-209q0 -35 -24.5 -59.5t-59.5 -24.5t-59.5 24.5t-24.5 59.5v729q-31 4 -51.5 26.5t-20.5 55.5zM385 377h207q72 0 125 53t53 125q0 70 -52 121t-122 51 h-211v-350z" />
<glyph unicode="q" horiz-adv-x="1234" d="M129 406q0 213 140.5 358t351.5 145q209 0 350 -144t141 -359q0 -244 -176 -392l108 -114l29 4q5 1 11 0q31 0 56 -21q30 -25 29 -63q0 -31 -21.5 -56.5t-51.5 -27.5l-72 -8q-5 0 -10 -1q-38 0 -62 27l-166 176q-80 -29 -163 -28q-211 0 -352.5 144.5t-141.5 359.5z M297 406q0 -145 91 -240.5t232.5 -95.5t231.5 97t90 239h2q0 145 -91 240t-230 95q-143 0 -234.5 -96t-91.5 -239z" />
<glyph unicode="r" horiz-adv-x="1069" d="M145 811q0 35 25 59.5t59 24.5h340q115 0 217.5 -86t102.5 -229q0 -92 -49 -170t-133 -119l157 -205l27 2h6q33 0 56 -21q26 -24 28 -63q0 -33 -23.5 -57.5t-56.5 -26.5l-72 -4h-4q-40 0 -67 33l-238 309h-135v-258q0 -35 -24.5 -59.5t-59.5 -24.5t-59.5 24.5t-24.5 59.5 v729q-31 4 -51.5 27.5t-20.5 54.5zM385 426h188q59 0 103.5 46t44.5 108q0 74 -53.5 110.5t-98.5 36.5h-184v-301z" />
<glyph unicode="s" horiz-adv-x="927" d="M139 621q0 137 94.5 212.5t237.5 75.5q147 0 248 -32q45 -16 52 -65q3 -20 3 -38q0 -26 -6 -49q-2 -31 -25.5 -51.5t-54.5 -20.5q-35 0 -57.5 23.5t-22.5 64.5q-68 10 -137 11q-174 0 -174 -131q0 -51 12.5 -65.5t69.5 -35.5l229 -82q86 -31 123 -67q61 -61 62 -178 q0 -137 -94.5 -214t-237.5 -77q-139 0 -240 32q-61 23 -55 80l6 72q4 31 25.5 51.5t52.5 20.5q35 0 57.5 -23.5t22.5 -64.5q51 -10 131 -11q172 0 172 134q0 61 -27 75q-16 8 -53 21l-227 84q-90 33 -125 67q-62 62 -62 181z" />
<glyph unicode="t" horiz-adv-x="909" d="M49 739v72q0 35 24.5 59.5t59.5 24.5h641q35 0 60.5 -24.5t25.5 -59.5v-72q0 -35 -24.5 -59.5t-59.5 -24.5q-33 0 -55.5 21.5t-26.5 50.5h-155v-727q0 -35 -25 -59.5t-59.5 -24.5t-59 24.5t-24.5 59.5v727h-154q-4 -29 -26.5 -50.5t-55.5 -21.5q-35 0 -60.5 24.5 t-25.5 59.5z" />
<glyph unicode="u" horiz-adv-x="1095" d="M147 326v485q0 35 25 59.5t59.5 24.5t59 -24.5t24.5 -59.5v-485q0 -104 56.5 -180t175.5 -76t176 75.5t57 180.5v403q-31 4 -52 27.5t-21 54.5q0 35 24.5 59.5t59.5 24.5h71q35 0 60.5 -24.5t25.5 -59.5v-485q0 -188 -109.5 -306t-289.5 -118t-291 118t-111 306z" />
<glyph unicode="v" horiz-adv-x="974" d="M72 813q0 35 25.5 59.5t58.5 24.5q57 0 77 -55l246 -666l260 668q20 53 78 53q35 0 60.5 -24.5t25.5 -59.5q0 -6 -2 -16.5t-2 -14.5l-317 -813q-20 -53 -78 -53h-47q-57 0 -78 55l-299 811q-8 21 -8 31z" />
<glyph unicode="w" horiz-adv-x="1433" d="M123 817q0 33 22.5 55.5t53.5 22.5q27 0 48 -16.5t27 -42.5l158 -631l195 596q18 53 71 53h27q57 0 74 -55l174 -596l184 637q16 55 74 55q33 0 56.5 -22.5t23.5 -55.5q0 -2 -2 -10t-2 -10l-240 -824q-16 -55 -74 -55h-37q-57 0 -73 55l-172 588l-193 -590 q-16 -53 -72 -53h-36q-61 0 -76 57l-209 824q0 4 -1 10t-1 8z" />
<glyph unicode="x" horiz-adv-x="1050" d="M113 0q0 25 18 51l287 371l-264 338q-20 23 -21 53q0 35 25.5 59.5t58.5 24.5q45 0 68 -33l237 -305l236 305q27 33 67 33q35 0 60.5 -25.5t25.5 -58.5q0 -25 -18 -51l-264 -340l291 -371q18 -23 18 -51q0 -35 -24.5 -59.5t-59.5 -24.5q-41 0 -66 33l-262 336l-262 -336 q-27 -33 -65 -33q-35 0 -60.5 24.5t-25.5 59.5z" />
<glyph unicode="y" horiz-adv-x="968" d="M76 813q0 35 24.5 59.5t59.5 24.5q43 0 67 -37l254 -354l260 356q25 35 68 35q35 0 60.5 -24.5t25.5 -59.5q0 -29 -16 -51l-314 -426v-336q0 -35 -24.5 -59.5t-59.5 -24.5t-59.5 24.5t-24.5 59.5v336l-303 428q-18 22 -18 49z" />
<glyph unicode="z" horiz-adv-x="1034" d="M139 -6v55q0 23 19 49l518 639h-373q-14 -72 -80 -71q-33 0 -57.5 22.5t-24.5 54.5v74q0 33 23.5 55.5t56.5 22.5h576q33 0 56.5 -22.5t23.5 -55.5v-55q0 -27 -17 -49l-520 -639h395q4 33 26.5 53t51.5 20q33 0 57.5 -23.5t24.5 -55.5v-74q0 -33 -23.5 -55.5t-56.5 -22.5 h-594q-35 0 -58.5 22.5t-23.5 55.5z" />
<glyph unicode="{" horiz-adv-x="847" d="M186 408q0 43 35 67l211 152l-100 291q-12 37 -13 75q0 111 92.5 201t204.5 90q35 0 59.5 -25.5t24.5 -58.5q0 -35 -24.5 -59.5t-59.5 -24.5q-47 0 -95 -49t-32 -94l123 -348q4 -20 4 -29q0 -43 -34 -68l-168 -120l168 -121q35 -25 34 -68q0 -10 -4 -26l-120 -375 q-12 -39 35.5 -90.5t90.5 -51.5q35 0 59.5 -24.5t24.5 -59t-24.5 -59.5t-59.5 -25q-111 0 -203.5 93.5t-92.5 203.5q0 31 10 66l102 315l-213 154q-35 25 -35 68z" />
<glyph unicode="|" horiz-adv-x="561" d="M197 -168v1294q0 35 24.5 59.5t59 24.5t59.5 -24.5t25 -59.5v-1294q0 -35 -25 -59.5t-59.5 -24.5t-59 24.5t-24.5 59.5z" />
<glyph unicode="}" horiz-adv-x="847" d="M145 -407.5q0 34.5 25 59t59 24.5q43 0 91.5 51.5t35.5 90.5l-120 375q-4 8 -5 26q0 43 35 68l168 121l-168 120q-35 25 -35 68q0 18 5 29l122 350q14 43 -34 92t-93 49q-35 0 -59.5 24.5t-24.5 59.5q0 33 25 58.5t59 25.5q111 0 204 -90t93 -201q0 -39 -12 -73 l-100 -293l211 -152q35 -25 35 -67.5t-35 -67.5l-213 -154l102 -315q10 -35 10 -66q0 -111 -93 -204t-204 -93q-35 0 -59.5 25t-24.5 59.5z" />
<glyph unicode="~" horiz-adv-x="1146" d="M207 352l92 172q14 27 43 38t57 1l389 -133l23 43q23 45 74 45q49 0 72.5 -40t3.5 -81l-56 -108q-14 -27 -44 -39t-58 -2l-389 133l-60 -109q-27 -45 -73 -45q-49 0 -73 41t-1 84z" />
<glyph horiz-adv-x="1292" d="M176 231.5q0 34.5 24.5 59t59.5 24.5h586q35 0 59.5 -24.5t24.5 -59t-24.5 -59.5t-59.5 -25h-330v-159q0 -143 207 -144q47 0 109.5 12.5t101.5 24.5l39 13q41 14 76.5 -11.5t35.5 -68.5q0 -59 -57 -80q-172 -57 -305 -58q-158 0 -266.5 80t-108.5 232v159h-88 q-35 0 -59.5 25t-24.5 59.5zM203 571.5q0 34.5 24.5 59t59.5 24.5h61v160q0 43 7 81t31 84t62.5 80t108.5 56.5t162 22.5q66 0 146.5 -8.5t126.5 -15.5t52 -9q33 -6 52.5 -30.5t17.5 -57.5l-6 -72q-4 -35 -27.5 -56.5t-56.5 -21.5q-37 2 -60.5 26t-21.5 58q-139 18 -223 19 q-100 0 -151.5 -32t-51.5 -124v-160h361q35 0 59.5 -24.5t24.5 -59t-25 -59.5t-59 -25h-590q-35 0 -59.5 25t-24.5 59.5z" />
<glyph horiz-adv-x="634" d="M145 -254q0 25 15 45l131 203l-53 35q-37 25 -37 69q0 35 24.5 59.5t59.5 24.5q27 0 47 -14l121 -82q37 -27 36 -70q0 -25 -14 -45l-176 -272q-25 -37 -70 -37q-35 0 -59.5 24.5t-24.5 59.5z" />
<glyph horiz-adv-x="1042" d="M125 463q0 35 24.5 59.5t59.5 24.5h115v164q0 106 14 187t51 154.5t110.5 113.5t182.5 40q94 0 192 -49q43 -25 43.5 -74t-41.5 -72.5t-83 -0.5q-2 2 -16.5 9t-41 13t-53.5 6q-55 0 -93 -21.5t-57.5 -48t-28.5 -79.5t-10 -84t-1 -94v-164h178q35 0 59.5 -24.5t24.5 -59.5 t-24.5 -59.5t-59.5 -24.5h-178v-506q0 -135 -72 -203.5t-156 -70.5q-35 0 -59.5 24.5t-24.5 57.5q0 35 23.5 59t58.5 27q61 0 62 106v506h-115q-35 0 -59.5 24.5t-24.5 59.5z" />
<glyph horiz-adv-x="1052" d="M145 -254q0 25 15 45l131 203l-53 35q-37 25 -37 69q0 35 24.5 59.5t59.5 24.5q27 0 47 -14l121 -82q37 -27 36 -70q0 -25 -14 -45l-176 -272q-25 -37 -70 -37q-35 0 -59.5 24.5t-24.5 59.5zM573 -256q0 27 13 47l131 201l-53 37q-35 25 -35 69q0 35 24.5 59.5t59.5 24.5 q23 0 47 -14l119 -84q37 -25 36 -70q0 -23 -12 -45l-176 -270q-27 -39 -72 -39q-33 0 -57.5 24.5t-24.5 59.5z" />
<glyph unicode="&#x85;" horiz-adv-x="1255" d="M145 -4q0 35 23 63l35 41q29 35 73 35q39 0 68 -28.5t29 -67.5q0 -35 -23 -62l-35 -43q-25 -33 -73 -32q-39 0 -68 27.5t-29 66.5zM514 -4q0 35 23 63l34 41q29 35 74 35q39 0 67.5 -28.5t28.5 -67.5q0 -35 -22 -62l-35 -43q-25 -33 -74 -32q-39 0 -67.5 27.5t-28.5 66.5 zM883 -4q0 35 22 63l35 41q29 35 74 35q39 0 67.5 -28.5t28.5 -67.5q0 -35 -23 -62l-34 -43q-25 -33 -74 -32q-39 0 -67.5 27.5t-28.5 66.5z" />
<glyph horiz-adv-x="1107" d="M156 807q0 39 28.5 64.5t67.5 19.5l219 -35v268q0 35 24.5 59.5t59.5 24.5t59.5 -24.5t24.5 -59.5v-268l217 35q39 6 67.5 -19.5t28.5 -64.5q0 -31 -19.5 -54.5t-51.5 -27.5l-242 -37v-717q0 -33 -24.5 -58.5t-59.5 -25.5t-59.5 25t-24.5 59v715l-244 39q-33 4 -52 27.5 t-19 54.5z" />
<glyph horiz-adv-x="1107" d="M156 289q0 31 19.5 54.5t51.5 27.5l244 39v276l-244 39q-33 4 -52 27.5t-19 54.5q0 39 28.5 64.5t67.5 19.5l219 -35v268q0 35 24.5 59.5t59.5 24.5t59.5 -24.5t24.5 -59.5v-268l217 35q39 6 67.5 -19.5t28.5 -64.5q0 -31 -19.5 -54.5t-51.5 -27.5l-242 -37v-280l242 -37 q33 -4 52 -28t19 -54q0 -39 -28.5 -64.5t-67.5 -19.5l-217 35v-269q0 -33 -24.5 -58.5t-59.5 -25.5t-59.5 25t-24.5 59v269l-219 -35q-39 -6 -67.5 19.5t-28.5 64.5z" />
<glyph horiz-adv-x="716" d="M3 1137.5q9 33.5 38 52.5l270 168q45 27 88 0l277 -166q29 -18 38 -52t-9 -65q-16 -29 -52.5 -38t-64.5 10l-232 141l-229 -141q-29 -18 -62.5 -9t-52 37.5t-9.5 62z" />
<glyph horiz-adv-x="2506" d="M104 750q0 113 81 192.5t194 79.5t192.5 -80t79.5 -192.5t-79.5 -193.5t-192.5 -81t-194 80t-81 195zM254 750q0 -53 37 -89t88 -36t87 36.5t36 88t-36 87t-87 35.5t-88 -35.5t-37 -86.5zM401 -158q0 27 13 43l770 1254q25 41 71 41q35 0 59.5 -25t24.5 -59 q0 -27 -12 -45l-772 -1254q-23 -39 -70 -39q-35 0 -59.5 24.5t-24.5 59.5zM1081 190.5q0 112.5 80 192.5t192.5 80t193.5 -80t81 -192.5t-81 -193.5t-193.5 -81t-192.5 81t-80 193.5zM1231 190.5q0 -51.5 36 -88t87 -36.5t88 36.5t37 88t-37 87t-88 35.5t-87 -35.5t-36 -87z M1815 190.5q0 112.5 79.5 192.5t192.5 80t193.5 -80t80.5 -192.5t-80.5 -193.5t-193.5 -81t-192.5 81t-79.5 193.5zM1964 190.5q0 -51.5 36 -88t87 -36.5t88 36.5t37 88t-37 87t-88 35.5t-87 -35.5t-36 -87z" />
<glyph horiz-adv-x="966" d="M123 754q0 152 104.5 238.5t259.5 86.5q164 0 279 -39q63 -20 59 -84l-4 -73q-2 -33 -26.5 -56.5t-59.5 -21.5q-37 2 -60.5 27.5t-21.5 62.5q-86 16 -164 16q-86 0 -142 -38.5t-56 -118.5q0 -61 21.5 -86t84.5 -52l234 -94q45 -18 75.5 -35.5t65.5 -50.5t53.5 -85 t18.5 -122q0 -152 -105.5 -239.5t-259.5 -87.5q-162 0 -276 39q-61 20 -58 84l5 71q2 35 27.5 58.5t58.5 21.5q35 -2 59 -28.5t22 -61.5q68 -16 160 -16q84 0 141.5 40t57.5 119q0 61 -21.5 86t-85.5 52l-233 94q-45 18 -75 35.5t-65.5 50.5t-54 85t-18.5 122zM201 1481 q2 35 28.5 57.5t61.5 20t57 -28.5l164 -189l162 187q23 27 56.5 30t60 -19.5t29.5 -57.5t-19 -62l-223 -262q-25 -29 -64 -29t-63 29l-230 262q-22 27 -20 62z" />
<glyph horiz-adv-x="782" d="M125 393q0 39 29 64l344 299q23 20 55 20q35 0 59.5 -24.5t24.5 -59.5q0 -39 -29 -63l-272 -236l272 -237q29 -25 29 -62q0 -35 -24.5 -59.5t-59.5 -24.5q-33 0 -55 21l-344 299q-29 24 -29 63z" />
<glyph horiz-adv-x="1644" d="M84 494q0 248 156.5 416.5t402.5 168.5q127 0 244 -53q25 39 67 39h473q35 0 60.5 -24.5t25.5 -59.5v-72q0 -35 -24.5 -59.5t-58.5 -24.5q-31 0 -55.5 20.5t-28.5 51.5h-308v-317h367q35 0 60.5 -25t25.5 -59.5t-24.5 -59t-59.5 -24.5h-369v-328h394q35 0 60.5 -24.5 t25.5 -59.5t-25 -59.5t-59 -24.5h-478q-45 0 -69 41q-117 -55 -246 -55q-236 0 -396.5 170t-160.5 422zM252 494q0 -180 111.5 -302t275.5 -122q129 0 231 73l2 699q-106 70 -227 69q-176 0 -284.5 -119.5t-108.5 -297.5z" />
<glyph horiz-adv-x="1134" d="M143 -2v68q0 29 17 51l618 784h-467q-4 -31 -26.5 -51.5t-55.5 -20.5q-35 0 -59.5 25t-24.5 57v72q0 33 24 57.5t58 24.5h662q33 0 57.5 -24.5t24.5 -57.5v-72q0 -27 -17 -49l-614 -782h487q2 31 26 51.5t54 20.5q35 0 59.5 -25t24.5 -57v-72q0 -35 -24.5 -58.5 t-57.5 -23.5h-682q-35 0 -59.5 24.5t-24.5 57.5zM264 1481q2 35 28.5 57.5t61.5 20t58 -28.5l163 -189l162 187q23 27 56.5 30t60.5 -19.5t30 -57.5t-20 -62l-223 -262q-25 -29 -63.5 -29t-63.5 29l-229 262q-23 27 -21 62z" />
<glyph horiz-adv-x="589" d="M100 1038q0 20 15 45l174 271q27 39 71 39q33 0 58.5 -25t25.5 -59q0 -27 -14 -47l-131 -201l53 -37q35 -23 35 -70q0 -35 -24.5 -59.5t-59.5 -24.5q-23 0 -47 15l-119 84q-37 26 -37 69z" />
<glyph horiz-adv-x="593" d="M145 793q0 27 15 47l131 200l-53 37q-37 25 -37 70q0 33 24.5 58.5t59.5 25.5q23 0 47 -14l121 -84q37 -27 36 -70q0 -20 -14 -45l-176 -270q-27 -39 -70 -39q-35 0 -59.5 24.5t-24.5 59.5z" />
<glyph horiz-adv-x="1015" d="M100 1038q0 20 15 45l174 271q27 39 71 39q33 0 58.5 -25t25.5 -59q0 -27 -14 -47l-131 -201l53 -37q35 -23 35 -70q0 -35 -24.5 -59.5t-59.5 -24.5q-23 0 -47 15l-119 84q-37 26 -37 69zM529.5 1021q-7.5 34 11.5 62l176 271q27 39 69 39q35 0 59.5 -25t24.5 -59 q0 -31 -12 -47l-131 -201l51 -37q37 -25 37 -70q0 -35 -24.5 -59.5t-59.5 -24.5q-23 0 -47 15l-121 84q-26 18 -33.5 52z" />
<glyph horiz-adv-x="1011" d="M145 793q0 27 15 47l131 200l-53 37q-37 25 -37 70q0 33 24.5 58.5t59.5 25.5q23 0 47 -14l121 -84q29 -18 35 -52t-13 -63l-176 -270q-27 -39 -70 -39q-35 0 -59.5 24.5t-24.5 59.5zM573 793q0 27 13 47l131 200l-53 37q-35 25 -35 70q0 35 24.5 59.5t59.5 24.5 q23 0 47 -14l119 -84q37 -25 36 -70q0 -23 -12 -45l-176 -270q-27 -39 -72 -39q-33 0 -57.5 24.5t-24.5 59.5z" />
<glyph horiz-adv-x="743" d="M145 424q0 94 65.5 159.5t160 65.5t161 -65.5t66.5 -159.5t-66.5 -160.5t-160.5 -66.5q-92 0 -159 66.5t-67 160.5z" />
<glyph horiz-adv-x="1255" d="M217 422q0 35 24.5 59.5t59.5 24.5h653q35 0 59.5 -24.5t24.5 -59.5t-24.5 -59.5t-59.5 -24.5h-653q-35 0 -59.5 24.5t-24.5 59.5z" />
<glyph horiz-adv-x="1910" d="M217 422q0 35 24.5 59.5t59.5 24.5h1309q35 0 59.5 -24.5t24.5 -59.5q0 -33 -26 -58.5t-58 -25.5h-1309q-35 0 -59.5 24.5t-24.5 59.5z" />
<glyph horiz-adv-x="700" d="M23.5 1086.5q-11.5 33.5 5.5 64.5l86 168q18 31 49 41q37 12 65 -4l267 -142l47 93q16 31 49 41t63 -5q31 -16 42.5 -48.5t-5.5 -63.5l-86 -168q-16 -31 -49 -41q-33 -12 -65 4l-267 141l-45 -92q-14 -31 -48 -42t-66 5q-31 15 -42.5 48.5z" />
<glyph horiz-adv-x="1835" d="M125 864q0 31 22.5 53.5t53.5 22.5h442q33 0 54.5 -22.5t21.5 -53.5q0 -33 -21.5 -55.5t-54.5 -22.5h-145v-426q0 -33 -21.5 -55t-54.5 -22q-31 0 -53.5 22.5t-22.5 54.5v426h-145q-31 0 -53.5 22.5t-22.5 55.5zM829 375l93 504q4 27 25.5 44t47.5 17q47 0 68 -43 l156 -315l153 315q20 43 68 43q27 0 49 -17.5t27 -43.5q10 -57 26.5 -130t27.5 -124.5t22.5 -109.5t13.5 -96t-2.5 -71t-21.5 -49t-48 -16q-29 0 -50.5 18t-25.5 45l-51 279l-121 -250q-20 -43 -67.5 -43t-67.5 43l-123 248l-51 -277q-4 -29 -25.5 -46t-48.5 -17 q-35 0 -57.5 28.5t-16.5 63.5z" />
<glyph horiz-adv-x="927" d="M139 621q0 137 94.5 212.5t237.5 75.5q147 0 248 -32q45 -16 52 -64.5t-3 -87.5q-2 -31 -25.5 -51.5t-54.5 -20.5q-35 0 -57.5 23.5t-22.5 64.5q-68 10 -137 11q-174 0 -174 -131q0 -51 12.5 -65.5t69.5 -35.5l229 -82q86 -31 123 -67q61 -61 62 -178q0 -137 -94.5 -214 t-237.5 -77q-139 0 -240 32q-61 23 -55 80l6 72q4 31 25.5 51.5t52.5 20.5q35 0 57.5 -23.5t22.5 -64.5q51 -10 131 -11q172 0 172 134q0 61 -27 75q-16 8 -53 21l-227 84q-90 33 -125 67q-62 62 -62 181zM162 1313q2 35 28.5 57.5t61.5 20.5t57 -29l164 -188l162 186 q23 27 56.5 30t60 -19.5t29.5 -57.5t-19 -62l-223 -262q-25 -29 -64 -28.5t-63 28.5l-230 262q-22 27 -20 62z" />
<glyph horiz-adv-x="782" d="M145 94q0 37 29 62l272 237l-272 236q-29 25 -29 63q0 35 25 59.5t59 24.5q33 0 56 -20l344 -299q29 -25 28.5 -64t-28.5 -63l-344 -299q-23 -20 -56 -21q-35 0 -59.5 24.5t-24.5 59.5z" />
<glyph horiz-adv-x="1462" d="M106 403q0 217 139.5 361.5t354.5 144.5q94 0 203 -39q25 25 59 25h412q35 0 60.5 -24.5t25.5 -59.5v-72q0 -35 -24.5 -59.5t-59.5 -24.5q-31 0 -54.5 21.5t-27.5 50.5h-248v-233h307q35 0 60.5 -25t25.5 -59q0 -33 -24.5 -58.5t-59.5 -25.5h-309v-242h326 q35 0 60.5 -24.5t25.5 -59.5t-24.5 -59.5t-59.5 -24.5h-410q-35 0 -61 27q-111 -41 -209 -41q-205 0 -346.5 145t-141.5 356zM274 403q0 -139 92.5 -236t225.5 -97q92 0 186 47l2 581q-100 43 -178 43q-145 0 -236.5 -96.5t-91.5 -241.5z" />
<glyph horiz-adv-x="1034" d="M139 -6v55q0 23 19 49l518 639h-373q-14 -72 -80 -71q-33 0 -57.5 22.5t-24.5 54.5v74q0 33 23.5 55.5t56.5 22.5h576q33 0 56.5 -22.5t23.5 -55.5v-55q0 -27 -17 -49l-520 -639h395q4 33 26.5 53t51.5 20q33 0 57.5 -23.5t24.5 -55.5v-74q0 -33 -23.5 -55.5t-56.5 -22.5 h-594q-35 0 -58.5 22.5t-23.5 55.5zM215 1313q2 35 28.5 57.5t61.5 20.5t57 -29l164 -188l162 186q23 27 56.5 30t60 -19.5t30 -57.5t-19.5 -62l-223 -262q-25 -29 -64 -28.5t-63 28.5l-229 262q-23 27 -21 62z" />
<glyph d="M31 981q0 35 24.5 59.5t59.5 24.5q43 0 67 -37l305 -442l312 444q25 35 69 35q35 0 60.5 -24.5t25.5 -59.5q0 -23 -16 -49l-367 -520v-412q0 -35 -24.5 -59.5t-59 -24.5t-59.5 24.5t-25 59.5v412l-356 522q-16 22 -16 47zM178 1311q-4 39 23 69l35 41q27 31 65.5 35 t69.5 -22q31 -25 35 -65t-23 -71l-35 -41q-27 -31 -65.5 -34.5t-69.5 23t-35 65.5zM614 1311q-4 39 23 69l35 41q27 31 66.5 35t70.5 -22q29 -25 33 -65t-23 -71l-35 -41q-27 -31 -65.5 -34.5t-69.5 23t-35 65.5z" />
<glyph unicode="&#xa1;" horiz-adv-x="618" d="M168 778q0 29 18 53l43 52q25 29 64 28q35 0 60.5 -24.5t25.5 -59.5q0 -33 -19 -53l-43 -51q-27 -31 -65 -31q-35 0 -59.5 25.5t-24.5 60.5zM188 -70v525q0 35 25 59.5t59.5 24.5t59 -25t24.5 -59v-441q31 -4 52.5 -27.5t21.5 -56.5q0 -35 -24.5 -59.5t-59.5 -24.5h-72 q-35 0 -60.5 24.5t-25.5 59.5z" />
<glyph unicode="&#xa2;" horiz-adv-x="956" d="M125 401q0 152 84 265.5t223 154.5l2 242q0 35 24.5 59.5t59.5 24.5t59.5 -24.5t24.5 -59.5l-2 -225q33 0 72 -4.5t61 -8.5l25 -4q31 -6 50 -29.5t19 -54.5q0 -39 -29.5 -62.5t-68.5 -19.5q-92 16 -160 17q-123 0 -199.5 -75t-76.5 -196q0 -129 67.5 -205.5t192.5 -76.5 q23 0 48.5 3t46 7t36.5 8t27 6l10 4q39 14 74.5 -12t35.5 -67q0 -59 -57 -80q-47 -23 -174 -35v-189q0 -35 -24.5 -59t-59.5 -24q-33 0 -58.5 24.5t-25.5 58.5v201q-147 39 -227 157.5t-80 278.5z" />
<glyph unicode="&#xa3;" horiz-adv-x="1298" d="M197 467q0 35 24.5 59.5t59.5 24.5h129q-88 98 -88 242q0 152 100 256t252 104q37 0 92 -3t94 -5t41 -4q37 -2 58.5 -28t19.5 -60l-4 -72q-2 -33 -25.5 -56.5t-58.5 -23.5q-33 0 -56.5 21.5t-27.5 56.5q-66 6 -133 6q-84 0 -134.5 -54t-50.5 -138q0 -92 62 -146 q29 -25 29 -63v-33h237q35 0 59.5 -24.5t24.5 -59.5t-24.5 -59.5t-59.5 -24.5h-237v-299h354q4 31 27.5 51.5t56.5 20.5q35 0 59.5 -25t24.5 -59v-72q0 -35 -24.5 -59.5t-59.5 -24.5h-694q-35 0 -59.5 24.5t-24.5 59.5q0 33 25.5 58.5t58.5 25.5h88v299h-131 q-35 0 -59.5 24.5t-24.5 59.5z" />
<glyph unicode="&#xa4;" horiz-adv-x="1021" d="M31 98.5q0 32.5 24 57.5l115 114q-66 98 -66 226q0 119 70 225l-113 113q-23 23 -22.5 57.5t24 58t56.5 23.5t57 -25l113 -114q106 70 225 69q125 0 225 -69l115 114q25 25 57.5 25t56 -23.5t23.5 -58.5t-22 -57l-115 -115q66 -100 66 -221q0 -123 -72 -230l113 -112 q25 -25 24.5 -57.5t-24 -56.5t-58.5 -24q-31 0 -57 23l-113 115q-100 -68 -225 -68q-123 0 -225 68l-115 -115q-20 -23 -55 -23t-58.5 24t-23.5 56.5zM266 492q0 -100 71 -171t171 -71q102 0 176 72.5t74 175.5q0 100 -72 171.5t-172 71.5q-102 0 -175 -73.5t-73 -175.5z " />
<glyph unicode="&#xa5;" horiz-adv-x="1341" d="M207 938q0 35 24.5 59.5t59.5 24.5q43 0 69 -39l293 -442l330 446q25 35 68 35q35 0 59.5 -24.5t24.5 -59.5q0 -27 -17 -49l-383 -522v-146h217q35 0 59.5 -24.5t24.5 -59.5t-24.5 -59.5t-59.5 -24.5h-217v-172q0 -35 -24.5 -59.5t-59.5 -24.5t-59.5 24.5t-24.5 59.5v172 h-223q-35 0 -59.5 24.5t-24.5 59.5t24.5 59.5t59.5 24.5h223v146l-346 524q-14 20 -14 47z" />
<glyph unicode="&#xa6;" horiz-adv-x="561" d="M197 -184v448q0 35 24.5 59.5t59 24.5t59.5 -24.5t25 -59.5v-448q0 -35 -25 -59.5t-59.5 -24.5t-59 24.5t-24.5 59.5zM197 696v449q0 35 24.5 59.5t59 24.5t59.5 -24.5t25 -59.5v-449q0 -35 -25 -59.5t-59.5 -24.5t-59 24.5t-24.5 59.5z" />
<glyph unicode="&#xa7;" horiz-adv-x="1218" d="M176 743q0 219 137.5 351.5t358.5 132.5q100 0 233 -29q31 -8 49.5 -32.5t16.5 -55.5l-4 -72q-2 -33 -27 -55t-57 -22q-37 2 -60.5 24.5t-23.5 58.5v3q-66 12 -129 12q-113 0 -176 -37l378 -481q170 -213 170 -422q0 -219 -137 -351.5t-358 -132.5q-102 0 -232 29 q-31 8 -49 32.5t-16 55.5l6 72q2 33 25.5 55.5t56.5 22.5q37 -2 60.5 -24.5t23.5 -59.5v-2q86 -12 127 -13q106 0 178 37l-381 482q-170 212 -170 421zM330 743q0 -150 137 -325l377 -477q45 96 45 178q0 154 -137 325l-377 478q-45 -97 -45 -179z" />
<glyph unicode="&#xa8;" horiz-adv-x="663" d="M0 1143q-4 39 23 69l34 41q27 31 66 35t70 -22q31 -25 34.5 -65t-22.5 -71l-35 -40q-27 -31 -65.5 -35t-69.5 22.5t-35 65.5zM436 1143q-4 39 23 69l35 41q27 31 66.5 35t70.5 -22q29 -25 33 -65t-23 -71l-35 -40q-27 -31 -65.5 -35t-69.5 22.5t-35 65.5z" />
<glyph unicode="&#xa9;" horiz-adv-x="1619" d="M125 399q0 285 200.5 485.5t483.5 200.5q285 0 485.5 -200.5t200.5 -485.5q0 -283 -200.5 -483.5t-485.5 -200.5q-283 0 -483.5 200.5t-200.5 483.5zM293 399q0 -213 151.5 -364.5t364.5 -151.5q215 0 366.5 151.5t151.5 364.5t-152.5 366t-365.5 153t-364.5 -152 t-151.5 -367zM492 397q2 143 99 242.5t240 99.5q74 0 121 -18q53 -23 54 -78q0 -45 -36 -70.5t-77 -9.5q-23 8 -62 8q-74 0 -121.5 -50t-50.5 -124q0 -68 42 -114.5t108 -46.5q41 0 80 22q41 27 85 3.5t44 -73.5q0 -45 -39 -71q-78 -49 -170 -49q-137 0 -227 96t-90 233z " />
<glyph unicode="&#xaa;" horiz-adv-x="1030" d="M150 299q0 16 6 31l262 624q20 51 78 52h41q55 0 75 -52l273 -622q6 -18 6 -33q0 -35 -24.5 -59.5t-59.5 -24.5q-53 0 -76 49l-51 115h-322l-47 -113q-23 -51 -78 -51q-35 0 -59 25.5t-24 58.5zM186 -43q0 33 23 61l35 41q29 35 73 35q39 0 68 -28.5t29 -67.5 q0 -33 -23 -61l-35 -41q-31 -35 -73 -35q-41 0 -69 28.5t-28 67.5zM399 526h240l-123 281zM616 -43q0 33 23 61l35 41q29 35 74 35q39 0 67.5 -28.5t28.5 -67.5q0 -33 -23 -61l-35 -41q-31 -35 -73 -35q-41 0 -69 28.5t-28 67.5z" />
<glyph unicode="&#xab;" horiz-adv-x="1316" d="M125 393q0 39 29 64l344 299q23 20 55 20q35 0 59.5 -24.5t24.5 -59.5q0 -39 -29 -63l-272 -236l272 -237q29 -25 29 -62q0 -35 -24.5 -59.5t-59.5 -24.5q-33 0 -55 21l-344 299q-29 24 -29 63zM659 393q0 39 29 64l344 299q23 20 55 20q35 0 59.5 -24.5t24.5 -59.5 q0 -41 -28 -63l-271 -236l271 -237q29 -23 28 -62q0 -35 -24.5 -59.5t-59.5 -24.5q-33 0 -55 21l-344 299q-29 24 -29 63z" />
<glyph unicode="&#xac;" horiz-adv-x="1208" d="M231 393q0 35 25 59.5t59 24.5h586q35 0 54.5 -23.5t19.5 -60.5v-278q0 -35 -19.5 -59.5t-54.5 -24.5t-54.5 24.5t-19.5 59.5v194h-512q-35 0 -59.5 24.5t-24.5 59.5z" />
<glyph unicode="&#xad;" horiz-adv-x="868" d="M158 469q10 53 69 63l303 48q55 6 84 -35l31 -45q23 -31 17 -68q-6 -33 -36 -53.5t-65 -12t-51 32.5l-4 7l-254 -37q-45 -6 -73.5 25.5t-20.5 74.5z" />
<glyph unicode="&#xae;" horiz-adv-x="1619" d="M125 399q0 285 200.5 485.5t483.5 200.5q285 0 485.5 -200.5t200.5 -485.5q0 -283 -200.5 -483.5t-485.5 -200.5q-283 0 -483.5 200.5t-200.5 483.5zM293 399q0 -213 151.5 -364.5t364.5 -151.5q215 0 366.5 151.5t151.5 364.5t-152.5 366t-365.5 153t-364.5 -152 t-151.5 -367zM559 135v535q0 31 24.5 54.5t55.5 23.5h197q88 0 168.5 -66t80.5 -180q0 -129 -114 -209l82 -115q14 -23 14 -43q0 -33 -22.5 -55.5t-55.5 -22.5q-41 0 -63 33l-117 162h-94v-117q0 -33 -22.5 -55.5t-55.5 -22.5t-55.5 22.5t-22.5 55.5zM715 406h119 q39 0 67.5 28.5t28.5 67.5q0 49 -35 70.5t-59 21.5h-121v-188z" />
<glyph unicode="&#xaf;" horiz-adv-x="657" d="M0 1194q0 35 24.5 59.5t59.5 24.5h489q35 0 59.5 -24.5t24.5 -59.5t-24.5 -59.5t-59.5 -24.5h-489q-35 0 -59.5 24.5t-24.5 59.5z" />
<glyph unicode="&#xb0;" horiz-adv-x="796" d="M125 1050.5q0 112.5 80 192.5t192.5 80t193.5 -80t81 -192.5t-80 -193.5t-195 -81q-113 0 -192.5 81t-79.5 193.5zM274 1050.5q0 -51.5 36 -88t87 -36.5q53 0 89 36.5t36 88t-36.5 87.5t-88 36t-87.5 -36t-36 -87.5z" />
<glyph unicode="&#xb1;" horiz-adv-x="1302" d="M238 561q0 35 24.5 59.5t59.5 24.5h245v268q0 35 24.5 59.5t59.5 24.5t59.5 -24.5t24.5 -59.5v-268h246q35 0 59.5 -24.5t24.5 -59.5t-24.5 -59.5t-59.5 -24.5h-246v-258q0 -35 -24.5 -59.5t-59.5 -24.5t-59.5 24.5t-24.5 59.5v258h-245q-35 0 -59.5 24.5t-24.5 59.5z M274 -92q0 35 25 59.5t59 24.5h586q35 0 59.5 -24.5t24.5 -59.5t-24.5 -59.5t-59.5 -24.5h-586q-35 0 -59.5 24.5t-24.5 59.5z" />
<glyph unicode="&#xb2;" horiz-adv-x="829" d="M111 487q-16 346 221 414l147 41q74 20 74 105q0 47 -42 71.5t-91 24.5q-41 0 -99.5 -10.5t-76.5 -20.5q-43 -23 -83 2t-40 72q0 51 43 74q37 20 117.5 35.5t138.5 15.5q121 0 211 -73t90 -191q0 -100 -52.5 -170t-144.5 -97l-147 -41q-86 -25 -98 -164h358 q35 0 59.5 -24.5t24.5 -59t-24.5 -59t-59.5 -24.5h-444q-33 0 -56.5 22t-25.5 57z" />
<glyph unicode="&#xb3;" horiz-adv-x="829" d="M100 420q0 41 34 66.5t73 15.5q96 -27 143 -27q63 0 118.5 30t55.5 95q0 63 -47 98t-108 35q-35 0 -59.5 24.5t-24.5 59.5t24.5 59.5t59.5 24.5q61 0 99 32t38 93q0 47 -28.5 75.5t-55.5 35t-57 6.5q-51 0 -156 -23q-39 -8 -69.5 17.5t-30.5 66.5q0 29 18 52.5t49 29.5 q135 25 189 25q137 0 223 -80t86 -205q0 -123 -82 -205q100 -86 100 -221t-100 -214t-242 -79q-90 0 -188 33q-62 17 -62 80z" />
<glyph unicode="&#xb4;" horiz-adv-x="675" d="M169 1121.5q11 31.5 42 47.5l344 168q33 14 64.5 3t48.5 -44q14 -31 2.5 -62.5t-41.5 -47.5l-344 -166q-33 -16 -66 -5t-47 44q-14 31 -3 62.5z" />
<glyph unicode="&#xb5;" horiz-adv-x="1228" d="M188 -504v1290q0 35 25 59.5t59.5 24.5t59 -24.5t24.5 -59.5v-575q0 -141 244 -141q133 0 240 106v610q0 35 24.5 59.5t59 24.5t59.5 -24.5t25 -59.5v-704q31 -4 51 -26.5t20 -55.5q0 -35 -24.5 -59.5t-59.5 -24.5h-71q-61 0 -78 55q-121 -70 -246 -69q-143 0 -244 45 v-367q31 -4 51.5 -27.5t20.5 -56.5q0 -35 -24.5 -59.5t-59.5 -24.5h-72q-35 0 -59.5 25.5t-24.5 58.5z" />
<glyph unicode="&#xb6;" horiz-adv-x="1105" d="M84 713q0 193 127 305t321 110l365 -2q35 0 59.5 -24.5t24.5 -59.5q0 -31 -20.5 -54t-51.5 -27v-947q0 -131 -101 -224t-235 -93q-74 0 -182 43q-51 18 -51 78q0 45 37 69.5t78 8.5q72 -31 118 -31q66 0 117 45t51 104v293l-221 -20q-176 -16 -306 116t-130 310z" />
<glyph unicode="&#xb7;" horiz-adv-x="620" d="M197 397q0 35 22 64l35 41q29 35 74 35q41 0 68.5 -29t27.5 -68q0 -35 -23 -61l-34 -43q-25 -33 -74 -33q-39 0 -67.5 27.5t-28.5 66.5z" />
<glyph unicode="&#xb8;" horiz-adv-x="430" d="M67.5 -465q-12.5 33 1 65.5t46.5 45.5l133 53l-68 266q-8 33 9.5 63.5t52.5 39.5q33 8 63.5 -9.5t38.5 -52.5l84 -338q8 -29 -7 -57.5t-44 -40.5l-201 -80q-33 -12 -64.5 0t-44 45z" />
<glyph unicode="&#xb9;" horiz-adv-x="829" d="M88 1178q0 31 20.5 55t51.5 29l258 36q39 6 67.5 -18.5t28.5 -62.5v-642h109q35 0 59.5 -24.5t24.5 -59t-25 -59t-59 -24.5h-387q-35 0 -59.5 24.5t-24.5 59t24.5 59t59.5 24.5h110v543l-162 -22q-39 -4 -67.5 19.5t-28.5 62.5z" />
<glyph unicode="&#xba;" horiz-adv-x="1150" d="M156 610q0 168 115.5 289t285.5 121q168 0 284.5 -118t116.5 -288t-115.5 -290.5t-285.5 -120.5t-285.5 117.5t-115.5 289.5zM227 -43q0 33 23 61l35 41q29 35 73 35q39 0 68 -28.5t29 -67.5q0 -33 -23 -61l-35 -41q-31 -35 -73 -35q-41 0 -69 28.5t-28 67.5zM324 610.5 q0 -100.5 67.5 -170t165.5 -69.5q100 0 167 71.5t67 172t-68 169t-166 68.5q-100 0 -166.5 -70.5t-66.5 -171zM657 -43q0 33 23 61l35 41q29 35 73 35q39 0 68 -28.5t29 -67.5q0 -33 -23 -61l-35 -41q-31 -35 -73 -35q-41 0 -69 28.5t-28 67.5z" />
<glyph unicode="&#xbb;" horiz-adv-x="1320" d="M145 94q0 37 29 62l272 237l-272 236q-29 25 -29 63q0 35 25 59.5t59 24.5q33 0 56 -20l344 -299q29 -25 28.5 -64t-28.5 -63l-344 -299q-23 -20 -56 -21q-35 0 -59.5 24.5t-24.5 59.5zM684 94q0 37 29 62l272 237l-272 236q-29 25 -29 63q0 35 24.5 59.5t59.5 24.5 q33 0 55 -20l344 -299q29 -25 29 -64t-29 -63l-344 -299q-23 -20 -55 -21q-35 0 -59.5 24.5t-24.5 59.5z" />
<glyph unicode="&#xbc;" horiz-adv-x="2197" d="M88 1178q0 31 20.5 55t51.5 29l258 36q39 6 67.5 -18.5t28.5 -62.5v-642h109q35 0 60.5 -24.5t25.5 -59t-25 -59t-59 -24.5h-387q-35 0 -60.5 24.5t-25.5 59t24.5 59t59.5 24.5h112v543l-162 -22q-39 -4 -68.5 19.5t-29.5 62.5zM784 -133l576 1294q23 49 78 49 q45 0 69.5 -37.5t5.5 -78.5l-577 -1297q-23 -49 -76 -49q-45 0 -69.5 39t-6.5 80zM1366 -281l217 615q20 55 78 55q43 0 68.5 -35t11.5 -75l-176 -504h247v227q0 35 25 60.5t59.5 25.5t59 -24.5t24.5 -59.5v-229h31q35 0 59.5 -24.5t24.5 -59.5t-24.5 -59.5t-59.5 -24.5h-31 v-135q0 -35 -24.5 -59.5t-59 -24.5t-59.5 24.5t-25 59.5v135h-366q-43 0 -68.5 35.5t-11.5 76.5z" />
<glyph unicode="&#xbd;" horiz-adv-x="2177" d="M88 1178q0 31 20.5 55t51.5 29l258 36q39 6 67.5 -18.5t28.5 -62.5v-642h109q35 0 60.5 -24.5t25.5 -59t-25 -59t-59 -24.5h-387q-35 0 -60.5 24.5t-25.5 59t24.5 59t59.5 24.5h112v543l-162 -22q-39 -4 -68.5 19.5t-29.5 62.5zM657 -158q0 27 13 43l770 1254 q25 41 71 41q35 0 59.5 -25t24.5 -59q0 -23 -12 -45l-772 -1254q-23 -39 -70 -39q-35 0 -59.5 24.5t-24.5 59.5zM1464 -459q-16 346 222 414l147 41q74 20 74 104q0 47 -42 72t-91 25q-41 0 -99.5 -10.5t-77.5 -20.5q-43 -23 -82.5 2t-39.5 72q0 49 43 73q37 18 118.5 35 t137.5 17q121 0 211 -73t90 -192q0 -100 -52.5 -169.5t-144.5 -96.5l-147 -41q-86 -25 -99 -164h359q35 0 59.5 -24.5t24.5 -59t-25 -59.5t-59 -25h-445q-33 0 -56.5 22.5t-25.5 57.5z" />
<glyph unicode="&#xbe;" horiz-adv-x="2177" d="M102 420q0 41 33 66.5t74 15.5q96 -27 143 -27q63 0 118.5 30t55.5 95q0 63 -47 98t-108 35q-35 0 -59.5 24.5t-24.5 59.5t24.5 59.5t59.5 24.5q61 0 99 32t38 93q0 47 -28.5 75.5t-55.5 35t-57 6.5q-51 0 -156 -23q-39 -8 -69.5 17.5t-30.5 66.5q0 29 18 52.5t49 29.5 q135 25 189 25q137 0 223 -80t86 -205q0 -123 -82 -205q100 -86 100 -221t-100 -214t-242 -79q-90 0 -188 33q-62 17 -62 80zM764 -133l575 1294q23 49 78 49q45 0 69.5 -37.5t6.5 -78.5l-578 -1297q-23 -49 -75 -49q-45 0 -69.5 39t-6.5 80zM1346 -281l217 615q20 55 77 55 q43 0 69 -35t11 -75l-176 -504h248v227q0 35 24.5 60.5t59.5 25.5t59.5 -24.5t24.5 -59.5v-229h31q35 0 59.5 -24.5t24.5 -59.5t-25 -59.5t-59 -24.5h-31v-135q0 -35 -24.5 -59.5t-59.5 -24.5t-59.5 24.5t-24.5 59.5v135h-367q-43 0 -68 35.5t-11 76.5z" />
<glyph unicode="&#xbf;" horiz-adv-x="763" d="M86 125q0 113 58.5 172t158.5 100v60q0 35 24.5 59.5t59.5 24.5t59.5 -24.5t24.5 -59.5v-33q27 -8 46.5 -29.5t19.5 -50.5q0 -35 -24 -60.5t-58 -25.5h-47q-94 -37 -124 -61.5t-30 -71.5q0 -68 47 -101.5t100 -33.5q39 0 73 5t48 9l15 6q41 18 80.5 -7.5t39.5 -70.5 q0 -51 -49 -75q-88 -35 -205 -35q-125 0 -221 84t-96 219zM283 776q0 35 18 55l43 50q27 31 66 30q35 0 60.5 -24.5t25.5 -59.5q0 -27 -21 -53l-43 -51q-27 -31 -63 -31q-35 0 -60.5 24.5t-25.5 59.5z" />
<glyph unicode="&#xc0;" horiz-adv-x="1153" d="M82 -2q0 12 2 18q8 29 10 35l367 961q20 53 78 53h57q57 0 78 -53l393 -996h-2q4 -8 4 -22q0 -31 -25.5 -53.5t-58.5 -22.5q-59 0 -78 51l-90 230h-485l-86 -228q-23 -53 -80 -53q-35 0 -59.5 23.5t-24.5 56.5zM142.5 1426.5q-11.5 31.5 2.5 62.5q16 33 48 44t65 -3 l348 -168q31 -16 42 -48t-3 -63q-16 -33 -48 -44t-65 3l-348 168q-30 17 -41.5 48.5zM375 352h393l-199 510z" />
<glyph unicode="&#xc1;" horiz-adv-x="1153" d="M82 -2q0 12 2 18q8 29 10 35l367 961q20 53 78 53h57q57 0 78 -53l393 -996h-2q4 -8 4 -22q0 -31 -25.5 -53.5t-58.5 -22.5q-59 0 -78 51l-90 230h-485l-86 -228q-23 -53 -80 -53q-35 0 -59.5 23.5t-24.5 56.5zM375 352h393l-199 510zM515 1289q11 32 42 48l344 168 q33 14 64.5 3t48.5 -44q14 -31 3 -62.5t-42 -47.5l-344 -166q-33 -16 -66 -5t-47 44q-14 30 -3 62z" />
<glyph unicode="&#xc2;" horiz-adv-x="1153" d="M82 -2q0 12 2 18q8 29 10 35l367 961q20 53 78 53h57q57 0 78 -53l393 -996h-2q4 -8 4 -22q0 -31 -25.5 -53.5t-58.5 -22.5q-59 0 -78 51l-90 230h-485l-86 -228q-23 -53 -80 -53q-35 0 -59.5 23.5t-24.5 56.5zM222 1305.5q9 33.5 38 52.5l270 168q43 27 88 0l277 -166 q29 -18 38 -52t-9 -65q-16 -29 -52 -38t-65 9l-232 142l-229 -142q-29 -18 -62.5 -9t-52 38t-9.5 62.5zM375 352h393l-199 510z" />
<glyph unicode="&#xc3;" horiz-adv-x="1153" d="M82 -2q0 12 2 18q8 29 10 35l367 961q20 53 78 53h57q57 0 78 -53l393 -996h-2q4 -8 4 -22q0 -31 -25.5 -53.5t-58.5 -22.5q-59 0 -78 51l-90 230h-485l-86 -228q-23 -53 -80 -53q-35 0 -59.5 23.5t-24.5 56.5zM269.5 1254.5q-11.5 33.5 4.5 64.5l86 168q14 29 50 41 q37 12 65 -4l266 -142l47 93q14 31 48 42t65 -6q31 -14 42 -47.5t-5 -64.5l-86 -168q-16 -31 -49 -41q-33 -12 -66 4l-266 141l-45 -92q-14 -31 -48 -42t-67 5q-30 15 -41.5 48.5zM375 352h393l-199 510z" />
<glyph unicode="&#xc4;" horiz-adv-x="1153" d="M82 -2q0 12 2 18q8 29 10 35l367 961q20 53 78 53h57q57 0 78 -53l393 -996h-2q4 -8 4 -22q0 -31 -25.5 -53.5t-58.5 -22.5q-59 0 -78 51l-90 230h-485l-86 -228q-23 -53 -80 -53q-35 0 -59.5 23.5t-24.5 56.5zM262 1311q-4 39 23 69l34 41q27 31 66 35t70 -22 q31 -25 35 -65t-23 -71l-35 -41q-27 -31 -65.5 -34.5t-69.5 23t-35 65.5zM375 352h393l-199 510zM698 1311q-4 39 23 69l35 41q27 31 66.5 35t70.5 -22q29 -25 33 -65t-23 -71l-35 -41q-27 -31 -65.5 -34.5t-69.5 23t-35 65.5z" />
<glyph unicode="&#xc5;" horiz-adv-x="1153" d="M82 -2q0 12 2 18q8 29 10 35l367 961q20 53 78 53h57q57 0 78 -53l393 -996h-2q4 -8 4 -22q0 -31 -25.5 -53.5t-58.5 -22.5q-59 0 -78 51l-90 230h-485l-86 -228q-23 -53 -80 -53q-35 0 -59.5 23.5t-24.5 56.5zM313 1364q0 111 78 188q80 80 190.5 80t188.5 -78.5 t78 -189.5q0 -115 -78 -188q-80 -80 -188 -80q-111 0 -190 78.5t-79 189.5zM375 352h393l-199 510zM469 1364q0 -45 34 -79t79 -34t77.5 33t32.5 80t-32.5 80t-77.5 33q-47 0 -80 -33q-33 -37 -33 -80z" />
<glyph unicode="&#xc6;" horiz-adv-x="1527" d="M61 0q0 18 11 39l497 979q25 47 76 47h670q35 0 59.5 -24.5t24.5 -59.5v-72q0 -35 -24.5 -59.5t-59.5 -24.5q-31 0 -54.5 20.5t-27.5 51.5h-291v-315h356q35 0 59.5 -25t24.5 -59.5t-24.5 -59t-59.5 -24.5h-356v-330h385q35 0 59.5 -24.5t24.5 -59.5t-24.5 -59.5 t-59.5 -24.5h-469q-35 0 -59.5 24.5t-24.5 59.5v219h-424l-129 -256q-25 -47 -76 -47q-35 0 -59.5 24.5t-24.5 59.5zM408 369h383l2 546h-109z" />
<glyph unicode="&#xc7;" horiz-adv-x="1079" d="M104 489q0 258 155 424t396 166q72 0 156 -11t113 -21q68 -23 61 -86l-6 -72q-4 -35 -26.5 -57.5t-55.5 -22.5q-37 0 -61.5 25.5t-22.5 62.5q-104 14 -156 14q-172 0 -278.5 -116.5t-106.5 -305.5q0 -190 101.5 -304.5t288.5 -114.5q115 0 206 36q43 14 78 -11t35 -68 q0 -59 -57 -80q-80 -31 -205 -43l59 -236q8 -29 -7 -57.5t-44 -40.5l-201 -80q-33 -12 -64.5 0t-43.5 45t1 65.5t46 45.5l133 53l-53 213q-207 39 -324 194.5t-117 382.5z" />
<glyph unicode="&#xc8;" horiz-adv-x="1042" d="M143 236q0 164 117 256q-104 92 -104 251q0 158 101 247t263 89q33 0 76 -2t82 -5t72.5 -5t55 -4t23.5 -2q35 -2 56.5 -28.5t19.5 -61.5l-4 -72q-2 -33 -26.5 -55.5t-57.5 -22.5q-35 0 -58.5 22.5t-25.5 57.5q-154 10 -211 10q-199 0 -198 -168q0 -84 47 -128t159 -44 h242q35 0 59.5 -24.5t24.5 -59t-24.5 -59.5t-59.5 -25h-242q-219 0 -219 -170q0 -82 54.5 -121.5t138.5 -39.5t289 20q37 2 63.5 -22.5t26.5 -61.5q0 -33 -21.5 -57.5t-54.5 -26.5q-164 -20 -303 -20q-154 0 -257.5 89t-103.5 243zM148.5 1426.5q-11.5 31.5 3.5 62.5 q16 33 47.5 44t64.5 -3l348 -168q31 -16 42.5 -48t-3.5 -63q-16 -33 -48 -44t-64 3l-349 168q-30 17 -41.5 48.5z" />
<glyph unicode="&#xc9;" horiz-adv-x="1042" d="M143 236q0 164 117 256q-104 92 -104 251q0 158 101 247t263 89q33 0 76 -2t82 -5t72.5 -5t55 -4t23.5 -2q35 -2 56.5 -28.5t19.5 -61.5l-4 -72q-2 -33 -26.5 -55.5t-57.5 -22.5q-35 0 -58.5 22.5t-25.5 57.5q-154 10 -211 10q-199 0 -198 -168q0 -84 47 -128t159 -44 h242q35 0 59.5 -24.5t24.5 -59t-24.5 -59.5t-59.5 -25h-242q-219 0 -219 -170q0 -82 54.5 -121.5t138.5 -39.5t289 20q37 2 63.5 -22.5t26.5 -61.5q0 -33 -21.5 -57.5t-54.5 -26.5q-164 -20 -303 -20q-154 0 -257.5 89t-103.5 243zM500.5 1289q11.5 32 42.5 48l344 168 q33 14 64.5 3t47.5 -44q14 -31 3 -62.5t-41 -47.5l-345 -166q-33 -16 -65.5 -5t-46.5 44q-15 30 -3.5 62z" />
<glyph unicode="&#xca;" horiz-adv-x="1042" d="M143 236q0 164 117 256q-104 92 -104 251q0 158 101 247t263 89q33 0 76 -2t82 -5t72.5 -5t55 -4t23.5 -2q35 -2 56.5 -28.5t19.5 -61.5l-4 -72q-2 -33 -26.5 -55.5t-57.5 -22.5q-35 0 -58.5 22.5t-25.5 57.5q-154 10 -211 10q-199 0 -198 -168q0 -84 47 -128t159 -44 h242q35 0 59.5 -24.5t24.5 -59t-24.5 -59.5t-59.5 -25h-242q-219 0 -219 -170q0 -82 54.5 -121.5t138.5 -39.5t289 20q37 2 63.5 -22.5t26.5 -61.5q0 -33 -21.5 -57.5t-54.5 -26.5q-164 -20 -303 -20q-154 0 -257.5 89t-103.5 243zM208 1305.5q9 33.5 38 52.5l270 168 q45 27 88 0l277 -166q29 -18 38 -52t-10 -65q-16 -29 -52 -38t-64 9l-232 142l-229 -142q-29 -18 -62.5 -9t-52 38t-9.5 62.5z" />
<glyph unicode="&#xcb;" horiz-adv-x="1042" d="M143 236q0 164 117 256q-104 92 -104 251q0 158 101 247t263 89q33 0 76 -2t82 -5t72.5 -5t55 -4t23.5 -2q35 -2 56.5 -28.5t19.5 -61.5l-4 -72q-2 -33 -26.5 -55.5t-57.5 -22.5q-35 0 -58.5 22.5t-25.5 57.5q-154 10 -211 10q-199 0 -198 -168q0 -84 47 -128t159 -44 h242q35 0 59.5 -24.5t24.5 -59t-24.5 -59.5t-59.5 -25h-242q-219 0 -219 -170q0 -82 54.5 -121.5t138.5 -39.5t289 20q37 2 63.5 -22.5t26.5 -61.5q0 -33 -21.5 -57.5t-54.5 -26.5q-164 -20 -303 -20q-154 0 -257.5 89t-103.5 243zM248 1311q-4 39 22 69l35 41q27 31 66 35 t69 -22q31 -25 35 -65t-22 -71l-35 -41q-27 -31 -66 -34.5t-69.5 23t-34.5 65.5zM684 1311q-4 39 23 69l34 41q27 31 67 35t71 -22q29 -25 32.5 -65t-22.5 -71l-35 -41q-27 -31 -65.5 -34.5t-69.5 23t-35 65.5z" />
<glyph unicode="&#xcc;" horiz-adv-x="579" d="M-124 1426.5q-11 31.5 3 62.5q16 33 48 44t65 -3l348 -168q31 -16 42 -48t-3 -63q-16 -33 -48 -44t-65 3l-348 168q-31 17 -42 48.5zM143 981q0 35 25 59.5t59 24.5h72q35 0 60.5 -24.5t25.5 -59.5v-981q0 -35 -24.5 -59.5t-59.5 -24.5t-59.5 24.5t-24.5 59.5v899 q-31 4 -52.5 26.5t-21.5 55.5z" />
<glyph unicode="&#xcd;" horiz-adv-x="579" d="M143 981q0 35 25 59.5t59 24.5h72q35 0 60.5 -24.5t25.5 -59.5v-981q0 -35 -24.5 -59.5t-59.5 -24.5t-59.5 24.5t-24.5 59.5v899q-31 4 -52.5 26.5t-21.5 55.5zM228.5 1289q11.5 32 41.5 48l344 168q33 14 65 3t48 -44q14 -31 3 -62.5t-42 -47.5l-344 -166 q-33 -16 -65.5 -5t-47.5 44q-14 30 -2.5 62z" />
<glyph unicode="&#xce;" horiz-adv-x="579" d="M-64.5 1305.5q9.5 33.5 37.5 52.5l271 168q43 27 88 0l276 -166q29 -18 38 -52t-9 -65q-16 -29 -52 -38t-65 9l-231 142l-230 -142q-29 -18 -62.5 -9t-52 38t-9 62.5zM143 981q0 35 25 59.5t59 24.5h72q35 0 60.5 -24.5t25.5 -59.5v-981q0 -35 -24.5 -59.5t-59.5 -24.5 t-59.5 24.5t-24.5 59.5v899q-31 4 -52.5 26.5t-21.5 55.5z" />
<glyph unicode="&#xcf;" horiz-adv-x="579" d="M-4 1311q-4 39 22 69l35 41q27 31 66 35t69 -22q31 -25 35 -65t-22 -71l-35 -41q-27 -31 -66 -34.5t-69.5 23t-34.5 65.5zM143 981q0 35 25 59.5t59 24.5h72q35 0 60.5 -24.5t25.5 -59.5v-981q0 -35 -24.5 -59.5t-59.5 -24.5t-59.5 24.5t-24.5 59.5v899q-31 4 -52.5 26.5 t-21.5 55.5zM432 1311q-4 39 23 69l34 41q27 31 67 35t71 -22q29 -25 33 -65t-23 -71l-35 -41q-27 -31 -65.5 -34.5t-69.5 23t-35 65.5z" />
<glyph unicode="&#xd0;" horiz-adv-x="1257" d="M-4 495.5q0 34.5 24.5 59.5t59.5 25h153v319q-31 4 -52 27.5t-21 54.5q0 35 24.5 59.5t59.5 24.5h301q270 0 430 -149.5t160 -415.5q0 -258 -158 -421t-416 -163h-315q-35 0 -60.5 24.5t-25.5 59.5q0 31 20.5 54.5t52.5 27.5v330h-151q-35 0 -60.5 24.5t-25.5 59zM399 84 h160q188 0 297 113.5t109 302.5h2q0 197 -111 297t-309 100h-148v-317h267q35 0 60.5 -25t25.5 -59.5t-25 -59t-59 -24.5h-269v-328z" />
<glyph unicode="&#xd1;" horiz-adv-x="1296" d="M195 -4v989q0 33 23.5 56.5t55.5 23.5h66q45 0 68 -37l534 -860v739q-33 4 -53.5 25.5t-20.5 52.5q0 33 23.5 56.5t56.5 23.5h72q33 0 57.5 -23.5t24.5 -56.5v-989q0 -33 -23.5 -56.5t-56.5 -23.5h-66q-43 0 -67 39l-533 858v-817q0 -33 -22.5 -56.5t-57 -23.5t-58 23.5 t-23.5 56.5zM341 1254.5q-11 33.5 5 64.5l86 168q14 29 49 41q37 12 66 -4l266 -142l47 93q14 31 48 42t65 -6q31 -14 42 -47.5t-5 -64.5l-86 -168q-16 -31 -50 -41q-33 -12 -65 4l-266 141l-45 -92q-14 -31 -48 -42t-67 5q-31 15 -42 48.5z" />
<glyph unicode="&#xd2;" horiz-adv-x="1323" d="M104 496q0 246 157 414.5t401 168.5q240 0 398.5 -165.5t158.5 -417.5q0 -248 -157 -421t-400 -173q-238 0 -398 170t-160 424zM228.5 1426.5q-11.5 31.5 2.5 62.5q16 33 48 44t65 -3l348 -168q31 -16 42 -48t-3 -63q-16 -33 -48 -44t-65 3l-348 168q-30 17 -41.5 48.5z M272 496q0 -184 111 -305t279 -121q174 0 281.5 124.5t107.5 301.5q0 182 -110 298.5t-279 116.5q-174 0 -282 -119.5t-108 -295.5z" />
<glyph unicode="&#xd3;" horiz-adv-x="1323" d="M104 496q0 246 157 414.5t401 168.5q240 0 398.5 -165.5t158.5 -417.5q0 -248 -157 -421t-400 -173q-238 0 -398 170t-160 424zM272 496q0 -184 111 -305t279 -121q174 0 281.5 124.5t107.5 301.5q0 182 -110 298.5t-279 116.5q-174 0 -282 -119.5t-108 -295.5z M580.5 1289q11.5 32 42.5 48l344 168q33 14 64.5 3t47.5 -44q14 -31 3 -62.5t-42 -47.5l-344 -166q-33 -16 -65.5 -5t-46.5 44q-15 30 -3.5 62z" />
<glyph unicode="&#xd4;" horiz-adv-x="1323" d="M104 496q0 246 157 414.5t401 168.5q240 0 398.5 -165.5t158.5 -417.5q0 -248 -157 -421t-400 -173q-238 0 -398 170t-160 424zM272 496q0 -184 111 -305t279 -121q174 0 281.5 124.5t107.5 301.5q0 182 -110 298.5t-279 116.5q-174 0 -282 -119.5t-108 -295.5z M288 1305.5q9 33.5 38 52.5l270 168q43 27 88 0l277 -166q29 -18 38 -52t-10 -65q-16 -29 -52 -38t-65 9l-231 142l-229 -142q-29 -18 -63 -9t-52 38t-9 62.5z" />
<glyph unicode="&#xd5;" horiz-adv-x="1323" d="M104 496q0 246 157 414.5t401 168.5q240 0 398.5 -165.5t158.5 -417.5q0 -248 -157 -421t-400 -173q-238 0 -398 170t-160 424zM272 496q0 -184 111 -305t279 -121q174 0 281.5 124.5t107.5 301.5q0 182 -110 298.5t-279 116.5q-174 0 -282 -119.5t-108 -295.5z M355.5 1254.5q-11.5 33.5 4.5 64.5l86 168q14 29 50 41q37 12 65 -4l266 -142l47 93q14 31 48 42t65 -6q31 -14 42 -47.5t-5 -64.5l-86 -168q-16 -31 -49 -41q-33 -12 -66 4l-266 141l-45 -92q-14 -31 -48 -42t-67 5q-30 15 -41.5 48.5z" />
<glyph unicode="&#xd6;" horiz-adv-x="1323" d="M104 496q0 246 157 414.5t401 168.5q240 0 398.5 -165.5t158.5 -417.5q0 -248 -157 -421t-400 -173q-238 0 -398 170t-160 424zM272 496q0 -184 111 -305t279 -121q174 0 281.5 124.5t107.5 301.5q0 182 -110 298.5t-279 116.5q-174 0 -282 -119.5t-108 -295.5zM348 1311 q-4 39 23 69l35 41q27 31 65.5 35t69.5 -22q31 -25 35 -65t-23 -71l-35 -41q-27 -31 -65.5 -34.5t-69.5 23t-35 65.5zM784 1311q-4 39 23 69l35 41q27 31 66.5 35t70.5 -22q29 -25 33 -65t-23 -71l-35 -41q-27 -31 -65.5 -34.5t-69.5 23t-35 65.5z" />
<glyph unicode="&#xd7;" horiz-adv-x="1288" d="M289 98q0 31 22 58l219 237l-219 238q-23 23 -22 55q0 35 24.5 59.5t59.5 24.5q37 0 61 -27l211 -227l211 227q25 27 62 27q35 0 59 -24.5t24 -59.5q0 -33 -22 -55l-219 -238l219 -237q23 -23 22.5 -58t-25 -59.5t-58.5 -24.5q-37 0 -62 29l-211 227l-211 -227 q-25 -29 -61 -29q-35 0 -59.5 24.5t-24.5 59.5z" />
<glyph unicode="&#xd8;" horiz-adv-x="1372" d="M127 496q0 246 156.5 414.5t400.5 168.5q133 0 252 -59l90 135q25 37 70 37q35 0 60.5 -24.5t25.5 -59.5q0 -20 -15 -45l-94 -141q172 -172 172 -426q0 -246 -157.5 -420t-401.5 -174q-139 0 -256 63l-90 -133q-25 -37 -70 -37q-35 0 -60.5 24.5t-25.5 59.5q0 25 15 45 l96 142q-168 172 -168 430zM295 496q0 -184 110.5 -305t278.5 -121q174 0 282.5 123.5t108.5 302.5h2q0 180 -110.5 297.5t-280.5 117.5q-174 0 -282.5 -119.5t-108.5 -295.5z" />
<glyph unicode="&#xd9;" horiz-adv-x="1267" d="M166 418v563q0 35 24.5 59.5t59.5 24.5t59.5 -24.5t24.5 -59.5v-563q0 -43 7 -85t26.5 -91t51.5 -86t87 -61.5t127 -24.5q88 0 151.5 34.5t94 92t43 111.5t12.5 110v481q-29 4 -50.5 27.5t-21.5 54.5q0 35 24.5 59.5t59.5 24.5h72q35 0 59.5 -24.5t24.5 -59.5v-563 q0 -231 -129 -373.5t-340 -142.5t-339 141.5t-128 374.5zM199.5 1426.5q-11.5 31.5 3.5 62.5q16 33 48 44t64 -3l349 -168q31 -16 42 -48t-4 -63q-16 -33 -47.5 -44t-64.5 3l-348 168q-31 17 -42.5 48.5z" />
<glyph unicode="&#xda;" horiz-adv-x="1267" d="M166 418v563q0 35 24.5 59.5t59.5 24.5t59.5 -24.5t24.5 -59.5v-563q0 -43 7 -85t26.5 -91t51.5 -86t87 -61.5t127 -24.5q88 0 151.5 34.5t94 92t43 111.5t12.5 110v481q-29 4 -50.5 27.5t-21.5 54.5q0 35 24.5 59.5t59.5 24.5h72q35 0 59.5 -24.5t24.5 -59.5v-563 q0 -231 -129 -373.5t-340 -142.5t-339 141.5t-128 374.5zM613.5 1289q11.5 32 41.5 48l344 168q33 14 65 3t48 -44q14 -31 3 -62.5t-42 -47.5l-344 -166q-33 -16 -65.5 -5t-47.5 44q-14 30 -2.5 62z" />
<glyph unicode="&#xdb;" horiz-adv-x="1267" d="M166 418v563q0 35 24.5 59.5t59.5 24.5t59.5 -24.5t24.5 -59.5v-563q0 -43 7 -85t26.5 -91t51.5 -86t87 -61.5t127 -24.5q88 0 151.5 34.5t94 92t43 111.5t12.5 110v481q-29 4 -50.5 27.5t-21.5 54.5q0 35 24.5 59.5t59.5 24.5h72q35 0 59.5 -24.5t24.5 -59.5v-563 q0 -231 -129 -373.5t-340 -142.5t-339 141.5t-128 374.5zM279.5 1305.5q9.5 33.5 37.5 52.5l271 168q43 27 88 0l276 -166q29 -18 38 -52t-9 -65q-16 -29 -52 -38t-65 9l-231 142l-230 -142q-29 -18 -62.5 -9t-52 38t-9 62.5z" />
<glyph unicode="&#xdc;" horiz-adv-x="1267" d="M166 418v563q0 35 24.5 59.5t59.5 24.5t59.5 -24.5t24.5 -59.5v-563q0 -43 7 -85t26.5 -91t51.5 -86t87 -61.5t127 -24.5q88 0 151.5 34.5t94 92t43 111.5t12.5 110v481q-29 4 -50.5 27.5t-21.5 54.5q0 35 24.5 59.5t59.5 24.5h72q35 0 59.5 -24.5t24.5 -59.5v-563 q0 -231 -129 -373.5t-340 -142.5t-339 141.5t-128 374.5zM319.5 1311q-4.5 39 22.5 69l35 41q27 31 65.5 35t69.5 -22q31 -25 35 -65t-23 -71l-35 -41q-27 -31 -65.5 -34.5t-69 23t-35 65.5zM756 1311q-4 39 22 69l35 41q27 31 67 35t70 -22q29 -25 33 -65t-22 -71l-35 -41 q-27 -31 -66 -34.5t-69.5 23t-34.5 65.5z" />
<glyph unicode="&#xdd;" d="M31 981q0 35 24.5 59.5t59.5 24.5q43 0 67 -37l305 -442l312 444q25 35 69 35q35 0 60.5 -24.5t25.5 -59.5q0 -23 -16 -49l-367 -520v-412q0 -35 -24.5 -59.5t-59 -24.5t-59.5 24.5t-25 59.5v412l-356 522q-16 22 -16 47zM451.5 1289q11.5 32 42.5 48l344 168 q33 14 64.5 3t47.5 -44q14 -31 3 -62.5t-42 -47.5l-344 -166q-33 -16 -65.5 -5t-46.5 44q-15 30 -3.5 62z" />
<glyph unicode="&#xde;" horiz-adv-x="1015" d="M145 745q0 31 20.5 54.5t49.5 27.5v154q0 35 25.5 59.5t58.5 24.5q35 0 59.5 -24.5t24.5 -59.5v-152h223q123 0 234.5 -92t111.5 -252q0 -145 -103.5 -247.5t-248.5 -102.5h-217v-135q0 -35 -24.5 -59.5t-59.5 -24.5t-59.5 24.5t-24.5 59.5v664q-31 4 -51.5 27t-18.5 54z M383 303h217q76 0 130 53.5t54 128.5q0 86 -60 131.5t-118 45.5h-223v-359z" />
<glyph unicode="&#xdf;" horiz-adv-x="1212" d="M-33 -452.5q0 34.5 24.5 59t59.5 24.5q51 0 82 36t36 64.5t5 53.5v1081q0 164 107.5 289t267.5 125q199 0 316.5 -124t117.5 -325q0 -39 -22.5 -64.5t-61.5 -25.5q-68 0 -135.5 -32.5t-67.5 -94.5q0 -72 27 -94t111 -41q41 -10 66.5 -17t67.5 -28.5t66.5 -50.5t44 -79 t19.5 -116q0 -131 -98.5 -208.5t-235.5 -77.5q-80 0 -162 32q-55 16 -55 78q0 45 34.5 69.5t75.5 10.5q68 -23 107 -22q66 0 116 29.5t50 88.5q0 66 -24.5 86.5t-108.5 40.5q-37 8 -56.5 14.5t-57.5 22t-59.5 36t-47 50t-37 74.5t-11.5 102q0 115 81 189t200 96 q-39 213 -260 213q-90 0 -148.5 -77t-58.5 -169v-1081q0 -133 -80 -227.5t-211 -94.5q-35 0 -59.5 25t-24.5 59.5z" />
<glyph unicode="&#xe0;" horiz-adv-x="1019" d="M72 2q0 14 6 31l323 811q20 51 78 51h49q57 0 78 -51l336 -811q6 -16 6 -31q0 -35 -24.5 -59.5t-59.5 -24.5q-55 0 -78 51l-75 181h-406l-72 -179q-23 -53 -77 -53q-35 0 -59.5 24.5t-24.5 59.5zM93 1258.5q-11 31.5 3 62.5q16 33 48 44t65 -3l348 -168q31 -16 42 -48 t-3 -63q-16 -33 -48 -44t-65 3l-348 168q-31 17 -42 48.5zM346 299h324l-166 399z" />
<glyph unicode="&#xe1;" horiz-adv-x="1019" d="M72 2q0 14 6 31l323 811q20 51 78 51h49q57 0 78 -51l336 -811q6 -16 6 -31q0 -35 -24.5 -59.5t-59.5 -24.5q-55 0 -78 51l-75 181h-406l-72 -179q-23 -53 -77 -53q-35 0 -59.5 24.5t-24.5 59.5zM346 299h324l-166 399zM443.5 1146q11.5 32 41.5 48l344 168q33 14 65 3 t48 -44q14 -31 3 -62.5t-42 -48.5l-344 -166q-33 -16 -65.5 -4.5t-47.5 43.5q-14 31 -2.5 63z" />
<glyph unicode="&#xe2;" horiz-adv-x="1019" d="M72 2q0 14 6 31l323 811q20 51 78 51h49q57 0 78 -51l336 -811q6 -16 6 -31q0 -35 -24.5 -59.5t-59.5 -24.5q-55 0 -78 51l-75 181h-406l-72 -179q-23 -53 -77 -53q-35 0 -59.5 24.5t-24.5 59.5zM154.5 1137.5q9.5 33.5 38.5 52.5l270 168q45 27 88 0l276 -166 q29 -18 38 -52t-9 -65q-16 -29 -52 -38t-65 10l-231 141l-229 -141q-29 -18 -63 -9t-52.5 37.5t-9 62zM346 299h324l-166 399z" />
<glyph unicode="&#xe3;" horiz-adv-x="1019" d="M72 2q0 14 6 31l323 811q20 51 78 51h49q57 0 78 -51l336 -811q6 -16 6 -31q0 -35 -24.5 -59.5t-59.5 -24.5q-55 0 -78 51l-75 181h-406l-72 -179q-23 -53 -77 -53q-35 0 -59.5 24.5t-24.5 59.5zM193.5 1086.5q-11.5 33.5 5.5 64.5l86 168q18 31 49 41q37 12 65 -4 l267 -142l47 93q16 31 49 41t63 -5q31 -16 42.5 -48.5t-5.5 -63.5l-86 -168q-16 -31 -49 -41q-33 -12 -65 4l-267 141l-45 -92q-14 -31 -48 -42t-66 5q-31 15 -42.5 48.5zM346 299h324l-166 399z" />
<glyph unicode="&#xe4;" horiz-adv-x="1019" d="M72 2q0 14 6 31l323 811q20 51 78 51h49q57 0 78 -51l336 -811q6 -16 6 -31q0 -35 -24.5 -59.5t-59.5 -24.5q-55 0 -78 51l-75 181h-406l-72 -179q-23 -53 -77 -53q-35 0 -59.5 24.5t-24.5 59.5zM199 1167q-4 39 22 70l35 41q27 31 65.5 35t69.5 -23q31 -25 35 -64.5 t-23 -70.5l-34 -41q-27 -31 -66 -35t-69.5 22.5t-34.5 65.5zM346 299h324l-166 399zM635 1167q-4 39 22 70l35 41q27 31 67 35t70 -23q29 -25 33 -64.5t-22 -70.5l-35 -41q-27 -31 -66 -35t-69.5 22.5t-34.5 65.5z" />
<glyph unicode="&#xe5;" horiz-adv-x="1019" d="M72 2q0 14 6 31l323 811q20 51 78 51h49q57 0 78 -51l336 -811q6 -16 6 -31q0 -35 -24.5 -59.5t-59.5 -24.5q-55 0 -78 51l-75 181h-406l-72 -179q-23 -53 -77 -53q-35 0 -59.5 24.5t-24.5 59.5zM244 1196q0 111 78 188q80 80 190.5 80t188 -78.5t77.5 -189.5 q0 -115 -78 -188q-80 -80 -188 -80q-111 0 -189.5 78.5t-78.5 189.5zM346 299h324l-166 399zM399 1196q0 -45 34 -79t79 -34t78 33t33 80t-33 80t-78 33q-47 0 -80 -33q-33 -37 -33 -80z" />
<glyph unicode="&#xe6;" horiz-adv-x="1388" d="M51 0q0 27 8 39l418 811q23 45 76 45h637q35 0 60.5 -24.5t25.5 -59.5v-72q0 -35 -24.5 -59.5t-59.5 -24.5q-31 0 -54.5 20.5t-27.5 51.5h-250v-231h316q35 0 60.5 -25t25.5 -59.5t-25 -59t-59 -24.5h-318v-244h340q35 0 60.5 -24.5t25.5 -59.5t-24.5 -59.5t-59.5 -24.5 h-424q-35 0 -59.5 24.5t-24.5 59.5v141h-391l-94 -180q-23 -45 -74 -45q-35 0 -59.5 24.5t-24.5 59.5zM356 291h355l2 454h-119z" />
<glyph unicode="&#xe7;" horiz-adv-x="1024" d="M133 408q0 219 139.5 360t354.5 141q152 0 231 -26q68 -20 62 -86l-7 -72q-2 -33 -26.5 -56.5t-55.5 -23.5q-39 2 -62.5 26.5t-20.5 61.5q-74 8 -119 8q-145 0 -236.5 -92t-91.5 -241q0 -154 86 -246t240 -92q35 0 78 7t69.5 14t26.5 9q41 12 75.5 -14.5t34.5 -67.5 q0 -63 -59 -79q-35 -16 -156 -33l60 -238q8 -29 -7.5 -57.5t-43.5 -40.5l-201 -80q-33 -12 -64.5 0t-44 45t1 65.5t45.5 45.5l133 53l-53 213q-180 33 -284.5 167t-104.5 329z" />
<glyph unicode="&#xe8;" horiz-adv-x="974" d="M91 1258.5q-11 31.5 3 62.5q16 33 48 44t65 -3l348 -168q31 -16 42 -48t-3 -63q-16 -33 -48 -44t-65 3l-348 168q-31 17 -42 48.5zM143 193q0 137 90 215q-80 80 -79 208q0 133 87 213t232 80q74 0 299 -14q37 -4 59.5 -28.5t20.5 -59.5l-6 -72q-2 -35 -27.5 -58.5 t-60.5 -21.5q-70 4 -78 78q-135 8 -205 8q-154 0 -153 -125q0 -59 31.5 -94t127.5 -35h244q35 0 60.5 -24.5t25.5 -59t-24.5 -59.5t-59.5 -25h-244q-82 0 -127 -25.5t-45 -100.5q0 -121 146 -121q31 0 284 16q39 2 66 -21.5t27 -62.5q0 -33 -23 -57.5t-55 -26.5 q-197 -16 -297 -16q-135 0 -225.5 78t-90.5 211z" />
<glyph unicode="&#xe9;" horiz-adv-x="974" d="M143 193q0 137 90 215q-80 80 -79 208q0 133 87 213t232 80q74 0 299 -14q37 -4 59.5 -28.5t20.5 -59.5l-6 -72q-2 -35 -27.5 -58.5t-60.5 -21.5q-70 4 -78 78q-135 8 -205 8q-154 0 -153 -125q0 -59 31.5 -94t127.5 -35h244q35 0 60.5 -24.5t25.5 -59t-24.5 -59.5 t-59.5 -25h-244q-82 0 -127 -25.5t-45 -100.5q0 -121 146 -121q31 0 284 16q39 2 66 -21.5t27 -62.5q0 -33 -23 -57.5t-55 -26.5q-197 -16 -297 -16q-135 0 -225.5 78t-90.5 211zM462 1146q11 32 42 48l344 168q33 14 64.5 3t48.5 -44q14 -31 2.5 -62.5t-41.5 -48.5 l-344 -166q-33 -16 -66 -4.5t-47 43.5q-14 31 -3 63z" />
<glyph unicode="&#xea;" horiz-adv-x="974" d="M143 193q0 137 90 215q-80 80 -79 208q0 133 87 213t232 80q74 0 299 -14q37 -4 59.5 -28.5t20.5 -59.5l-6 -72q-2 -35 -27.5 -58.5t-60.5 -21.5q-70 4 -78 78q-135 8 -205 8q-154 0 -153 -125q0 -59 31.5 -94t127.5 -35h244q35 0 60.5 -24.5t25.5 -59t-24.5 -59.5 t-59.5 -25h-244q-82 0 -127 -25.5t-45 -100.5q0 -121 146 -121q31 0 284 16q39 2 66 -21.5t27 -62.5q0 -33 -23 -57.5t-55 -26.5q-197 -16 -297 -16q-135 0 -225.5 78t-90.5 211zM179 1137.5q9 33.5 38 52.5l270 168q45 27 88 0l277 -166q29 -18 38 -52t-9 -65 q-16 -29 -52 -38t-65 10l-232 141l-229 -141q-29 -18 -62.5 -9t-52 37.5t-9.5 62z" />
<glyph unicode="&#xeb;" horiz-adv-x="974" d="M143 193q0 137 90 215q-80 80 -79 208q0 133 87 213t232 80q74 0 299 -14q37 -4 59.5 -28.5t20.5 -59.5l-6 -72q-2 -35 -27.5 -58.5t-60.5 -21.5q-70 4 -78 78q-135 8 -205 8q-154 0 -153 -125q0 -59 31.5 -94t127.5 -35h244q35 0 60.5 -24.5t25.5 -59t-24.5 -59.5 t-59.5 -25h-244q-82 0 -127 -25.5t-45 -100.5q0 -121 146 -121q31 0 284 16q39 2 66 -21.5t27 -62.5q0 -33 -23 -57.5t-55 -26.5q-197 -16 -297 -16q-135 0 -225.5 78t-90.5 211zM217 1167q-4 39 23 70l34 41q27 31 66 35t70 -23q31 -25 35 -64.5t-23 -70.5l-35 -41 q-27 -31 -65.5 -35t-69.5 22.5t-35 65.5zM653 1167q-4 39 23 70l35 41q27 31 66.5 35t70.5 -23q29 -25 33 -64.5t-23 -70.5l-35 -41q-27 -31 -65.5 -35t-69.5 22.5t-35 65.5z" />
<glyph unicode="&#xec;" horiz-adv-x="575" d="M-109.5 1258.5q-11.5 31.5 3.5 62.5q16 33 47.5 44t64.5 -3l348 -168q31 -16 42.5 -48t-3.5 -63q-16 -33 -48 -44t-64 3l-349 168q-30 17 -41.5 48.5zM143 811q0 35 25 59.5t59 24.5h72q35 0 60.5 -24.5t25.5 -59.5v-811q0 -35 -24.5 -59.5t-59.5 -24.5t-59.5 24.5 t-24.5 59.5v729q-31 4 -52.5 27.5t-21.5 54.5z" />
<glyph unicode="&#xed;" horiz-adv-x="575" d="M143 811q0 35 25 59.5t59 24.5h72q35 0 60.5 -24.5t25.5 -59.5v-811q0 -35 -24.5 -59.5t-59.5 -24.5t-59.5 24.5t-24.5 59.5v729q-31 4 -52.5 27.5t-21.5 54.5zM199.5 1146q11.5 32 42.5 48l344 168q33 14 64.5 3t47.5 -44q14 -31 3 -62.5t-42 -48.5l-344 -166 q-33 -16 -65.5 -4.5t-46.5 43.5q-15 31 -3.5 63z" />
<glyph unicode="&#xee;" horiz-adv-x="575" d="M-68.5 1137.5q9.5 33.5 37.5 52.5l271 168q43 27 88 0l276 -166q29 -18 38 -52t-9 -65q-16 -29 -52 -38t-65 10l-231 141l-230 -141q-29 -18 -62.5 -9t-52 37.5t-9 62zM143 811q0 35 25 59.5t59 24.5h72q35 0 60.5 -24.5t25.5 -59.5v-811q0 -35 -24.5 -59.5t-59.5 -24.5 t-59.5 24.5t-24.5 59.5v729q-31 4 -52.5 27.5t-21.5 54.5z" />
<glyph unicode="&#xef;" horiz-adv-x="575" d="M-24.5 1167q-4.5 39 22.5 70l35 41q27 31 65.5 35t69.5 -23q31 -25 35 -64.5t-23 -70.5l-35 -41q-27 -31 -65.5 -35t-69 22.5t-35 65.5zM143 811q0 35 25 59.5t59 24.5h72q35 0 60.5 -24.5t25.5 -59.5v-811q0 -35 -24.5 -59.5t-59.5 -24.5t-59.5 24.5t-24.5 59.5v729 q-31 4 -52.5 27.5t-21.5 54.5zM412 1167q-4 39 22 70l35 41q27 31 66.5 35t70.5 -23q29 -25 33 -64.5t-23 -70.5l-34 -41q-27 -31 -66 -35t-69.5 22.5t-34.5 65.5z" />
<glyph unicode="&#xf0;" horiz-adv-x="1171" d="M-4 393q0 35 24.5 59.5t59.5 24.5h151v252q-31 4 -52 27.5t-21 54.5q0 35 24.5 59.5t59.5 24.5h270q236 0 381 -126t145 -355q0 -223 -143 -360.5t-369 -137.5h-282q-35 0 -60.5 24.5t-25.5 59.5q0 31 20.5 54.5t52.5 27.5v227h-149q-35 0 -60.5 24.5t-25.5 59.5zM397 84 h127q156 0 250 88t94 242h2q0 160 -95 236.5t-261 76.5h-117v-250h269q35 0 60.5 -24.5t25.5 -59.5t-25 -59.5t-59 -24.5h-271v-225z" />
<glyph unicode="&#xf1;" horiz-adv-x="1171" d="M178 -4v821q0 33 23.5 55.5t56.5 22.5h57q43 0 66 -35l455 -684v561q-33 4 -54.5 26.5t-21.5 53.5q0 33 23.5 55.5t56.5 22.5h73q33 0 57.5 -22.5t24.5 -55.5v-821q0 -33 -23.5 -56.5t-56.5 -23.5h-57q-43 0 -65 37l-453 684v-641q0 -33 -22.5 -56.5t-57.5 -23.5 t-58.5 23.5t-23.5 56.5zM290 1086.5q-11 33.5 5 64.5l86 168q18 31 49 41q37 12 66 -4l266 -142l47 93q16 31 49 41t64 -5q31 -16 42 -48.5t-6 -63.5l-86 -168q-16 -31 -49 -41q-33 -12 -65 4l-266 141l-46 -92q-14 -31 -47.5 -42t-66.5 5q-31 15 -42 48.5z" />
<glyph unicode="&#xf2;" horiz-adv-x="1230" d="M123 408q0 213 140 357t351 144t352.5 -143t141.5 -358q0 -213 -140.5 -359.5t-353.5 -146.5q-211 0 -351 145.5t-140 360.5zM218 1258.5q-11 31.5 3 62.5q16 33 48 44t65 -3l348 -168q31 -16 42 -48t-3 -63q-16 -33 -48 -44t-65 3l-348 168q-31 17 -42 48.5zM291 408 q0 -145 92 -241.5t231 -96.5q143 0 234.5 97t91.5 241q0 145 -92 239t-233.5 94t-232.5 -95t-91 -238z" />
<glyph unicode="&#xf3;" horiz-adv-x="1230" d="M123 408q0 213 140 357t351 144t352.5 -143t141.5 -358q0 -213 -140.5 -359.5t-353.5 -146.5q-211 0 -351 145.5t-140 360.5zM291 408q0 -145 92 -241.5t231 -96.5q143 0 234.5 97t91.5 241q0 145 -92 239t-233.5 94t-232.5 -95t-91 -238zM527.5 1146q11.5 32 41.5 48 l344 168q33 14 65 3t48 -44q14 -31 3 -62.5t-42 -48.5l-344 -166q-33 -16 -65.5 -4.5t-47.5 43.5q-14 31 -2.5 63z" />
<glyph unicode="&#xf4;" horiz-adv-x="1230" d="M123 408q0 213 140 357t351 144t352.5 -143t141.5 -358q0 -213 -140.5 -359.5t-353.5 -146.5q-211 0 -351 145.5t-140 360.5zM259 1137.5q9 33.5 38 52.5l270 168q43 27 88 0l277 -166q29 -18 38 -52t-9 -65q-16 -29 -52.5 -38t-64.5 10l-232 141l-229 -141 q-29 -18 -62.5 -9t-52 37.5t-9.5 62zM291 408q0 -145 92 -241.5t231 -96.5q143 0 234.5 97t91.5 241q0 145 -92 239t-233.5 94t-232.5 -95t-91 -238z" />
<glyph unicode="&#xf5;" horiz-adv-x="1230" d="M123 408q0 213 140 357t351 144t352.5 -143t141.5 -358q0 -213 -140.5 -359.5t-353.5 -146.5q-211 0 -351 145.5t-140 360.5zM291 408q0 -145 92 -241.5t231 -96.5q143 0 234.5 97t91.5 241q0 145 -92 239t-233.5 94t-232.5 -95t-91 -238zM298 1086.5q-11 33.5 5 64.5 l86 168q18 31 49 41q37 12 66 -4l266 -142l47 93q16 31 49 41t64 -5q31 -16 42 -48.5t-5 -63.5l-86 -168q-16 -31 -50 -41q-33 -12 -65 4l-266 141l-45 -92q-14 -31 -48 -42t-67 5q-31 15 -42 48.5z" />
<glyph unicode="&#xf6;" horiz-adv-x="1230" d="M123 408q0 213 140 357t351 144t352.5 -143t141.5 -358q0 -213 -140.5 -359.5t-353.5 -146.5q-211 0 -351 145.5t-140 360.5zM291 408q0 -145 92 -241.5t231 -96.5q143 0 234.5 97t91.5 241q0 145 -92 239t-233.5 94t-232.5 -95t-91 -238zM303 1167q-4 39 23 70l34 41 q27 31 66 35t70 -23q31 -25 35 -64.5t-23 -70.5l-35 -41q-27 -31 -65.5 -35t-69.5 22.5t-35 65.5zM739 1167q-4 39 23 70l35 41q27 31 66.5 35t70.5 -23q29 -25 33 -64.5t-23 -70.5l-35 -41q-27 -31 -65.5 -35t-69.5 22.5t-35 65.5z" />
<glyph unicode="&#xf7;" horiz-adv-x="1232" d="M125 397q0 35 24.5 59.5t59.5 24.5h815q35 0 59.5 -24.5t24.5 -59.5t-24.5 -59.5t-59.5 -24.5h-815q-35 0 -59.5 24.5t-24.5 59.5zM504 -14q0 37 22 61l35 43q27 33 74 33q39 0 66.5 -28.5t27.5 -67.5q0 -41 -20 -62l-37 -41q-31 -35 -74 -35q-39 0 -66.5 29t-27.5 68z M504 760q0 37 22 61l35 41q29 35 74 35q39 0 66.5 -28.5t27.5 -67.5q0 -41 -20 -62l-37 -41q-27 -35 -74 -34q-39 0 -66.5 28.5t-27.5 67.5z" />
<glyph unicode="&#xf8;" horiz-adv-x="1241" d="M127 408q0 213 139.5 357t351.5 144q121 0 224 -51l76 117q27 39 71 39q35 0 60.5 -24.5t25.5 -59.5q0 -27 -14 -47l-84 -123q137 -147 137 -352q0 -213 -141.5 -359.5t-351.5 -146.5q-106 0 -201 41l-80 -119q-25 -37 -70 -37q-35 0 -60.5 24.5t-25.5 59.5q0 23 15 47 l80 119q-152 146 -152 371zM295 408q0 -145 90 -241.5t233.5 -96.5t234.5 97t91 241h2q0 145 -92 239t-233 94q-143 0 -234.5 -95t-91.5 -238z" />
<glyph unicode="&#xf9;" horiz-adv-x="1095" d="M147 326v485q0 35 25 59.5t59.5 24.5t59 -24.5t24.5 -59.5v-485q0 -104 56.5 -180t175.5 -76t176 75.5t57 180.5v403q-31 4 -52 27.5t-21 54.5q0 35 24.5 59.5t59.5 24.5h71q35 0 60.5 -24.5t25.5 -59.5v-485q0 -188 -109.5 -306t-289.5 -118t-291 118t-111 306z M150.5 1258.5q-11.5 31.5 3.5 62.5q16 33 47.5 44t64.5 -3l348 -168q31 -16 42.5 -48t-3.5 -63q-16 -33 -48 -44t-64 3l-348 168q-31 17 -42.5 48.5z" />
<glyph unicode="&#xfa;" horiz-adv-x="1095" d="M147 326v485q0 35 25 59.5t59.5 24.5t59 -24.5t24.5 -59.5v-485q0 -104 56.5 -180t175.5 -76t176 75.5t57 180.5v403q-31 4 -52 27.5t-21 54.5q0 35 24.5 59.5t59.5 24.5h71q35 0 60.5 -24.5t25.5 -59.5v-485q0 -188 -109.5 -306t-289.5 -118t-291 118t-111 306z M460 1146q11 32 42 48l344 168q33 14 64.5 3t47.5 -44q14 -31 3 -62.5t-41 -48.5l-345 -166q-33 -16 -65.5 -4.5t-46.5 43.5q-14 31 -3 63z" />
<glyph unicode="&#xfb;" horiz-adv-x="1095" d="M147 326v485q0 35 25 59.5t59.5 24.5t59 -24.5t24.5 -59.5v-485q0 -104 56.5 -180t175.5 -76t176 75.5t57 180.5v403q-31 4 -52 27.5t-21 54.5q0 35 24.5 59.5t59.5 24.5h71q35 0 60.5 -24.5t25.5 -59.5v-485q0 -188 -109.5 -306t-289.5 -118t-291 118t-111 306z M191.5 1137.5q9.5 33.5 37.5 52.5l271 168q45 27 88 0l276 -166q29 -18 38 -52t-9 -65q-16 -29 -52 -38t-65 10l-231 141l-230 -141q-29 -18 -62.5 -9t-52 37.5t-9 62z" />
<glyph unicode="&#xfc;" horiz-adv-x="1095" d="M147 326v485q0 35 25 59.5t59.5 24.5t59 -24.5t24.5 -59.5v-485q0 -104 56.5 -180t175.5 -76t176 75.5t57 180.5v403q-31 4 -52 27.5t-21 54.5q0 35 24.5 59.5t59.5 24.5h71q35 0 60.5 -24.5t25.5 -59.5v-485q0 -188 -109.5 -306t-289.5 -118t-291 118t-111 306z M235.5 1167q-4.5 39 22.5 70l35 41q27 31 65.5 35t69.5 -23q31 -25 35 -64.5t-23 -70.5l-34 -41q-27 -31 -66 -35t-69.5 22.5t-35 65.5zM672 1167q-4 39 22 70l35 41q27 31 67 35t70 -23q29 -25 33 -64.5t-22 -70.5l-35 -41q-27 -31 -66 -35t-69.5 22.5t-34.5 65.5z" />
<glyph unicode="&#xfd;" horiz-adv-x="968" d="M76 813q0 35 24.5 59.5t59.5 24.5q43 0 67 -37l254 -354l260 356q25 35 68 35q35 0 60.5 -24.5t25.5 -59.5q0 -29 -16 -51l-314 -426v-336q0 -35 -24.5 -59.5t-59.5 -24.5t-59.5 24.5t-24.5 59.5v336l-303 428q-18 22 -18 49zM457.5 1146q11.5 32 42.5 48l344 168 q33 14 64.5 3t47.5 -44q14 -31 3 -62.5t-41 -48.5l-345 -166q-33 -16 -65.5 -4.5t-46.5 43.5q-15 31 -3.5 63z" />
<glyph unicode="&#xfe;" horiz-adv-x="894" d="M143 590q0 31 20.5 54.5t51.5 29.5v137q0 35 24.5 59.5t59.5 24.5t59.5 -24.5t24.5 -59.5v-137h156q104 0 199.5 -77t95.5 -214q0 -121 -87.5 -208t-209.5 -87h-152v-88q0 -35 -24.5 -59.5t-59.5 -24.5t-59.5 24.5t-24.5 59.5v508q-31 4 -52.5 27.5t-21.5 54.5zM383 256 h152q53 0 91 38t38 89h2q0 66 -45.5 94.5t-79.5 28.5h-158v-250z" />
<glyph unicode="&#xff;" horiz-adv-x="968" d="M76 813q0 35 24.5 59.5t59.5 24.5q43 0 67 -37l254 -354l260 356q25 35 68 35q35 0 60.5 -24.5t25.5 -59.5q0 -29 -16 -51l-314 -426v-336q0 -35 -24.5 -59.5t-59.5 -24.5t-59.5 24.5t-24.5 59.5v336l-303 428q-18 22 -18 49zM172 1167q-4 39 23 70l34 41q27 31 66 35 t70 -23q31 -25 34.5 -64.5t-22.5 -70.5l-35 -41q-27 -31 -65.5 -35t-69.5 22.5t-35 65.5zM608 1167q-4 39 23 70l35 41q27 31 66.5 35t70.5 -23q29 -25 33 -64.5t-23 -70.5l-35 -41q-27 -31 -65.5 -35t-69.5 22.5t-35 65.5z" />
<glyph unicode="&#x152;" horiz-adv-x="2365" d="M1466 236q0 164 117 256q-104 92 -104 251q0 158 101 247t263 89q33 0 76 -2t82 -5t72.5 -5t55 -4t23.5 -2q35 -2 56.5 -28.5t19.5 -61.5l-4 -72q-2 -33 -26.5 -55.5t-57.5 -22.5q-35 0 -58.5 22.5t-25.5 57.5q-154 10 -211 10q-199 0 -198 -168q0 -84 47 -128t159 -44 h242q35 0 59.5 -24.5t24.5 -59t-24.5 -59.5t-59.5 -25h-242q-219 0 -219 -170q0 -82 54.5 -121.5t138.5 -39.5t289 20h5q33 0 58 -22q27 -25 27 -62q0 -33 -21.5 -57.5t-54.5 -26.5q-164 -20 -303 -20q-154 0 -257.5 89t-103.5 243zM104 496q0 246 157 414.5t401 168.5 q240 0 398.5 -165.5t158.5 -417.5q0 -248 -157 -421t-400 -173q-238 0 -398 170t-160 424zM272 496q0 -184 111 -305t279 -121q174 0 281.5 124.5t107.5 301.5q0 182 -110 298.5t-279 116.5q-174 0 -282 -119.5t-108 -295.5z" />
<glyph unicode="&#x153;" horiz-adv-x="2205" d="M1374 193q0 137 90 215q-80 80 -79 208q0 133 87 213t232 80q74 0 299 -14q37 -4 59.5 -28.5t20.5 -59.5l-6 -72q-2 -35 -28 -58q-24 -22 -55 -22h-5q-70 4 -78 78q-135 8 -205 8q-154 0 -153 -125q0 -59 31.5 -94t127.5 -35h244q35 0 60.5 -24.5t25.5 -59t-24.5 -59.5 t-59.5 -25h-244q-82 0 -127 -25.5t-45 -100.5q0 -121 146 -121q31 0 284 16h7q35 0 59 -21q27 -24 27 -63q0 -33 -23 -57.5t-55 -26.5q-197 -16 -297 -16q-135 0 -225.5 78t-90.5 211zM123 408q0 213 140 357t351 144t352.5 -143t141.5 -358q0 -213 -140.5 -359.5 t-353.5 -146.5q-211 0 -351 145.5t-140 360.5zM291 408q0 -145 92 -241.5t231 -96.5q143 0 234.5 97t91.5 241q0 145 -92 239t-233.5 94t-232.5 -95t-91 -238z" />
<glyph unicode="&#x178;" d="M160 1290q-4 39 23 69l34 41q27 31 66 35t70 -22q31 -25 34.5 -65t-22.5 -71l-35 -40q-27 -31 -65.5 -35t-69.5 22.5t-35 65.5zM596 1290q-4 39 23 69l35 41q27 31 66.5 35t70.5 -22q29 -25 33 -65t-23 -71l-35 -40q-27 -31 -65.5 -35t-69.5 22.5t-35 65.5zM31 981 q0 35 24.5 59.5t59.5 24.5q43 0 67 -37l305 -442l312 444q25 35 69 35q35 0 60.5 -24.5t25.5 -59.5q0 -23 -16 -49l-367 -520v-412q0 -35 -24.5 -59.5t-59 -24.5t-59.5 24.5t-25 59.5v412l-356 522q-16 22 -16 47z" />
<glyph unicode="&#x2c6;" horiz-adv-x="1114" d="M199 1032q0 25 14 45l268 412q27 39 70 39h2q43 0 70 -37l278 -412q14 -20 14 -47q0 -35 -24.5 -59.5t-59.5 -24.5q-45 0 -69 37l-209 307l-201 -307q-25 -37 -69 -37q-35 0 -59.5 24.5t-24.5 59.5z" />
<glyph unicode="&#x2dc;" horiz-adv-x="454" d="M-377 248l92 172q14 27 43 38t57 1l389 -133l23 43q23 45 74 45q49 0 72.5 -40t3.5 -81l-56 -108q-14 -27 -44 -39t-58 -2l-389 133l-60 -109q-27 -45 -73 -45q-49 0 -73 41t-1 84z" />
<glyph unicode="&#x2000;" horiz-adv-x="815" />
<glyph unicode="&#x2001;" horiz-adv-x="1632" />
<glyph unicode="&#x2002;" horiz-adv-x="815" />
<glyph unicode="&#x2003;" horiz-adv-x="1632" />
<glyph unicode="&#x2004;" horiz-adv-x="542" />
<glyph unicode="&#x2005;" horiz-adv-x="407" />
<glyph unicode="&#x2006;" horiz-adv-x="270" />
<glyph unicode="&#x2007;" horiz-adv-x="270" />
<glyph unicode="&#x2008;" horiz-adv-x="202" />
<glyph unicode="&#x2009;" horiz-adv-x="325" />
<glyph unicode="&#x200a;" horiz-adv-x="90" />
<glyph unicode="&#x2010;" horiz-adv-x="868" d="M158 469q10 53 69 63l303 48q55 6 84 -35l31 -45q23 -31 17 -68q-6 -33 -36 -53.5t-65 -12t-51 32.5l-4 7l-254 -37q-45 -6 -73.5 25.5t-20.5 74.5z" />
<glyph unicode="&#x2011;" horiz-adv-x="868" d="M158 469q10 53 69 63l303 48q55 6 84 -35l31 -45q23 -31 17 -68q-6 -33 -36 -53.5t-65 -12t-51 32.5l-4 7l-254 -37q-45 -6 -73.5 25.5t-20.5 74.5z" />
<glyph unicode="&#x2012;" horiz-adv-x="868" d="M158 469q10 53 69 63l303 48q55 6 84 -35l31 -45q23 -31 17 -68q-6 -33 -36 -53.5t-65 -12t-51 32.5l-4 7l-254 -37q-45 -6 -73.5 25.5t-20.5 74.5z" />
<glyph unicode="&#x2013;" horiz-adv-x="1024" d="M156 365v215h663v-215h-663z" />
<glyph unicode="&#x2014;" horiz-adv-x="2048" d="M156 365v215h1687v-215h-1687z" />
<glyph unicode="&#x2018;" horiz-adv-x="372" d="M-138.5 1258.5q-11.5 31.5 3.5 62.5q16 33 48 44t64 -3l349 -168q31 -16 42 -48t-3 -63q-16 -33 -48 -44t-65 3l-348 168q-31 17 -42.5 48.5z" />
<glyph unicode="&#x2019;" horiz-adv-x="567" d="M195 868l30 428q2 33 25.5 53.5t56.5 20.5q37 -2 59.5 -25.5t20.5 -60.5l-31 -426q-2 -33 -25.5 -54.5t-54.5 -21.5q-37 2 -60 26.5t-21 59.5z" />
<glyph unicode="&#x201c;" horiz-adv-x="952" d="M176 811l33 444q4 33 27.5 55.5t56.5 22.5q39 -2 62.5 -27.5t21.5 -62.5l-33 -444q-4 -33 -27.5 -55.5t-56.5 -22.5q-39 2 -62.5 27.5t-21.5 62.5zM575 811l33 444q4 33 26.5 55.5t55.5 22.5q39 -2 62.5 -27.5t21.5 -62.5l-31 -444q-2 -33 -26.5 -55.5t-57.5 -22.5 q-39 2 -62.5 27.5t-21.5 62.5z" />
<glyph unicode="&#x201d;" horiz-adv-x="952" d="M176 811l33 444q4 33 27.5 55.5t56.5 22.5q39 -2 62.5 -27.5t21.5 -62.5l-33 -444q-4 -33 -27.5 -55.5t-56.5 -22.5q-39 2 -62.5 27.5t-21.5 62.5zM575 811l33 444q4 33 26.5 55.5t55.5 22.5q39 -2 62.5 -27.5t21.5 -62.5l-31 -444q-2 -33 -26.5 -55.5t-57.5 -22.5 q-39 2 -62.5 27.5t-21.5 62.5z" />
<glyph unicode="&#x2026;" horiz-adv-x="1554" d="M1181 -4q0 35 23 63l35 41q29 35 73 35q39 0 68 -28.5t29 -67.5q0 -35 -23 -62l-35 -43q-25 -33 -73 -32q-39 0 -68 27.5t-29 66.5zM663 -4q0 35 23 63l35 41q29 35 73 35q39 0 68 -28.5t29 -67.5q0 -35 -23 -62l-35 -43q-25 -33 -73 -32q-39 0 -68 27.5t-29 66.5z M145 -4q0 35 23 63l35 41q29 35 73 35q39 0 68 -28.5t29 -67.5q0 -35 -23 -62l-35 -43q-25 -33 -73 -32q-39 0 -68 27.5t-29 66.5z" />
<glyph unicode="&#x202f;" horiz-adv-x="325" />
<glyph unicode="&#x2039;" horiz-adv-x="1179" d="M176 393q0 47 41 72l660 393q43 25 85 1.5t42 -73.5q0 -47 -41 -71l-539 -322l539 -321q41 -25 41 -72q0 -49 -43 -72.5t-84 0.5l-660 394q-41 24 -41 71z" />
<glyph unicode="&#x203a;" horiz-adv-x="1159" d="M176 0q0 47 41 72l539 321l-539 322q-41 25 -41 71q0 49 43 73t84 -1l660 -393q41 -25 41 -72t-41 -71l-660 -394q-43 -25 -85 -1t-42 73z" />
<glyph unicode="&#x205f;" horiz-adv-x="407" />
<glyph unicode="&#x2122;" horiz-adv-x="2439" d="M1239 -2v985q0 33 23.5 57.5t57.5 24.5q43 0 64 -31l356 -479l355 479q25 31 65 31q33 0 58.5 -24.5t25.5 -57.5v-985q0 -35 -24.5 -58.5t-57.5 -23.5t-57.5 23.5t-24.5 58.5v741l-274 -370q-25 -33 -64 -33q-43 0 -65 33l-273 370v-741q0 -35 -24.5 -58.5t-56.5 -23.5 q-35 0 -59.5 24.5t-24.5 57.5zM61 909v72q0 35 25 59.5t59 24.5h752q35 0 60.5 -24.5t25.5 -59.5v-72q0 -35 -24.5 -59.5t-59.5 -24.5q-33 0 -55.5 20.5t-26.5 51.5h-211v-897q0 -35 -24.5 -59.5t-59.5 -24.5t-59.5 24.5t-24.5 59.5v897h-209q-4 -29 -26.5 -50.5 t-55.5 -21.5q-35 0 -60.5 24.5t-25.5 59.5z" />
<glyph unicode="&#xe000;" horiz-adv-x="895" d="M0 895h895v-895h-895v895z" />
<glyph unicode="&#xfb01;" horiz-adv-x="1462" d="M1030 811q0 35 25 59.5t59 24.5h72q35 0 60.5 -24.5t25.5 -59.5v-811q0 -35 -24.5 -59.5t-59.5 -24.5t-59.5 24.5t-24.5 59.5v729q-31 4 -52.5 27.5t-21.5 54.5zM143 811q0 35 25 59.5t59 24.5h516q35 0 60.5 -24.5t25.5 -59.5v-72q0 -35 -24.5 -59.5t-59.5 -24.5 q-31 0 -54 20.5t-27 51.5h-281v-289h293q35 0 60.5 -24.5t25.5 -59.5t-24.5 -59.5t-59.5 -24.5h-293v-270q0 -35 -24.5 -59.5t-59.5 -24.5t-59.5 24.5t-24.5 59.5v729q-31 4 -52.5 27.5t-21.5 54.5z" />
<glyph unicode="&#xfb02;" horiz-adv-x="1736" d="M1012 0q0 33 20.5 56.5t51.5 27.5v729q0 35 24.5 59.5t59 24.5t59.5 -24.5t25 -59.5v-729h237q4 31 26.5 51.5t55.5 20.5q35 0 59.5 -25t24.5 -59v-72q0 -35 -24.5 -59.5t-59.5 -24.5h-475q-35 0 -59.5 24.5t-24.5 59.5zM143 811q0 35 25 59.5t59 24.5h516 q35 0 60.5 -24.5t25.5 -59.5v-72q0 -35 -24.5 -59.5t-59.5 -24.5q-31 0 -54 20.5t-27 51.5h-281v-289h293q35 0 60.5 -24.5t25.5 -59.5t-24.5 -59.5t-59.5 -24.5h-293v-270q0 -35 -24.5 -59.5t-59.5 -24.5t-59.5 24.5t-24.5 59.5v729q-31 4 -52.5 27.5t-21.5 54.5z" />
<glyph unicode="&#xfb03;" horiz-adv-x="2349" d="M1917 811q0 35 25 59.5t59 24.5h72q35 0 60.5 -24.5t25.5 -59.5v-811q0 -35 -24.5 -59.5t-59.5 -24.5t-59.5 24.5t-24.5 59.5v729q-31 4 -52.5 27.5t-21.5 54.5zM1030 811q0 35 25 59.5t59 24.5h516q35 0 60.5 -24.5t25.5 -59.5v-72q0 -35 -24.5 -59.5t-59.5 -24.5 q-31 0 -54 20.5t-27 51.5h-281v-289h293q35 0 60.5 -24.5t25.5 -59.5t-24.5 -59.5t-59.5 -24.5h-293v-270q0 -35 -24.5 -59.5t-59.5 -24.5t-59.5 24.5t-24.5 59.5v729q-31 4 -52.5 27.5t-21.5 54.5zM143 811q0 35 25 59.5t59 24.5h516q35 0 60.5 -24.5t25.5 -59.5v-72 q0 -35 -24.5 -59.5t-59.5 -24.5q-31 0 -54 20.5t-27 51.5h-281v-289h293q35 0 60.5 -24.5t25.5 -59.5t-24.5 -59.5t-59.5 -24.5h-293v-270q0 -35 -24.5 -59.5t-59.5 -24.5t-59.5 24.5t-24.5 59.5v729q-31 4 -52.5 27.5t-21.5 54.5z" />
<glyph unicode="&#xfb04;" horiz-adv-x="2623" d="M1899 0q0 33 20.5 56.5t51.5 27.5v729q0 35 24.5 59.5t59 24.5t59.5 -24.5t25 -59.5v-729h237q4 31 26.5 51.5t55.5 20.5q35 0 59.5 -25t24.5 -59v-72q0 -35 -24.5 -59.5t-59.5 -24.5h-475q-35 0 -59.5 24.5t-24.5 59.5zM1030 811q0 35 25 59.5t59 24.5h516 q35 0 60.5 -24.5t25.5 -59.5v-72q0 -35 -24.5 -59.5t-59.5 -24.5q-31 0 -54 20.5t-27 51.5h-281v-289h293q35 0 60.5 -24.5t25.5 -59.5t-24.5 -59.5t-59.5 -24.5h-293v-270q0 -35 -24.5 -59.5t-59.5 -24.5t-59.5 24.5t-24.5 59.5v729q-31 4 -52.5 27.5t-21.5 54.5zM143 811 q0 35 25 59.5t59 24.5h516q35 0 60.5 -24.5t25.5 -59.5v-72q0 -35 -24.5 -59.5t-59.5 -24.5q-31 0 -54 20.5t-27 51.5h-281v-289h293q35 0 60.5 -24.5t25.5 -59.5t-24.5 -59.5t-59.5 -24.5h-293v-270q0 -35 -24.5 -59.5t-59.5 -24.5t-59.5 24.5t-24.5 59.5v729 q-31 4 -52.5 27.5t-21.5 54.5z" />
</font>
</defs>
</svg>
